<?xml version="1.0" standalone="no"?>
<svg version="1.1" id="Layer_1" xmlns="http://www.w3.org/2000/svg" xmlns:xlink="http://www.w3.org/1999/xlink" x="0px" y="0px" width="595.28px" height="595.28px" viewBox="0 0 595.28 595.28" enable-background="new 0 0 595.28 595.28" xml:space="preserve">
<path id="color_x5F_2" fill="#b5ff63" d="M244.353,204.829c-0.353,0.198-0.711,0.388-1.062,0.592
	c-1.962-1.895-4.666-4.294-8.117-6.883c-0.681-0.511-1.299-1.13-1.866-1.829c0.377-0.171,0.753-0.344,1.132-0.51
	C237.116,199.712,240.506,202.734,244.353,204.829z M231.097,174.656c-0.275-9.642,3.196-17.752,9.85-24.171
	c5.38-3.885,12.002-7.172,17.764-9.37c3.128-0.56,6.377-0.717,9.77-0.574c8.111,0.343,18.274,3.127,20.8,11.857
	c-0.149,1.039-0.426,2.179-0.9,3.358c-4.166,4.79-16.567,11.039-21.837,14.402c-0.86,0.251-1.369,0.379-1.369,0.379
	s-0.098,0.265-0.232,0.735c-0.202,0.16-0.38,0.312-0.508,0.444c-4.077,4.228-0.532,13.46,0.66,18.096
	c0.914,3.556,1.991,7.359,1.346,11.044c-0.205,1.172-0.785,2.05-1.609,2.701c-0.411-0.122-0.565,0.069-0.548,0.376
	c-3.62,2.188-10.654,1.027-13.648,0.181c-5.289-1.495-9.576-4.954-12.781-9.327c1.797-0.693,3.622-1.318,5.486-1.843
	c3.128-0.879-0.991-2.25-2.529-1.817c-1.506,0.423-2.98,0.918-4.441,1.443c-2.883-4.712-4.637-10.191-5.122-15.389
	c-0.052-0.553-0.075-1.095-0.103-1.638C231.611,175.246,231.499,174.928,231.097,174.656z M257.651,179.969
	c0.001,0.704,2.383,1.347,2.381,0.472c-0.009-4.775-0.358-12.066,5.42-13.645c0.917-0.25-1.217-1.365-1.887-1.182
	C257.352,167.312,257.641,174.766,257.651,179.969z M250.772,201.523c3.257,0.872,7.692,1.914,10.668-0.338
	c2.624-1.985,2.078-5.813,1.607-8.646c-0.134-0.802-2.556-0.213-2.41,0.666c0.369,2.215,0.874,5.042-0.496,7.026
	c-1.45,2.102-6.031,0.488-7.896-0.011C251.495,200.019,249.412,201.159,250.772,201.523z M232.842,193.932
	c-1.075-1.688-1.987-3.46-2.709-5.277c-0.282-0.71-0.54-1.444-0.785-2.188c-0.038,0.011-0.075,0.024-0.113,0.035
	c0.521,2.949,1.354,5.65,2.54,7.869C232.128,194.219,232.486,194.078,232.842,193.932z M207.308,315.659
	c0.067,0.032,0.128,0.063,0.196,0.095c-0.001-0.015-0.004-0.029-0.006-0.044C207.435,315.693,207.372,315.676,207.308,315.659z
	 M334.554,211.65c-21.987,0.791-43.978,4.13-65.987,3.728c-1.207-0.022-2.992-4.364-2.115-4.348c3.754,0.068,7.508,0.02,11.26-0.102
	l0.936-2.807c0.022-1.138,0.256-2.306,0.608-3.439c-2.291,0.34-4.586,0.646-6.888,0.87c-1.764,0.171-4.115,0.646-6.022,0.223
	c-3.434,2.095-8.441,2.46-12.489,2.059c-1.628-0.162-3.219-0.516-4.768-1.002c-0.967,0.513-1.926,1.044-2.87,1.603
	c0.63,0.698,0.956,1.103,0.956,1.103h-2.716c-5.25,3.317-10.115,7.32-14.549,11.809c-4.582,4.992-9.657,11.258-13.735,18.191
	c-3.43,5.83-6.741,12.248-9.612,18.407c-2.695,7.01-4.722,14.34-6.104,21.673c-1.994,10.58-2.511,21.55,2.638,31.351
	c0.155,0.294,0.217,0.56,0.215,0.798c1.813,0.54,3.689,1.027,5.617,1.458c0.892-0.254,1.972-0.063,2.653,0.549
	c19.18,3.677,42.51,1.698,56.609-11.02c0.028-1.886,0.102-5.125,0.298-8.988c-1.286-7.326-0.534-15.679,1.148-22.204
	c2.111-8.187,6.314-15.59,8.861-23.603c-5.011,1.911-9.845,4.265-14.375,7.354c-1.149,0.784-5.138-2.039-3.898-2.884
	c13.558-9.246,29.975-12.114,45.669-15.78c14.371-3.357,29.027-6.893,43.711-8.546c11.016-1.24,22.184-1.771,33.269-1.661
	c1.357,0.013,2.901-0.077,4.412-0.025l0.636-12.072c-7.637-2.208-15.67-2.813-23.615-2.943
	C354.398,211.242,344.457,211.294,334.554,211.65z M388.112,210.728l0.063-1.19c0,0-1.647-0.062-4.497-0.158
	C385.178,209.773,386.653,210.229,388.112,210.728z M295.175,209.538c-0.888,0.205-1.73,0.393-2.544,0.571
	c7.656-0.558,15.311-1.261,22.966-1.842C306.08,208.403,298.472,208.777,295.175,209.538z M401.888,141.14
	c-0.771,8.333-5.505,16.78-10.759,23.677c-4.922-6.074-8.967-12.896-11.271-20.392c-2.281-7.417-0.115-15.493,5.936-18
	c-0.029,0.135,0.249,0.134,1.067-0.125c1.099-0.348,2.138-0.557,3.122-0.655c1.41,0.004,2.946,0.236,4.612,0.75
	c0.181,0.056,0.404,0.046,0.648-0.003C400.159,128.549,402.484,134.697,401.888,141.14z M399.673,139.493
	c0.211-5.602-5.251-9.186-10.232-7.804c-0.38-0.023-0.764,0.018-1.122,0.161c-3.645,1.455-6.289,4.635-6.087,8.702
	c0.204,4.1,3.595,6.472,7.421,6.808C394.559,147.79,399.48,144.59,399.673,139.493z M390.864,135.06
	c-0.282,0.117-0.581,0.174-0.88,0.184c-1.544,0.904-2.635,2.566-2.75,4.376c-0.092,1.44,0.218,3.527,1.764,4.163
	c1.949,0.801,4.795-0.681,5.413-2.648C395.117,138.884,394.06,133.731,390.864,135.06z"></path>
<path id="color_x5F_1" d="M289.443,173.834c2.502,2.624,8.004,12.509,0.954,12.778c-0.61,0.023-1.608-2.129-1.111-2.148
	c5.365-0.204,2.523-6.876,0.286-9.222C289.147,174.795,288.342,172.68,289.443,173.834z M280.335,178.945
	c-1.511,1.393-3.62,1.602-5.578,1.315c-0.354-0.052,0.286,0.844,0.32,0.887c0.263,0.33,0.727,0.936,1.184,1.002
	c1.998,0.293,4.211,0.069,5.754-1.352C282.335,180.502,280.648,178.657,280.335,178.945z M291.388,174.818
	c0.734,0.927,1.855,1.611,3.083,1.427c1.001-0.149,1.537-1.132,1.889-1.978c0.313-0.752-2.037-1.594-2.371-0.791
	c-0.174,0.417-0.374,0.807-0.676,1.142c-0.352-0.269-0.799-0.417-1.24-0.438C291.764,174.165,291.018,174.35,291.388,174.818z
	 M290.802,190.19c-0.782,0.506-1.555,0.811-2.494,0.6c-1.587-0.356-1.634,1.855-0.266,2.162c1.511,0.339,2.869,0.109,4.172-0.733
	C293.416,191.443,291.904,189.478,290.802,190.19z M260.032,180.441c-0.009-4.775-0.358-12.066,5.42-13.645
	c0.917-0.25-1.217-1.365-1.887-1.182c-6.214,1.697-5.924,9.151-5.914,14.355C257.652,180.673,260.034,181.316,260.032,180.441z
	 M261.44,201.185c2.624-1.985,2.078-5.813,1.607-8.646c-0.134-0.802-2.556-0.213-2.41,0.666c0.369,2.215,0.874,5.042-0.496,7.026
	c-1.45,2.102-6.031,0.488-7.896-0.011c-0.751-0.201-2.834,0.939-1.474,1.303C254.029,202.395,258.464,203.437,261.44,201.185z
	 M430.044,378.063c-9.638,4.504-16.022,13.062-24.683,18.938c-8.868,6.017-19.831,7.012-30.258,7.581
	c-23.597,1.29-47.166,2.965-70.809,3.041c-0.094,0.023-0.234,0.024-0.412,0.004c-0.103,0-0.205,0.003-0.308,0.003
	c-0.504,0.001-0.928-0.16-1.271-0.417c-0.484-0.177-0.976-0.398-1.39-0.651c-2.286,0.503-4.703,1.448-6.571,1.949
	c-5.7,1.528-11.368,3.175-17.024,4.859c-0.395,0.118-0.788,0.241-1.182,0.358c0.184,0.167,0.315,0.396,0.359,0.712
	c1.743,12.634,1.696,26.867-5.605,37.926c-5.7,8.633-14.508,14.734-24.185,18.207c-23.144,8.305-47.846,0.704-58.522-22.302
	c-0.372-0.801,0.199-1.663,1.046-2.261c-6.622,3.328-12.986,7.123-18.535,11.839c-0.107,0.092-0.29,0.188-0.514,0.282
	c0.076,0.223,0.153,0.446,0.228,0.669c0.117,0.348-0.893,0.217-1.986-0.169c-1.311,0.245-2.478,0.193-1.485-0.691
	c-0.494-0.303-0.879-0.646-0.998-0.999c-2.555-7.603-5.655-15.03-7.566-22.838c-1.532-6.261-2.309-12.783-1.78-19.135
	c-0.461-11.231,2.851-22.376,2.785-33.609c-9.265-0.277-17.651-3.923-21.348-14.078c-0.686-1.884,3.816-0.117,4.288,1.18
	c3.13,8.598,9.837,10.849,18.418,9.854c6.576-0.762,13.024-2.467,19.436-4.056c19.279-4.778,38.504-9.971,57.801-14.616
	c12.132-2.921,24.382-5.365,36.33-9.012c6.039-1.843,12.168-3.819,17.79-6.737c3.131-1.625,6.707-3.557,8.595-6.668
	c-3.034,0.189-6.115,0.595-9.305,1.152c-17.418,3.042-35.395,6.679-52.928,2.241c-2.057-0.521-4.235-1.157-6.445-1.919
	c-2.721-0.558-5.049-1.27-6.835-2.163c-2.328-1.164-4.262-2.496-5.88-3.904c-2.46-1.623-4.706-3.479-6.569-5.6
	c-2.536,0.803-5.389,1.211-7.704,1.854c-2.705,0.75-5.417,1.496-8.083,2.379c-0.837,0.278-3.446,1.304-4.236,1.501
	c1.177,2.612,2.373,5.213,3.6,7.797c0.814,0.476,1.475,0.92,1.54,0.866c-8.579,7.059-19.594,10.805-29.961,14.368
	c-7.31,2.513-14.505,5.289-21.777,7.907c-12.524,4.509-25.11,8.854-37.717,13.128c-0.859,0.292-4.081-0.909-4.503-1.722
	c-4.202-8.102-8.321-16.25-12.375-24.429c-4.594,1.988-9.029,4.36-13.473,6.669c-1.2,0.623-5.927-0.244-3.54-1.484
	c5.205-2.705,10.395-5.42,15.816-7.597c-1.206-2.442-2.402-4.889-3.595-7.337c-11.77,3.375-22.661,9.099-33.567,14.57
	c-1.205,0.604-5.939-0.281-3.54-1.484c11.683-5.86,23.338-11.906,36.023-15.309c-0.325-0.669-0.654-1.335-0.978-2.005
	c-0.749-1.548-1.492-3.101-2.237-4.651c-6.023,2.225-11.714,5.275-17.413,8.236c-1.2,0.623-5.927-0.244-3.54-1.484
	c6.476-3.365,12.92-6.762,19.827-9.094c-3.499-7.328-6.923-14.694-10.139-22.149c-2.767-6.415-5.864-13.043-7.313-19.918
	c0.026,0.122,0.846,0.233,1.791,0.421c5.501-2.826,11.622-4.728,17.392-6.868c0.784-0.291,1.57-0.572,2.354-0.862
	c-0.542-0.076-1.082-0.173-1.614-0.294c-3.245-0.736-6.639-2.896-8.964-5.237c-3.171-3.191-5.554-9.273-9.584-11.55
	c-4.99,1.254-10.005,3.897-15.344,5.492c-6.853,2.047-15.489,1.463-21.241-3.233c-11.073-9.042-6.499-25.125,5.767-30.63
	c11.647-5.228,26.114-2.556,37.446,2.268c8.266,3.519,17.765,8.918,22.973,16.825c-0.111-0.624,0.477-1.463,1.475-1.547
	c9.797-0.817,18.744,1.206,27.711,5.097c1.709,0.742-0.377,2.578-1.654,2.023c-8.524-3.699-16.957-5.682-26.289-4.903
	c-0.412,0.034-0.708-0.04-0.914-0.175c1.151,1.835,2.074,3.8,2.695,5.908c3.768-0.265,7.509,0.428,11.212,1.337
	c1.67,0.41-0.778,1.882-1.756,1.642c-2.686-0.659-5.497-1.306-8.294-1.359c0.011,4.358,0.441,10.28-2.124,14.127
	c5.858-2.124,11.723-4.233,17.591-6.327c13.988-4.992,27.994-9.937,42.014-14.835c-5.503-0.805-11.089-2.875-16.432-4.274
	c-11.809-3.094-23.614-6.204-35.418-9.316c-17.413-4.591-34.824-9.189-52.233-13.794c-0.994-0.263-1.68-1.018-1.895-1.99
	c-0.757-3.429-3.291-9.766-1.939-13.148c0.476-1.191,2.023-1.309,3.249-0.835c0.354-0.23,0.868-0.347,1.586-0.253
	c5.686,0.739,11.475,2.917,17.002,4.365c11.809,3.094,23.614,6.204,35.418,9.316c17.413,4.591,34.823,9.189,52.232,13.794
	c0.994,0.263,1.68,1.018,1.895,1.99c0.757,3.427,3.293,9.768,1.939,13.148c-0.089,0.222-0.224,0.397-0.378,0.548
	c0.45,0.286,0.815,0.676,0.996,1.153c9.154,24.172,17.797,48.879,28.207,72.625c2.654-1.292,6.399-1.932,8.12-2.426
	c2.973-0.854,7.794-1.596,11.131-2.692c-1.268-2.232-2.129-4.7-2.46-7.421c-0.001-0.015-0.004-0.029-0.006-0.044
	c-0.063-0.017-0.126-0.034-0.19-0.051c-1.977-0.524-3.936-1.118-5.865-1.805c-0.247-0.088-0.587-0.336-0.944-0.655
	c-0.816-0.104-1.579-0.458-1.912-1.093c-5.146-9.797-5.399-20.873-3.381-31.58c1.956-10.376,4.82-20.952,9.38-30.511
	c8.456-17.73,21.527-34.567,38.706-44.594c0.35-0.204,0.708-0.394,1.062-0.592c-3.847-2.095-7.237-5.117-9.913-8.63
	c-0.379,0.166-0.755,0.339-1.132,0.51c-4.05,1.836-7.993,3.927-11.938,5.977c-1.2,0.623-5.927-0.244-3.54-1.484
	c4.604-2.393,9.193-4.801,13.943-6.832c0.354-0.151,0.712-0.292,1.068-0.438c-1.075-1.688-1.987-3.46-2.709-5.277
	c-0.282-0.71-0.54-1.444-0.785-2.188c-0.038,0.011-0.075,0.024-0.113,0.035c-11.458,3.402-22.096,8.992-32.75,14.337
	c-1.205,0.604-5.939-0.281-3.54-1.484c11.588-5.813,23.15-11.805,35.715-15.223c-0.624-2.357-1.068-4.826-1.283-7.334
	c-6.633,2.251-12.827,5.602-19.037,8.828c-1.2,0.623-5.927-0.244-3.54-1.484c7.285-3.785,14.535-7.605,22.444-9.908
	c-0.146-6.024,1.025-12.071,3.986-16.979c4.876-8.083,13.137-15.112,22.25-17.934c11.979-3.709,33.43-2.828,38.914,10.742
	c3.981-0.24,8.73-0.814,12.071,1.293c2.822,1.78,5.618,5.535,3.301,8.861c-2.232,3.205-5.797,5.315-9.505,6.939
	c3.575,8.395,11.194,24.554,2.687,30.291c-4.766,3.215-10.556,4.546-16.345,5.452c0.284,0.429,0.37,0.844,0,0.931
	c0.037,0.308,0,0.637-0.145,0.986c-0.508,1.226-1.742,4.462-0.406,5.544c0.113,0.092,0.201,0.187,0.292,0.281
	c2.763-0.149,5.525-0.33,8.288-0.531c7.656-0.558,15.311-1.261,22.966-1.842c5.612-0.426,11.226-0.784,16.841-0.964
	c16.379-0.527,34.934-2.2,51.24,2.077c1.5,0.393,2.976,0.849,4.435,1.348c0.897,0.308,1.793,0.619,2.672,0.97
	c0.277,0.111,0.548,0.384,0.8,0.735c0.513,0.077,1.037,0.28,1.487,0.589c6.849-1.918,20.603-4.305,25.625,1.497
	c3.859-1.826,7.571-4.153,11.812-4.776c-0.955-0.833-1.317-2.005,0.029-2.661c3.375-1.645,9.082-4.017,11.979-0.191
	c1.659,2.192,2.926,4.777,4.266,7.167c4.313,7.694,8.762,15.547,11.935,23.81c0.841,1.081,1.352,2.648,0.545,3.284
	c-1.772,1.396-6.664,5.561-9.307,4.154c-4.882,2.277-9.681,3.579-14.346,3.706c8.156,8.966,14.775,19.661,20.192,30.335
	c7.641,15.056,13.335,31.375,13.921,48.356c8.859-2.38,18.541-1.67,27.353,0.54c11.935,2.993,23.658,9.193,31.416,18.952
	c9.874,12.419,11.633,28.115,9.489,43.382c0.522,0.143,0.815,0.364,0.619,0.642c-0.202,0.286-0.487,0.506-0.812,0.695
	c-0.023,0.149-0.041,0.3-0.064,0.45c-0.039,0.243-0.574,0.222-1.258,0.038c-1.849,0.399-4.409,0.14-6.718-0.243
	c-0.034,0.155-0.089,0.323-0.175,0.509c-10.234,22.1-29.613,39.549-55.389,34.704c-11.396-2.143-22.025-7.693-29.591-16.58
	c-7.926-9.31-10.219-21.229-8.782-33.096c-1.626-0.101-3.252-0.176-4.875-0.186c-0.063,0-0.109-0.006-0.168-0.007
	C430.592,377.724,430.355,377.917,430.044,378.063z M93.068,272.567c1.193-2.946,1.498-6.082,1.577-9.229
	c-0.675-0.135-1.253-0.547-1.48-1.32c-3.024-10.295-14.092-17.129-23.458-20.931c-9.778-3.97-22.564-7.169-32.719-2.611
	c-5.717,2.566-10.884,8.845-9.904,15.491c1.11,7.522,8.745,12.11,16.057,11.632c7.826-0.512,14.69-5.246,22.244-7.05
	c6.773-1.618,12.957,0.116,18.393,4.306c2.522,1.945-1.009,5.068-3.21,3.372c-4.875-3.758-9.51-4.186-14.144-3.245
	c4.802,3.404,7.229,8.437,11.635,12.873C82.207,280.03,90.925,277.858,93.068,272.567z M156.843,251.354
	c0.155,0.02,0.303,0.055,0.445,0.095c0.054-1.738-0.806-4.274-1.064-5.594c-0.263-1.344-0.548-2.683-0.832-4.022
	c-16.565-4.381-33.13-8.756-49.698-13.125c-11.882-3.133-23.765-6.265-35.651-9.379c-4.012-1.051-8.023-2.103-12.038-3.142
	c-1.178-0.305-2.355-0.61-3.535-0.908c-0.371-0.094-2.069-0.381-0.856-0.224c-0.155-0.02-0.302-0.055-0.444-0.095
	c-0.054,1.738,0.806,4.274,1.063,5.594c0.263,1.344,0.548,2.683,0.832,4.022c16.565,4.381,33.131,8.756,49.699,13.125
	c11.882,3.133,23.765,6.265,35.651,9.379c4.012,1.051,8.023,2.103,12.038,3.142c1.178,0.305,2.355,0.61,3.535,0.908
	C156.357,251.225,158.056,251.512,156.843,251.354z M191.596,340.882c-12.62-26.593-22.435-54.769-32.816-82.318
	c-13.593,4.75-27.172,9.541-40.734,14.381c-10.561,3.769-21.117,7.552-31.63,11.452c-5.771,2.141-11.986,3.983-17.471,6.835
	c1.698,6.761,4.791,13.322,7.57,19.646c2.627,5.979,5.365,11.908,8.158,17.812c1.671-0.263,5.291,1.021,2.303,1.861
	c-0.417,0.117-0.825,0.258-1.239,0.384c1.474,3.095,2.958,6.185,4.458,9.267c1.113,2.287,2.235,4.569,3.357,6.851
	c1.294-0.454,2.598-0.884,3.927-1.258c1.538-0.433,5.658,0.938,2.529,1.817c-1.804,0.507-3.569,1.113-5.31,1.778
	c4.043,8.193,8.157,16.352,12.344,24.471c11.235-3.82,22.454-7.693,33.619-11.713c7.163-2.578,14.247-5.335,21.446-7.809
	C172.196,350.871,182.967,347.373,191.596,340.882z M479.624,385.15c0.989,2.413,2.92,5.402,5.9,5.402
	c2.843,0,4.766-2.44,6.048-4.72c-8.463-1.409-16.927-2.814-25.404-4.125c0.341,8.481,3.015,16.906,12.239,19.317
	c10.795,2.821,19.609-3.312,22.896-13.565c-2.365-0.397-4.731-0.794-7.097-1.189c-1.944,3.326-5.048,6.239-9.13,6.239
	c-4.175,0-6.855-2.94-8.351-6.583C476.257,384.783,479.127,383.94,479.624,385.15z M526.295,391.506
	c-0.525-0.104-0.977-0.19-1.315-0.24c-0.356-0.053-0.712-0.11-1.067-0.164l2.244,0.502
	C526.201,391.571,526.246,391.538,526.295,391.506z M533.846,391.092c-0.002-0.002-0.004-0.004-0.006-0.006
	c-0.03,0.035-0.062,0.066-0.089,0.104C533.776,391.154,533.814,391.125,533.846,391.092z M462.297,335.648
	c-13.406,9.149-25.342,23.968-29.523,39.931c1.3,0.015,2.602,0.052,3.905,0.105c1.286-1.055,3.71-1.424,3.771,0.202
	c7.496,0.494,15.025,1.518,22.522,2.74c1.364-0.798,3.17-0.963,3.152,0.406c0,0.039,0.001,0.079,0,0.118
	c7.494,1.27,14.945,2.682,22.285,3.896c5.001,0.827,10,1.668,15,2.503c1.179-0.446,2.432-0.438,2.563,0.421
	c4.569,0.76,9.14,1.518,13.714,2.246c3.777,0.601,7.556,1.206,11.349,1.698c0.754,0.098,1.508,0.191,2.264,0.276
	c-0.003-0.048-0.014-0.097-0.006-0.145c2.382-14.853,1.298-31.187-8.415-43.404c-7.367-9.265-18.219-14.783-29.782-16.744
	C483.623,327.953,472.144,328.927,462.297,335.648z M433.86,210.469c2.774,6.692,6.451,13.074,9.91,19.419
	c1.825,3.348,3.664,6.688,5.502,10.03c0.251,0.455,0.501,0.911,0.751,1.367c0.006-0.002,0.011-0.004,0.016-0.006
	c-0.062-0.121-0.123-0.242-0.185-0.362c0.687-0.261,1.356-0.559,2.01-0.895c0.815-0.441,1.597-0.905,2.356-1.399
	c-2.422-6.42-5.787-12.547-9.062-18.557c-1.6-2.937-3.216-5.867-4.914-8.749c-0.505-0.856-1.001-1.721-1.544-2.555
	C438.011,207.7,434.806,209.985,433.86,210.469z M394.241,214.886c0.005,0.059,0.019,0.114,0.019,0.174
	c-0.023,4.022-0.313,8.029-0.644,12.037c2.49-1.681,3.239-4.846,5.801-6.639c2.197-1.538,4.447-1.495,6.995-0.989
	c2.766,0.549,5.775,1.96,6.317,4.943c0.525,2.89-5.481,9.59-2.605,11.096c1.721,0.902,4.919-6.735,5.241-7.712
	c0.926-2.814,1.979-6.222,1.522-9.229c-1.481-9.765-16.294-5.724-22.527-3.703C394.326,214.875,394.282,214.879,394.241,214.886z
	 M408.838,225.832c0.905-4.384-4.441-6.537-7.081-3.161c-1.133,1.448-2.07,2.989-3.254,4.253c0.639-0.005,1.276,0.039,1.89,0.118
	c0.211,0.027,0.635,0.127,1.01,0.296c0.753-0.025,1.641,0.122,1.994,0.396c1.012,0.786,2.229,2.026,2.999,3.417
	C407.428,229.452,408.457,227.675,408.838,225.832z M398.809,236.057c2.041,0.316,4.691-0.254,4.58-2.809
	c-0.077-1.755-1.139-3.419-2.452-4.566c-0.332-0.003-0.649-0.044-0.821-0.067C395.536,228.022,394.333,235.364,398.809,236.057z
	 M294.913,168.504c-0.881,0.331-1.752,0.646-2.593,0.949c-8.025,2.896-16.388,5.251-24.985,5.153
	c-0.236-0.002-0.508-0.128-0.784-0.319c-1.242,2.862,0.874,9.542,1.408,11.637c1.022,4.006,2.241,8.024,2.401,12.181
	c0.098,2.536-0.646,4.472-1.919,5.931c1.728-0.139,3.571-0.547,4.734-0.689c0.658-0.081,1.314-0.179,1.971-0.266
	c0.185-0.056,0.387-0.106,0.628-0.143c1.53-0.234,3.064-0.45,4.597-0.675c0.59-0.515,1.483-0.591,2.301-0.356
	c1.596-0.255,3.188-0.533,4.766-0.887c3.749-0.84,10.505-2.044,12.282-6.079C303.194,187.056,298.311,176.523,294.913,168.504z
	 M293.467,152.926c-0.474,4.125-7.479,8.525-9.883,10.194c-4.429,3.076-9.495,5.489-13.979,8.528
	c8.122-0.6,16.615-2.935,24.04-6.243c-0.101-0.306,0.808-0.669,1.759-0.811c0.543-0.259,1.083-0.521,1.612-0.791
	c2.051-1.043,4.246-2.188,5.938-3.778c1.258-1.182,5.422-5.872,0.838-6.815C300.356,152.504,296.933,152.832,293.467,152.926z
	 M250.635,204.115c2.994,0.846,10.028,2.007,13.648-0.181c-0.017-0.308,0.137-0.499,0.548-0.376
	c0.824-0.651,1.404-1.529,1.609-2.701c0.646-3.686-0.432-7.489-1.346-11.044c-1.192-4.635-4.737-13.868-0.66-18.096
	c0.128-0.132,0.307-0.284,0.508-0.444c0.406-0.322,0.941-0.693,1.601-1.114c5.27-3.364,17.671-9.613,21.837-14.402
	c0.8-0.919,1.292-1.784,1.374-2.565c-0.195-0.165-0.349-0.375-0.425-0.65c-0.014-0.05-0.035-0.094-0.049-0.143
	c-2.525-8.73-12.689-11.514-20.8-11.857c-3.393-0.144-6.642,0.014-9.77,0.574c-4.502,0.805-8.754,2.451-12.811,5.293
	c-1.813,1.27-3.458,2.634-4.953,4.077c-6.654,6.419-10.125,14.53-9.85,24.171c0.401,0.271,0.514,0.59,0.048,0.888
	c0.028,0.543,0.051,1.085,0.103,1.638c0.485,5.198,2.239,10.677,5.122,15.389c1.461-0.525,2.936-1.02,4.441-1.443
	c1.538-0.433,5.658,0.938,2.529,1.817c-1.864,0.524-3.689,1.15-5.486,1.843C241.06,199.161,245.347,202.62,250.635,204.115z
	 M208.929,313.226c0.892-0.254,1.972-0.063,2.653,0.549c19.18,3.677,42.51,1.698,56.609-11.02c0.786-0.708,1.535-1.458,2.261-2.234
	c-0.898-2.076-1.542-4.356-1.963-6.754c-1.286-7.326-0.534-15.679,1.148-22.204c2.111-8.187,6.314-15.59,8.861-23.603
	c-5.011,1.911-9.845,4.265-14.375,7.354c-1.149,0.784-5.138-2.039-3.898-2.884c13.558-9.246,29.975-12.114,45.669-15.78
	c14.371-3.357,29.027-6.893,43.711-8.546c11.016-1.24,22.184-1.771,33.269-1.661c1.357,0.013,2.901-0.077,4.412-0.025
	c0.499,0.018,0.993,0.047,1.477,0.105c0-0.058-0.011-0.113-0.006-0.173c0.317-3.847,0.595-7.694,0.65-11.554
	c-0.493-0.158-0.989-0.306-1.485-0.45c-7.637-2.208-15.67-2.813-23.615-2.943c-9.908-0.161-19.85-0.109-29.753,0.247
	c-21.987,0.791-43.978,4.13-65.987,3.728c-1.207-0.022-2.992-4.364-2.115-4.348c3.754,0.068,7.508,0.02,11.26-0.102
	c0.466-0.015,0.932-0.027,1.398-0.044c-0.346-0.872-0.481-1.805-0.462-2.762c0.022-1.138,0.256-2.306,0.608-3.439
	c-2.291,0.34-4.586,0.646-6.888,0.87c-1.764,0.171-4.115,0.646-6.022,0.223c-3.434,2.095-8.441,2.46-12.489,2.059
	c-1.628-0.162-3.219-0.516-4.768-1.002c-0.967,0.513-1.926,1.044-2.87,1.603c-0.595,0.353-1.175,0.733-1.76,1.103
	c-5.25,3.317-10.115,7.32-14.549,11.809c-8.659,8.768-15.68,19.354-20.667,30.213c-0.96,2.09-1.85,4.224-2.68,6.385
	c-2.695,7.01-4.722,14.34-6.104,21.673c-1.994,10.58-2.511,21.55,2.638,31.351c0.155,0.294,0.217,0.56,0.215,0.798
	C205.124,312.308,207.001,312.795,208.929,313.226z M406.083,344.738c-4.356,3-10.187,6.977-15.291,3.83
	c-0.674,4.081-2.177,8.067-4.532,11.251c4.957,1.947,10.594,3.403,15.135,0.932c3.398-1.849,6.313-4.648,8.91-7.479
	c3.54-3.857,6.887-8.038,9.417-12.64c1.064-1.935,2.97-5.268,3.399-8.242C416.86,335.187,411.591,340.945,406.083,344.738z
	 M383.006,356.058c0.563-0.759,1.073-1.565,1.532-2.412C384.074,354.433,383.563,355.25,383.006,356.058z M382.235,344.816
	c-2.063-1.631-4.196-3.194-6.347-4.727C378.326,341.894,380.48,343.5,382.235,344.816z M305.222,337.119
	c0.413,0.436,0.636,0.901,0.467,1.309c-0.577,1.388-1.48,2.604-2.574,3.68c0.365,0.427,0.621,0.946,0.657,1.534
	c0.389,6.402-2.182,12.403-4.211,18.34c-2.212,6.472-5.08,15.237,1.437,20.302c11.71,9.102,30.612,5.271,44.246,3.98
	c16.145-1.528,34,0.29,49.053-6.783c17.109-8.039,28.503-25.461,39.925-39.793c0.125-0.157,0.261-0.281,0.402-0.388
	c8.908-15.358,6.957-35.226,2.068-51.908c-5.374,1.017-10.643,2.556-15.92,4.056c-1.538,0.437-5.655-0.929-2.529-1.817
	c5.887-1.673,11.771-3.379,17.785-4.427c-0.09-0.286-0.178-0.575-0.269-0.858c-0.786-2.448-1.731-4.856-2.78-7.229
	c-12.348,0.794-24.32,4.321-36.213,7.516c-1.537,0.413-5.666-0.975-2.529-1.817c12.463-3.349,24.896-6.805,37.803-7.748
	c-1.15-2.437-2.398-4.836-3.725-7.189c-5.706,1.008-11.285,2.647-16.876,4.236c-1.538,0.438-5.655-0.93-2.529-1.817
	c6.022-1.711,12.04-3.464,18.198-4.503c-1.417-2.425-2.885-4.809-4.369-7.14c-4.919-7.727-10.255-15.798-17.229-21.861
	c-2.202,1.566-5.978,1.284-8.256,0.535c-2.743-0.902-5.796-3.316-4.873-6.616c0.061-0.218,0.133-0.423,0.214-0.619
	c-0.211-0.037-0.439-0.109-0.674-0.202c-0.148-0.026-0.878-0.293-1.936-0.331c-1.601-0.058-3.201-0.086-4.802-0.087
	c-4.101-0.002-8.2,0.076-12.298,0.238c-9.476,0.375-18.96,0.988-28.303,2.68c-14.71,2.664-29.218,6.005-43.792,9.298
	c-5.597,1.265-11.185,2.588-16.622,4.299c-2.414,8.912-7.585,16.925-9.543,25.939c-1.922,8.849-2.936,20.271,0.99,28.631
	c0.086,0.185,0.123,0.353,0.137,0.513c10.341-2.475,22.398-1.697,32.473-0.971c10.704,0.771,19.636,2.652,28.854,8.103
	c10.978,6.49,21.508,13.769,31.904,21.144c7.276,5.161,15.066,10.167,21.673,16.197c0.085,0.077,0.145,0.16,0.209,0.242
	c5.278,1.117,12.494-5.142,15.907-7.759c4.758-3.649,9.717-8.653,15.559-10.48c0.967-0.302,2.348,2.046,2.699,2.674
	c4.59,8.203-5.166,19.711-10.215,25.386c-2.978,3.347-6.959,8.25-11.463,9.59c-6.552,1.949-12.938-0.614-18.938-3.232
	c-2.857,2.85-6.622,4.664-11.318,4.657c-0.593-0.001-1.276-0.531-1.845-1.209c-2.597-0.717-5.491-2.848-7.492-3.861
	c-6.94-3.518-13.862-7.073-20.787-10.624c-7.462-3.826-14.997-8.569-22.955-11.27C314.947,337.938,310.104,337.195,305.222,337.119z
	 M161.29,399.165c0.268-0.476,0.531-0.953,0.824-1.421c5.76-9.198,14.438-15.931,24.122-21.05
	c-5.383,1.348-10.775,2.66-16.216,3.714c-2.672,0.518-5.389,0.854-8.063,0.944c0.242,0.373,0.409,0.735,0.427,1.046
	C162.708,388.005,162.047,393.587,161.29,399.165z M214.748,434.712c4.427,8.763,13.794,15.206,23.892,11.781
	c10.592-3.592,11.398-13.666,9.692-23.404c-0.052-0.296,0.024-0.59,0.175-0.87c-0.954,0.3-1.911,0.593-2.865,0.894
	c-1.819,0.574-3.633,1.177-5.445,1.794c0.722-0.153,1.437-0.098,1.427,0.243c-0.124,4.449-2.203,9-6.915,10.107
	c-4.459,1.048-7.977-0.88-10.414-4.444C221.096,432.084,217.913,433.388,214.748,434.712z M234.391,434.069
	c3.249-1.058,4.252-5.16,4.335-8.143c0.008-0.293,0.266-0.539,0.622-0.724c-4.138,1.426-8.256,2.948-12.35,4.542
	C228.54,432.086,231.396,435.044,234.391,434.069z M272.14,414.94c-1.421,0.428-2.842,0.859-4.262,1.292l4.094-0.996
	C272.017,415.135,272.074,415.037,272.14,414.94z M299.871,405.432c-2.383-6.152-5.12-12.216-8.715-17.767
	c-5.953-9.19-13.957-17.621-24.581-21.216c-8.973-3.037-18.534-3.423-27.886-2.245c-2.311,0.291-4.616,0.668-6.914,1.094
	c-6.344,1.758-12.719,3.391-19.112,4.954c-2.121,0.698-4.229,1.424-6.313,2.197c-10.57,3.92-21.327,8.779-29.913,16.252
	c-11,9.572-16.891,22.482-15.389,37.137c1.076,10.504,4.931,20.215,8.372,30.085c10.81-8.401,24.157-14.02,36.605-19.292
	c12.987-5.5,26.251-10.962,39.715-15.206c12.183-3.839,24.384-7.629,36.65-11.194c5.603-1.628,11.214-3.265,16.882-4.649
	C299.47,405.535,299.671,405.482,299.871,405.432z M427.638,373.68c0.21-0.098,0.418-0.148,0.623-0.178
	c4.51-17.539,19.085-36.054,35.511-43.654c0.461-0.213,0.929-0.403,1.396-0.596c-0.625-17.168-6.542-33.947-14.539-49.019
	c-6.042-11.388-13.191-22.917-22.416-32.067c-4.091-1.091-8.049-3.234-11.831-6.612c-1.965-1.755,1.86-4.905,3.586-3.365
	c8.571,7.654,17.446,8.359,27.362,4.279c-1.536-2.476-2.729-5.765-3.764-7.656c-3.703-6.762-7.686-13.532-10.923-20.573
	c-4.331,0.526-8.191,3.103-12.099,4.934c0.004,0.048,0.014,0.091,0.018,0.14c0.491,6.962-5.761,23.202-13.858,16.143
	c-0.132,0.241-0.282,0.464-0.454,0.664c0.531,0.274,1.013,0.558,1.228,0.738c7.407,6.21,13.213,14.418,18.369,22.516
	c1.262,1.981,2.538,3.997,3.794,6.046c1.284-0.172,2.574-0.321,3.874-0.416c2.152-0.157,4.737,1.787,1.336,2.034
	c-1.332,0.097-2.651,0.256-3.966,0.439c1.505,2.523,2.955,5.095,4.283,7.714c0.508,0.238,0.664,0.618,0.485,0.977
	c1.377,2.795,2.602,5.645,3.593,8.544c1.195-0.155,2.394-0.288,3.602-0.376c2.152-0.157,4.737,1.787,1.336,2.035
	c-1.425,0.104-2.836,0.277-4.24,0.479c5.885,18.863,8.835,42.28-3.688,59.071c-0.102,0.135-0.345,0.127-0.662,0.029
	c-11.507,14.832-23.939,32.732-41.998,39.151c-16.991,6.04-36.08,4.911-53.864,6.462c-13.12,1.144-35.252,4.137-44.075-8.862
	c-8.475-12.485,3.002-24.804,3.595-37.674c-1.634,0.989-3.348,1.815-4.905,2.533c-6.617,3.047-13.583,5.237-20.58,7.219
	c-8.444,2.392-17.027,4.224-25.562,6.242c6.001,0.267,11.959,1.293,17.768,3.4c17.899,6.492,29.274,21.66,36.584,38.529
	c0.255-0.104,0.544-0.171,0.883-0.172c24.014-0.043,48.024-1.544,71.981-3.08c11.15-0.714,21.976-2.152,30.803-9.596
	C413.139,384.273,419.326,377.564,427.638,373.68z M265.014,394.121c-4.928-0.335-10.934,2.471-15.539,3.865
	c-7.159,2.168-14.276,4.479-21.382,6.815c-8.168,2.685-16.195,6.145-24.045,9.633c-7.905,3.513-16.146,7.331-22.714,13.065
	c-1.006,0.878,3.475,0.175,4.351-0.589c6.123-5.345,14.041-8.75,21.391-12.017c7.013-3.117,14.213-6.191,21.509-8.592
	c6.016-1.98,12.045-3.922,18.092-5.804c3.11-0.968,6.229-1.908,9.36-2.804c1.751-0.501,4.111-1.536,5.965-1.409
	C263.056,396.355,267.462,394.288,265.014,394.121z M191.684,408.91c7.444-6.786,18.734-11.071,28.158-14.366
	c3.82-1.336,7.649-2.644,11.49-3.919c2.852-0.947,6.963-3.106,10.003-3.01c1.048,0.033,5.447-2.086,3.012-2.163
	c-3.347-0.105-7.113,1.613-10.23,2.605c-5.143,1.637-10.246,3.406-15.34,5.188c-10.612,3.71-23.041,8.595-31.443,16.254
	C186.328,410.416,190.824,409.694,191.684,408.91z M55.884,251.891c-4.399,0.949-10.46,2.73-14.675,0.513
	c-4.322-2.273,2.429-9.308,3.993-11.027c-0.056,0.062-3.797-0.028-4.726,0.993c-2.221,2.442-6.281,6.384-5.139,10.137
	c0.85,2.792,5.87,2.489,7.995,2.431c4.635-0.126,9.407-1.251,13.912-2.281c7.461-1.704,13.794-2.035,21.303-0.025
	c1.347,0.36,4.447-1.554,4.584-1.518C73.458,248.526,65.442,249.829,55.884,251.891z M337.219,176.653
	c-0.561-2.447,4.232-7.841,5.455-9.662c2.977-4.431,6.021-8.859,9.354-13.033c0.212-0.265,0.67-1,1.156-1.556
	c-1.382-8.537-1.207-17.752,2.689-25.644c9.31-18.854,33.757-24.663,52.046-15.59c20.067,9.956,28.86,34.921,15.171,53.974
	c-5.818,8.098-14.898,15.117-25.133,16.092c-9.177,0.875-19.565-0.354-27.512-5.314c-1.668-1.042-3.105-2.386-4.3-3.936
	c-0.201,0.039-0.404,0.069-0.605,0.116c-2.978,0.689-5.908,1.583-8.827,2.487c-4.702,1.456-10.09,4.191-15.05,4.816
	c-0.063,0.008-0.126,0.021-0.188,0.028c-0.107,0.012-0.218,0.038-0.324,0.048c-1.079,0.104-2.362-0.597-2.966-1.599
	C337.695,177.492,337.314,177.069,337.219,176.653z M343.5,174.425c0.002,0.001,0.004,0.002,0.006,0.004
	c3.437-1.054,6.927-2.644,10.099-3.625c3.214-0.996,10.292-4.559,13.671-2.652c1.44,0.813,1.814,2.51,3.06,3.537
	c2.06,1.701,4.461,2.864,7.017,3.633c5.188,1.562,10.84,2.386,16.27,2.028c10.375-0.684,19.891-6.799,25.629-15.409
	c7.064-10.599,8.717-24.821,1.347-35.811c-6.559-9.78-18.754-15.794-30.55-15.124c-10.311,0.586-21.07,4.759-27.145,13.509
	c-5.912,8.514-7.08,18.895-5.395,28.929c0.383,0.342,0.664,0.688,0.742,0.988c-0.002-0.009-0.252-0.093-0.627-0.232
	c0.009,0.061,0.011,0.115,0.016,0.172c0.068,0.047,0.138,0.095,0.207,0.142c0.035,0.011-0.059,0.167-0.225,0.402
	c-0.079,0.406-0.299,0.668-0.606,0.807c-0.752,0.968-1.779,2.224-2.075,2.616c-1.919,2.542-3.781,5.128-5.596,7.747
	C348.837,166.819,345.719,170.996,343.5,174.425z M388.055,168.626c-6.996-8.125-18.854-24.653-12.2-35.788
	c4.263-7.134,13.439-10.679,21.464-8.975c0.38,0.072,0.754,0.158,1.119,0.26c0.074,0.021,0.148,0.036,0.223,0.058
	c0.086,0.025,0.175,0.042,0.261,0.068c0.002,0-0.009,0.012-0.017,0.021c4.668,1.499,7.931,5.565,7.738,12.193
	c-0.328,11.309-7.071,22.384-14.264,30.743c-0.295,0.343-0.85,0.616-1.472,0.835c-1.073,0.588-2.294,1.069-2.724,0.71
	c-0.182,0.047-0.307,0.087-0.336,0.121C387.916,168.792,387.985,168.707,388.055,168.626z M379.857,144.424
	c2.305,7.496,6.35,14.318,11.271,20.392c5.254-6.896,9.987-15.344,10.759-23.677c0.597-6.443-1.729-12.591-6.645-14.75
	c-0.244,0.049-0.468,0.059-0.648,0.003c-1.666-0.514-3.202-0.746-4.612-0.75c-0.984,0.098-2.023,0.308-3.122,0.655
	c-0.818,0.259-1.097,0.26-1.067,0.125C379.742,128.932,377.576,137.007,379.857,144.424z M389.652,147.359
	c-3.826-0.335-7.217-2.708-7.421-6.808c-0.202-4.067,2.442-7.247,6.087-8.702c0.358-0.143,0.742-0.184,1.122-0.161
	c4.981-1.382,10.443,2.202,10.232,7.804C399.48,144.59,394.559,147.79,389.652,147.359z M390.864,135.06
	c-0.282,0.117-0.581,0.174-0.88,0.184c-1.544,0.904-2.635,2.566-2.75,4.376c-0.092,1.44,0.218,3.527,1.764,4.163
	c1.949,0.801,4.795-0.681,5.413-2.648C395.117,138.884,394.06,133.731,390.864,135.06z M285.574,474.105
	c0.134,0.034,0.072-0.384,0.089-0.459C285.444,473.743,285.583,474.214,285.574,474.105z M283.415,475.099l0.033-0.172l-0.31,0.425
	L283.415,475.099z M281.365,475.13c0.215,0.709,0.74-0.13,1.112,0.117l0.065,0.161l0.147-0.577
	C282.249,474.931,281.684,475.323,281.365,475.13z M280.229,473.608c0.075,0.276-0.229,0.244,0.257,0.082
	c-0.025-0.03-0.033-0.047-0.048-0.069C280.393,473.625,280.333,473.625,280.229,473.608z M280.438,473.621
	C280.652,473.596,280.29,473.39,280.438,473.621L280.438,473.621z M279.497,473.229c-0.288,0.141-0.223,0.303-0.051,0.569
	l0.277-0.253C279.66,473.382,279.406,473.35,279.497,473.229z M279.191,474.325l0.145-0.108
	C279.308,474.148,279.269,474.125,279.191,474.325z M279.642,473.989l-0.306,0.228c0.044,0.115,0.055,0.346,0.141-0.083
	C279.457,474.346,279.513,474.142,279.642,473.989z M279.821,474.095c0.164,0.152,0.372,0.246,0.094,0.499
	C280.456,474.484,280.362,473.984,279.821,474.095z M281.282,475.87l0.22,0.205l0.177-0.243
	C281.59,475.953,281.262,475.647,281.282,475.87z M277.669,473.463c-0.014,0.152,0.105,0.403,0.132,0.596l0.205-0.178
	C277.896,473.78,277.689,473.688,277.669,473.463z M277.801,474.06l-0.308,0.267C277.774,474.352,277.822,474.227,277.801,474.06z
	 M279.162,475.118l0.501-0.557l-0.601,0.566L279.162,475.118z M276.336,473.65l0.135-0.183l0.169-0.354L276.336,473.65z
	 M275.068,473.411c0.174-0.128,0.362-0.1,0.61,0.134c0.125-0.294-0.191-0.489-0.056-0.671
	C275.408,472.93,275.229,473.183,275.068,473.411z M274.796,473.744c0.086-0.071,0.175-0.198,0.271-0.333
	C274.976,473.48,274.886,473.578,274.796,473.744z M276.833,474.258c0.038,0.001,0.08,0.002,0.124,0.004
	c-0.026-0.091-0.079-0.331-0.257-0.429L276.833,474.258z M276.837,474.271l-0.004-0.014c-0.134-0.009-0.228-0.016-0.268-0.019
	C276.6,474.244,276.682,474.253,276.837,474.271z M276.988,474.263l-0.031-0.001C276.97,474.303,276.977,474.318,276.988,474.263z
	 M278.153,475.61c0.125-0.295-0.093-0.499,0.175-0.863C278.149,474.989,277.771,475.253,278.153,475.61z M277.505,474.489
	l-0.351,0.305l0.336,0.091C277.48,474.773,277.417,474.609,277.505,474.489z M276.994,474.933l0.16-0.139l-0.125-0.034
	L276.994,474.933z M275.375,474.133c-0.14,0.188-0.297,0.207-0.475,0.241c0.193,0.08,0.391,0.122,0.578,0.117
	C275.502,474.356,275.58,474.113,275.375,474.133z M276.087,474.238l-0.032,0.025C276.076,474.298,276.092,474.31,276.087,474.238z
	 M273.179,474.481l0.005-0.074l-0.035-0.004C273.158,474.428,273.169,474.456,273.179,474.481z M275.513,474.57
	c0.146,0.08,0.229-0.027,0.308-0.16c-0.106,0.045-0.22,0.075-0.341,0.081C275.468,474.552,275.467,474.591,275.513,474.57z
	 M274.312,473.953c0.076,0.088,0.163,0.162,0.253,0.23C274.489,474.049,274.336,473.841,274.312,473.953z M276.004,474.145
	c0.007-0.007,0.013-0.015,0.021-0.019C275.977,474.035,275.983,474.08,276.004,474.145z M275.82,474.41
	c0.086-0.035,0.166-0.083,0.235-0.147c-0.018-0.03-0.037-0.076-0.051-0.118C275.932,474.208,275.876,474.315,275.82,474.41z
	 M272.849,475.054c0.12,0.214,0.742,0.492,0.47,0.855c-0.433,0.212-0.361-0.133-0.577-0.338c0.19,0.49-0.543,0.729-0.436,1.452
	l0.38-0.263c0.009,0.112-0.127,0.295-0.019,0.396c0.019-0.396,0.39-0.77,0.724-0.352c0.315-0.303,0.081-1.602-0.212-2.324
	C273.172,474.654,273.175,474.814,272.849,475.054z M273.462,473.93c-0.222,0.198-0.266,0.346-0.279,0.478l0.669,0.042l-0.045,0.06
	l0.135-0.052C273.786,474.392,273.672,474.236,273.462,473.93z M274.58,474.209l0.003-0.001l0,0.007
	c0.029,0.053,0.039,0.085,0.007,0.055c-0.002,0.006-0.01,0.008-0.013,0.009c-0.003,0.06-0.014,0.113-0.026,0.164
	c-0.188-0.085-0.031-0.111,0.026-0.164l0.006-0.064L274.58,474.209l-0.638,0.249c0.137,0.057,0.307,0.042,0.609-0.013
	c-0.097,0.433-0.419,0.622-0.21,1.084c0.398-0.037,0.272-0.365,0.506-0.557c-0.64,0.119,0.179-0.244-0.29-0.479
	c0.125-0.076,0.237-0.1,0.344-0.12c-0.117-0.05-0.229-0.113-0.336-0.19L274.58,474.209z M277.832,476.543
	c-0.021-0.038-0.021-0.069-0.023-0.1C277.769,476.497,277.753,476.534,277.832,476.543z M277.83,475.924l-0.044,0.06
	c-0.263-0.143-0.609-0.674-0.565-0.734c0.085,0.386,0.158,0.661,0.341,1.038c0.045-0.061,0.08-0.234,0.233-0.193
	c0.135,0.127,0.004,0.207,0.015,0.348C277.898,476.328,278.123,476.128,277.83,475.924z M275.787,476.066l-0.019-0.224
	c0.307,0.082,0.235-0.192,0.269-0.366l-0.532,0.222L275.787,476.066z M273.146,473.735l-0.297,0.648l0.235-0.192L273.146,473.735z
	 M272.408,473.863l-0.18,0.242l0.161,0.154L272.408,473.863z M234.149,479.241l0.03-0.195
	C234.125,479.153,234.102,479.232,234.149,479.241z M255.282,474.45c-0.23-0.37-0.487-0.943-0.458-0.499l0.07,0.434
	C255.054,474.308,255.177,474.356,255.282,474.45z M243.537,477.016c0.021,0.042,0.044,0.087,0.066,0.132
	c0.057-0.148,0.109-0.287,0.158-0.415C243.692,476.82,243.616,476.916,243.537,477.016z M243.362,478.811l-0.302-0.28
	C243.128,478.628,243.225,478.722,243.362,478.811z M226.757,479.599l-0.188,0.44C226.856,480.039,226.732,479.815,226.757,479.599z
	 M265.263,474.557c-0.199-0.166-0.357-0.234-0.495-0.252C265.008,474.549,265.203,474.919,265.263,474.557z M233.359,474.866
	c0.1-0.073,0.157-0.156,0.137-0.262C233.399,474.681,233.357,474.769,233.359,474.866z M264.196,474.317
	c0.035,0.042,0.069,0.064,0.105,0.1c0.144-0.076,0.289-0.137,0.466-0.112C264.59,474.123,264.388,474.012,264.196,474.317z
	 M204.131,479.065c-0.016-0.02-0.036-0.029-0.051-0.052C204.075,479.071,204.098,479.075,204.131,479.065z M197.546,474.646
	c0.064-0.026,0.171-0.026,0.271-0.032C197.768,474.584,197.687,474.587,197.546,474.646z M269.586,474.124
	C269.733,474.093,269.609,474.076,269.586,474.124L269.586,474.124z M270.329,475.826c-0.031,0.049-0.054,0.112-0.056,0.212
	C270.284,475.933,270.304,475.866,270.329,475.826z M262.739,477.021l-0.013-0.001C262.771,477.104,262.763,477.088,262.739,477.021
	z M269.811,474.317c-0.056-0.052-0.121-0.095-0.19-0.125C269.651,474.225,269.709,474.266,269.811,474.317z M269.778,474.112
	c0.052,0.016,0.091,0.028,0.129,0.04C269.925,474.079,269.908,474.034,269.778,474.112z M269.381,474.151
	c0.084-0.008,0.164,0.01,0.24,0.04c-0.03-0.029-0.042-0.053-0.035-0.067C269.543,474.13,269.481,474.138,269.381,474.151z
	 M216.261,477.979c-0.01-0.014-0.021-0.022-0.031-0.041C216.078,478.117,216.145,478.089,216.261,477.979z M251.425,478.947
	c0.007-0.004,0.011-0.016,0.017-0.021l-0.022-0.015L251.425,478.947z M250.892,479.27c0.228-0.54,0.357-0.473,0.528-0.358
	l-0.174-1.251L250.892,479.27z M272.067,474.623c-0.415-0.186-0.813,0.473-1.141,0.788l0.333,0.418
	c-0.2,0.807-0.737-0.285-0.926-0.009c0.128-0.189,0.425-0.009,0.438,0.17l-0.097-0.611c-0.469-0.236-0.832,0.25-1.158,0.562
	c0.314,0.196-0.374,0.375-0.141,0.805l0.246-0.08c0.116,0.214-0.12,0.405-0.257,0.588c-0.785-0.431-2.209-0.013-2.493-0.491
	c0.161,0.153,0.452,0.011,0.589-0.17l-0.368-0.248c0.296-0.027,0.537,0.513,0.973,0.301c-0.078-0.386,0.233-0.925-0.106-1.456
	c-0.844-0.592-0.677,1.026-1.688,0.898c-0.092,0.122,0.205-0.639-0.33-0.419c-0.672,0.403-1.161,1.296-1.154,2.14
	c0.284-0.253,0.85-0.758,0.942-0.148c-0.283,0.253-0.773,0.413-0.796,0.81c-0.301-0.702,0.536-0.221,0.145-0.803
	c-0.2,0.021-0.284,0.253-0.376,0.375c0.131-0.296-0.184-0.49-0.244-0.653c-0.648,0.011-1.023-0.309-1.718-0.369
	c-0.038-0.103-0.115-0.329-0.096-0.502c-0.338,0.194-0.817,1.251-0.688,1.692c-0.398,0.029-0.421-0.306-0.759-0.112
	c0.544,0.635-0.106-0.105-0.162,0.576c-0.346,0.083-0.122-0.329-0.283-0.486c-0.057,0.072-0.194,0.299-0.203,0.482
	c-0.215-0.517,0.407-1.348,0.154-1.95c-0.175-0.379-0.921-1.062-0.975-1.114c-0.163,0.576-0.106,2.949,0.145,3.717
	c-0.024,0.397-0.33-0.426-0.481-0.469c-0.442-0.643-0.671,0.501-1.038,0.247l0.278-0.359c-0.061-0.164-0.6,0.045-0.685,0.277
	c-0.014-0.224,0.276-1.153,0.108-1.421c-0.658-0.12-1.28,1.116-1.238,1.787l1.008-0.695c0.037,0.56-0.715,0.56-0.672,1.233
	l-0.93-0.201c0.118-0.018,0.476-0.177,0.334-0.485c-0.399,0.029-0.207-0.098-0.474-0.359c0.457-0.708,1.291-2.531,1.587-3.396
	l-0.478,0.374l-0.12-0.33c-0.623,0.442-1.184,2.635-1.348,3.211c-0.359-0.143-0.234-1.339-0.149-1.571
	c-0.706-0.061-0.696,1.691-1.408,1.519l0.268,0.262c-0.168,0.111-0.779-0.131-0.713,0.089c-0.141-0.318-0.271-1.069-0.113-1.271
	l-0.631,1.124c0.093-0.119,0.033-1.079,0.072-1.25c-0.253-0.037-0.432,1.108-0.272,1.265c-0.494-0.694-0.372-0.316-0.771-1.13
	c-0.146,0.066,0.012,1.019,0.119,1.123c-0.331,0.257-0.525,0.135-0.682,0.031c0.547-0.412,0.152-2.152,0.257-2.882l-1.18,2.859
	c0.04-0.172,0.135-1.087,0.129-1.197c-0.1,0.85-1.447,0.958-2.104,0.839l0.099-0.007c0.134-0.292-0.431-0.531-0.664-0.232
	c0.04-0.17,0.093-0.119,0.192-0.127c-0.437-0.641-0.576,1.289-1.021,0.534c0.406,0.082,0.487-0.261,0.468-0.598
	c-0.334,0.307-1.104-0.03-0.947,0.972c-0.213-0.21-0.406-0.083-0.385-0.59l-0.821,0.595c0.062-0.103,0.115-0.398-0.124-0.468
	c0.458,0.134,0.907-0.799,1.145-0.143c0.015-0.62-0.155-0.951,0.066-1.474c-0.886,0.293-1.376,1.348-1.938,2.065l-0.777-0.448
	l-0.034,0.283l-0.131-0.713c-0.099,0.163-0.162,0.305-0.182,0.237c-0.017-0.064,0.008-0.158,0.047-0.263
	c-0.082,0.035-0.157,0.099-0.196,0.172c-0.028-0.375,0.112-0.805,0.262-1.193c0.071,0.133,0.143,0.267,0.212,0.395
	c0.155-0.357,0.268-0.726,0.056-0.963c-0.03,0.048-0.069,0.1-0.11,0.153c0.099-0.267,0.161-0.487,0.089-0.592l-0.597,0.342
	c0.067,0.097,0.167,0.3,0.283,0.533c-0.376,0.466-0.806,1.033-0.476,1.515l-0.451-0.421c-0.538,0.706-0.444,0.563-1.098,1.086
	c-0.034-0.248,0.141-0.458,0.026-0.64c-0.48,0.8-1.146-0.944-1.255-0.24c-0.383,0.17-0.164,0.614-0.408,0.81
	c0.012-0.079,0.036-0.236-0.034-0.249l-0.293,0.507c-0.115-0.184,0.269-0.351-0.055-0.574c-0.559,0.377-0.888,0.635-1.351,0.385
	c-0.662,0.114,0.275,1.02-0.283,0.912c-0.078-0.418-0.146-0.914-0.495-0.981c-0.187,0.286-0.165,0.612-0.479,0.793l0.025-0.64
	c-0.29,0.024-0.522,0.141-0.52-0.342c-0.239,0.271-0.402,0.22-0.525,0.116c-0.442,0.334,0.312,1.301,0.412,1.553
	c-0.428-0.485-0.729-0.208-0.968-0.981l0.384-0.168c-0.809-0.8-0.782,0.898-1.148-0.462c0.279,0.053,0.618-0.285,0.456-0.639
	l-0.408,0.325c-0.046-0.17,0.232-0.116,0.048-0.313c-0.117,0.139-0.356,0.466-0.462,0.678l0.006-0.04l-0.732,0.101
	c0.139,0.027,0.175-0.208,0.036-0.236l-0.482,0.331c0.148-0.16,0-0.358-0.215-0.465c-0.615-0.2-0.507,1.434-0.98,0.779
	c0.07,0.014,0.082-0.065,0.152-0.052l-0.244-0.288c-0.064,1.356-1.453,0.123-1.518,1.48c-0.346-0.552-0.022-0.327,0.435-0.964
	l-0.37-0.393c0.152-0.051,0.279,0.054,0.442-0.076c-0.485-0.577-0.953,0.139-1.222,0.491c-0.186-0.198,0.157-1.018-0.379-0.799
	c-0.756,0.258,0.134,0.993-0.32,1.148l-0.321-0.707c-0.583,0.532-1.011,0.046-1.498-0.047c-0.11,0.055-0.166,0.127-0.193,0.203
	c-0.516-0.31-1.094,0.676-1.483,0.441c0.093-0.144-0.219-0.445-0.265-0.616l-0.71,0.428c0.314-0.181,0.304-0.586,0.365-0.978
	c-0.221,0.039-0.327,0.26-0.478,0.311c0.093-0.142,0.187-0.286,0.072-0.469l-0.747,0.661c0.043,0.069,0.128,0.096,0.199,0.115
	c-0.185,0.003-0.588,0.253-0.85-0.079c0.025-0.155,0.118-0.3,0.142-0.457c0.218,0.447,0.349,0.069,0.467-0.232
	c-0.512,0.064-0.126-0.104-0.37-0.394c-0.361,0.012-0.514,0.546-0.422,0.887c-0.406-0.158-0.534-0.265-0.954,0.138l0.084-0.548
	l-0.384,0.169l0.316-0.666c-0.729-0.381-0.144,0.94-0.955,0.622l0.002-0.482c-0.315,0.181-0.431,0.994-0.668,0.414
	c-0.307,0.288,0.514,0.686-0.202,0.777c-0.123-0.25-0.393-0.435-0.597-0.535c-0.231,0.217,0.168,0.574,0.314,0.508
	c-1.081,0.217-0.652-1.656-1.622-1.029c0.327,0.349-0.285,0.93,0.496,0.922c-0.376,0.281-0.726-0.703-1.12-0.181l0.259-0.614
	c-0.14-0.013-0.299,0.21-0.375,0.284l0.036-0.474c-0.488,0.83-0.889-0.401-1.185,0.688c0.206-0.857-0.358,0.048-0.546-0.288
	c0.4-0.602,1.132,0.023,1.192-0.769c-0.182-0.241-0.35,0.146-0.525-0.088c0.125-0.117,0.308-0.325,0.356-0.484
	c-0.603-0.453-0.957,0.471-1.328,0.675l0.652-0.179c-0.06,0.791-0.294,0.133-0.481,0.753c-0.322-0.427-0.582,0.188-0.844-0.076
	c0.07,0.005,0.076-0.073,0.146-0.067c-0.708,0.015-0.896-1.276-1.177-1.301c-0.276-0.104-0.804,0.323-0.617,0.66
	c-0.229,0.218,0.943-0.231,0.53,0.793c-0.395-1.188-0.835,0.438-1.711-0.378c0.39-0.418-0.222-0.669,0.125-0.985
	c-0.421,0.094-0.438,0.271-0.627,0.604l-0.124-0.372c-0.555,0.827-0.134,0.735-0.968,1.173c0.281-0.288-0.33-0.539-0.116-0.799
	c-0.23-0.027-0.456,0.084-0.626,0.306l0.031-0.053c-0.843,0.186-0.687-0.472-1.455-0.063l0.075,0.224
	c-1.007,0.597-2.273,0.2-3.313,0.47l0.365,0.185c-0.11-0.114-0.701,0.35-1.023-0.001c0.065-0.021,0.177-0.121,0.237-0.09
	c-0.008-0.251-0.132-0.623-0.382-0.687l-0.098,0.381l-0.1-0.297c-0.381-0.009,0.109,0.548-0.271,0.54
	c-0.218-1.097-1.638-0.156-1.963-1.122c-0.261,0.791,0.72,0.119,0.434,0.835c-0.115-0.119-0.167-0.268-0.415-0.333l0.084,0.474
	c-1.15-0.277-1.589-0.685-2.614-0.591l0.042-0.101c-0.365-0.187-0.562-0.102-0.725,0.308c-0.076-0.223,0.188-0.334,0.046-0.531
	c-0.645,1.211-1.284-0.898-1.677-0.052c0.052-0.958-0.789-1.875-0.438-2.62l-0.264,0.112c0.087-0.632,0.828-0.01,0.98-0.671
	l0.832,0.667c-0.026-0.238,0.111-0.59-0.022-0.673c0.206-0.011,0.385-0.044,0.116-0.386c1.986,1.623,4.032,0.076,5.988,0.945
	c0.133-0.055,0.058-0.279,0.007-0.427c0.358,0.613,0.346-0.316,0.544-0.401l0.524,0.883c0.216-0.26,0.05-0.531,0.066-0.706
	c1-0.169,1.97,0.693,2.781,0.179c0.256,0.317-0.065,0.708,0.274,0.818c-0.457-0.91,0.992-0.42,0.702-1.061
	c0.323,0.966,1.222,0.213,1.065,1.552c0.406,0.082,0.34-0.568,0.224-0.689c0.472,0.054,0.853,0.064,1.241-0.355
	c0.256,0.315,2.16-0.32,2.573,0.691c-0.282-0.656,0.025-0.339,0.303-0.622l-0.244-0.579l0.622,0.066
	c0.127-0.054,0.163-0.03,0.161,0.022c0.105,0.029-0.027,0.333,0.239,0.481c0.423,0.039,0.446-0.278,0.682-0.575l-0.064-0.086
	l0.288-0.052c0.211,0.019-0.753,0.569-0.066,0.87c0.011-0.159,0.424-0.918,0.605-0.503c-0.352-0.032-0.311,0.37-0.183,0.541
	l0.493,0.045l-0.156-0.732c1.416,0.047,2.881,0.583,4.391,0.553c-0.027,0.641,1.069,0.044,0.923,0.984l-0.057-0.091
	c-0.372,0.089,0.1,0.745,0.403,0.642c-0.313-0.303,0.575-0.937-0.191-1.085l0.598-0.439c0.347-1.802,1.58,0.168,2.484-0.405
	c-0.064,0.069-0.082,0.165-0.09,0.221c0.804-0.57,1.786,0.505,1.974,0.22l0.066,0.496c0.69-0.754,0.771-0.818,1.583-0.502
	c-0.012,0.08-0.107,0.222,0.021,0.327c0.199-0.365,0.399-0.729,0.956-0.622l-0.024,0.155l0.873-0.073
	c-0.02,1.528,1.502-0.919,1.749,0.74c0.175-0.445,0.813-0.579,1.099-0.788c0.001,0.065,0.019,0.133,0.065,0.205
	c0.342-0.82,0.964,0.267,1.335,0.178c0.244-0.194,0.142-0.456,0.038-0.718c0.473,0.655,1.327-0.711,1.499-0.435
	c0.35,0.067,0.125,0.587,0.219,0.927c0.522-0.141-0.076-1.383,0.618-0.768c-0.082,0.066-0.232,0.119-0.175,0.209
	c0.266,0.132,0.728,1.892,0.997,1.542l-0.173-0.276c0.49-0.389,1.141,1.257,1.228,0.227l-0.042-0.48
	c0.833,0.644,0.357-0.184,1.203,0.38l-0.012,0.079c0.372-0.089,0.567,0.512,0.755-0.257l-0.126-0.106
	c0.46-0.055,0.501,0.002,0.969,0.041c0.055-0.074,0.282-0.188,0.346-0.025c0.026-0.639,1.089-0.293,1.297-0.254
	c-0.372,0.093-0.198,0.366-0.094,0.627c0.222-0.523,0.373-0.576,0.673-0.197c0.048-0.798,0.114-1.647,0.71-1.692
	c-0.093,0.12-0.238,0.188-0.18,0.351c0.06,0.165,0.199-0.015,0.247-0.075c0.058,0.164-0.134,0.291-0.069,0.568
	c0.407-0.761,0.696-0.052,1.282-0.323c-0.187,0.24-0.028,0.396,0.037,0.671c0.05-0.903,0.795,0.787,0.579-0.38
	c1.141,0.702,2.903,0.057,3.347,0.81c0.12,0.328,0.439-0.202,0.639-0.217l-0.028,0.396c0.559-0.717,0.435-0.266,1.091-0.989
	c-0.272,0.471-0.159,0.688,0.114,1.061l0.451-0.822l0.087,0.613c0.185-0.239,0.391-0.143,0.597-0.045
	c-0.1,0.006-0.046,0.06-0.04,0.17c0.099-0.85,0.904-0.749,1.029-1.153c0.201,0.83,0.538-0.209,0.686,0.569
	c0.066-0.116,0.151-0.211,0.245-0.29c-0.097-0.362-0.133-0.768,0.049-0.59c0.016-0.008,0.028-0.008,0.042-0.014l0.079,0.482
	c0.185-0.112,0.373-0.167,0.498-0.176c-0.056-0.042-0.121-0.131-0.188-0.241c0.08,0.072,0.153,0.162,0.224,0.239
	c0.025,0,0.05,0,0.066,0.006c-0.011,0.014-0.025,0.022-0.04,0.023c0.113,0.113,0.229,0.169,0.391,0.006
	c0.648,0.739,1.437-1.009,2.151,0.005c-0.107-0.104-0.259-0.149-0.299,0.022c0.597-0.044,1.191,0.644,1.568,0.276l-0.028-0.449
	c0.437-0.203,0.774-0.346,1.127-0.316l0.017-0.507c0.513,0.187,1.607-0.628,1.927,0.418c0.123-0.405,0.709,0.121,0.999-0.014
	l0.077,0.389c0.38,0.13,0.614-0.013,0.839-0.131c0.774,0.795,1.481-0.019,2.153,0.025l0.008,0.112l0.679-0.292
	c-0.175,0.355,0.132-0.246,0.337-0.152c0.215-0.193,0.568-0.1,0.827,0.147l0.435,0.012c-0.479,0.272,0.042,0.56,0.075,1.008
	l0.273-0.364c0.115,0.213-0.174,0.355,0.032,0.447c0.183-0.244,0.733-0.24,0.898-0.708c-0.029-0.112-0.097-0.217-0.18-0.304
	c-0.023,0.029-0.022,0.022-0.007-0.008l-0.02-0.023c0.009,0.006,0.014,0.008,0.023,0.015c0.023-0.044,0.059-0.12,0.073-0.18
	c0.347,0.093,0.217-0.089,0.203-0.292c0.402,0.694,0.614,0.216,0.927,1.033c-0.422-0.918,0.899-0.026,0.631-0.902
	C271.973,474.694,271.869,474.021,272.067,474.623z M214.804,474.849l-0.097-0.126C214.646,474.861,214.583,474.986,214.804,474.849
	z M235.854,479.045c-0.183-0.161-0.276-0.426-0.404,0.125C235.526,479.455,235.745,479.145,235.854,479.045z M244.353,477.945
	c-0.127-0.124-0.243-0.142-0.345-0.103C244.147,478.025,244.271,478.104,244.353,477.945z M267.974,474.548
	c-0.168-0.087-0.254-0.16-0.011,0.023L267.974,474.548z M243.386,478.603c-0.03-0.082-0.038-0.171-0.045-0.262
	C243.298,478.422,243.296,478.516,243.386,478.603z M226.792,479.518c-0.005-0.004-0.011-0.002-0.017-0.005
	c-0.009,0.028-0.015,0.058-0.018,0.086L226.792,479.518z M260.749,478.92c-0.104-0.07-0.162-0.159-0.2-0.25
	C260.543,478.788,260.591,478.888,260.749,478.92z M271.11,473.876l-0.318,0.132c0.154-0.027,0.211,0.078,0.291,0.152
	C271.074,474.048,271.01,473.886,271.11,473.876z M273.943,476.808c0.045-0.06,0.099-0.008,0.144-0.069l-0.017-0.224
	C273.871,476.533,273.735,476.717,273.943,476.808z M271.432,475.474c0.032,0.406,0.231,0.264,0.454,0.184
	c-0.014,0.002-0.026,0.005-0.04,0.001C271.903,475.089,271.667,475.282,271.432,475.474z M271.938,475.643
	c0.069-0.02,0.139-0.033,0.207-0.014C272.167,475.401,272.061,475.583,271.938,475.643z M269.228,474.11
	c0.112-0.519-0.7,0.639-0.122,0.356C269.213,474.568,269.166,473.946,269.228,474.11z M271.428,476.714l0.208,0.093l-0.089-0.5
	L271.428,476.714z M269.855,476.474l0.361,0.132c-0.007-0.084,0.038-0.134,0.094-0.173
	C270.089,476.42,269.845,476.325,269.855,476.474z M270.598,476.344c-0.062,0.007-0.196,0.026-0.288,0.088
	C270.426,476.44,270.535,476.427,270.598,476.344z M270.785,476.833l0.362,0.134l-0.108-0.103L270.785,476.833z M265.995,476.452
	l-0.391,0.151c-0.038,0.173,0.069,0.275,0.215,0.204C265.912,476.686,266.057,476.616,265.995,476.452z M267.012,478.044
	l0.183-0.244c-0.107-0.102-0.116-0.213-0.177-0.377L267.012,478.044z M266.052,477.968c-0.038,0.173-0.566,0.505-0.068,0.457
	C266.021,478.253,266.414,478.103,266.052,477.968z M260.135,477.215l0.1-0.008l-0.018-1.019L260.135,477.215z M255.228,478.861
	c-0.281,0.253-0.429,0.109-0.299,0.78c0.465,0.245,0.11-0.628,0.531-0.323C255.568,479.078,255.115,479.069,255.228,478.861z
	 M255.228,478.861c0.045-0.04,0.092-0.088,0.143-0.155C255.289,478.771,255.251,478.819,255.228,478.861z M196.151,473.878
	l0.193,0.343l0.106-0.129L196.151,473.878z M195.626,474.781c0.067-0.028,0.199-0.084,0.25,0.063l-0.07-0.649L195.626,474.781z
	 M236.442,479.995l0.23,0.366l0.024-0.156C236.652,480.036,236.582,480.022,236.442,479.995z M232.624,479.834l0.07,0.014
	l-0.125-0.588L232.624,479.834z M229.215,480.548c0.139,0.026,0.303-0.104,0.442-0.077
	C229.354,480.574,229.184,479.815,229.215,480.548z M570.514,477.104c0.24,0.035,0.146-0.383,0.181-0.458
	C570.296,476.74,570.526,477.212,570.514,477.104z M566.583,478.073l0.066-0.171l-0.574,0.422L566.583,478.073z M562.889,478.083
	c0.362,0.712,1.337-0.122,1.999,0.129l0.111,0.162l0.287-0.575C564.488,477.893,563.456,478.279,562.889,478.083z M560.895,476.548
	c0.126,0.277-0.422,0.241,0.46,0.085c-0.045-0.03-0.058-0.048-0.084-0.07C561.19,476.567,561.081,476.567,560.895,476.548z
	 M561.271,476.563C561.658,476.541,561.012,476.331,561.271,476.563L561.271,476.563z M559.587,476.161
	c-0.523,0.138-0.413,0.301-0.109,0.569l0.508-0.25C559.876,476.316,559.419,476.281,559.587,476.161z M559,477.253l0.264-0.106
	C559.217,477.079,559.146,477.055,559,477.253z M559.521,477.066c-0.043,0.211,0.064,0.008,0.302-0.143l-0.56,0.224
	C559.34,477.262,559.352,477.493,559.521,477.066z M560.144,477.03c0.29,0.154,0.663,0.25,0.152,0.499
	C561.274,477.427,561.122,476.926,560.144,477.03z M562.713,478.821l0.389,0.207l0.328-0.241
	C563.266,478.907,562.686,478.598,562.713,478.821z M556.281,476.375c-0.029,0.152,0.179,0.404,0.22,0.598l0.376-0.176
	C556.681,476.694,556.311,476.6,556.281,476.375z M556.501,476.973l-0.563,0.264C556.445,477.265,556.535,477.141,556.501,476.973z
	 M558.922,478.046l0.921-0.552l-1.101,0.56L558.922,478.046z M553.871,476.547l0.248-0.181l0.316-0.353L553.871,476.547z
	 M552.687,476.435c0.233-0.292-0.332-0.491-0.084-0.671c-0.389,0.054-0.718,0.306-1.014,0.532
	C551.905,476.168,552.244,476.199,552.687,476.435z M551.091,476.625c0.157-0.07,0.32-0.196,0.498-0.33
	C551.421,476.363,551.256,476.46,551.091,476.625z M554.521,476.734l0.229,0.426c0.068,0.001,0.146,0.003,0.224,0.005
	C554.928,477.075,554.84,476.835,554.521,476.734z M554.758,477.175l-0.008-0.014c-0.241-0.011-0.409-0.018-0.48-0.021
	C554.331,477.144,554.479,477.154,554.758,477.175z M554.974,477.166c0.021,0.042,0.035,0.056,0.056,0.002
	C555.009,477.167,554.994,477.167,554.974,477.166z M557.09,478.527c0.233-0.293-0.154-0.499,0.342-0.861
	C557.103,477.907,556.412,478.166,557.09,478.527z M555.955,477.399l-0.641,0.301l0.603,0.095
	C555.903,477.683,555.792,477.519,555.955,477.399z M555.021,477.838l0.293-0.137l-0.224-0.035L555.021,477.838z M552.126,477.02
	c-0.257,0.187-0.541,0.204-0.861,0.235c0.345,0.083,0.701,0.126,1.039,0.124C552.35,477.245,552.494,477.003,552.126,477.02z
	 M553.405,477.133l-0.057,0.024C553.385,477.193,553.413,477.205,553.405,477.133z M548.156,477.345l0.011-0.074l-0.063-0.004
	L548.156,477.345z M552.362,477.458c0.26,0.082,0.413-0.023,0.558-0.156c-0.192,0.044-0.396,0.073-0.616,0.077
	C552.283,477.44,552.279,477.479,552.362,477.458z M550.212,476.829c0.136,0.089,0.289,0.164,0.451,0.233
	C550.529,476.927,550.258,476.717,550.212,476.829z M553.26,477.039c0.013-0.007,0.024-0.014,0.038-0.019
	C553.212,476.929,553.223,476.974,553.26,477.039z M552.92,477.302c0.157-0.034,0.303-0.081,0.429-0.145
	c-0.033-0.03-0.065-0.076-0.089-0.118C553.127,477.102,553.024,477.208,552.92,477.302z M547.552,477.914
	c0.21,0.215,1.325,0.5,0.828,0.86c-0.785,0.208-0.647-0.137-1.032-0.345c0.331,0.492-0.993,0.723-0.813,1.447l0.688-0.259
	c0.014,0.113-0.234,0.294-0.041,0.396c0.041-0.396,0.717-0.766,1.309-0.344c0.574-0.299,0.18-1.6-0.334-2.326
	C548.141,477.518,548.143,477.677,547.552,477.914z M548.167,477.271l1.205,0.049l-0.083,0.06l0.244-0.05
	c-0.28-0.068-0.481-0.225-0.853-0.533C548.276,476.992,548.193,477.139,548.167,477.271z M550.689,477.088l0.006-0.002l-0.001,0.007
	c0.051,0.054,0.067,0.086,0.011,0.055c-0.004,0.005-0.018,0.008-0.024,0.009c-0.007,0.06-0.027,0.113-0.05,0.163
	c-0.337-0.087-0.055-0.111,0.05-0.163c0.004-0.021,0.013-0.041,0.014-0.064L550.689,477.088l-1.156,0.241
	c0.246,0.059,0.553,0.045,1.098-0.007c-0.186,0.432-0.77,0.618-0.404,1.082c0.718-0.033,0.498-0.362,0.925-0.551
	c-1.157,0.112,0.329-0.242-0.511-0.482c0.227-0.074,0.431-0.098,0.624-0.117c-0.21-0.051-0.411-0.115-0.602-0.194L550.689,477.088z
	 M556.484,479.457c-0.036-0.038-0.035-0.069-0.038-0.1C556.372,479.41,556.344,479.446,556.484,479.457z M556.498,478.838
	l-0.081,0.06c-0.372-0.116-0.826-0.472-0.96-0.646c0.129,0.337,0.257,0.601,0.546,0.947c0.084-0.06,0.151-0.233,0.427-0.19
	c0.239,0.128,0.002,0.207,0.017,0.348C556.609,479.242,557.02,479.045,556.498,478.838z M552.818,478.957l-0.028-0.224
	c0.552,0.085,0.429-0.19,0.494-0.362l-0.963,0.216L552.818,478.957z M548.113,476.598l-0.549,0.645l0.427-0.189L548.113,476.598z
	 M546.778,476.718l-0.328,0.24l0.287,0.156L546.778,476.718z M475.878,482.219l-0.284,0.11
	C475.729,482.296,475.814,482.259,475.878,482.219z M477.934,482.255l0.052-0.195C477.89,482.167,477.85,482.247,477.934,482.255z
	 M515.912,477.302c-0.415-0.367-0.878-0.938-0.827-0.494l0.128,0.433C515.502,477.163,515.724,477.21,515.912,477.302z
	 M494.792,479.992l0.12,0.131c0.101-0.149,0.195-0.288,0.281-0.416C495.071,479.794,494.935,479.891,494.792,479.992z
	 M493.949,481.512c0.122,0.097,0.298,0.189,0.545,0.277L493.949,481.512z M464.648,482.628l-0.333,0.44
	C464.834,483.068,464.606,482.844,464.648,482.628z M533.884,477.333c-0.358-0.167-0.643-0.237-0.893-0.257
	C533.423,477.323,533.773,477.695,533.884,477.333z M476.704,477.619c-0.174,0.078-0.248,0.166-0.243,0.263
	C476.64,477.808,476.741,477.726,476.704,477.619z M531.961,477.083c0.063,0.043,0.125,0.064,0.189,0.101
	c0.26-0.074,0.522-0.134,0.841-0.107C532.672,476.892,532.309,476.78,531.961,477.083z M423.928,482.082
	c-0.03-0.02-0.065-0.029-0.093-0.052C423.826,482.088,423.867,482.092,423.928,482.082z M412.064,477.65
	c0.117-0.026,0.308-0.026,0.487-0.031C412.464,477.589,412.317,477.591,412.064,477.65z M541.685,476.948
	C541.951,476.918,541.727,476.9,541.685,476.948L541.685,476.948z M542.895,478.869c0.021-0.104,0.058-0.171,0.104-0.211
	C542.942,478.707,542.9,478.769,542.895,478.869z M529.329,479.795l-0.023-0.001C529.386,479.878,529.372,479.862,529.329,479.795z
	 M542.088,477.144c-0.101-0.053-0.217-0.097-0.342-0.127C541.801,477.05,541.905,477.091,542.088,477.144z M542.031,476.938
	c0.093,0.017,0.164,0.029,0.233,0.041C542.297,476.907,542.268,476.862,542.031,476.938z M541.314,476.973
	c0.152-0.007,0.294,0.012,0.432,0.043c-0.053-0.029-0.075-0.053-0.062-0.068C541.606,476.954,541.497,476.961,541.314,476.973z
	 M445.749,481.021c-0.018-0.014-0.038-0.022-0.058-0.041C445.423,481.158,445.541,481.13,445.749,481.021z M508.988,481.84
	c0.012-0.004,0.019-0.016,0.03-0.021l-0.04-0.015L508.988,481.84z M508.03,482.168c0.408-0.542,0.64-0.477,0.948-0.364l-0.317-1.25
	L508.03,482.168z M546.149,477.474c-0.744-0.19-1.475,0.464-2.069,0.775l0.593,0.422c-0.373,0.805-1.321-0.292-1.668-0.019
	c0.233-0.188,0.766-0.005,0.785,0.174l-0.164-0.612c-0.841-0.241-1.502,0.241-2.094,0.549c0.563,0.2-0.678,0.372-0.265,0.803
	l0.442-0.077c0.206,0.215-0.222,0.404-0.47,0.585c-1.407-0.439-3.973-0.037-4.479-0.518c0.288,0.154,0.813,0.016,1.063-0.164
	l-0.66-0.251c0.534-0.024,0.962,0.519,1.748,0.312c-0.137-0.387,0.43-0.922-0.175-1.457c-1.515-0.602-1.229,1.018-3.049,0.879
	c-0.167,0.121,0.374-0.636-0.591-0.422c-1.214,0.396-2.099,1.284-2.09,2.127c0.511-0.25,1.532-0.749,1.694-0.138
	c-0.51,0.25-1.393,0.405-1.435,0.801c-0.536-0.705,0.965-0.215,0.265-0.801c-0.359,0.018-0.512,0.25-0.679,0.371
	c0.237-0.294-0.326-0.491-0.436-0.656c-1.165,0-1.838-0.307-3.088-0.363c-0.067-0.103-0.206-0.328-0.171-0.501
	c-0.609,0.198-1.473,1.26-1.242,1.7c-0.716,0.033-0.757-0.302-1.365-0.104c0.978,0.629-0.191-0.104-0.291,0.577
	c-0.623,0.086-0.22-0.328-0.508-0.483c-0.103,0.073-0.35,0.301-0.365,0.484c-0.386-0.515,0.734-1.353,0.28-1.952
	c-0.313-0.377-1.655-1.053-1.751-1.104c-0.294,0.578-0.194,2.95,0.256,3.715c-0.045,0.398-0.592-0.422-0.865-0.464
	c-0.795-0.638-1.206,0.508-1.866,0.258l0.501-0.362c-0.109-0.164-1.078,0.051-1.23,0.284c-0.026-0.224,0.496-1.156,0.193-1.422
	c-1.183-0.113-2.3,1.129-2.225,1.8l1.812-0.705c0.066,0.56-1.285,0.567-1.208,1.24l-1.672-0.191c0.212-0.02,0.855-0.182,0.601-0.489
	c-0.717,0.033-0.372-0.096-0.852-0.354c0.82-0.713,2.318-2.544,2.851-3.413l-0.859,0.379l-0.217-0.328
	c-1.12,0.449-2.127,2.647-2.421,3.225c-0.646-0.139-0.424-1.337-0.271-1.57c-1.269-0.053-1.248,1.698-2.528,1.534l0.48,0.259
	c-0.302,0.112-1.4-0.123-1.282,0.096c-0.254-0.316-0.488-1.066-0.206-1.27l-1.131,1.13c0.166-0.12,0.055-1.079,0.126-1.251
	c-0.455-0.034-0.773,1.112-0.485,1.268c-0.89-0.689-0.669-0.312-1.391-1.122c-0.263,0.068,0.025,1.019,0.218,1.122
	c-0.594,0.261-0.942,0.141-1.225,0.038c0.98-0.417,0.265-2.154,0.45-2.885l-2.109,2.872c0.071-0.172,0.238-1.089,0.227-1.198
	c-0.176,0.851-2.596,0.974-3.779,0.861l0.178-0.008c0.239-0.294-0.778-0.526-1.195-0.226c0.071-0.171,0.167-0.12,0.346-0.129
	c-0.79-0.637-1.027,1.294-1.833,0.544c0.73,0.078,0.874-0.267,0.838-0.603c-0.599,0.31-1.985-0.018-1.696,0.982
	c-0.385-0.208-0.73-0.079-0.696-0.586l-1.472,0.604c0.109-0.104,0.205-0.399-0.226-0.466c0.825,0.129,1.625-0.809,2.058-0.155
	c0.022-0.62-0.287-0.949,0.109-1.474c-1.592,0.302-2.466,1.363-3.471,2.085l-1.4-0.44l-0.06,0.284l-0.241-0.712
	c-0.176,0.164-0.288,0.306-0.324,0.239c-0.031-0.064,0.013-0.158,0.082-0.264c-0.146,0.037-0.281,0.101-0.352,0.175
	c-0.054-0.375,0.195-0.806,0.461-1.196c0.128,0.131,0.258,0.264,0.385,0.393c0.275-0.359,0.475-0.729,0.093-0.963
	c-0.054,0.048-0.123,0.101-0.196,0.154c0.176-0.269,0.284-0.488,0.155-0.593l-1.071,0.348c0.122,0.096,0.303,0.298,0.515,0.529
	c-0.673,0.47-1.44,1.042-0.843,1.52l-0.814-0.417c-0.961,0.711-0.794,0.567-1.963,1.097c-0.063-0.247,0.248-0.459,0.04-0.64
	c-0.854,0.807-2.071-0.941-2.26-0.235c-0.688,0.171-0.288,0.614-0.726,0.81c0.021-0.079,0.063-0.235-0.064-0.248l-0.521,0.507
	c-0.209-0.184,0.479-0.352-0.105-0.574c-1.001,0.378-1.589,0.637-2.424,0.388c-1.189,0.115,0.506,1.019-0.499,0.913
	c-0.146-0.418-0.273-0.914-0.9-0.98c-0.333,0.287-0.29,0.612-0.854,0.794l0.038-0.64c-0.521,0.025-0.938,0.142-0.938-0.341
	c-0.428,0.271-0.721,0.221-0.943,0.117c-0.791,0.335,0.576,1.301,0.76,1.552c-0.775-0.483-1.313-0.207-1.753-0.979l0.688-0.169
	c-1.464-0.798-1.395,0.9-2.069-0.459c0.503,0.053,1.107-0.286,0.812-0.639l-0.729,0.326c-0.085-0.17,0.416-0.117,0.083-0.313
	c-0.208,0.139-0.634,0.466-0.822,0.679l0.01-0.04l-1.315,0.103c0.25,0.026,0.313-0.209,0.062-0.236l-0.863,0.332
	c0.265-0.16-0.005-0.358-0.392-0.464c-1.108-0.198-0.893,1.435-1.752,0.781c0.125,0.014,0.146-0.066,0.272-0.052l-0.441-0.288
	c-0.099,1.356-2.61,0.125-2.71,1.484c-0.629-0.552-0.043-0.328,0.77-0.965l-0.67-0.393c0.272-0.051,0.501,0.054,0.793-0.077
	c-0.879-0.576-1.712,0.141-2.19,0.493c-0.336-0.197,0.269-1.019-0.692-0.798c-1.355,0.259,0.254,0.992-0.561,1.148l-0.587-0.706
	c-1.042,0.533-1.817,0.048-2.693-0.044c-0.199,0.055-0.297,0.127-0.345,0.204c-0.933-0.309-1.958,0.678-2.662,0.444
	c0.166-0.144-0.4-0.444-0.484-0.615l-1.271,0.429c0.562-0.182,0.538-0.586,0.643-0.979c-0.397,0.04-0.585,0.261-0.854,0.312
	c0.165-0.142,0.332-0.286,0.123-0.468l-1.335,0.662c0.078,0.069,0.231,0.096,0.359,0.114c-0.333,0.003-1.054,0.254-1.529-0.078
	c0.043-0.155,0.207-0.3,0.248-0.457c0.399,0.446,0.627,0.068,0.836-0.233c-0.92,0.065-0.229-0.104-0.671-0.393
	c-0.648,0.013-0.916,0.547-0.746,0.888c-0.732-0.157-0.965-0.264-1.714,0.14l0.144-0.548l-0.688,0.17l0.559-0.667
	c-1.317-0.38-0.245,0.94-1.708,0.624l-0.003-0.482c-0.563,0.182-0.759,0.995-1.195,0.415c-0.547,0.289,0.934,0.686-0.352,0.778
	c-0.226-0.25-0.713-0.435-1.082-0.534c-0.411,0.218,0.312,0.573,0.574,0.507c-1.939,0.219-1.199-1.654-2.933-1.027
	c0.593,0.349-0.498,0.931,0.906,0.922c-0.671,0.282-1.317-0.704-2.019-0.183l0.457-0.613c-0.251-0.013-0.535,0.209-0.672,0.284
	l0.059-0.474c-0.866,0.829-1.606-0.403-2.122,0.686c0.358-0.856-0.645,0.047-0.987-0.289c0.712-0.601,2.038,0.025,2.135-0.767
	c-0.331-0.241-0.628,0.146-0.946-0.089c0.224-0.116,0.549-0.325,0.634-0.483c-1.092-0.455-1.715,0.469-2.379,0.673l1.171-0.178
	c-0.097,0.791-0.527,0.133-0.856,0.752c-0.585-0.428-1.044,0.187-1.521-0.078c0.126,0.005,0.135-0.072,0.262-0.067
	c-1.275,0.014-1.628-1.278-2.135-1.303c-0.498-0.105-1.442,0.322-1.102,0.659c-0.408,0.218,1.695-0.229,0.964,0.794
	c-0.726-1.189-1.498,0.437-3.084-0.381c0.695-0.417-0.407-0.669,0.214-0.985c-0.757,0.093-0.785,0.27-1.122,0.604l-0.228-0.372
	c-0.989,0.826-0.233,0.734-1.729,1.171c0.502-0.287-0.6-0.539-0.217-0.799c-0.414-0.027-0.819,0.083-1.123,0.305l0.056-0.053
	c-1.516,0.185-1.239-0.474-2.62-0.066l0.138,0.224c-1.808,0.594-4.09,0.195-5.96,0.463l0.658,0.186
	c-0.2-0.115-1.26,0.349-1.842-0.003c0.116-0.021,0.317-0.12,0.426-0.09c-0.017-0.251-0.242-0.623-0.691-0.688l-0.174,0.381
	l-0.182-0.297c-0.685-0.01,0.201,0.548-0.484,0.54c-0.398-1.097-2.948-0.16-3.539-1.126c-0.466,0.79,1.297,0.12,0.785,0.836
	c-0.209-0.12-0.302-0.269-0.747-0.334l0.153,0.475c-2.072-0.279-2.863-0.688-4.708-0.596l0.074-0.102
	c-0.657-0.187-1.011-0.103-1.305,0.306c-0.137-0.223,0.337-0.334,0.081-0.53c-1.157,1.209-2.312-0.901-3.018-0.056
	c0.092-0.958-1.42-1.877-0.789-2.621l-0.475,0.112c0.156-0.632,1.488-0.009,1.761-0.669l1.497,0.669
	c-0.048-0.238,0.198-0.59-0.042-0.673c0.369-0.011,0.692-0.043,0.208-0.386c3.574,1.626,7.247,0.084,10.767,0.958
	c0.237-0.056,0.102-0.279,0.01-0.427c0.647,0.613,0.62-0.316,0.976-0.4l0.947,0.884c0.386-0.26,0.085-0.531,0.113-0.706
	c1.797-0.167,3.546,0.697,5,0.185c0.463,0.317-0.111,0.708,0.5,0.819c-0.829-0.912,1.779-0.418,1.252-1.06
	c0.59,0.966,2.199,0.215,1.93,1.554c0.731,0.083,0.606-0.566,0.396-0.688c0.849,0.055,1.533,0.065,2.229-0.353
	c0.464,0.315,3.878-0.315,4.633,0.697c-0.515-0.657,0.041-0.339,0.537-0.622l-0.446-0.58l1.118,0.067
	c0.228-0.054,0.292-0.029,0.29,0.022c0.189,0.029-0.045,0.333,0.436,0.481c0.761,0.04,0.799-0.277,1.218-0.574l-0.116-0.086
	l0.517-0.052c0.38,0.02-1.345,0.568-0.106,0.87c0.019-0.159,0.749-0.917,1.081-0.501c-0.633-0.033-0.554,0.369-0.321,0.541
	l0.887,0.046l-0.291-0.732c2.543,0.052,5.189,0.584,7.904,0.55c-0.038,0.641,1.923,0.042,1.676,0.982l-0.104-0.091
	c-0.667,0.09,0.191,0.744,0.734,0.641c-0.566-0.302,1.021-0.938-0.359-1.084l1.068-0.44c0.597-1.802,2.845,0.165,4.463-0.41
	c-0.114,0.069-0.144,0.165-0.158,0.221c1.438-0.571,3.22,0.502,3.554,0.216l0.126,0.496c1.23-0.756,1.377-0.82,2.841-0.505
	c-0.02,0.08-0.189,0.222,0.042,0.327c0.354-0.365,0.709-0.73,1.712-0.624l-0.042,0.156l1.568-0.075
	c-0.017,1.528,2.691-0.922,3.156,0.737c0.309-0.445,1.456-0.581,1.968-0.791c0.003,0.065,0.034,0.133,0.119,0.205
	c0.605-0.82,1.737,0.265,2.405,0.175c0.436-0.194,0.249-0.456,0.06-0.718c0.858,0.654,2.379-0.714,2.691-0.438
	c0.631,0.066,0.233,0.587,0.404,0.927c0.938-0.142-0.151-1.384,1.104-0.77c-0.146,0.066-0.417,0.119-0.313,0.209
	c0.479,0.131,1.331,1.891,1.811,1.54l-0.314-0.275c0.877-0.391,2.065,1.255,2.211,0.224l-0.08-0.48
	c1.506,0.642,0.641-0.185,2.167,0.378l-0.02,0.08c0.668-0.09,1.026,0.511,1.356-0.259l-0.229-0.105
	c0.827-0.056,0.901,0.001,1.743,0.035c0.1-0.074,0.507-0.19,0.624-0.029c0.04-0.639,1.956-0.304,2.331-0.268
	c-0.667,0.097-0.353,0.368-0.164,0.628c0.396-0.525,0.667-0.58,1.209-0.205c0.081-0.798,0.192-1.648,1.266-1.7
	c-0.167,0.122-0.428,0.19-0.321,0.353c0.108,0.165,0.358-0.017,0.443-0.077c0.106,0.163-0.239,0.292-0.119,0.569
	c0.727-0.765,1.253-0.06,2.305-0.336c-0.334,0.242-0.048,0.396,0.071,0.671c0.084-0.904,1.438,0.778,1.04-0.386
	c2.058,0.689,5.226,0.026,6.027,0.775c0.216,0.326,0.79-0.207,1.147-0.224l-0.048,0.396c1.003-0.723,0.78-0.271,1.959-1
	c-0.487,0.474-0.284,0.689,0.209,1.06l0.809-0.827l0.158,0.612c0.333-0.242,0.703-0.147,1.074-0.051
	c-0.18,0.008-0.081,0.061-0.069,0.171c0.176-0.852,1.624-0.758,1.848-1.164c0.363,0.828,0.969-0.215,1.235,0.562
	c0.119-0.117,0.272-0.212,0.439-0.292c-0.175-0.361-0.24-0.767,0.087-0.591c0.028-0.005,0.049-0.009,0.076-0.014l0.144,0.481
	c0.332-0.114,0.671-0.171,0.896-0.181c-0.102-0.041-0.219-0.13-0.34-0.239c0.143,0.072,0.275,0.161,0.403,0.237
	c0.046-0.001,0.09,0,0.119,0.005c-0.021,0.014-0.045,0.022-0.071,0.023c0.203,0.112,0.414,0.167,0.703,0.002
	c1.167,0.732,2.585-1.024,3.873-0.017c-0.193-0.103-0.467-0.146-0.539,0.025c1.074-0.051,2.146,0.631,2.822,0.26l-0.051-0.448
	c0.787-0.207,1.395-0.354,2.03-0.328l0.031-0.508c0.923,0.182,2.896-0.646,3.469,0.397c0.223-0.406,1.276,0.114,1.8-0.024
	l0.136,0.388c0.685,0.124,1.105-0.017,1.513-0.132c1.394,0.804,2.671-0.002,3.885,0.049l0.012,0.112l1.227-0.284
	c-0.318,0.353,0.24-0.244,0.61-0.148c0.39-0.19,1.025-0.094,1.489,0.156l0.784,0.016c-0.868,0.268,0.067,0.56,0.122,1.009
	l0.497-0.362c0.204,0.215-0.319,0.354,0.052,0.448c0.332-0.242,1.324-0.232,1.628-0.698c-0.05-0.113-0.172-0.218-0.321-0.306
	c-0.041,0.029-0.039,0.022-0.013-0.008l-0.034-0.024c0.017,0.006,0.023,0.008,0.042,0.015c0.042-0.044,0.107-0.119,0.135-0.179
	c0.624,0.097,0.394-0.087,0.369-0.289c0.715,0.698,1.105,0.223,1.656,1.042c-0.745-0.923,1.621-0.016,1.153-0.895
	C545.979,477.544,545.805,476.87,546.149,477.474z M443.085,477.888l-0.175-0.127C442.8,477.9,442.688,478.024,443.085,477.888z
	 M480.996,482.056c-0.33-0.161-0.501-0.426-0.725,0.126C480.412,482.467,480.802,482.156,480.996,482.056z M496.268,480.912
	c-0.229-0.123-0.438-0.14-0.621-0.099C495.898,480.995,496.122,481.072,496.268,480.912z M538.771,477.354
	c-0.302-0.089-0.456-0.163-0.021,0.023C538.757,477.368,538.763,477.362,538.771,477.354z M494.534,481.581
	c-0.055-0.082-0.07-0.171-0.083-0.262C494.375,481.4,494.373,481.494,494.534,481.581z M464.71,482.546l-0.03-0.005
	c-0.018,0.028-0.026,0.058-0.031,0.087L464.71,482.546z M525.746,481.715c-0.186-0.069-0.29-0.157-0.359-0.248
	C525.377,481.586,525.462,481.685,525.746,481.715z M544.438,476.717l-0.575,0.128c0.278-0.025,0.38,0.08,0.521,0.155
	C544.369,476.889,544.258,476.726,544.438,476.717z M549.483,479.679c0.084-0.06,0.179-0.007,0.262-0.068l-0.026-0.224
	C549.359,479.404,549.11,479.586,549.483,479.679z M544.99,478.318c0.051,0.406,0.411,0.266,0.814,0.189
	c-0.024,0.002-0.047,0.005-0.071,0C545.846,477.939,545.417,478.129,544.99,478.318z M545.898,478.493
	c0.124-0.02,0.252-0.031,0.373-0.012C546.316,478.253,546.12,478.434,545.898,478.493z M540.813,477.285
	c0.192,0.104,0.115-0.519,0.226-0.354C541.247,476.413,539.768,477.562,540.813,477.285z M544.961,479.558l0.373,0.095l-0.151-0.5
	L544.961,479.558z M542.137,479.3l0.647,0.136c-0.011-0.084,0.071-0.134,0.171-0.172C542.558,479.25,542.12,479.152,542.137,479.3z
	 M543.475,479.179c-0.112,0.006-0.354,0.023-0.52,0.085C543.163,479.273,543.36,479.262,543.475,479.179z M543.803,479.669
	l0.649,0.138l-0.192-0.104L543.803,479.669z M535.19,479.236l-0.704,0.147c-0.07,0.172,0.123,0.276,0.385,0.207
	C535.039,479.47,535.3,479.402,535.19,479.236z M537.021,480.219l-0.017,0.622l0.331-0.242
	C537.144,480.495,537.13,480.383,537.021,480.219z M535.279,480.753c-0.068,0.173-1.02,0.499-0.125,0.456
	C535.225,481.038,535.93,480.892,535.279,480.753z M524.646,480.017l0.18-0.009l-0.032-1.018L524.646,480.017z M515.821,481.714
	c-0.504,0.257-0.77,0.114-0.535,0.783c0.837,0.24,0.196-0.629,0.953-0.328C516.435,481.928,515.621,481.923,515.821,481.714z
	 M515.821,481.714c0.081-0.04,0.166-0.089,0.257-0.156C515.933,481.623,515.864,481.672,515.821,481.714z M410.096,477.094
	l-0.538-0.215l0.348,0.344L410.096,477.094z M408.614,477.781c0.121-0.028,0.357-0.083,0.449,0.063l-0.126-0.649L408.614,477.781z
	 M482.065,483.004l0.419,0.366l0.041-0.156C482.443,483.045,482.317,483.032,482.065,483.004z M475.199,482.851l0.125,0.014
	l-0.232-0.588L475.199,482.851z M469.08,483.572c0.25,0.025,0.543-0.104,0.794-0.078C469.33,483.597,469.016,482.839,469.08,483.572
	z M446.024,419.975c-0.521-0.366-1.205-3.388-2.367-4.204c-6.607-4.638-9.835-11.237-9.489-19.217
	c0.058-1.333-2.673-3.588-2.654-4.028C431.044,403.386,437.272,413.831,446.024,419.975z M426.284,385.558
	c-2.355,10.964,2.437,21.392,10.132,29.098c0.389,0.39-1.269-3.143-1.977-3.852c-5.826-5.835-7.198-13.315-5.552-20.978
	C429.191,388.413,426.117,386.334,426.284,385.558z M172.072,470.129c0.614,2.286,0.553,5.27-1.338,6.986
	c-0.539,0.489-1.15,0.844-1.802,1.102c-0.097,3.468-1.027,7.231-4.382,8.948c-2.837,1.452-6.178,1.287-9.145,0.326
	c-3.046-0.988-7.49-4.057-8.205-7.404c-0.968,0.296-2.183,0.216-2.896-0.459c-3.129-2.964-4.733-8.077-1.226-11.495
	c1.187-1.156,2.551-1.832,3.978-2.117c0.412-3.481,3.016-6.347,6.844-6.375c3.667-0.027,7.084,1.07,8.604,3.998
	C166.61,463.137,170.897,465.756,172.072,470.129z M156.256,460.803C155.649,460.396,155.62,460.629,156.256,460.803
	L156.256,460.803z M164.44,478.712c-1.213-0.108-2.409-0.35-3.474-0.617c-0.243-0.061-2.256-0.666-1.568-1.249
	c0.726-0.615,2.323-0.27,3.125-0.068c0.849,0.213,1.575,0.168,2.199-0.048c0.007-0.128,0.02-0.252,0.023-0.382
	c0.022-1.042,0.781-1.196,1.647-0.904c1.003-1.407,1.289-3.561,0.923-5.319c-0.338-1.626-1.126-3.483-2.466-4.54
	c-0.028-0.022-0.063-0.048-0.096-0.073c-0.806,0.332-1.479,0.833-2.131,1.437c-0.997,0.926-5.379-0.544-4.693-1.181
	c0.151-0.141,0.313-0.253,0.47-0.38c0-0.005-0.006-0.01-0.006-0.016c-0.149-1.531-0.554-3.219-1.763-4.274
	c-0.474,0.136-0.943,0.298-1.369,0.55c-1.858,1.1-2.901,2.834-3.24,4.793c1.456,0.508,2.839,1.317,4.023,2.345
	c2.332,2.023-2.033,3.654-3.737,2.175c-1.559-1.353-4.01-2.583-5.431-0.283c-1.354,2.193-0.841,4.586,0.818,6.396
	c0.292-0.499,0.692-0.991,1.232-1.472c1.466-1.306,5.162,2.028,3.832,3.211c-3.321,2.958,0.369,5.065,3.448,5.494
	C160.602,484.919,163.531,482.491,164.44,478.712z M112.572,433.129c-0.159-0.883-0.51-1.751-1.122-2.581
	c-2.04-2.763-6.023-3.807-9.257-4.114c-6.308-0.601-13.101,2.468-11.114,9.129c-4.257-0.359-8.485,0.811-8.967,5.985
	c-0.435,4.665,2.928,7.563,6.798,9.09c-0.941,2.37-0.847,5.028,0.885,7.65c3.344,5.063,10.388,4.971,15.184,2.378
	c2.703-1.461-1.338-3.85-3.307-2.786c-2.855,1.543-6.328,1.49-7.908-1.78c-0.722-1.493-0.678-2.934-0.175-4.236
	c0.629,0.087,1.273,0.119,1.321-0.117c0.043-0.213-0.455-0.419-1.006-0.581c0.799-1.505,2.196-2.785,3.686-3.685
	c2.643-1.597-1.375-3.954-3.307-2.786c-1.964,1.187-3.63,2.781-4.702,4.602c-3.745-3.608-3.184-11.894,1.898-12.626
	c0.059,0.14,0.114,0.278,0.18,0.42c0.555,1.199,5.26,1.271,4.828,0.34c-2.243-4.844,0.507-9.532,6.05-9.319
	c1.949,0.075,3.648,1.237,4.612,2.903c1.522,2.627,0.108,5.951-1.341,8.258c-0.66,1.05,4.063,2.184,4.693,1.181
	c0.801-1.275,1.51-2.682,1.887-4.119c4.383,2.627,4.892,7.304,2.051,12.236c-1.018,1.766-7.19,8.799-8.914,4.885
	c-0.683-1.551-5.1-3.408-3.948-0.793c3.686,8.372,12.064,5.984,16.371-0.365C123.082,444.731,119.65,436.978,112.572,433.129z
	 M472.624,389.15c-0.276-1.269-3.18-0.517-2.898,0.776c1.105,5.079,4.714,7.52,9.601,8.544c0.72,0.151,1.53,0.022,2.05-0.549
	c0.409-0.45,0.314-1.177-0.353-1.316C476.643,395.687,473.616,393.711,472.624,389.15z M244.612,433.315
	c0.329-0.525-2.391-0.328-2.875,0.446c-3.668,5.869-10.531,6.755-16.206,3.251c-0.773-0.478-3.288,0.696-2.713,1.051
	C230.155,442.594,239.984,440.721,244.612,433.315z M473.814,339.386c24.833-9.477,49.89,7.503,54.911,32.541
	c0.269,1.337,3.172,0.588,2.898-0.776c-5.455-27.195-32.899-43.455-59.089-33.459C470.676,338.399,472.324,339.955,473.814,339.386z
	" fill="#0984E3"></path>
</svg>