<?xml version="1.0" standalone="no"?>
<svg version="1.1" id="Layer_1" xmlns="http://www.w3.org/2000/svg" xmlns:xlink="http://www.w3.org/1999/xlink" x="0px" y="0px" width="595.28px" height="595.28px" viewBox="0 0 595.28 595.28" enable-background="new 0 0 595.28 595.28" xml:space="preserve">
<path id="color_x5F_2" fill="#b5ff63" d="M432.46,237.259l-4.814,10.03c-2.482,4.027-5.108,7.977-7.024,12.313
		c-3.231-2.193-6.625-4.226-10.006-6.287l-14.391-10.074c-1.276-1.127-2.499-2.315-3.653-3.582c0.472-0.919,1.635-2.415,2.133-3.206
		c1.601-2.54,3.199-5.081,4.776-7.635c1.92-3.11,4.07-6.586,5.497-9.829c1.015,0.523,2.186,1.35,2.851,1.721
		c2.704,1.51,5.354,3.118,7.989,4.745C421.536,228.987,427.521,232.649,432.46,237.259z M402.775,217.436
		c0.037-0.098,0.094-0.183,0.159-0.261l-0.737-0.452l-6.371,13.321c0.133-0.214,0.27-0.426,0.401-0.64
		C398.618,225.532,401.161,221.665,402.775,217.436z M55.539,389.573c0.838-5.808,4.607-10.129,9.019-13.714
		c-0.13,0.001-0.261-0.002-0.391,0c-0.978,0.011-2.268-0.081-3.677-0.172l-8.643,0.355c-0.596,0.184-1.129,0.42-1.555,0.738
		c-0.348,0.259-1.16,0.382-1.8,0.342c-0.053,0.139-0.132,0.4-0.205,0.87c-0.102,0.665-0.181,1.331-0.225,2.002
		c-0.145,2.199-0.165,4.405-0.145,6.607c0.055,5.785,0.294,11.567,0.559,17.346c0.547,11.942,1.37,23.899,1.416,35.858
		c0.092,0.103,0.133,0.236,0.089,0.412c-0.127,0.502,1.543,0.745,1.798,0.708c2.158-0.312,3.519-3.153,4.1-4.976
		c2.259-7.086,1.084-14.656,3.299-21.778c1.276-4.103,3.202-8.017,5.782-11.162c-0.046-0.013-0.091-0.026-0.13-0.047
		C59.933,400.335,54.635,395.83,55.539,389.573z M58.746,386.664c0.124-0.319,0.268-0.635,0.451-0.941
		c1.552-2.586,2.874-4.703,3.916-6.332C61.146,381.524,59.464,383.977,58.746,386.664z M62.058,398.03
		c-1.58-2.136-3.149-4.808-3.615-7.442C58.747,393.627,60.099,396.048,62.058,398.03z M47.984,377.041
		c-0.181,0.067-0.362,0.121-0.531,0.157l0,0.109c0.505,0.023,0.798-0.091,0.95-0.191C48.247,377.103,48.105,377.077,47.984,377.041z
		 M240.816,289.62c-1.831-9.239-3.69-18.001-6.97-26.861c-2.53-6.835-7.562-12.647-8.667-20c-0.024-0.16,0.003-0.31,0.069-0.45
		c-10.113-4.452-19.847-9.887-29.007-15.719c-12.831-8.168-28.3-18.286-35.063-32.499c-0.093-0.196-0.042-0.388,0.096-0.563
		c-0.041-0.028-0.073-0.063-0.096-0.104c-0.697-1.242-1.412-2.487-1.965-3.802c-1.359-3.228-2.274-7.039-1.509-10.208
		c0.192-0.794,0.498-1.544,0.921-2.238c0.82-1.34,2.093-2.464,3.998-3.215c6.473-2.552,13.829-0.51,19.611,2.88
		c11.45,6.712,18.537,18.365,28.314,27.073c2.944,2.622,6.027,4.98,9.224,7.135c-0.542-10.548-4.168-18.142-13.104-24.765
		c-4.905-3.636-10.465-7.939-16.403-11.468c-0.921,0.138-1.408-0.282-1.279-0.744c-8.287-4.718-17.263-7.749-26.211-5.259
		c-0.211,0.079-0.421,0.157-0.625,0.246c-0.068,0.048-0.136,0.096-0.218,0.142c-2.354,1.31-4.099,2.825-5.357,4.486
		c-0.901,1.19-1.555,2.455-1.986,3.779c-1.99,6.108,0.619,13.433,4.058,20.063c6.417,12.373,14.471,23.872,19.913,36.753
		c2.923,6.921,5.319,14.216,6.005,21.738c0.319,3.507,0.444,7.051,0.062,10.561c-0.274,2.514-0.277,6.172-1.748,8.353
		c-2.468,3.658-6.82,5.985-10.199,8.697c-8.283,6.646-15.049,14.552-20.667,23.56c-0.132,0.212-0.361,0.379-0.631,0.502
		c0.013,0.011,0.023,0.02,0.037,0.031c0.595-0.259,1.329-0.35,1.692-0.082c8.561,6.316,15.351,15.835,25.247,20.201
		c6.958,3.07,13.466,0.717,20.557-0.079c3.424-0.385,7.533-0.732,10.681,1.027c1.78,0.995,3.033,2.307,4.007,3.787
		c2.561-9.5,4.721-19.08,6.237-28.728c0.178-1.132,3.119-1.596,2.915-0.297c-1.716,10.916-4.38,21.704-7.447,32.363
		c0.821,2.041,1.444,4.201,2.255,6.25c1.941,2.744,4.384,5.843,6.776,7.916c2.495,1.229,5.206,1.401,7.814-0.488
		c1.595-1.155,3.038-2.481,4.585-3.694c2.1-1.646,4.225-2.957,6.664-3.909c0.862-4.315,1.349-8.675,1.532-13.055
		c-0.14-5.131-0.345-11.284-0.642-17.458C243.521,304.113,242.236,296.785,240.816,289.62z M200.492,226.34
		c-2.048-1.293-4.113-2.604-6.15-3.906c1.048,0.679,2.087,1.347,3.104,1.995C198.455,225.071,199.472,225.708,200.492,226.34z
		 M185.649,182.13c-2.919-2.514-6.075-4.698-9.579-6.181C179.157,177.638,182.534,179.891,185.649,182.13z M234.532,508.394
		c0-0.001-0.001-0.002-0.001-0.003c-0.919-2.298-4.06-3.646-9.417-4.261c-2.792-0.174-5.537-0.07-7.238-0.234
		c-0.517-0.05-1.047-0.112-1.582-0.181c-1.776-0.029-3.568-0.385-5.321-0.959c-5.999-1.407-12.127-4.006-15.987-8.198
		c-3.229,4.213-7.184,7.474-12.729,8.213c-5.036,0.671-9.707-2.047-13.512-5.158c-1.876,4.427-3.909,8.747-6.088,12.837
		c-0.091,0.17-0.262,0.315-0.475,0.434c0.102,0.045,0.177,0.111,0.214,0.202c0.47,1.159,2.249,1.738,4.375,2.022
		c1.227,0.101,2.626,0.184,4.179,0.252c1.981,0.015,3.769-0.072,4.655-0.061c4.862,0.059,9.713-0.16,14.573-0.192
		c7.191-0.048,14.384-0.004,21.576-0.004c7.782,0,15.509-0.839,23.28-0.98c-0.334-0.842-0.072-2.004-0.3-3.058
		C234.683,508.828,234.612,508.607,234.532,508.394z M235.626,513.042c0.119-0.001,0.241-0.002,0.357-0.002
		c-0.063-0.026-0.122-0.054-0.178-0.083C235.746,512.986,235.687,513.015,235.626,513.042z M237.451,513.034c0.17,0,0.345,0,0.509,0
		c0,0-0.079-0.054-0.187-0.134C237.668,512.95,237.561,512.995,237.451,513.034z"></path>
	
<path id="color_x5F_1" d="M185.891,126.974c0.73,0.828-2.039,1.867-2.693,1.125c-1.48-1.679-2.916-0.896-4.057,0.709
	c-0.536,0.754-3.451,1.022-2.693-0.044C178.47,125.918,183.178,123.896,185.891,126.974z M173.113,120.658
	c0.683,0.045,1.479-0.169,2.049-0.549c1.181-0.787,2.393-1.662,3.764-2.082c0.268-0.082,1.446-0.4,1.317-0.88
	c-0.125-0.468-1.314-0.185-1.581-0.104c-2.1,0.642-3.918,1.708-5.736,2.918C172.459,120.274,172.554,120.622,173.113,120.658z
	 M181.941,142.073c0.942,0.894,2.211,1.17,3.445,1.419c0.654,0.132,1.533-0.147,2.049-0.549c0.487-0.378,0.324-0.752-0.231-0.864
	c-0.935-0.189-1.845-0.407-2.555-1.081C183.988,140.373,181.287,141.452,181.941,142.073z M365.434,164.925
	c16.928,5.892,35.892,20.804,36.401,40.255c0.036,1.392,2.947,0.84,2.918-0.287c-0.531-20.282-19.904-35.586-37.599-41.745
	C366.069,162.77,363.745,164.337,365.434,164.925z M371.117,156.65c13.473,3.987,26.521,9.783,36.771,19.613
	c9.98,9.572,14.919,22.568,15.957,36.162c0.054,0.693,2.968,0.136,2.898-0.776c-1.03-13.485-5.892-25.77-15.298-35.585
	c-10.104-10.542-24.217-16.569-37.975-20.641C372.731,155.204,370.13,156.357,371.117,156.65z M545.598,239.038
	c-3.739,6.663-8.214,12.89-12.874,18.934c-4.758,6.17-9.729,12.167-14.655,18.201c-2.819,3.453-6.632,7.168-8.388,11.338
	c-0.12,0.285-0.518,0.51-0.979,0.656c1.653,0.527,3.323,1.018,5.011,1.468c0.762-0.146,1.511-0.07,1.429,0.332
	c1.093,0,2.187,0,3.279,0c0.633,0,1.001,0.222,1.158,0.523c0.588-0.045,1.086,0.091,1.06,0.52
	c-1.419,22.686-9.292,45.271-16.75,66.563c-4.709,13.441-9.712,26.813-15.25,39.938c-0.329,0.778-2.711,1.111-2.888,0.596
	c-12.345,0.003-24.689,0.062-37.034,0.147c0.021,0.132,0.034,0.269,0.063,0.395c0.019,0.082,0.003,0.162-0.026,0.24
	c6.801,15.124,13.728,30.22,21.342,44.954c2.9,5.614,5.839,11.246,9.215,16.592c0.691,1.096,2.38,4.327,4.164,6.402
	c1.472-0.035,2.967,0.029,4.472,0.202c0.789,0.09,0.791,0.542,0.473,0.923c0.116,0.021,0.234,0.042,0.351,0.064l1.203,0.172
	c0,0,0.149,0.076,0.391,0.203c10.735,2.988,16.84,14.041,15.407,25.162c-1.62,12.576-12.03,20.763-24.739,18.759
	c-12.702-2.003-22.861-12.435-21.096-25.728c-27.77,0-55.539,0-83.31,0c-1.077,9.095-5.496,17.625-13.772,22.42
	c-11.918,6.906-29.764,3.753-39.458-5.685c-9.495-9.245-12.434-24.284-6.648-36.34c4.507-9.393,12.7-14.696,22.055-16.56
	c-0.244-1.513-0.694-3.112-0.881-4.264c-0.928-5.713-1.94-11.413-2.962-17.109c-1.793-9.99-3.641-19.973-5.516-29.95
	c-0.091,0-0.182,0-0.273,0c-1.81,0-1.479-1.807-0.119-2.095c-2.135-11.335-4.305-22.664-6.484-33.992
	c-0.795-0.263-0.805-1.064-0.304-1.584c-2.429-12.625-4.863-25.249-7.263-37.879c-0.024-0.132-0.05-0.264-0.074-0.396
	c-4.902-25.811-9.651-51.647-13.885-77.565c-2.293-0.678-4.3-2.038-5.476-4.122c-1.327,2.406-2.872,5.402-5.234,6.656
	c-4.657,2.471-10.767,3.313-15.966,3.609c-8.899,0.507-17.937,0.69-26.626-1.535c-6.555-1.678-13.013-3.912-19.335-6.542
	c1.628,7.104,6.479,13.24,9.036,20.046c3.447,9.176,5.1,18.666,6.876,28.264c2.756,14.89,4.888,30.411,2.729,45.509
	c0.266,0.148,0.428,0.4,0.384,0.777c-5.85,50.812-18.848,99.768-33.075,148.762c-0.287,0.989-2.215,1.402-2.798,0.851
	c-6.014-1.121-11.929-2.708-17.586-4.952c-0.211,3.354,0.716,6.349,2.444,8.892c0.157,0.068,0.243,0.174,0.226,0.326
	c1.813,2.527,4.421,4.588,7.5,6.067c7.761,3.729,15.463,3.593,23.792,4.581c2.95,0.35,7.539,1.077,9.151,4.03
	c0.431,0.79,0.408,4.578,1.092,4.742c1.066,0.255,0.44,0.942-0.401,1.345c-0.105,0.05-0.213,0.095-0.322,0.135
	c-0.381,0.14-0.768,0.21-1.038,0.146c-0.161-0.039-0.301-0.087-0.431-0.14c-0.063-0.026-0.122-0.054-0.178-0.083
	c-0.059,0.029-0.118,0.058-0.179,0.085c-0.379,0.171-0.789,0.298-1.046,0.301c-8.244,0.098-16.437,1.002-24.689,1.002
	c-7.749,0-15.514-0.15-23.26,0.052c-5.692,0.148-11.416,0.334-17.104,0.013c-2.232-0.126-8.92,0.184-10.028-2.548
	c-0.094-0.231,0.27-0.511,0.77-0.724c-0.381-0.122-0.582-0.392-0.337-0.852c6.298-11.823,11.435-25.404,14.573-38.43
	c0.015-0.061,0.04-0.118,0.07-0.174c-3.9-2.869-7.732-5.836-11.749-8.548c-0.305-0.206-0.428-0.521-0.229-0.858
	c14.206-24.211,24.361-51.188,33.877-77.503c5.751-15.902,11.518-32.129,16.141-48.602c-0.404-0.86-0.857-1.689-1.415-2.447
	c-1.623-2.206-3.614-3.432-5.84-4.049c-10.157,22.881-29.451,42.617-48.094,58.758c-19.607,16.976-43.039,33.892-69.176,38.377
	c-2.003,0.344-0.939-1.316,0.411-1.548c25.858-4.438,49.475-22.052,68.569-39.127c17.727-15.853,36.188-34.745,45.778-56.906
	c-7.947-0.728-18.013,3.939-25.427,0.668c-2.313-1.021-4.445-2.278-6.471-3.677c-9.053,14.037-23.973,24.834-38.275,32.868
	c-14.226,7.991-31.683,14.541-48.2,11.272c-1.626,8.509-2.208,17.31-1.98,25.957c0.343,0.153,0.281,0.415,0.016,0.682
	c0.274,8.968,1.088,18.542,5.233,26.649c0.506,0.99-2.328,1.89-2.897,0.776c-4.13-8.076-5.042-17.712-5.243-26.682
	c-10.468-1.154-16.382,9.818-18.211,18.78c-1.42,6.957,0.076,15.448-3.786,21.732c-1.501,2.442-3.934,4.479-6.965,4.383
	c-0.873-0.027-3.365-0.392-3.577-1.622c-0.038-0.044-0.065-0.093-0.065-0.155c-0.043-15.151-1.302-30.283-1.795-45.422
	c-0.084-2.564-2.62-20.752,3.445-19.616c3.23-1.979,7.266-1.694,10.959-1.601c7.109,0.179,14.169,0.019,21.268,0.481
	c0.274-1.848,0.584-3.69,0.961-5.519c0.187-0.905,1.567-1.21,2.321-1.023c17.158,4.276,35.738-3.451,50.239-12.206
	c12.989-7.841,26.455-17.888,34.532-31.013c0.025-0.041,0.061-0.079,0.094-0.116c-6.357-4.825-11.735-10.955-18.207-15.729
	c-0.652-0.481-0.132-1.055,0.6-1.373c0.595-0.259,1.329-0.35,1.692-0.082c8.561,6.316,15.351,15.835,25.247,20.201
	c6.958,3.07,13.466,0.717,20.557-0.079c3.424-0.385,7.533-0.732,10.681,1.027c1.78,0.995,3.033,2.307,4.007,3.787
	c2.561-9.5,4.721-19.08,6.237-28.728c0.178-1.132,3.119-1.596,2.915-0.297c-1.716,10.916-4.38,21.704-7.447,32.363
	c0.821,2.041,1.444,4.201,2.255,6.25c0.929,2.35,2.114,4.548,4.176,6.223c0.829,0.673,1.701,1.25,2.601,1.693
	c2.495,1.229,5.206,1.401,7.814-0.488c1.595-1.155,3.038-2.481,4.585-3.694c2.1-1.646,4.225-2.957,6.664-3.909
	c0.862-4.315,1.349-8.675,1.532-13.055c0.243-5.805-0.035-11.643-0.642-17.458c-0.769-7.367-2.053-14.695-3.473-21.86
	c-1.831-9.239-3.69-18.001-6.97-26.861c-2.53-6.835-7.562-12.647-8.667-20c-0.024-0.16,0.003-0.31,0.069-0.45
	c-10.113-4.452-19.847-9.887-29.007-15.719c-12.831-8.168-28.3-18.286-35.063-32.499c-0.093-0.196-0.042-0.388,0.096-0.563
	c-0.041-0.028-0.073-0.063-0.096-0.104c-0.697-1.242-1.412-2.487-1.965-3.802c-1.359-3.228-2.274-7.039-1.509-10.208
	c0.192-0.794,0.498-1.544,0.921-2.238c0.82-1.34,2.093-2.464,3.998-3.215c6.473-2.552,13.829-0.51,19.611,2.88
	c11.45,6.712,18.537,18.365,28.314,27.073c2.944,2.622,6.027,4.98,9.224,7.135c-0.542-10.548-4.168-18.142-13.104-24.765
	c-4.905-3.636-10.465-7.939-16.403-11.468c-0.921,0.138-1.408-0.282-1.279-0.744c-8.287-4.718-17.263-7.749-26.211-5.259
	c-0.168,0.047-0.336,0.103-0.504,0.153c-0.038,0.032-0.078,0.062-0.122,0.093c-0.068,0.048-0.136,0.096-0.218,0.142
	c-2.354,1.31-4.099,2.825-5.357,4.486c-0.901,1.19-1.555,2.455-1.986,3.779c-1.99,6.108,0.619,13.433,4.058,20.063
	c6.417,12.373,14.471,23.872,19.913,36.753c2.923,6.921,5.319,14.216,6.005,21.738c0.319,3.507,0.444,7.051,0.062,10.561
	c-0.274,2.514-0.277,6.172-1.748,8.353c-2.468,3.658-6.82,5.985-10.199,8.697c-8.283,6.646-15.049,14.552-20.667,23.56
	c-0.132,0.212-0.361,0.379-0.631,0.502c-1.065,0.486-2.806,0.268-2.133-0.812c5.23-8.387,11.418-16.107,19.012-22.478
	c2.639-2.214,5.405-4.248,8.13-6.35c1.378-1.063,3.53-2.375,4.08-4.146c1.664-5.357,2.005-10.944,1.451-16.531
	c-6.675,7.649-14.898,12.839-23.918,15.981c-1.642,0.605-3.383,1.137-5.198,1.56c-11.282,2.896-23.515,2.91-35.337,0.785
	c-14.411-2.591-30.697-7.311-42.775-16.012c-8.992-6.478-16.009-16.316-16.476-27.724c-0.028-0.693-0.035-1.395-0.028-2.103
	c-0.943-6.195,0.829-11.856,3.674-16.571c1.739-3.59,4.131-6.796,7.277-9.21c1.318-1.011,2.684-1.829,4.078-2.559
	c1.363-0.883,2.572-1.498,3.483-1.802c2.979-0.993,6.245-2.644,8.78-4.054c3.449-2.688,4.184-6.563,4.661-11.376
	c0.794-8.001,0.512-17.783,5.82-24.409c4.635-5.786,12.025-9.486,19.423-9.764c3.826-0.144,8.82,0.618,12.333-1.167
	c3.557-1.807,4.872-5.372,5.359-9.068c-0.539-13.881-1.506-29.207,11.548-37.77c6.037-3.96,14.631-5.029,19.057-11.119
	c3.313-4.559,6.804-9.886,12.988-10.58c11.271-1.264,21.39,11.593,15.778,22.16c-0.818,1.54-1.883,2.891-3.109,4.093
	c0.251,0.153,0.42,0.398,0.425,0.755c0.06,5.038,0.569,10.086,1.841,14.974c1.349,5.183,3.914,6.272,9.073,6.086
	c1.258-0.046,1.47,0.797,1.036,1.43c0.241,0.105,0.345,0.301,0.173,0.617c-1.695,3.126-4,4.19-3.918,8.27
	c0.052,2.554,0.271,5.101,0.268,7.656c-0.003,3.407-1.832,6.323-4.767,8.043c-2.601,1.523-5.343,2.045-8.295,2.447
	c-5.067,0.69-6.961,3.695-8.029,8.018c19.048-7.08,38.315-13.611,57.877-19.128c33.466-9.439,69.692-18.173,104.778-15.836
	c6.703,0.447,14.521,1.003,20.54,4.342c1.21,0.672,2.809,1.684,3.149,3.147c0.67,2.872-3.429,3.505-7.101,3.501
	c0.889,0.477,1.754,0.992,2.566,1.585c2.795,2.042,7.054,6.531,5.446,10.389c-1.768,4.243-8.505,1.677-13.476-0.538
	c2.252,2.92,4.164,6.112,5.53,8.972c2.22,4.644,1.132,8.084-3.463,8.027c-0.69,0.323-1.652,0.495-2.047,0.159
	c-6.049-5.144-12.852-13.463-21.105-14.782c-11.863-1.896-8.402,11.29-11.101,18.033c-0.311,0.778-1.611,1.055-2.344,0.938
	c-8.385-1.347-11.08-8.766-15.488-14.908c-0.058,0.008-0.115,0.015-0.169,0.015c-36.589,0.108-72.375,6.814-107.823,15.329
	c3.74,2.208,7.39,4.707,10.984,7.187c5.225,3.606,11.152,7.403,14.614,12.897c3.507,5.565,4.175,11.901,4.233,18.354
	c0.001,0.09-0.04,0.175-0.106,0.254c5.912,3.652,12.228,6.592,18.982,8.836c6.606,2.195,13.457,4.025,20.405,4.701
	c3.507,0.341,7.114,0.563,10.624,0.112c2.855-0.367,5.059-2.037,7.42-3.549c7.854-5.03,15.819-10.942,25.388-11.879
	c5.457-0.534,10.48,1.961,13.32,6.648c1.281,2.116,2.228,4.395,2.909,6.771c0.278,0.972,1.189,2.831,0.483,3.208
	c0.004,0.025,0.009,0.052,0.012,0.077c0.672,0.003,0.51,0.239,0.077,0.491c0.474,4.774-2.667,8.906-7.716,8.273
	c0.971,6.371-4.783,9.708-10.387,9.505c2.26,13.636,4.824,27.224,7.345,40.813c0.191,1.031,0.386,2.062,0.577,3.093
	c0.108-0.021,0.221-0.035,0.342-0.035c2.573,0,5.146,0,7.721,0c1.498-4.38,3.757-8.486,6.777-12.001
	c8.904-10.361,22.019-14.056,35.27-11.563c0.242,0.045,0.387,0.117,0.468,0.203c12.485,1.67,23.523,11.398,29.316,23.361
	c11.008,0,22.016,0,33.023,0c0.324-0.077,0.665-0.078,0.964,0c3.574,0,7.149,0,10.725,0c1.063-4.559,2.125-9.117,3.221-13.667
	c1.425-5.915,2.281-12.802,4.852-18.369c0.133-0.289,0.543-0.514,1.014-0.658c0.59-0.231,1.285-0.35,1.599-0.185
	c6.64,3.494,13.148,7.28,19.67,11.039c5.362-12.114,14.235-23.86,23.007-33.498c4.95-5.439,15.709-17.001,23.677-9.347
	c5.104,4.904,2.15,13.317-1.471,20.177c6.042-7.678,12.448-15.12,19.685-21.498c2.896-2.552,6.564-5.814,10.644-6.054
	c3.464-0.204,7.104,2.509,7.569,6.003C550.849,229.168,548.088,234.6,545.598,239.038z M51.847,376.042
	c-0.596,0.184-1.129,0.42-1.555,0.738c-0.348,0.259-1.16,0.382-1.8,0.342c-0.053,0.139-0.132,0.4-0.205,0.87
	c-0.102,0.665-0.181,1.331-0.225,2.002c-0.145,2.199-0.165,4.405-0.145,6.607c0.055,5.785,0.294,11.567,0.559,17.346
	c0.547,11.942,1.37,23.899,1.416,35.858c0.092,0.103,0.133,0.236,0.089,0.412c-0.127,0.502,1.543,0.745,1.798,0.708
	c2.158-0.312,3.519-3.153,4.1-4.976c2.259-7.086,1.084-14.656,3.299-21.778c1.276-4.103,3.202-8.017,5.782-11.162
	c-0.046-0.013-0.091-0.026-0.13-0.047c-4.898-2.627-10.196-7.133-9.292-13.39c0.838-5.808,4.607-10.129,9.019-13.714
	c-0.13,0.001-0.261-0.002-0.391,0c-0.978,0.011-2.268-0.081-3.677-0.172C57.587,375.5,54.177,375.323,51.847,376.042z
	 M47.454,377.307c0.505,0.023,0.798-0.091,0.95-0.191c-0.157-0.014-0.299-0.039-0.42-0.075c-0.181,0.067-0.362,0.121-0.531,0.157
	c-0.225,0.049-0.427,0.066-0.569,0.038C47.102,377.28,47.287,377.299,47.454,377.307z M79.577,395.967
	c-0.082-6.516,0.193-13.07,1.047-19.54c-4.572-0.346-9.154-0.542-13.739-0.564c-1.263,1.041-2.568,2.225-3.772,3.529
	c-1.967,2.132-3.649,4.585-4.367,7.272c-0.277,1.037-0.414,2.107-0.365,3.207c0.011,0.244,0.038,0.479,0.062,0.716
	c0.305,3.04,1.657,5.46,3.615,7.442c1.257,1.273,2.76,2.366,4.395,3.326C69.861,397.924,74.231,395.783,79.577,395.967z
	 M210.973,502.756c-5.999-1.407-12.127-4.006-15.987-8.198c-3.229,4.213-7.184,7.474-12.729,8.213
	c-5.036,0.671-9.707-2.047-13.512-5.158c-1.876,4.427-3.909,8.747-6.088,12.837c-0.091,0.17-0.262,0.315-0.475,0.434
	c0.102,0.045,0.177,0.111,0.214,0.202c0.47,1.159,2.249,1.738,4.375,2.022c1.335,0.179,2.801,0.242,4.179,0.252
	c1.981,0.015,3.769-0.072,4.655-0.061c4.862,0.059,9.713-0.16,14.573-0.192c7.191-0.048,14.384-0.004,21.576-0.004
	c7.782,0,15.509-0.839,23.28-0.98c-0.334-0.842-0.072-2.004-0.3-3.058c-0.051-0.236-0.122-0.457-0.201-0.67
	c-1.173-3.156-5.343-4.01-9.419-4.264c-2.792-0.174-5.537-0.07-7.238-0.234c-0.517-0.05-1.047-0.112-1.582-0.181
	C214.576,503.496,212.782,503.18,210.973,502.756z M191.231,481.759c-2.843-1.259-5.62-2.678-8.289-4.33
	c-2.055-1.271-4.043-2.635-6.004-4.036c-1.835,7.217-4.266,14.585-7.155,21.715c0.034,0.02,0.07,0.037,0.098,0.063
	c2.854,2.544,6.302,5.357,10.231,5.928c6.24,0.906,10.275-3.626,13.462-8.298C191.514,489.834,190.518,486.192,191.231,481.759z
	 M243.818,343.94c-0.18-0.029-0.334-0.086-0.45-0.175c-5.906,2.944-11.049,10.956-18.338,8.915
	c-3.772-1.056-6.993-3.284-8.774-6.854c-0.897-1.799-1.505-3.811-2.16-5.799c-1.419,4.771-2.898,9.518-4.405,14.235
	c-6.222,19.488-13.158,38.764-20.816,57.734c-6.504,16.113-13.286,32.329-21.834,47.487c-1.337,2.371-1.467,2.387,0.825,4.033
	c1.792,1.287,3.562,2.605,5.323,3.934c3.283,2.477,6.562,4.983,10.031,7.197c8.835,5.638,18.399,9.12,28.611,11.173
	C225.386,439.06,237.752,392.312,243.818,343.94z M176.597,167.103c-0.101,0.121-0.243,0.231-0.419,0.326
	c5.124,0.925,10.023,3.015,14.768,5.652c35.815-8.658,71.97-15.517,108.919-15.861c0.195-0.713,2.294-1.345,2.779-0.732
	c4.326,5.467,6.712,13.111,13.67,15.347c1.249-4.482,0.387-9.401,2.329-13.584c1.49-3.209,5.759-4.612,8.956-5.123
	c9.484-1.517,18.3,8.443,24.908,14.364c0.113-0.011,0.222-0.013,0.317,0.004c5.354,0.955-1.946-9.853-3.122-11.439
	c-2.468-3.333-5.295-7.36-8.879-9.593c-1.283-0.8,1.348-2.101,2.273-1.523c1.704,1.062,3.354,2.474,4.906,4.086
	c0.178-0.02,0.336-0.02,0.454,0.016c2.905,0.858,5.587,2.301,8.42,3.353c0.673,0.25,4.539,1.995,4.848,0.466
	c0.306-1.515-0.503-3.582-1.292-4.854c-3.636-5.861-11-7.813-17.21-9.664c-1.099-0.328,1.516-1.563,2.328-1.32
	c1.972,0.588,4.011,1.18,6.008,1.883c0.298-0.132,0.625-0.202,0.93-0.159c1.564,0.222,8.176,0.43,8.152-0.259
	c-0.12-3.465-8.868-4.855-11.125-5.288c-11.06-2.12-22.643-1.851-33.817-1.029C268.004,135.677,221.131,150.459,176.597,167.103z
	 M160.896,167.387c-0.015,0.02-0.027,0.04-0.041,0.059c0.024-0.01,0.049-0.024,0.073-0.033
	C160.912,167.405,160.905,167.396,160.896,167.387z M173.881,167.098c1.62-8.343,5.489-10.577,13.323-11.831
	c7.717-1.236,8.105-6.617,7.923-13.2c-0.063-2.269-0.238-4.402,0.474-6.579c0.623-1.905,2.576-3.134,3.554-4.865
	c-3.584,0.056-7.141-0.345-9.202-3.698c-2.93-4.766-3.052-12.468-3.113-18.189c-5.43,3.818-12.895,5.398-19.347,5.426
	c-0.015,7.219-0.426,14.118-6.595,18.562c1.74,0.361,3.357,1.552,4.346,3.676c0.203,0.437-2.587,1.443-2.897,0.776
	c-2.135-4.583-6.866-3.321-6.164,1.776c0.344,2.49,2.677,8.189,6.557,5.215c0.261-0.2,2.69-1.187,2.755-0.518
	c0.456,4.711,0.019,9.548-0.463,14.241c-0.271,2.634-0.091,6.441-1.31,8.881c-0.179,0.357-0.938,0.581-1.631,0.669
	c0.26,0.117,0.454,0.305,0.542,0.53C166.512,166.926,170.254,166.703,173.881,167.098z M294.553,238.352
	c-0.011-0.089-0.033-0.171-0.042-0.262c-0.049-0.505,0.329-0.918,0.828-1.17c2.801-5.136,6.736-12.292,12.796-11.998
	c2.245,0.109,4.801,2.149,4.854,4.538c0.035,1.58,0.011,4.959,2.247,5.313c5.512,0.872,4.559-5.264,3.608-8.016
	c-0.039-0.113-0.034-0.223-0.005-0.329c-0.386-1.364-0.611-2.91-0.864-3.566c-1.891-4.898-5.354-9.856-10.999-10.552
	c-11.207-1.381-21.002,9.287-30.311,14.026c-6.396,3.256-16.28,1.59-22.959,0.292c-10.194-1.98-20.464-5.255-29.63-10.198
	c-11.051-5.96-19.987-14.556-28.276-23.873c-3.137-3.526-6.453-7.243-10.151-10.429c-2.919-2.514-6.075-4.698-9.579-6.181
	c-1.85-0.784-3.795-1.375-5.852-1.717c-13.407-2.234-10.279,11.046-6.142,18.416c0.047,0.083-0.08,0.211-0.301,0.348
	c0.13,0.077,0.235,0.181,0.301,0.319c5.876,12.349,18.792,21.688,30.265,29.12c1.048,0.679,2.087,1.347,3.104,1.995
	c1.009,0.642,2.025,1.279,3.046,1.911c13.517,8.377,28.025,15.82,43.202,20.542c7.166,2.23,13.882,3.262,21.379,3.304
	c6.896,0.038,14.067,0.074,20.697-2.109c4.583-1.509,5.991-4.886,8.315-8.898C294.237,238.917,294.393,238.639,294.553,238.352z
	 M301.958,243.445c0.787-0.25,1.711-0.251,1.785,0.203c0.021,0.123,0.042,0.246,0.063,0.369c0.766,0.141,1.564,0.181,2.374,0.109
	c4.92-0.439,6.485-4.306,4.998-8.702c-0.041-0.123-0.043-0.239-0.025-0.352c-1.403-1.971-0.268-5.505-2.172-7.257
	c-3.758-3.457-8.874,5.314-11.478,10.122C297.971,240.504,299.698,242.459,301.958,243.445z M469.199,269.369
	c5.844,3.357,11.714,6.654,17.705,9.681c4.162-6.947,9.895-13.184,14.36-19.904c3.468-5.219,6.878-10.596,9.337-16.378
	c1.612-3.79,3.632-8.701,2.471-12.891c-4.048-14.613-20.076,4.118-23.973,8.91C481.617,247.989,473.777,258.326,469.199,269.369z
	 M439.479,289.967c22.845,0,45.689,0,68.534,0c-7.455-2.251-14.574-5.251-21.51-8.666c-0.489,0.002-0.83-0.109-0.707-0.357
	c-13.246-6.583-25.854-14.592-38.915-21.591c-2.74,6.907-3.774,15.131-5.446,22.201
	C440.773,284.356,440.133,287.164,439.479,289.967z M461.885,379.604c0.82,8.034,8.147,12.695,16.026,11.453
	c13.675-2.157,9.882-25.927-2.911-24.029c-1.054,0.156-1.27-0.239-1.041-0.679c-5.285-0.375-9.665,2.92-11.37,7.583
	c0.269,0.078,0.534,0.171,0.803,0.244c0.505,0.137-0.313,0.605-1.151,0.891C461.866,376.498,461.724,378.027,461.885,379.604z
	 M478.533,364.063c-7.141-0.025-14.282-0.062-21.424-0.106c-0.628,2.407-1.254,4.815-1.882,7.222
	c1.655,0.757,3.332,1.429,5.027,2.015c2.843-6.333,9.428-9.509,16.61-8.302c0.442,0.074,0.579,0.234,0.534,0.425
	c0.203,0.005,0.407,0.008,0.606,0.024C478.176,364.913,478.357,364.489,478.533,364.063z M448.478,386.676
	c1.23-4.895,2.496-9.78,3.769-14.663c-4.76-2.216-9.342-5.051-13.723-8.187c-4.425-0.034-8.85-0.068-13.274-0.104
	c-0.262,10.861-0.461,21.724-0.478,32.589c7.031-0.063,14.063-0.123,21.096-0.174C446.33,392.899,447.851,389.167,448.478,386.676z
	 M349.63,396.919c4.393-0.019,8.785-0.048,13.178-0.076c-0.037-1.158-0.542-2.543-0.773-3.516c-0.723-3.058-1.531-6.095-2.352-9.128
	c-1.896-7.01-3.848-14.005-5.783-21.004c-4.494-0.022-8.989-0.041-13.483-0.055c1.035,3.543,2.028,7.099,3.001,10.66
	c1.548,5.666,3.049,11.343,4.553,17.02c0.5,1.887,0.995,3.775,1.515,5.657C349.525,396.627,349.576,396.775,349.63,396.919z
	 M339.789,361.001c4.506,0.013,9.013,0.03,13.519,0.052c-0.352-1.275-0.708-2.549-1.057-3.824c-1.288-4.708-2.578-9.426-3.85-14.15
	c-2.013,0.612-4.021,1.235-6.02,1.888c-2.117,0.691-4.246,1.376-6.315,2.202c-0.363,0.146-0.729,0.294-1.09,0.453
	c1.778,2.432,2.539,6.032,3.413,8.807C338.868,357.948,339.333,359.473,339.789,361.001z M350.812,340.529
	c1.92-0.567,3.844-1.121,5.771-1.663c-1.866-0.089-3.711-0.258-5.51-0.508c-0.293-0.041-0.582-0.1-0.874-0.146
	C350.403,338.985,350.604,339.758,350.812,340.529z M326.631,322.001c5.462,0.027,10.924,0.074,16.385,0.137
	c-2.384-9.842-4.526-19.737-6.171-29.713c-0.019-0.111,0.01-0.218,0.069-0.319c-4.879,0-9.757,0-14.635,0
	c-0.229,0.847-0.439,1.706-0.611,2.585C319.819,304.121,321.441,314.176,326.631,322.001z M431.267,326.101
	c-0.978,4.404-1.958,8.809-2.906,13.22c-0.781,3.632-1.302,7.501-2.513,11.043c4.304,3.781,8.915,7.715,13.79,11.33
	c5.089,0.039,10.178,0.078,15.267,0.11c0.232-0.895,0.468-1.789,0.699-2.685c2.778-10.743,5.586-21.511,8.168-32.329
	C452.936,326.594,442.102,326.354,431.267,326.101z M464.275,324.657c2.53-10.741,4.825-21.534,6.613-32.408
	c0.008-0.049,0.027-0.097,0.053-0.145c-10.652,0-21.306,0-31.959,0c-2.329,10.028-4.623,20.064-6.862,30.112
	c-0.13,0.583-0.255,1.167-0.385,1.751C442.582,324.222,453.428,324.461,464.275,324.657z M425.301,361.582
	c3.428,0.028,6.857,0.056,10.286,0.083c-3.504-2.658-6.866-5.461-10.079-8.24C425.435,356.144,425.368,358.863,425.301,361.582z
	 M428.477,326.036c-0.745-0.018-1.49-0.035-2.236-0.052c-0.096,3.894-0.195,7.788-0.303,11.681
	C426.776,333.787,427.617,329.909,428.477,326.036z M423.302,325.913c-10.804-0.258-21.606-0.523-32.409-0.77
	c-0.283,0.401-0.552,0.808-0.859,1.199c-0.853,1.085-1.788,2.065-2.762,2.994c0.079,0.55,0.156,1.101,0.236,1.65
	c5.101-0.995,10.224-1.735,15.34-2.081c0.481-0.444,2.494-1.135,2.799-0.57c5.601,10.415,8.115,21.89,11.167,33.177
	c1.849,0.016,3.698,0.031,5.547,0.046c0.067-2.694,0.134-5.389,0.206-8.083c-0.488-0.008-0.857-0.167-0.811-0.544
	c0.033-0.266,0.075-0.541,0.121-0.819c-0.028-0.563-0.043-1.215-0.02-1.877c-0.009-0.008-0.019-0.017-0.027-0.024
	c-0.07-0.062-0.047-0.147,0.037-0.243c0.053-0.997,0.211-1.979,0.588-2.647c0.043-0.075,0.152-0.159,0.286-0.243
	C422.937,340.022,423.127,332.968,423.302,325.913z M365.707,396.732c10.279-1.484,20.431-4.3,30.534-7.182
	c-0.4-1.148-0.737-2.244-1.034-3.168c-2.402-7.488-4.047-15.218-5.477-22.955c-10.904-0.087-21.808-0.159-32.712-0.217
	c2.022,7.289,4.063,14.574,6.011,21.883C363.854,388.192,366.178,393.287,365.707,396.732z M356.425,361.069
	c10.972,0.057,21.943,0.128,32.915,0.215c-0.119-0.663-0.24-1.325-0.357-1.987c-1.529-8.629-2.857-17.288-4.122-25.958
	c-1.59,0.338-3.177,0.694-4.759,1.07c-5.074,2.608-10.847,3.959-16.672,4.374c-0.52,0.143-1.04,0.285-1.558,0.427
	c-3.544,0.97-7.082,1.967-10.607,3.008c1.393,5.169,2.811,10.327,4.225,15.477C355.799,358.82,356.113,359.944,356.425,361.069z
	 M386.905,326.783c0.448-0.555,0.864-1.123,1.261-1.701c-0.503-0.011-1.006-0.021-1.51-0.033
	C386.738,325.627,386.822,326.205,386.905,326.783z M387.765,332.747c1.13,7.749,2.315,15.489,3.663,23.204
	c0.312,1.783,0.628,3.571,0.95,5.358c7.106,0.058,14.214,0.116,21.321,0.177c-2.807-10.469-5.249-21.064-10.165-30.812
	C398.275,330.975,393.007,331.726,387.765,332.747z M399.054,388.748c7.399-2.113,14.776-4.193,22.163-5.745
	c-3.036-6.208-5.116-12.745-6.939-19.372c-7.17-0.061-14.34-0.12-21.51-0.178c1.275,6.887,2.729,13.762,4.796,20.435
	C397.967,385.191,398.439,386.942,399.054,388.748z M422.309,363.697c-1.635-0.014-3.271-0.027-4.906-0.041
	c1.313,4.713,2.771,9.376,4.621,13.904C422.104,372.939,422.197,368.318,422.309,363.697z M389.482,322.968
	c5.158-9.224,4.544-20.743,0.183-30.863c-2.617,0-5.233,0-7.851,0c1.644,10.245,3.078,20.521,4.535,30.794
	C387.394,322.923,388.438,322.944,389.482,322.968z M378.845,292.424c-0.018-0.111,0.011-0.218,0.069-0.319
	c-13.029,0-26.06,0-39.09,0c1.68,10.095,3.854,20.111,6.279,30.073c12.416,0.156,24.831,0.387,37.245,0.656
	C381.904,312.689,380.475,302.542,378.845,292.424z M328.187,324.145c2.191,2.758,4.877,5.17,8.076,7.079
	c2.976,1.775,6.431,3.234,10.134,4.304c-0.98-3.741-1.941-7.487-2.865-11.242C338.416,324.225,333.302,324.174,328.187,324.145z
	 M349.709,336.365c3.756,0.817,7.688,1.234,11.584,1.187c6.282-1.741,12.687-3.528,19.151-5.041c1.38-0.859,2.677-1.834,3.872-2.936
	c-0.221-1.53-0.443-3.061-0.661-4.591c-12.345-0.269-24.689-0.5-37.035-0.659C347.614,328.347,348.651,332.359,349.709,336.365z
	 M375.467,396.754c8.17-0.064,16.339-0.136,24.508-0.213c-1.334-1.414-2.332-3.367-3.114-5.329
	C389.76,393.221,382.64,395.205,375.467,396.754z M421.827,396.338c0.007-3.875,0.036-7.75,0.082-11.625
	c-7.425,1.549-14.827,3.607-22.246,5.706c0.993,2.513,2.326,4.884,4.207,6.086C409.855,396.448,415.841,396.393,421.827,396.338z
	 M452.771,369.995c0.526-2.018,1.051-4.037,1.576-6.055c-3.904-0.025-7.809-0.056-11.713-0.085
	C445.909,366.132,449.292,368.225,452.771,369.995z M479.418,361.926c4.007-9.163,9.248-17.942,13.65-26.862
	c1.286-2.605,2.561-5.22,3.826-7.842c-10.121-0.075-20.241-0.209-30.361-0.386c-2.451,10.242-5.097,20.44-7.728,30.613
	c-0.377,1.457-0.76,2.913-1.14,4.37C464.917,361.865,472.168,361.901,479.418,361.926z M497.921,325.092
	c5.144-10.758,9.964-21.694,13.765-32.987c-12.655,0-25.311,0-37.966,0c-1.808,10.937-4.118,21.794-6.671,32.598
	C477.338,324.882,487.629,325.019,497.921,325.092z M436.18,292.105c-3.141,0-6.281,0-9.422,0
	c-0.021,10.581-0.213,21.159-0.466,31.736c0.888,0.021,1.775,0.041,2.663,0.063c0.884-3.964,1.77-7.928,2.665-11.889
	C433.122,305.374,434.642,298.737,436.18,292.105z M392.94,292.105c4.283,10.132,4.776,21.545-0.688,30.926
	c10.367,0.237,20.733,0.491,31.101,0.739c0.252-10.553,0.441-21.108,0.462-31.665C413.523,292.105,403.232,292.105,392.94,292.105z
	 M322.921,289.967c21.918,0,43.837,0,65.755,0c-5.781-11.718-16.581-21.089-29.042-21.921c-0.493-0.033-0.736-0.159-0.807-0.327
	C342.441,265.37,328.052,274.672,322.921,289.967z M318.053,321.973c1.705,0.002,3.41,0.011,5.115,0.017
	c-1.544-2.415-2.797-5.079-3.656-8.022c-2.054-7.037-2.025-14.739-0.032-21.862c-2.337,0-4.673,0-7.009,0
	C314.322,302.063,316.184,312.019,318.053,321.973z M325.381,360.971c3.764,0.002,7.526,0.014,11.29,0.023
	c-0.526-1.743-1.066-3.482-1.636-5.211c-0.655-1.993-1.291-4.03-2.18-5.935c-0.213-0.456-1.258-1.565-1.166-2.072
	c0.352-1.944,5.972-3.073,7.375-3.548c2.942-0.997,5.906-1.935,8.88-2.839c-0.339-1.267-0.669-2.535-1.005-3.803
	c-8.83-2.008-16.923-6.469-22.271-13.453c-2.071-0.009-4.144-0.017-6.215-0.021C320.762,336.399,323.073,348.685,325.381,360.971z
	 M331.394,393.089c0.24,1.291,0.478,2.582,0.718,3.872c4.706-0.003,9.412-0.015,14.118-0.032c-0.399-1.613-0.636-3.367-0.8-3.984
	c-1.625-6.126-3.234-12.256-4.91-18.368c-1.047-3.819-2.102-7.64-3.218-11.443c-3.839-0.01-7.679-0.021-11.519-0.023
	C327.66,373.102,329.533,383.094,331.394,393.089z M347.639,469.872c-0.472-0.081-0.658-0.283-0.664-0.512
	c-1.619-0.102-3.085,0.038-4.396,0.38c-1.902,1.046-4.119,2.385-5.763,3.735c-1.824,2.332-2.648,5.353-2.452,8.324
	c0.262,1.752,0.776,3.583,1.519,5.228c1.689,3.033,4.769,5.35,9.267,5.788c2.889-0.019,5.341-0.781,7.255-1.769
	C359.348,485.891,357.823,471.616,347.639,469.872z M359.3,508.76c-1.03,0.407-2.085,0.8-3.118,1.166
	C357.26,509.604,358.297,509.209,359.3,508.76z M477.092,484.037c-3.854,4.57-1.832,13.494,6.197,13.932
	c0.48,0.026,0.932,0.003,1.365-0.047c0.901-0.17,1.719-0.431,2.447-0.751c5.625-3.103,4.659-14.119-2.704-15.38
	c-0.377-0.064-0.571-0.207-0.638-0.379c-1.103-0.053-2.1,0.057-2.989,0.303C479.576,482.372,478.203,483.192,477.092,484.037z
	 M445.229,398.277c-27.59,0.202-55.178,0.527-82.769,0.704c-4.222,0.507-8.47,0.78-12.748,0.737
	c-0.534,0.348-1.369,0.446-1.831,0.326c-0.203-0.053-0.39-0.198-0.561-0.406c-0.436-0.088-0.572-0.311-0.52-0.574
	c-4.765,0.019-9.529,0.028-14.294,0.033c2.233,12.005,4.457,24.013,6.565,36.041c0.738,4.206,1.479,8.414,2.121,12.636
	c0.098,0.644,0.281,1.412,0.428,2.197c3.466-0.43,7.051-0.418,10.636,0.01c0.401,0.048,0.595,0.19,0.65,0.367l2.623,0.375
	c0,0,2.761,1.381,5.825,3.422c8.387,4.499,13.971,13.108,15.227,23.059c0.346,2.741,0.388,5.527,0.145,8.275
	c27.793,0,55.586,0,83.38,0c0.003-0.019,0.005-0.037,0.009-0.056c2.002-10.904,10.324-17.096,20.25-18.355
	c-0.684-0.877-1.28-1.802-1.805-2.572c-3.488-5.117-6.486-10.565-9.365-16.042C460.57,432.047,452.824,415.181,445.229,398.277z
	 M498.836,364.104c-5.869-0.001-11.737-0.018-17.606-0.036c-0.195,0.479-0.405,0.955-0.593,1.437
	c-0.043,0.112-0.132,0.213-0.25,0.306c5.262,1.652,8.897,7.126,9.152,12.921c0.379,8.596-6.041,14.148-14.463,14.101
	c-9.248-0.053-18.181-6.312-15.84-16.591c0.108-0.478,0.24-0.938,0.385-1.39c-1.648-0.501-3.278-1.085-4.889-1.75
	c-1.067,4.1-2.131,8.201-3.164,12.31c-0.695,2.765-2.554,7.171-2.884,10.706c12.578-0.087,25.156-0.148,37.735-0.149
	c0.051,0,0.094,0.007,0.142,0.01C490.945,385.476,495.008,374.825,498.836,364.104z M511.049,327.287
	c-3.828-0.005-7.655-0.018-11.483-0.042c-1.399,2.888-2.813,5.767-4.238,8.633c-4.295,8.632-9.363,17.158-13.216,26.053
	c5.77,0.018,11.539,0.035,17.309,0.036c0.063,0,0.114,0.008,0.172,0.012c0.47-1.327,0.952-2.651,1.415-3.98
	C504.491,347.995,508.073,337.72,511.049,327.287z M517.703,292.105c-1.096,0-2.192,0-3.289,0
	c-3.828,11.292-8.65,22.246-13.814,33.009c3.686,0.022,7.371,0.032,11.058,0.036C514.666,314.259,516.947,303.203,517.703,292.105z
	 M540.235,219.834c-5.456,2.9-9.915,7.978-14.009,12.491c-5.506,6.069-10.692,12.424-15.72,18.894
	c-4.486,5.774-8.87,11.63-13.142,17.565c-1.433,1.992-2.859,3.989-4.26,6.004c-0.338,0.486-1.223,1.942-1.461,2.074
	c0.009,0.076-0.024,0.168-0.114,0.278c-0.019,0.026-0.039,0.051-0.062,0.073c-0.15,0.157-0.616,0.415-1.125,0.6
	c-0.504,0.739-0.973,1.494-1.41,2.261c5.846,2.874,11.824,5.447,18.021,7.532c1.036-2.265,2.778-4.292,4.298-6.223
	c9.39-11.928,19.634-23.251,27.892-36.032c3.369-5.216,7.445-11.375,8.125-17.731C547.646,224.089,544.929,217.34,540.235,219.834z
	 M418.076,223.878c5.691,3.55,11.584,7.178,16.57,11.72c0.817-0.047,1.592,0.344,1.275,1.239
	c-3.196,9.046-9.964,16.136-13.337,25.083c-0.381,1.011-2.409,1.188-2.79,0.343c-0.014-0.009-0.029-0.014-0.043-0.023
	c-9.839-6.938-21.319-12.084-29.59-21.029c-0.484-0.023-0.834-0.233-0.711-0.801c0,0,0-0.001,0-0.001
	c-0.244-0.43,0.014-0.852,0.47-1.141c0.484-0.863,1.193-1.711,1.646-2.429c1.426-2.261,2.852-4.522,4.26-6.794
	c0.133-0.214,0.27-0.426,0.401-0.64c2.391-3.873,4.934-7.739,6.548-11.969c0.037-0.098,0.094-0.183,0.159-0.261
	c0.39-0.466,1.212-0.593,1.737-0.593c1.323-0.001,2.927,1.179,4.02,1.779C411.871,220.107,414.997,221.958,418.076,223.878z
	 M432.75,237.522c-0.094-0.089-0.194-0.174-0.29-0.263c-4.939-4.61-10.924-8.272-16.643-11.802
	c-2.635-1.627-5.285-3.235-7.989-4.745c-0.665-0.371-1.836-1.198-2.851-1.721c-1.427,3.243-3.577,6.719-5.497,9.829
	c-1.577,2.554-3.176,5.095-4.776,7.635c-0.498,0.791-1.661,2.287-2.133,3.206c1.154,1.267,2.377,2.455,3.653,3.582
	c4.369,3.86,9.359,7.007,14.391,10.074c3.381,2.061,6.774,4.093,10.006,6.287c1.916-4.337,4.542-8.286,7.024-12.313
	C429.575,244.159,431.407,240.974,432.75,237.522z M161.564,138.238c-0.13-0.142-0.583-0.085-0.732-0.071
	c-0.383,0.037-0.765,0.128-1.127,0.257c-0.214,0.076-1.208,0.421-0.875,0.783c0.519,0.565,0.687,1.445,0.918,2.153
	c0.208,0.636,3.082-0.216,2.897-0.776C162.375,139.759,162.168,138.895,161.564,138.238z" fill="#0984E3"></path>
</svg>