<?xml version="1.0" standalone="no"?>
<svg version="1.1" id="Layer_1" xmlns="http://www.w3.org/2000/svg" xmlns:xlink="http://www.w3.org/1999/xlink" x="0px" y="0px" width="595.279px" height="595.281px" viewBox="0 0 595.279 595.281" enable-background="new 0 0 595.279 595.281" xml:space="preserve">
<path id="color_x5F_2" fill="#b5ff63" d="M437.388,299.603l-13.167,20.666l-4,8.834l-12.5,0.666l-8.333,30l-2.667,0.666
	c0,0-6.333-0.166-7.667-0.666s-13.5-10.166-13.5-10.166l-18.167-20l-14.833,37.832l-3,22.334c0,0-2,6.666-4.167,9.666
	s-3.667,2.5-3.667,2.5l-32.5,8.834l3.833-10.334c0,0,5.333-16.332,6.333-21c1-4.666,6-25.166,6-25.166l2.667-31.166l4.333-31.5
	l6.5-18.334c0,0,4.5-6.334,7.833-11s13-6.832,16.333-8.166s7.333,1.334,10.167,2.834s14.333,23.332,14.333,23.332l14.333,33.668
	l2.667,0.832c0,0,8.167-12.332,10.833-16.5c2.666-4.166,18.167-18.666,18.167-18.666L437.388,299.603z M280.721,271.935
	c-3.167-0.5-8.167-0.5-8.167-0.5s-7.5,0.168-8.5-1.332s-3.167-3-3.167-3s-4.167,2.666-6.667,13c-2.5,10.332-5,28.334-5,28.334
	l-22.5,36.666l-11-18.834l-7.333-18.832l-23.833,4.332l12.167,46.668c0,0,5.667,18.998,9.5,23.166
	c3.833,4.166,16.833,9.834,19.333,9.834s7-3.5,7.5-3.668c0.5-0.166,6.833-8,6.833-8l5-5.5l-2,8.5l-1.5,7l9.667-1.332l13.333,0.498
	l5.333-9.332c0,0,7.167-13.5,5.5-19.834s-4.5-14-4.5-14l-4.5-8.5l6.5-28.332c0,0,4.5-15.334,7.833-21.168
	c3.333-5.832,6.833-9.834,6.833-9.834S283.887,272.435,280.721,271.935z"></path>
<path id="color_x5F_1" d="M276.066,237.691c-0.012,0.184-0.021,0.367-0.007,0.551c0.036,0.457,0.094,0.916,0.197,1.361
	c0.108,0.471,0.425,1.707,0.744,1.777c0.645,0.141,0.756,0.787,0.33,1.229c-0.516,0.533-1.345,0.703-2.049,0.549
	c-1.347-0.295-1.808-2.004-2-3.178c-0.174-1.055-0.455-2.568,0.595-3.266c0.561-0.373,1.449-0.586,2.066-0.219
	c0.396,0.232,0.379,0.6,0.195,0.91c0.002,0.01-0.008,0.037-0.039,0.086c0.004-0.018,0.009-0.035,0.013-0.045
	c-0.096,0.146-0.226,0.279-0.37,0.377c0.205-0.137,0.307-0.256,0.356-0.332C276.084,237.541,276.071,237.599,276.066,237.691z
	 M258.617,239.408c-0.04-1.363-2.946-0.789-2.914,0.301c0.048,1.65,0.672,3.275,1.321,4.783c0.489,1.135,3.348,0.27,2.897-0.777
	C259.358,242.404,258.659,240.849,258.617,239.408z M266.857,255.677c-1.789,0.76-2.649,0.146-3.073-1.693
	c-0.376-1.635-0.192-3.355-0.183-5.02c0.007-1.414-2.916-0.898-2.922,0.273c-0.011,2.178-0.303,4.559,0.552,6.621
	c1.191,2.875,4.531,2.324,6.858,1.334c0.466-0.197,1.159-0.826,0.717-1.371C268.357,255.269,267.415,255.439,266.857,255.677z
	 M281.977,252.291c0.263-0.416,2.672-1.332,2.875-0.654c1.036,3.453,0.319,7.813-3.298,9.447c-3.944,1.783-7.43,0.607-10.45-2.332
	c-0.124-0.121,0.057-0.314,0.375-0.504c0.051-0.057,0.11-0.115,0.205-0.17c0.604-0.357,1.353-0.533,2.049-0.551
	C277.383,257.441,280.095,255.271,281.977,252.291z M282.376,254.689c-2.188,1.996-4.924,3.199-7.898,3.691
	c1.949,1.76,5.046,3.877,6.804,1.016C282.19,257.919,282.494,256.316,282.376,254.689z M522.422,418.38
	c0.063,0.195-0.271,0.43-0.729,0.623c0.033,0.596-0.556,1.318-1.499,1.363c-27.476,1.311-55.068,0.537-82.551-0.238
	c-8.866-0.25-17.73-0.541-26.596-0.826c0.238,2.314-0.063,4.82-0.129,7.088c-0.172,5.895-0.416,11.785-0.689,17.676
	c-0.583,12.539-1.169,25.1-2.283,37.605c-0.123,1.375-3.081,1.746-2.942,0.195c1.079-12.107,1.664-24.268,2.228-36.406
	c0.279-6.012,0.545-12.025,0.722-18.041c0.077-2.611,0.525-5.615,0.08-8.213c-1.849-0.061-3.695-0.121-5.543-0.178
	c-3.786-0.119-7.572-0.248-11.36-0.305c-1.069-0.018-2.139-0.037-3.208-0.018c-0.271,0.006-0.485,0.035-0.651,0.064
	c-0.862,0.256-1.973,0.289-1.886-0.102c0.01-0.045,0.019-0.088,0.029-0.131c-0.475-0.307-0.625-0.848,0.098-1.443
	c0.076-0.063,0.166-0.107,0.251-0.158c1.665-7.541,3.289-15.09,4.895-22.645c-0.488,0.109-0.938,0.107-1.131-0.137
	c-11.378-14.471-36.75-6.064-43.624,8.85c-0.147,0.32-0.758,0.543-1.378,0.654c0.139,0.104,0.285,0.188,0.419,0.297
	c5.797,4.703,8.93,12.471,8.308,19.912c-0.579,6.93-3.898,11.676-8.814,15.615c0.026,2.521,0.096,5.072,0.221,7.641
	c0.216,0.188,0.206,0.469,0.04,0.738c0.607,11.555,2.359,23.369,6.438,33.986c0.303,0.789-2.554,1.67-2.896,0.777
	c-4.07-10.598-5.823-22.387-6.436-33.918c-6.476,0.371-12.969,0.799-19.457,0.955c-2.91,0.74-5.848,1.359-8.76,1.938
	c-9.407,1.861-18.868,4.07-28.457,4.723c-18.277,1.242-36.796,0.93-55.083-0.014c-5.828-0.301-12.693-0.193-18.158-2.453
	c-0.398-0.164-0.746-0.371-1.073-0.596c0.062,0.334-0.146,0.705-0.794,0.988c-8.172,3.566-15.013,11.35-22.071,16.66
	c-4.122,3.1-11.541,9.764-17.326,7.736c-6.975-2.443-0.535-15.783,5.308-26.17c-0.441,0.188-0.908,0.338-1.079,0.346
	c-0.103,0.006-0.207,0.008-0.31,0.014c0,0,0,0-0.001,0c-0.002,0-0.003,0-0.005,0c-9.43,0.498-18.917,0.498-28.356,0.66
	c-6.144,0.105-12.291,0.219-18.435,0.18c-0.219-0.002-0.59,0.021-1.05,0.053c-1.303,0.244-2.585,0.361-3.598,0.117
	c-0.442-0.016-0.864-0.047-1.234-0.105c-8.348,4.127-11.526,16.223-21.941,17.6c-6.481,0.857-22.274-1.129-22.512-10.154
	c-0.204-7.738,10.367-11.898,16.201-14.539c6.614-2.992,14.313-6.455,21.789-7.361c0.908-1.055,2.019-1.951,2.976-2.6
	c6.496-4.389,13.951-7.652,20.806-11.463c8.872-4.934,17.736-9.889,26.768-14.523c8.666-4.449,17.465-8.775,26.638-12.09
	c5.879-2.123,12.343-4.305,18.704-3.939c2.463-1.023,4.979-1.877,7.544-2.555c-11.448-4.234-19.938-13.693-23.083-25.479
	c-3.25-12.18-6.312-24.414-9.323-36.656c-1.151-4.68-2.301-9.359-3.409-14.051c-0.216-0.914-1.512-3.949-0.664-4.838
	c0.346-0.365,0.951-0.631,1.51-0.643c0.094-0.154,0.231-0.295,0.439-0.404c-0.126-0.053-0.209-0.129-0.214-0.24
	c-0.202-5.023-2.112-9.266-4.427-13.596c-24.936,0.012-49.87,0.301-74.806,0.309c-1.955,0,0.134-1.547,1.153-1.547
	c24.274-0.008,48.547-0.277,72.821-0.303c-1.893-3.457-4.054-7.389-3.841-11.404c0.284-5.355,3.398-10.193,7.147-14.18
	c-2.607-3.559-5.018-7.342-7.055-11.25c-1.767-3.393-5.583-9.68-2.782-13.443c3.835-5.148,10.687-7.676,17.339-9.617
	c-17.708,0.033-35.417,0.068-53.125,0.07c-0.731,0-1.114-0.299-1.221-0.672c-0.172-0.135-0.28-0.33-0.28-0.596
	c0.001-3.689,0.022-7.377,0.031-11.066c-20.043-0.004-40.086-0.078-60.13-0.08c-0.166,0-0.308-0.021-0.438-0.049
	c-0.73,0.105-1.462-0.109-1.462-0.805c-0.004-27.723-0.163-55.443-0.166-83.166c0-0.51,0.583-0.896,1.229-1.047
	c0.255-0.203,0.603-0.34,1.021-0.34c19.776-0.004,39.552-0.162,59.328-0.168c0.502,0,0.838,0.143,1.035,0.352
	c0.023-6.268,0.051-12.531,0.053-18.797c0-0.572,0.736-0.992,1.469-1.094c0.217-0.107,0.473-0.178,0.767-0.178
	c28.561-0.004,57.122-0.111,85.683-0.115c0.295,0,0.527,0.055,0.713,0.137c0.446,0.078,0.787,0.324,0.787,0.797
	c0.001,6.322,0.02,12.643,0.035,18.965c0.144-0.039,0.297-0.066,0.466-0.066c20.697,0.012,41.393,0.32,62.09,0.336
	c0.806-0.242,1.733-0.225,1.732,0.188c-0.012,15.34-0.299,30.678-0.312,46.018c0,0.172-0.09,0.33-0.231,0.469
	c4.159-0.418,8.285-0.229,12.205,0.674c7.475,1.719,14.324,6.145,18.908,12.309c1.049,1.41,1.965,2.883,2.81,4.391
	c1.305,1.803,2.085,3.031,2.085,3.031l3.89,9.072c0.799,1.537,1.65,3.045,2.616,4.496c4.398,6.607,9.742,12.52,14.39,18.945
	c3.174,4.389,7.375,9.775,7.477,15.479c11.363-0.645,18.303,15.275,22.259,23.613c3.508,7.391,6.568,14.973,9.73,22.516
	c2.016,4.811,3.931,9.938,6.684,14.445c8.326-12.371,18.328-24.32,29.578-34.014c0.472-0.406,1.963-0.939,2.496-0.371
	c0.532,0.568,1.037,1.17,1.528,1.785c1.501-5.99,3.42-13.076,8.196-16.947c1.324-1.074,3.35-1.639,5.038-1.545
	c5.372,0.301,8.963-2.154,12.54-5.68c1.416-1.396,5.281-5.436,7.75-3.561c4.458,3.389-1.32,8.326-5.658,10.891
	c0.248,0.064,0.491,0.137,0.729,0.227c2.001,0.756,3.978,1.994,5.641,3.531c0.43-0.129,0.84-0.193,1.057-0.127
	c11.914,3.703,16.018,16.436,17.747,27.613c1.688,10.924,1.014,22.213,2.911,33.08c7.758-0.023,15.517-0.041,23.275-0.041
	c1.456,0,1.54,1.193,0.805,1.814c0.209,1.059,0.349,2.959,0.429,3.512c0.471,3.227,1.002,6.441,1.551,9.654
	c1.613,9.455,3.345,18.893,5.129,28.316C515.466,386.617,517.509,403.197,522.422,418.38z M135.458,138.39
	c-0.248,0.348-0.693,0.617-1.282,0.617c-19.469,0.006-38.939,0.158-58.409,0.168c0.007,27.035,0.156,54.07,0.163,81.105
	c19.707,0.006,39.413,0.076,59.121,0.078C135.125,193.037,135.355,165.714,135.458,138.39z M460.039,276.234
	c-0.338,0.365-0.916,0.678-1.457,0.746c0.404,0.514,0.731,1.055,0.91,1.627c0.687,2.205-1.335,3.303-3.201,3.684
	c-0.358,0.072-0.666,0.047-0.918-0.039c0.209,0.244,0.4,0.496,0.571,0.754c1.398,2.115,0.289,3.469-1.54,4.256
	c0.02,0.084,0.027,0.178,0.017,0.281c-0.074,0.697-0.938,1.211-1.588,1.201c-0.289-0.006-0.578-0.02-0.866-0.029
	c0.752,1.701-0.093,3.211-2.003,4.104c-0.248,0.57-1.088,1.205-1.854,1.188c-0.224-0.004-0.465-0.012-0.712-0.021
	c-2.606,2.979-6.774,4.814-10.688,5.602c0.042,0.324,0.02,0.604-0.106,0.803c-0.756,1.195-1.521,2.395-2.292,3.6
	c-1.811,7.871-2.988,15.887-4.01,23.926c15.995-0.051,31.991-0.131,47.986-0.184c-1.661-10.279-1.018-20.914-2.61-31.221
	c-1.539-9.951-4.574-21.695-13.799-26.781c0.283,0.408,0.545,0.826,0.776,1.256C464.14,273.738,462.675,275.769,460.039,276.234z
	 M455.729,280.195c2.51-0.514-1.729-3.686-2.681-4.33c-1.524-1.037-3.431-2.064-5.294-2.25c-2.613-0.262-4.363,1.182-3.251,3.758
	c0.033,0.074,0.051,0.148,0.062,0.221c1.835,0.064,3.694,0.449,5.027,0.904c1.693,0.578,3.613,1.648,5.046,2.992
	C454.515,280.974,454.829,280.378,455.729,280.195z M441.101,282.218c0.022,0.117,0.003,0.23-0.038,0.338
	c3.161,0.342,6.513,1.771,8.939,3.826c0.119-0.006,0.24-0.02,0.354-0.008c0.576,0.057,1.152,0.096,1.73,0.125
	c0.18-0.141,0.402-0.268,0.72-0.355c3.209-0.883-3.555-5.484-4.872-5.977C445.349,279.208,440.26,277.802,441.101,282.218z
	 M439.627,284.562c-3.364-0.209-3.788,3.482-1.054,5.076c2.646,1.541,5.855,2.064,8.934,2.238c0.173-0.248,0.471-0.469,0.911-0.602
	c2.489-0.75-0.385-3.119-1.484-3.867C444.814,285.966,442.225,284.722,439.627,284.562z M435.972,297.56
	c0.152,0.299,0.283,0.586,0.396,0.863c3.167-0.582,6.563-2.088,8.604-4.578c-2.399-0.201-5.153-0.646-7.344-1.66
	C437.032,293.966,436.479,295.757,435.972,297.56z M452.891,265.781c-0.783-0.324-2.102-0.93-2.944-0.465
	c-1.386,0.762-1.274,2.766-0.458,3.865c2.025,2.73,5.521,4.314,8.775,5.398c0.252-0.184,0.581-0.309,0.971-0.314
	c0.859-0.014,1.354,0.094,1.147-0.873c-0.214-0.998-0.744-1.873-1.367-2.67C457.435,268.703,455.29,266.773,452.891,265.781z
	 M426.896,282.314c2.247,3.256,4.117,6.885,5.979,10.229c0.207,0.373,0.7,1.094,1.265,1.955c0.397-1.264,0.814-2.521,1.258-3.773
	c-0.545-0.512-0.996-1.092-1.29-1.775c-1.404-3.271,1.167-5.631,4.047-6.289c-0.413-2.873,1.148-4.271,3.344-4.805
	c-0.964-2.68,0.62-5.383,3.4-6.186c0.871-0.252,1.763-0.348,2.653-0.33c-0.976-1.012-1.712-2.225-1.628-3.609
	c0.188-3.076,2.757-4.553,5.425-4.568c3.354-2.17,8.652-6.768,5.151-9.428c-0.688-0.523-2.147,1.49-2.746,2.072
	c-2.555,2.486-5.431,4.904-8.896,5.998c-1.846,0.584-3.743,1.084-5.694,1.117c-3.412,0.059-4.845,1.424-6.41,4.465
	c-2.339,4.541-3.8,9.439-5.049,14.375C427.648,281.984,427.315,282.175,426.896,282.314z M318.175,320.048
	c-2.51,25.719-4.361,52.104-13.176,76.465c1.415-0.156,0.618,0.537-0.312,0.854c-1.529,4.143-3.263,8.227-5.24,12.234
	c10.39-2.719,20.832-5.348,30.934-9c0.591-0.215,1.249-0.119,1.649,0.111c0.013-0.002,0.024-0.002,0.037-0.004
	c4.034-3.271,5.535-10.295,5.842-14.84c0.394-5.85,1.258-11.521,2.771-17.193c3.381-12.688,8.313-24.852,12.866-37.146
	c0.099-0.27,0.54-0.477,1.047-0.607c-6.2-7.605-11.886-15.734-16.217-24.238c-0.354-0.691,2.443-1.666,2.896-0.775
	c6.001,11.783,14.823,22.764,23.541,32.617c5.093,5.756,10.488,11.467,16.71,16.021c4.149,3.037,11.269,8.111,16.534,4.908
	c1.277-5.99,2.551-11.98,3.84-17.967c0.807-3.744,1.115-8.336,2.617-11.895c-0.327-0.646,0.278-1.637,1.41-1.637
	c4.055,0,8.109-0.016,12.164-0.021c3.553-8.246,8.552-16.029,13.391-23.637c0.435-1.877,0.916-3.742,1.43-5.602
	c-0.964-1.801-1.933-3.598-2.932-5.377c-2.397-4.277-4.736-8.963-7.94-12.75c-11.062,9.852-20.859,21.934-28.953,34.271
	c0.08,0.113,0.149,0.232,0.23,0.344c0.735,1.014-2.063,2.02-2.683,1.166c-0.077-0.105-0.147-0.219-0.224-0.324
	c-0.356-0.063-0.552-0.232-0.381-0.553c-6.893-9.963-10.296-22.77-15.214-33.711c-2.971-6.607-6.073-13.367-10.381-19.232
	c-2.902-3.955-7.141-9.217-12.658-8.465c-0.068,0.01-0.126,0.01-0.188,0.016c-0.164,0.25-0.459,0.494-0.938,0.658
	c-1.538,0.525-2.993,1.145-4.383,1.832c-3.552,2.494-9.478,7.604-13.039,10.939C322.421,281.726,319.811,303.289,318.175,320.048z
	 M420.789,327.929c2.233-0.004,4.468-0.006,6.702-0.012c0.745-5.834,1.586-11.652,2.688-17.412
	C426.672,316.138,423.341,321.912,420.789,327.929z M265.203,386.884c0.107,0.033,0.188,0.088,0.23,0.17
	c3.145,5.998,11.62,7.838,17.703,8.814c6.152,0.988,12.678,1.592,18.958,1.002c9.749-26.93,10.529-56.059,14.04-84.443
	c0.264-2.137,0.56-4.309,0.896-6.5c-6.401,4.729-16.711,5.564-23.969,5.23c-6.771-0.313-15.423-2.133-18.455-8.361
	c-2.686,8.563-4.496,17.49-6.375,25.539c-0.372,1.594-0.734,3.191-1.092,4.793c0.029,0.088,0.05,0.182,0.055,0.287
	c0.485,10.713,9.854,19.596,7.829,30.625C273.556,372.029,270.191,380.363,265.203,386.884z M272.341,362.023
	c0.258-7.816-4.41-14.477-6.774-21.736c-3.495,16.168-6.849,32.445-12.942,47.818c3.153-0.266,6.275-0.6,9.347-1.059
	c0.014-0.02,0.021-0.035,0.036-0.055C267.24,380.568,272.064,370.41,272.341,362.023z M316.288,229.128
	c2.094,0.279,3.602,1.449,4.382,3.182c-0.096-0.621-0.238-1.227-0.449-1.791C319.725,229.197,318.159,228.916,316.288,229.128z
	 M276.616,219.427c-1.378,3.027-4.119,5.574-7.43,7.617c-1.005,0.771-2.375,1.459-3.9,2.063c-4.391,2.006-9.177,3.256-13.001,3.691
	l-0.274,0.332l0.913,2.557c0.029-0.111,0.1-0.232,0.256-0.355c1.742-1.373,5.512-2.201,7.151-0.246
	c0.547,0.652-2.204,1.646-2.718,1.035c-0.509-0.609-1.475-1.137-2.181-0.578c-0.525,0.412-1.394,0.609-2.049,0.549
	c-0.161-0.016-0.273-0.057-0.355-0.109l0.192,0.537l6.165,26.424c0.458,0.729,0.945,1.438,1.47,2.113
	c2.775,3.584,6.143,5.682,10.915,5.291c3.237-0.266,6.322-0.688,9.471,0.291c7.278,2.262,6.709,11.211,8.46,17.068
	c0.403,1.346-2.492,2.135-2.897,0.775c-0.657-2.195-0.85-5.176-1.411-7.912c-3.856,5.016-6.742,10.871-9.029,17.08
	c0.043,0.107,0.075,0.223,0.08,0.357c0.334,9.246,11.917,11.07,19.181,10.961c6.612-0.102,16.624-0.801,21.373-6.168
	c0.158-0.178,0.372-0.305,0.608-0.393c1.004-5.771,2.337-11.602,4.204-17.164c-21.913,3.328-20.313-21.631-16.644-36.213
	c0.291-1.156,2.546-1.547,2.919-0.689c10.722,0.414,14.055-21.338,3.426-17.57c-4.945,1.754-9.366,2.715-14.672,2.93
	C286.18,234.134,281.062,227.656,276.616,219.427z M310.739,280.578c1.714,1.488,3.958,2.441,6.854,2.646
	C315.469,282.623,312.706,281.705,310.739,280.578z M316.221,246.519l1.267-2.025c-1.059,1.219-2.297,2.254-3.667,3.068
	L316.221,246.519z M310.44,249.015l0.03,0.004l0.093-0.041C310.522,248.992,310.481,249.003,310.44,249.015z M305.832,267.078
	c0.14,3.967,0.865,7.686,2.521,10.563C307.047,274.667,306.248,270.095,305.832,267.078z M308.097,249.457
	c-0.047,0.006-0.093,0.016-0.14,0.02c-0.816,3.352-1.588,7.416-1.946,11.553L308.097,249.457z M264.005,192.878
	c0.025-8.039,0.676-24.541-11.811-22.994c-11.326,1.404-12.564,16.928-12.263,25.953c6.806,0.047,13.604,0.453,20.409,0.49
	c1.218-1.037,2.488-2.021,3.8-2.951C264.055,193.242,264.004,193.078,264.005,192.878z M250.913,212.355
	c3.076-5.688,8.808-11.586,8.808-11.586s1.92-2.305,4.153-4.592C258.246,200.574,253.647,206.132,250.913,212.355z M224.971,138.994
	c0.071,27.229,0.223,54.457,0.271,81.686c6.798,0,13.597,0,20.395,0c1.336-8.473,6.066-16.264,12.632-22.49
	c-6.611-0.068-13.216-0.449-19.828-0.479c-0.658-0.004-0.888-0.219-0.865-0.5c-0.323-0.146-0.556-0.414-0.571-0.832
	c-0.389-10.223,1.912-28.09,15.441-28.631c13.903-0.557,14.502,13.129,14.497,23.768c5.907-3.668,12.506-6.227,19.114-7.299
	c-0.002-0.014-0.011-0.025-0.011-0.041c0.012-14.945,0.28-29.889,0.306-44.834c-20.39-0.021-40.779-0.322-61.17-0.332
	C225.106,139.007,225.04,139,224.971,138.994z M201.729,306.666c0.015,0.115-0.005,0.225-0.041,0.33
	c1.357-0.232,2.712-0.48,4.066-0.734c0.665-0.504,2.52-0.9,2.667-0.381c3.813,13.508,9.987,26.137,16.767,38.393
	c4.149-7.48,8.804-14.6,13.517-21.752c3.697-5.609,6.801-11.102,8.655-17.59c0.811-2.838,1.263-5.924,1.606-9.105
	c-0.204,0.018-0.386,0.006-0.523-0.055c-0.013-0.006-0.025-0.012-0.039-0.018c-0.262,0.221-0.626,0.375-1.07,0.375
	c-13.833-0.008-27.667-0.158-41.5-0.166c-0.198,0-0.362-0.025-0.509-0.063c-0.484,0.219-0.965,0.447-1.435,0.701
	c-0.255,0.137-0.604,0.201-0.957,0.205C202.102,300.617,201.412,304.154,201.729,306.666z M241.392,287.712
	c1.192,1.502,2.694,2.906,4.567,4.193c-1.004-0.863-2.121-1.85-3.239-2.887C242.217,288.55,241.781,288.126,241.392,287.712z
	 M242.721,255.519l1.935-7.15c-1.652,4.813-3.489,9.699-4.885,14.455C241.126,258.568,242.721,255.519,242.721,255.519z
	 M248.603,220.005c-0.291,1.715-0.436,3.459-0.421,5.227C248.236,223.652,248.358,221.851,248.603,220.005z M248.38,234.605
	l0.091-0.336l0.249-0.523c0-0.068,0.004-0.137,0.005-0.203l-0.118-0.707C248.547,233.419,248.47,234.009,248.38,234.605z
	 M223.263,234.732c-6.546,0-13.092,0.018-19.638,0.025c0.176,0.305,0.345,0.625,0.496,0.979c2.237,5.23,3.867,10.594,6.491,15.688
	c2.871,5.572,6.055,10.961,9.14,16.414c2.99,5.287,11.043,16.623,3.395,21.521c-3.742,2.396-8.049,3.355-12.246,4.57
	c11.388,0.029,22.776,0.115,34.164,0.135c-23.502-13.52-0.01-41.754,0.793-62.447c-0.001-0.006-0.004-0.01-0.005-0.016
	c-0.65-3.246-0.754-6.451-0.399-9.57c-6.736,0-13.473,0-20.208,0c0.006,3.865,0.021,7.729,0.021,11.596
	C225.266,234.341,224.119,234.818,223.263,234.732z M238.517,267.65c-1.33,6.061-1.533,11.775,0.784,16.701
	c-0.647-1.873-0.958-4.49-1.331-9.082C237.766,272.744,238.029,270.125,238.517,267.65z M193.23,232.623
	c2.9-1.26,6.088-1.666,8.463-0.012c6.884-0.012,13.768-0.025,20.652-0.027c-0.012-37.801-0.32-75.604-0.33-113.404
	c-27.862,0.006-55.725,0.107-83.587,0.111c-0.017,37.803-0.482,75.602-0.495,113.402
	C156.365,232.689,174.798,232.654,193.23,232.623z M184.14,267.083c0.796-0.748,1.602-1.465,2.401-2.135
	c2.453-2.061,9.524-8.686,13.344-5.943c1.493,1.072-4.405,8.912-7.448,12.986c0.472-0.035,0.939,0.014,1.38,0.184
	c1,0.387,1.537,1.432,1.875,2.506c12.033-0.479,9.825,10.412,7.644,20.299c0.579-0.268,1.167-0.516,1.764-0.744
	c0.225-0.17,0.521-0.285,0.866-0.313c3.078-1.086,6.315-1.813,9.372-2.873c3.907-1.354,8.989-3.047,7.935-8.361
	c-0.878-4.424-3.17-8.316-5.371-12.209c-4.001-7.072-8.303-14.033-11.727-21.416c-1.842-3.971-3.216-11.445-6.646-14.301
	c-1.841,0.002-3.682,0.004-5.522,0.008c-2.609,0.781-5.212,1.578-7.756,2.568c-3.525,1.373-12.293,4.264-11.961,9.283
	C174.762,253.8,179.857,261.23,184.14,267.083z M186.987,309.031c0.007,0.178-0.09,0.342-0.253,0.484
	c4.025-0.742,8.067-1.385,12.105-2.047c-0.001-0.01-0.006-0.018-0.008-0.027c-0.927-7.328,9.819-30.441-2.747-30.928
	c-0.254,0.676-2.749,1.23-2.878,0.609c-0.222-1.063-0.477-2.422-1.21-3.273c-0.114-0.133-0.247-0.277-0.396-0.396
	c-0.058,0.055-0.122,0.102-0.179,0.158c-0.108,0.104-0.237,0.189-0.373,0.268c-0.132,0.189-0.23,0.34-0.282,0.434
	c-0.436,0.799-3.197,1.033-2.875,0.445c1.407-2.576,3.112-4.941,4.875-7.285c1.416-1.881,3.687-4.123,4.319-6.432
	c0.709-2.592-6.346,2.539-7.269,3.313c-2.691,2.26-5.314,4.729-7.408,7.568c-4.549,6.172-5.704,12.133-2.163,19.133
	C183.216,296.921,186.715,302.261,186.987,309.031z M230.049,388.271c4.96-4.369,8.093-10.365,11.034-16.186
	c0.143-0.281,0.419-0.492,0.747-0.631c0.273-1.803,0.687-3.604,1.407-5.404c3.146-7.85,8.871-15.15,10.536-23.521
	c1.941-9.762-0.012-19.758,1.817-29.57c1.714-9.193,5.783-17.857,6.067-27.303c0.031-1.018,2.942-1.602,2.904-0.338
	c-0.304,10.076-4.903,19.262-6.442,29.135c-1.489,9.543,1.102,19.934-1.832,29.234c-2.708,8.586-9.552,16.238-11.033,25.109
	c-1.198,7.172-0.418,13.752-3.795,20.119c2.811-0.201,5.622-0.387,8.417-0.598c6.905-17.527,10.299-36.215,14.386-54.59
	c-0.002-0.037-0.008-0.072-0.01-0.107c-0.009-0.195,0.051-0.367,0.151-0.52c0.502-2.248,1.013-4.49,1.545-6.725
	c2.128-8.932,4.208-18.824,7.563-28.035c-0.002-0.049-0.008-0.096-0.01-0.146c-0.011-0.307,0.133-0.563,0.356-0.762
	c2.508-6.68,5.707-12.975,10.136-18.232c0.144-0.172,0.523-0.324,0.955-0.436c-0.417-1.396-0.998-2.656-1.876-3.611
	c-3.936-4.27-9.153-2.539-14.226-2.605c-3.803-0.049-6.961-2.025-9.413-4.73l-3.461,5.701l-3,15.5l-0.371,0.686
	c-0.708,6.34-1.234,12.826-3.487,18.842c-2.188,5.84-5.572,11.008-9.021,16.168c-4.811,7.197-9.395,14.488-13.471,22.129
	c1.418,2.525,2.856,5.037,4.301,7.537c0.234,0.406-2.483,1.494-2.897,0.777c-1.362-2.357-2.717-4.727-4.057-7.104
	c-0.355-0.109-0.554-0.346-0.413-0.734c-6.996-12.473-13.458-25.307-17.545-39.029c-6.861,1.279-13.78,2.211-20.632,3.545
	c-0.069,0.014-0.123,0.002-0.188,0.01c0.014,0.158,0.042,0.371,0.109,0.666c0.254,1.109,0.514,2.215,0.777,3.32
	c0.883,3.705,1.783,7.404,2.69,11.104c2.447,9.969,4.93,19.932,7.503,29.867c2.792,10.781,5.364,21.271,14.962,28.172
	C216.641,388.859,224.005,393.593,230.049,388.271z M232.123,389.742c2.14-0.242,4.291-0.436,6.445-0.607
	c2.045-3.799,2.409-7.707,2.686-11.656C238.918,381.755,235.867,386.576,232.123,389.742z M120.851,452.798
	c-3.144-1.893-6.484-5.443-7.149-8.684c-0.246-1.193,0.077-2.357,0.689-3.424c-6.965,0.891-14.364,4.313-20.412,7.217
	c-4.845,2.328-17.524,7.684-12.857,15.189c2.652,4.266,8.226,6.029,12.952,6.688c6.019,0.836,10.429-0.775,14.531-5.254
	c3.779-4.125,7.084-8.943,12.003-11.555C120.667,452.921,120.747,452.863,120.851,452.798z M132.947,450.384
	c7.324-1.396,14.624-2.926,21.913-4.496c16.146-3.479,32.326-7.006,48.278-11.301c7.277-1.959,14.717-4.24,20.591-9.217
	c8.614-7.299,7.656-16.615,0.412-24.48c-0.938-1.02,1.818-2.16,2.662-1.244c4.39,4.768,8.053,11.404,5.596,18.008
	c-2.418,6.498-8.486,10.969-14.765,13.979c17.418-1.615,35.016-7.666,51.508-12.891c8.659-2.742,17.212-5.66,25.997-8.004
	c0.371-0.098,0.744-0.195,1.115-0.293c2.091-4.148,3.908-8.365,5.492-12.641c-6.557,0.713-13.377,0.35-19.834-0.688
	c-6.327-1.018-15.113-2.59-18.879-8.467c-0.207,0.127-0.446,0.227-0.709,0.268c-3.699,0.578-7.493,0.936-11.324,1.223
	c-0.563,0.146-1.195,0.191-1.541,0.117c-3.046,0.215-6.113,0.396-9.176,0.617c-0.561,0.68-2.736,0.908-2.793,0.215
	c-2.973,0.24-5.934,0.543-8.862,0.965c-1.889,0.906-3.919,1.342-6.092,1.084c-3.191,0.693-6.318,1.602-9.351,2.805
	c-0.346,0.477-1.069,0.898-1.727,0.826c-0.062-0.008-0.124-0.008-0.185-0.014c-0.225,0.1-0.456,0.184-0.679,0.287
	c-0.824,0.383-1.711,0.084-1.966-0.396c-6.938,0.115-14.172,3.145-20.333,5.705c-9.533,3.963-18.763,8.625-27.863,13.488
	c-8.547,4.566-16.981,9.338-25.475,14.004c-3.516,1.932-12.094,5.211-16.045,9.34c0.257,0.201-0.21,0.621-0.786,0.928
	c-1.676,2.215-1.911,4.648,0.688,7.236c2.098,2.088,3.552,3.961,5.902,4.24c0.042,0.006,0.091,0.004,0.128,0.014
	c0.438,0.041,0.903,0.033,1.413-0.045C128.495,451.218,130.723,450.808,132.947,450.384z M176.119,451.712
	c-0.015,0.012-0.029,0.021-0.044,0.031c0.119-0.025,0.218-0.041,0.295-0.043c2.357-4.154,4.554-7.764,5.658-9.898
	c-1.23,0.273-2.459,0.547-3.679,0.828c-15.559,3.58-31.165,7.105-46.872,9.984c-0.054,0.01-0.114,0.021-0.171,0.033
	c0.968-0.059,1.731-0.107,2.047-0.109c5.893-0.027,11.785-0.121,17.676-0.232C159.144,452.15,168.673,452.115,176.119,451.712z
	 M209.911,452.492c-1.01-1.088-1.543-2.537-1.733-4.133c-0.485-4.084-1.072-7.861-2.653-11.701
	c-0.084-0.203-0.076-0.395-0.014-0.566c-6.631,1.979-13.46,3.496-20.222,4.988c-2.431,5.994-6.313,11.461-9.214,17.234
	c-1.009,2.01-9.266,18.234-3.227,18.576c3.343,0.189,7.136-2.887,9.688-4.697c3.362-2.387,6.6-4.936,9.804-7.527
	c5.101-4.127,10.316-9.416,16.408-12.076C209.148,452.414,209.559,452.404,209.911,452.492z M341.715,447.027
	c-0.08-1.818-0.132-3.631-0.162-5.43c-0.382,0.258-0.769,0.516-1.165,0.768c-3.584,2.289-7.461,4.008-11.475,5.371
	C333.183,447.539,337.452,447.275,341.715,447.027z M331.363,402.953c-0.494,0.063-0.828-0.029-1.024-0.209
	c-0.396,0.059-0.783,0.045-1.007-0.033c-10.125,3.506-20.524,6.117-30.877,8.861c-0.043,0.084-0.083,0.168-0.127,0.252
	c-0.364,0.701-2.244,1.021-2.702,0.5c-0.019,0.006-0.039,0.012-0.058,0.016c-9.173,2.467-18.103,5.541-27.163,8.369
	c-17.514,5.469-36.16,11.873-54.611,12.936c-0.306,0.02-0.538-0.012-0.717-0.07c-0.09,0.033-0.181,0.07-0.271,0.104
	c-1.611,0.6-3.245,1.148-4.89,1.674c0.223,0.111,0.403,0.283,0.505,0.529c1.596,3.875,2.05,7.617,2.654,11.701
	c0.586,3.971,3.178,4.947,7.004,5.426c5.585,0.701,11.163,1.08,16.79,1.305c17.06,0.684,34.366,1.105,51.403-0.252
	c9.454-0.752,18.858-2.869,28.128-4.801c9.399-1.959,19.058-4.357,26.889-10.203c0.155-0.115,0.3-0.238,0.452-0.357
	c0.093-0.072,0.184-0.145,0.273-0.219c6.873-5.475,10.074-13.129,7.512-22.002C347.083,408.005,340.624,401.75,331.363,402.953z
	 M391.157,391.927c1.648-7.773,3.287-15.551,4.942-23.322c0.528-2.477,1.061-4.953,1.588-7.43
	c-11.271,4.332-24.395-9.578-31.07-16.639c-3.634-3.842-7.267-7.881-10.76-12.08c-5.098,13.611-10.914,27.238-13.688,41.553
	c-1.616,8.336-0.549,20.732-7.763,26.57c3.141-0.012,6.281,0.658,8.973,2.289C351.044,387.664,378.339,378.5,391.157,391.927z
	 M519.254,418.267c-1.787-5.813-2.802-11.951-4.022-17.887c-2.169-10.555-4.223-21.135-6.207-31.729
	c-1.802-9.619-3.583-19.248-5.164-28.906c-0.181-1.105-1.843-7.277-1.505-9.885c-7.152,0.004-14.305,0.018-21.458,0.039
	c-0.832,0.365-2.122,0.52-2.207,0.09c-0.005-0.027-0.01-0.057-0.015-0.084c-23.901,0.076-47.802,0.219-71.704,0.229
	c-1.255,3.604-1.604,7.967-2.381,11.586c-1.964,9.139-3.912,18.279-5.859,27.42c-3.364,15.797-6.656,31.611-10.139,47.385
	c0.354,0.014,0.688,0.031,0.977,0.033c3.28,0.023,6.561,0.121,9.839,0.217c11.396,0.338,22.793,0.746,34.189,1.08
	C462.108,418.691,490.742,419.566,519.254,418.267z M376.356,187.75c-0.087-13.322,0.076-26.893,2.524-40.031
	c3.041-16.324,10.396-31.828,28.052-35.389c0.599-0.119,1.03-0.012,1.288,0.188c0.334-0.121,0.638-0.203,0.797-0.203
	c22.627,0.021,45.249,0.652,67.875,0.691c0.014-0.002,0.026-0.006,0.04-0.008c0.367-0.074,0.662-0.053,0.906,0.012
	c0.08,0,0.16,0.002,0.24,0.002c0.418,0,0.475,0.104,0.34,0.248c6.284,1.727,7.566,10.619,8.085,16.164
	c0.743,7.955,0.603,16.223-0.763,24.111c-0.122,0.705-2.527,1.191-2.835,0.648c-10.069,0-20.139,0-30.207,0
	c-0.339,0-0.598-0.066-0.793-0.172c-2.864,27.912-0.05,56.51,1.606,84.396c0.012,0.209-0.073,0.398-0.216,0.564
	c0.604,0.313-1.08,1.266-1.833,1.266c-23.462,0-46.925,0-70.388,0c-0.758,0.67-2.505,0.867-2.553,0.086
	C377.489,222.82,376.472,205.289,376.356,187.75z M476.844,114.66c-17.672,3.869-22.964,21.445-24.762,37.561
	c-0.001,0.012-0.002,0.023-0.003,0.033c0.234-0.143,0.524-0.234,0.865-0.234c10.079,0,20.157,0,30.235,0
	c0.947-6.469,1.115-13.211,0.609-19.686C483.396,127.306,482.718,116.83,476.844,114.66z M381.381,238.875
	c23.072,0,46.144,0,69.216,0c-1.052-17.703-2.203-35.422-2.515-53.156c-0.225-12.695-0.285-25.613,1.782-38.182
	c2.426-14.752,8.487-28.41,22.724-33.355c-21.47-0.076-42.936-0.643-64.405-0.678c-0.187,0.158-0.449,0.295-0.836,0.373
	c-18.349,3.701-24.187,22.166-26.373,38.635C377.193,180.982,379.681,210.326,381.381,238.875z M404.976,123.97
	c13.651,0,27.302,0,40.953,0c1.226,0,3.03-1.857,1.069-1.857c-13.651,0-27.302,0-40.953,0
	C404.821,122.113,403.015,123.97,404.976,123.97z M398.91,138.38c13.65,0,27.301,0,40.951,0c1.226,0,3.03-1.859,1.069-1.859
	c-13.65,0-27.301,0-40.952,0C398.755,136.521,396.949,138.38,398.91,138.38z M392.842,152.791c13.651,0,27.301,0,40.952,0
	c1.225,0,3.03-1.859,1.069-1.859c-13.651,0-27.302,0-40.952,0C392.687,150.931,390.882,152.791,392.842,152.791z M435.623,167.615
	c-13.651,0-27.301,0-40.952,0c-1.225,0-3.03,1.859-1.069,1.859c13.651,0,27.301,0,40.952,0
	C435.777,169.474,437.584,167.615,435.623,167.615z M391.326,183.884c13.65,0,27.302,0,40.953,0c1.225,0,3.029-1.859,1.068-1.859
	c-13.65,0-27.302,0-40.953,0C391.171,182.025,389.365,183.884,391.326,183.884z M389.05,198.292c13.651,0,27.301,0,40.952,0
	c1.225,0,3.03-1.859,1.069-1.859c-13.651,0-27.302,0-40.952,0C388.895,196.433,387.09,198.292,389.05,198.292z M432.59,210.083
	c-13.651,0-27.301,0-40.952,0c-1.225,0-3.03,1.859-1.069,1.859c13.651,0,27.302,0,40.952,0
	C432.745,211.943,434.55,210.083,432.59,210.083z M434.105,226.769c-13.65,0-27.302,0-40.953,0c-1.225,0-3.029,1.859-1.068,1.859
	c13.65,0,27.302,0,40.953,0C434.261,228.628,436.066,226.769,434.105,226.769z M275.286,232.638
	c0.717,0.588,3.368-0.533,2.707-1.074c-2.947-2.412-7.79-0.129-9.521,2.73c-0.637,1.051,2.24,0.654,2.668-0.051
	C272.038,232.761,273.634,231.289,275.286,232.638z M308.199,240.794c0.308-0.947,2.023-4.748,3.284-3.041
	c0.821,1.111,3.568-0.053,2.646-1.303c-1.184-1.604-3.029-1.705-4.757-0.955c-1.947,0.844-3.327,2.977-3.958,4.916
	C304.883,242.044,307.779,242.083,308.199,240.794z M203.615,205.75c-9.384,0.422-18.8,0.193-28.187-0.07
	c-4.046-0.113-8.09-0.25-12.136-0.377c-1.44-0.045-2.881-0.096-4.321-0.121c-0.487-0.008-2.089,0.289-0.86-0.166
	c-0.225,0.084-0.452,0.115-0.672,0.113c-0.729,0.111-1.409-0.025-1.295-0.539c0.002-0.012,0.005-0.023,0.007-0.035
	c-0.222-0.305-0.207-0.676,0.211-0.979c1.228-5.6,2.403-11.211,3.598-16.818c0.858-4.025,1.11-9.209,2.808-12.986
	c0.034-0.076,0.092-0.146,0.158-0.215c0.343-0.479,1.135-0.977,1.765-0.977c2.446,0,4.892-0.014,7.338-0.021
	c0.214-9.902,2.556-24.096,11.958-20.717c5.022,1.807,5.751,7.371,6.037,12.088c0.172,2.844,0.189,5.711,0.121,8.578
	c2.886-0.008,5.772-0.021,8.659-0.023c0.889,0,0.996,0.379,0.738,0.791c-0.016,0.07-0.042,0.145-0.082,0.227
	c-0.339,0.684,0.782,4.613,0.975,5.713c0.568,3.244,1.163,6.484,1.782,9.719c0.964,5.037,1.688,10.287,3.202,15.197
	c0.123,0.398-0.146,0.752-0.56,1C204.605,205.46,204.172,205.722,203.615,205.75z M174.921,172.55
	c4.177-0.014,8.354-0.02,12.531-0.035c0.274-5.031,0.208-10.24-1.371-14.463c-1.325-3.543-5.999-6.488-8.221-1.502
	c-0.899,2.018-1.349,4.121-1.746,6.285C175.52,166.078,175.05,169.304,174.921,172.55z M202.182,203.712
	c-1.58-5.553-2.394-11.443-3.442-17.09c-0.596-3.211-1.196-6.424-1.708-9.648c-0.106-0.668-0.437-1.74-0.465-2.648
	c-2.162,0.002-4.323,0.014-6.485,0.02c-0.077,2.162-0.182,4.32-0.312,6.465c-0.074,1.221-3.013,1.691-2.926,0.258
	c0.126-2.084,0.331-4.363,0.492-6.715c-4.149,0.016-8.298,0.021-12.447,0.035c0.006,1.713,0.107,3.432,0.367,5.162
	c0.196,1.313-2.71,2.027-2.897,0.777c-0.184-1.23-0.332-3.365-0.342-5.932c-2.252,0.006-4.504,0.016-6.756,0.018
	c-1.467,3.961-1.779,9.004-2.631,13.004c-1.109,5.207-2.203,10.418-3.342,15.619c0.647,0.018,1.294,0.072,1.899,0.088
	c3.852,0.105,7.702,0.248,11.553,0.363C182.543,203.781,192.375,204.076,202.182,203.712z M130.049,169.675
	c0.085,0.123,0.136,0.275,0.136,0.461c0,3.166,0,6.334,0,9.5c0,0.854-1.5,1.354-2.351,1.039c-0.517,0.17-1.052,0.262-1.3,0.162
	c-1.729-0.691-3.458-1.395-5.089-2.283c0,5.707,0,11.414,0,17.121c0,0.9-1.229,1.373-2.099,1.17
	c-0.122,0.031-0.228,0.049-0.304,0.049c-7.774,0-15.548,0-23.322,0c-0.01,0-0.02,0-0.029,0c-0.216,0-0.433,0-0.649,0
	c-0.505,0-0.508-0.15-0.276-0.348c-0.164-0.166-0.266-0.391-0.266-0.686c0-5.91,0-11.82,0-17.73
	c-1.765,0.975-3.648,1.732-5.522,2.482c-0.452,0.182-1.396,0.465-1.861,0.156c-0.594-0.014-1.106-0.27-1.106-0.867
	c0-3.168,0-6.334,0-9.5c0-0.682,0.956-1.139,1.774-1.137c2.412-1.225,4.672-2.852,6.966-4.246c0.891-0.543,1.709-1.016,2.706-1.328
	c0.901-0.283,2.687,0.078,3.177-0.129c0.455-0.189,1.769-0.27,2.149-0.102c0.567-0.146,1.122-0.172,1.303,0.057
	c0.7,0.883,1.526,1.744,2.554,2.244c2.245,1.092,3.927,0.027,5.518-1.646c0.309-0.324,1.532-0.582,2.229-0.559
	c0.606-0.256,1.319-0.445,1.7-0.287c1.304,0.549,2.984-0.213,4.25,0.5c0.963,0.543,1.898,1.137,2.838,1.719
	c2.245,1.389,4.487,2.971,6.912,4.031C130.144,169.546,130.121,169.603,130.049,169.675z M127.261,170.468
	c-2.572-1.145-4.95-2.836-7.338-4.309c-1.078-0.666-2.064-1.463-3.375-1.492c-0.798-0.018-1.597,0-2.367-0.154
	c-3.739,3.443-9.311,4.426-12.821,0.006c-0.052-0.064-0.059-0.137-0.04-0.209c-0.828,0.227-1.658,0.316-2.565,0.336
	c-0.348,0.004-0.694,0.02-1.041,0.037c-0.566,0.34-1.13,0.686-1.692,1.031c-2.318,1.436-4.638,3.039-7.114,4.215
	c0.015,0.064,0.027,0.131,0.027,0.207c0,3.131,0,6.262,0,9.395c1.895-0.775,3.755-1.607,5.426-2.814
	c0.051-0.037,0.116-0.063,0.172-0.098c0.317-1.188,2.913-1.436,2.913,0.059c0,6.322,0,12.645,0,18.967c7.018,0,14.037,0,21.055,0
	c0-6.26,0-12.521,0-18.781c0-1.221,2.264-1.664,2.822-0.684c0.32-0.045,0.6-0.027,0.765,0.094c1.599,1.156,3.366,1.994,5.174,2.754
	C127.261,176.173,127.261,173.322,127.261,170.468z" fill="#0984E3"></path>
</svg>