<?xml version="1.0" standalone="no"?>
<svg version="1.1" id="Layer_1" xmlns="http://www.w3.org/2000/svg" xmlns:xlink="http://www.w3.org/1999/xlink" x="0px" y="0px" width="595.28px" height="595.28px" viewBox="0 0 595.28 595.28" enable-background="new 0 0 595.28 595.28" xml:space="preserve">
<path id="color_x5F_2" fill="#b5ff63" d="M192.612,299.645c-2.007-3.077-3.965-6.222-5.938-9.371
	c7.375-0.401,15.034-0.864,21.744-4.136c2.441,5.945,4.231,12.147,5.744,17.739c2.911,10.763,5.061,22.103,5.816,33.399
	c-0.192,1.35-0.426,2.405-0.658,3.21c-2.074-4.628-5.492-8.922-8.105-12.984C205.172,318.112,198.713,308.997,192.612,299.645z
	 M233.518,410.032l0.202,0.06l-0.005-0.045C233.649,410.042,233.583,410.038,233.518,410.032z M222.706,430.665
	c-0.5-0.173-0.994-0.334-1.482-0.488c-0.134,0.124-0.343,0.24-0.592,0.34c1-0.001,1.796,0.547,0.274,1.085
	c-1.51,0.533-3.295,0.229-4.855,0.145c-4.181-0.226-8.358-0.524-12.533-0.838c-12.221-0.918-24.436-1.964-36.626-3.231
	c-9.026-0.938-18.011-2.111-26.998-3.36c-3.37-0.468-6.794-0.964-10.176-1.649c-0.004,0.808-0.018,2.398-0.063,4.318
	c0.76,10.042,0.365,21.912-6.63,28.752c0.099-0.015,0.199-0.028,0.297-0.042c3.6-0.627,11.005-1.921,18.661-3.272
	c14.286-2.849,28.476-6.353,42.584-9.722c13.61-3.25,27.202-6.588,40.754-10.076L222.706,430.665z M122.546,453.277
	c1.225-1.688,2.145-3.623,2.822-5.716C124.368,449.704,123.346,451.734,122.546,453.277z M218.298,435.437
	c4.928-1.222,8.088-2.012,8.088-2.012l-0.051-0.038C223.658,434.077,220.979,434.758,218.298,435.437z M318.462,353.931l3.257-2.506
	l6.947-8.549C325.4,346.674,321.998,350.368,318.462,353.931z M170.427,291.217c2.833,1.288,5.943,2.188,8.969,2.989
	L170.427,291.217z M127.04,420.161c0.825-0.329,1.907-0.343,1.97,0.211c0.012,0.101,0.023,0.207,0.034,0.309
	c6.271,1.518,12.758,2.214,19.128,3.134c9.272,1.339,18.599,2.305,27.923,3.197c9.739,0.932,19.487,1.772,29.243,2.497
	c3.594,0.267,7.188,0.529,10.786,0.739c0.772,0.045,1.545,0.083,2.317,0.12c-0.545-3.241,0.177-7.058,0.366-10.28
	c0.335-5.714,0.669-11.429,0.908-17.148c-7.054-0.971-14.23-3.75-21.03-5.726c-12.113-3.52-24.206-7.161-36.141-11.248
	c-4.769-1.633-9.555-3.285-14.188-5.28c-2.077-0.894-5.12-1.86-6.587-3.718c-1.363-1.725-0.318-7.008-0.23-9.088
	c0.186-4.391,0.632-8.777,1.138-13.141c1.366-11.79,3.082-23.534,4.089-35.363c0.072-0.843,2.968-1.441,2.882-0.423
	c-1.008,11.832-2.776,23.567-4.09,35.364c-0.582,5.228-1.157,10.492-1.226,15.756c-0.021,1.583-0.832,5.136,0.593,6.292
	c5.95,4.825,15.548,6.854,22.647,9.22c11.361,3.788,22.825,7.271,34.33,10.594c5.546,1.602,11.357,3.788,17.125,4.922
	c-0.076-0.271,0.417-1.963,0.499-2.576c0.289-2.166,0.428-4.352,0.515-6.535c0.218-5.444,0.218-10.897,0.097-16.344
	c-0.188-8.475-0.05-17.586-1.461-26.13c-5.168-5.33-10.829-9.817-17.023-13.932c-6.156-4.089-12.928-8.186-18.089-13.528
	c-2.662-2.755-4.583-5.708-4.189-9.683c0.526-5.322,1.416-10.172,0.62-15.562c-0.002-0.014,0.003-0.028,0.002-0.042
	c-7.89-2.096-16.868-4.287-20.973-11.846c-4.124-7.592-3.943-17.607-4.641-26.23c-0.753,0.414-1.669,0.921-2.709,1.505
	c-13.14,8.031-27.906,16.491-35.771,29.488c-2.703,4.467-4.417,9.226-5.586,14.144c-0.005,0.028-0.01,0.057-0.015,0.085
	c0.54,0.223,0.335,0.858-0.224,1.288c-0.679,3.973-1.349,8.411-1.988,13.003c-0.039,0.378-0.078,0.756-0.115,1.135
	c-1.442,14.617-2.806,29.251-3.376,43.933c-0.551,14.196-3.203,34.352,5.676,46.619c4.93,4.134,10.158,7.34,13.952,9.426
	C125.158,419.625,126.097,419.902,127.04,420.161z M182.394,310.677c-0.339,2.915,0.274,5.326,1.583,7.462
	C183.287,315.976,182.613,313.31,182.394,310.677z M164.339,287.183c-0.908-1.112-1.951-2.533-2.978-4.238
	c0,0.001,0.001,0.003,0.002,0.004C162.125,284.602,163.143,285.991,164.339,287.183z M311.309,313.201
	c-2.124-1.626-3.59-2.442-3.59-2.442l-1.632,1.312C307.532,311.542,309.421,312.146,311.309,313.201z M328.375,339.066
	c-3.907-7.488-8.25-16.205-15.261-21.305c-1.907-1.387-3.944-2.672-6.228-3.344c-0.043-0.013,0.946-0.938,0.204-0.367
	c-0.661,0.508-1.313,1.029-1.966,1.547c-6.827,5.425-13.67,10.83-20.662,16.041c-3.344,2.492-31.136,25.019-37.152,19.711
	c-0.429,0.022-0.773-0.062-0.842-0.307c-2.521-9.026-4.107-18.271-5.902-27.475c-3.317-12.026-6.18-23.476-6.18-23.476L231,289.412
	c-3.992-9.491-9.899-18.483-19.315-20.776c0.484,1.263,0.977,2.686,1.379,4.137c1.816,4.576,2.218,9.796,0.741,15.386
	c0.271-0.028,0.519-0.007,0.703,0.083c23.176,11.321,15.831,43.108,8.625,62.256c-0.162,0.43-0.75,0.74-1.359,0.884
	c1.165,9.482,1.292,19.207,1.333,28.684c0.024,5.384,0.002,10.791-0.5,16.156c-0.109,1.171-0.119,2.937-0.725,4.189
	c0.459-0.033,0.813,0.012,0.807,0.149c-0.079,2.068-0.19,4.134-0.295,6.201l1.9,0.559c0.021,0,0.045-0.001,0.063,0.001
	c2.935,0.377,6.083,1.08,9.229,1.503l-1.2-11.399l0.189-0.505c-2.298-20.655-2.303-41.602-1.427-62.313
	c0.05-1.192,2.983-1.686,2.923-0.269c-0.813,19.234-0.864,38.657,0.995,57.864c1.846,0.29,7.258,1.071,13.183,1.304
	c0.695-0.031,1.391-0.08,2.086-0.164c12.642-1.524,24.822-8.75,35.332-15.597c16.208-10.561,30.527-23.591,42.89-38.444
	C328.488,339.234,328.424,339.159,328.375,339.066z"></path>
<path id="color_x5F_1" d="M200.576,183.554c3.032,0.043,5.957,0.747,8.213,2.882c1.26,1.192-1.207,2.699-2.214,1.746
	c-1.737-1.644-3.85-2.333-6.219-2.366C198.4,185.788,198.867,183.53,200.576,183.554z M196.612,233.597
	c-0.252-0.458,1.661-1.26,2.534-1.023c0.069-0.005,0.144-0.02,0.208-0.02c1.725-0.008,5.128-0.454,6.213,1.314
	c0.75,1.221-0.083,2.173-1.139,2.752c-0.582,0.319-1.201,0.582-1.859,0.689c-0.156,0.025-0.309,0.021-0.46,0.03
	c-0.568,0.238-1.567,0.56-1.982,0.152C198.874,236.263,197.472,235.156,196.612,233.597z M202.76,236.082
	C202.418,236.142,202.592,236.267,202.76,236.082L202.76,236.082z M202.768,236.081c0.188-0.017,0.376-0.03,0.569-0.02
	C203.059,236.047,202.891,236.061,202.768,236.081z M200.2,233.834c0.672,0.832,1.498,1.546,2.277,2.281
	c0.094-0.015,0.189-0.026,0.284-0.035c0.071-0.077,0.138-0.205,0.158-0.422c0.031-0.329-0.021-0.782-0.275-1.028
	C202.024,234.033,201.121,233.868,200.2,233.834z M209.031,224.089c0.216,0.264,0.233,0.636-0.122,1.092
	c-2.029,2.606-5.921,5.62-9.325,3.486c-3.216-2.016-2.408-6.49-1.169-9.417c0.344-0.813,1.444-1.092,2.218-0.826
	c2.89,0.997,5.919,2.401,8.157,4.529C209.186,223.33,209.211,223.737,209.031,224.089z M206.281,224.442
	c-1.618-1.449-3.58-2.507-5.605-3.326c-0.577,1.887-0.886,4.323,0.684,5.503C203.166,227.977,205.164,225.842,206.281,224.442z
	 M158.824,187.66c7.312,2.015,10.856,11.604,12.313,18.194c2.198,9.938-0.439,20.964-10.214,25.641
	c-1.731,0.828,0.981,0.741,1.677,0.408c9.492-4.541,12.98-13.772,11.918-23.875c-0.804-7.645-4.96-19.204-13.317-21.507
	C160.522,186.334,157.961,187.422,158.824,187.66z M213.681,218.778c10.322-0.391,6.861-11.321,5.947-18.081
	c-0.183-1.356-3.088-0.631-2.897,0.776c0.588,4.356,4.322,14.887-2.8,15.157C212.276,216.693,211.708,218.853,213.681,218.778z
	 M203.61,198.849c0.512,0.912,3.288-0.082,2.897-0.776c-2.68-4.777-9.112-4.301-13.091-1.545c-0.507,0.351-0.302,0.83,0.246,0.918
	c0.718,0.116,1.466-0.146,2.049-0.549C198.372,195.054,202.057,196.082,203.61,198.849z M449.59,339.696
	C449.293,339.666,449.189,339.776,449.59,339.696L449.59,339.696z M518.44,383.101c-0.451,0.346-2.5,0.629-2.527,0.198
	c-0.058,0.011-0.116,0.021-0.172,0.036c-1.129,0.301-2.256,0.614-3.38,0.935c-3.251,0.928-6.497,1.88-9.738,2.841
	c-9.797,2.903-19.581,5.853-29.364,8.802c0.112,9.852,0.214,19.704,0.245,29.557c0.012,3.806,0.031,7.613-0.034,11.418
	c-0.002,0.14,0.011,0.363,0.026,0.615c5.86,0.455,11.728,0.898,17.568,1.552c1.067,0.12,3.634,0.038,5.321,0.507
	c0.813-0.39,2.126-0.572,2.264-0.079c0.716,2.559,0.67,5.632,0.886,8.267c0.114,1.395,1.14,5.584-0.609,6.359
	c-0.519,0.229-1.997,0.276-2.242,0.018c-0.365,0.114-0.73,0.229-1.093,0.348c-1.579,0.521-3.151,1.058-4.723,1.601
	c-4.389,1.516-8.771,3.052-13.168,4.546c-7.029,2.389-14.371,5.434-21.778,6.404c-1.072,0.141-1.32-0.344-1.092-0.853
	c-2.56,0.961-5.621-0.037-8.212-0.341c-5.361-0.629-10.727-1.223-16.097-1.776c-5.755-0.592-11.514-1.16-17.277-1.673
	c-3.687-0.328-8.178-0.001-11.739-0.991c-3.689-1.025-1.637-9.018-1.077-11.663c0.093-0.438,1.054-0.779,1.84-0.853
	c0.049-0.498,0.672-1.106,1.512-1.178c1.506-0.129,5.56-1.872,7.704-2.599c5.146-1.744,10.297-3.476,15.487-5.085
	c4.732-1.468,9.52-3.01,14.398-3.922c1.431-0.268,3.765-0.93,5.405-0.432c0.002-0.178,0.006-0.359,0.006-0.534
	c-0.006-3.208,0.011-6.415,0.042-9.623c-9.827,0.553-19.77,3.647-29.223,6.127c-14.715,3.86-29.33,8.095-43.918,12.402
	c-13.613,4.02-27.197,8.14-40.806,12.173c-6.604,1.957-13.527,4.698-20.398,5.572c-1.172,0.149-1.361-0.445-1.018-0.999
	c-0.83,0.414-1.846,0.59-3.097,0.437c-10.888-1.334-21.815-2.372-32.735-3.408c-11.15-1.058-22.305-2.088-33.47-2.993
	c-2.509-0.203-6.54,0.523-6.92-2.86c-0.343-3.059,0.116-6.226,0.751-9.223c0.164-0.772,3.03-1.247,2.867-0.477
	c0,0.002-0.001,0.004-0.001,0.006c1.876-0.318,3.692-0.837,5.534-1.382c8.976-2.652,17.939-5.344,26.921-7.975
	c0.207-0.061,0.392-0.085,0.56-0.091c-1.653-3.602-3.064-7.69-5.696-9.363c-4.893,0.464-8.258,5.992-11.782,8.798
	c-2.055,1.637-4.112,2.823-6.643,3.547c-6.371,1.824-13.419-0.749-19.938-3.238c-0.004,0.234-0.354,0.541-1.135,0.743
	c-0.114,0.029-0.228,0.058-0.341,0.087c-2.677,0.69-5.357,1.371-8.037,2.05c-11.517,2.919-23.059,5.745-34.618,8.492
	c-20.509,4.874-41.185,10.058-62.081,13.066c-0.368,0.289-0.748,0.568-1.147,0.833c-0.812,0.537-2.988,0.324-2.104-0.543
	c-0.4-0.239,0.551-0.942,1.434-1.08c1.06-0.855,1.975-1.84,2.764-2.927c1.225-1.688,2.145-3.623,2.822-5.716
	c2.608-8.062,1.639-18.417,0.825-25.689c-3.792-0.955-7.485-2.231-10.931-4.084c-18.323-9.856-14.281-36.695-13.561-53.737
	c0.574-13.58,1.71-27.117,3.036-40.642c0.572-5.841,1.064-11.825,2.271-17.616c-8.279,0.495-16.73-2.172-22.717-8.116
	c-5.074-5.036-10.211-13.762-7.485-21.196c2.567-6.999,6.97-13.208,10.085-19.962c1.526-3.309,3.102-6.638,2.328-10.323
	c-1.133-5.396-2.418-10.794-3.111-16.271c-0.898-7.109-1.202-14.55,3.54-20.419c2.747-3.4,6.782-5.514,10.862-7.055
	c3.439-1.492,7.147-2.565,10.707-3.524c4.308-1.16,7.941-2.652,10.932-4.307c3.785-2.233,6.798-5.264,8.301-9.849
	c-0.254-32.464,36.191-69.517,68.741-50.941c0.39,0.222,0.436,0.496,0.289,0.759c7.71,1.428,15.082,5.169,20.9,10.762
	c0.194,0.186,0.245,0.38,0.199,0.566c11.21,4.387,19.181,13.278,14.562,26.68c-1.458,4.23-3.581,7.163-6.127,9.054
	c3.791,5.115,6.498,11.642,7.501,18.306c0.359,1.577,0.49,3.22,0.421,4.885c0.17,8.263-2.526,16.239-9.245,21.487
	c0.197,0.019,0.38,0.069,0.531,0.168c11.585,7.616,19.296,21.184,19.337,35.161c0.031,10.548-4.585,20.822-15.578,22.955
	c2.861,5.701,4.892,11.885,6.46,17.135c4.618,15.455,6.363,31.533,10.532,47.058c0.107,0.081,0.2,0.182,0.264,0.316
	c2.424,5.029,39.245-23.422,42.842-26.219c4.439-3.451,8.714-7.506,13.437-10.566c0.179-0.116,0.373-0.195,0.569-0.267
	c1.445-0.528,3.334,0.075,5.222,1.13c0.345,0.193,0.69,0.396,1.032,0.615c2.679-3.563,2.934-9.335,3.41-13.546
	c0.596-5.267,0.984-10.56,1.688-15.814c0.758-5.665,1.501-16.324,9.207-16.645c2.435-0.102,3.848,3.3,4.65,5.092
	c1.063,2.376,1.959,4.831,2.746,7.321c3.119-3.666,5.765-7.75,9.118-11.229c2.27-2.355,5.794-6.257,9.459-4.74
	c5.086,2.105,2.76,8.88-0.315,14.793c3.007-3.748,6.991-6.668,11.687-8.081c0.585-0.176,1.477-0.092,1.708,0.577
	c0.85,2.465,0.721,5.13,0.001,7.812c1.4-1.202,2.979-2.133,4.831-2.612c1.993-0.516,6.193-1.522,7.633,0.705
	c1.75,2.705-2.195,5.532-4.038,6.842c-0.069,0.049-0.174,0.096-0.298,0.139c7.161-1.684,14.365-4.589,21.18-6.684
	c15.931-4.896,31.831-9.895,47.737-14.869c14.692-4.595,29.376-9.22,44.123-13.637c5.737-1.718,10.465-3.277,16.522-2.303
	c1.141,0.184,8.906,1.509,12.187,3.183c1.166-0.101,3.389,0.07,2.127,1.109c0.115,0.042,0.188,0.105,0.19,0.195
	c0,0.002,0,0.004,0,0.007c0.333,22.5,0.564,45.003,0.785,67.505c0.147,14.998,0.29,29.996,0.327,44.994
	c0.012,4.729,0.029,9.46-0.037,14.188C518.952,379.199,519.456,382.32,518.44,383.101z M370.952,286.793
	c2.457,0.144,4.914,0.313,7.361,0.56c1.093,0.11,5.761,0.09,7.145,1.215c0.116-0.031,0.236-0.064,0.351-0.094
	c27.05-7.125,53.737-15.804,80.506-23.901c13.027-3.94,26.046-7.913,39.118-11.706c1.986-0.576,3.974-1.171,5.972-1.724
	c-2.36-0.69-5.494-1.585-6.075-1.719c-3.654-0.837-7.364-1.627-11.038-0.562c-5.454,1.583-10.889,3.232-16.319,4.896
	c-14.656,4.491-29.281,9.081-43.91,13.658c-14.668,4.59-29.332,9.2-44.037,13.673C383.857,282.969,377.396,285.522,370.952,286.793z
	 M381.184,291.235c-1.202-0.034-0.876-1.129,0.04-1.625c0.092-0.185,0.303-0.345,0.576-0.475c-2.219-0.646-7.009-0.665-7.948-0.74
	c-1.57-0.125-3.142-0.231-4.713-0.328c0.772,1.122,0.211,4.282,0.209,5.527c-0.008,4.952-0.073,9.903-0.139,14.855
	c-0.2,14.782-0.462,29.563-0.699,44.344c-0.237,14.867-0.482,29.735-0.581,44.604c-0.033,5.062-0.07,10.126,0.011,15.188
	c0.022,1.395,0.041,2.793,0.123,4.187c0.023,0.394,0.042,0.791,0.096,1.182c0.011,0.081,0.019,0.144,0.025,0.199
	c0.225,0.039,0.354,0.146,0.279,0.372c-0.041,0.125-0.129,0.23-0.234,0.328c0.928-0.378,1.206-0.05,2.799,0.278
	c1.631,0.336,3.271,0.622,4.919,0.861c0.928,0.135,3.451-0.281,3.041,1.047c0.073-0.19,0.136-0.385,0.182-0.583
	c0.298-1.285,0.444-2.609,0.568-3.92c0.462-4.889,0.655-9.805,0.824-14.712c0.522-15.148,0.653-30.31,0.733-45.465
	C381.41,334.654,381.454,312.939,381.184,291.235z M313.217,314.401c2.136,1.488,4.053,3.252,5.024,4.183
	c4.501,4.316,7.796,9.827,10.758,15.348c0.133-0.104,0.326-0.214,0.609-0.33c13.942-5.709,26.401-11.006,35.064-24.004
	c0.205-0.308,0.969-0.56,1.64-0.637c0.052-3.825,0.097-7.651,0.119-11.477c-0.785,2.213-1.801,4.229-3.465,5.935
	c-0.497,0.51-1.206,0.77-1.918,0.77c-0.339,0-1.265-0.255-0.763-0.77c1.666-1.708,2.635-3.684,3.396-5.925
	c0.252-0.742,2.191-1.137,2.757-0.778c0.002-0.488,0.009-0.975,0.011-1.463c0.004-1.541,0.012-3.082-0.022-4.622
	c-0.042-1.949-0.464-1.101,1.46-1.572c-1.702,0.417-1.99-0.604-0.274-1.024c0.004-0.001,0.008-0.002,0.013-0.003
	c0.045-0.011,0.109-0.027,0.181-0.044c-0.312-0.017-0.624-0.039-0.935-0.055c-0.798-0.04-0.396-0.413,0.249-0.746
	c-0.704-0.378,0.059-1.586,1.233-1.739c1.565-0.203,3.138-0.495,4.713-0.846c-0.962,0.143-2.046,0.064-1.197-0.54
	c1.151-0.818,6.5-5.452,2.357-6.429c-3.592-0.848-6.156,1.533-8.082,4.138c-3.049,4.124-5.309,8.779-8.44,12.841
	c-0.174,0.227-0.679,0.419-1.208,0.528c-0.224,0.279-0.445,0.552-0.658,0.813c-0.81,0.992-3.573,0.604-2.415-0.816
	c4.222-5.177,11.252-14.407,9.671-21.747c-6.623,2.632-11.356,9.151-13.121,15.915c-0.324,1.24-3.288,1.599-2.932,0.235
	c0.274-1.05,0.61-2.086,1.003-3.1c-0.317,0.537-0.586,1.004-0.782,1.378c-0.568,1.087-3.506,1.137-2.76-0.292
	c1.856-3.555,12.107-17.876,6.701-21.176c-3.791-2.313-13.91,13.887-16.361,16.474c-0.006,0.007-0.015,0.012-0.021,0.018
	c0.4,1.416,0.78,2.836,1.125,4.26c1.248,5.154,2.344,10.42,2.725,15.719c0.195,2.713,0.73,6.706-0.978,9.096
	c-0.506,0.708-3.103,0.828-2.863,0.492c1.658-2.32,1.176-6.149,0.943-8.812c-0.402-4.602-1.189-9.174-2.239-13.672
	c-1.047-4.485-2.233-8.982-3.902-13.282c-0.679-1.75-2.25-7.153-4.523-7.594c-1.837-0.356-3.681,8.098-3.886,9.159
	c-0.959,4.974-1.427,10.02-1.924,15.055c-0.62,6.272-0.34,15.363-4.463,20.557C314.624,314.091,313.875,314.318,313.217,314.401z
	 M299.591,407.091c0.45-0.143,0.889-0.224,1.118-0.159c2.01,0.566,9.546-2.59,12.29-3.406c7.26-2.16,14.495-4.405,21.721-6.675
	c10.151-3.189,20.289-6.421,30.411-9.702c0.111-10.205,0.271-20.41,0.433-30.614c0.241-15.195,0.513-30.391,0.722-45.586
	c-8.975,12.461-21.649,17.794-35.621,23.515c-0.422,0.173-0.92,0.209-1.3,0.15c0.559,1.051,1.111,2.101,1.653,3.141
	c0.127,0.244,0.146,0.479,0.094,0.695c0.504,0.203,0.748,0.632,0.234,1.253c-0.882,1.066-1.777,2.123-2.681,3.173
	c-3.266,3.798-6.668,7.492-10.204,11.055c-9.76,9.834-20.536,18.677-32.275,26.008c-10.178,6.356-21.193,12.832-33.119,15.076
	c-3.552,0.668-7.259,0.815-10.858,0.463c-2.021-0.197-4.826-1.103-6.879-0.604c0.482,4.534,1.072,9.055,1.79,13.558
	c0.042,0.264-0.052,0.502-0.222,0.707c1.749,0.084,3.473,0.017,5.133-0.32c6.782-1.376,10.978-6.333,16.674-9.668
	c5.042-2.952,9.713-3.586,14.644-1.573c2.13-0.915,4.484-1.567,6.811-1.213c1.217,0.185,2.394,0.517,3.56,0.892
	c0.228-0.085,0.451-0.139,0.637-0.139C291.896,397.097,296.332,401.47,299.591,407.091z M231,289.412
	c-3.992-9.491-9.899-18.483-19.315-20.776c-0.294-0.072-0.587-0.147-0.888-0.205c0.899,1.37,1.663,2.819,2.267,4.342
	c1.816,4.576,2.218,9.796,0.741,15.386c0.271-0.028,0.519-0.007,0.703,0.083c23.176,11.321,15.831,43.108,8.625,62.256
	c-0.162,0.43-0.75,0.74-1.359,0.884c1.165,9.482,1.292,19.207,1.333,28.684c0.024,5.384,0.002,10.791-0.5,16.156
	c-0.109,1.171-0.119,2.937-0.725,4.189c0.459-0.033,0.813,0.012,0.807,0.149c-0.079,2.068-0.19,4.134-0.295,6.201
	c-0.021,0.417-0.038,0.835-0.06,1.252c0.498-0.343,1.522-0.705,1.96-0.693c0.021,0,0.045-0.001,0.063,0.001
	c2.935,0.377,6.083,1.08,9.229,1.503c0.197,0.027,0.394,0.054,0.591,0.078c-0.629-3.98-1.156-7.977-1.602-11.982
	c-2.298-20.655-2.303-41.602-1.427-62.313c0.05-1.192,2.983-1.686,2.923-0.269c-0.813,19.234-0.864,38.657,0.995,57.864
	c0.02,0.206,0.04,0.412,0.06,0.618c1.597-0.326,3.277-0.02,4.872,0.194c2.737,0.366,5.494,0.615,8.251,0.491
	c0.695-0.031,1.391-0.08,2.086-0.164c12.642-1.524,24.822-8.75,35.332-15.597c16.208-10.561,30.527-23.591,42.89-38.444
	c-0.07-0.067-0.134-0.142-0.183-0.235c-3.907-7.488-8.25-16.205-15.261-21.305c-1.907-1.387-3.944-2.672-6.228-3.344
	c-0.043-0.013,0.946-0.938,0.204-0.367c-0.661,0.508-1.313,1.029-1.966,1.547c-6.827,5.425-13.67,10.83-20.662,16.041
	c-3.344,2.492-31.136,25.019-37.152,19.711c-0.429,0.022-0.773-0.062-0.842-0.307c-2.521-9.026-4.107-18.271-5.902-27.475
	c-1.239-6.352-2.576-12.683-4.391-18.907C234.859,300.146,233.226,294.703,231,289.412z M183.978,318.14
	c1.032,1.685,2.493,3.2,4.254,4.66c9.558,7.924,20.338,13.951,29.532,22.198c-0.024-0.098-0.044-0.198-0.069-0.296
	c-0.637-2.544-2.153-4.71-3.487-6.944c-2.856-4.781-5.843-9.48-8.934-14.114c-5.451-8.171-11.096-16.217-16.381-24.497
	c-9.154-14.34-17.658-29.956-31.533-40.282c0.61,8.023,0.665,16.844,4.001,24.081c0,0.001,0.001,0.003,0.002,0.004
	c0.762,1.652,1.78,3.042,2.976,4.234c1.716,1.709,3.811,2.998,6.088,4.034c2.833,1.288,5.943,2.188,8.969,2.989
	c1.586,0.42,3.148,0.816,4.63,1.231c1.462,0.409,0.216,1.74-0.972,1.978c0.46,4.469-0.057,8.57-0.642,13.066
	c-0.009,0.067-0.011,0.13-0.019,0.197C182.055,313.592,182.668,316.003,183.978,318.14z M168.516,233.145
	c-2.108,0.48-4.159,0.66-6.131,0.592c0.138,3.46-1.097,7.438-1.645,10.761c-0.622,3.775-1.159,7.584-1.914,11.335
	c-0.058,0.288-0.255,0.529-0.517,0.719c0.001,0.001,0.003,0.001,0.005,0.002c11.804,8.122,19.716,19.971,27.247,31.946
	c7.461-0.414,15.364-0.581,22.146-4.048c-3.504-8.033-8.297-15.426-15.326-19.988c-0.787,0.274-1.765,0.376-1.891-0.014
	c-2.667-8.211-5.37-18.06-1.73-26.376c0.281-0.641,2.022-1.056,2.619-0.819c4.148,1.65,9.647,3.608,14.777,3.723
	c1.886-0.161,3.888-0.441,5.881-0.896c0.863-0.325,1.691-0.739,2.466-1.273c5.554-3.825,6.888-10.24,7.645-16.537
	c1.371-11.409,1.524-23.006,1.002-34.501c-0.31,0.236-0.727,0.377-1.068,0.426c0,0-0.001,0-0.001,0.001
	c-0.036,0.029-0.079,0.063-0.098,0.082c-0.505,0.493-1.364,0.73-2.049,0.549c-0.61-0.162-0.772-0.729-0.314-1.175
	c0.706-0.688,1.674-1.18,2.664-1.247c0.212-0.014,0.534,0,0.805,0.087c-0.038-0.767-0.083-1.532-0.127-2.298
	c-9.574,1.615-21.705-5.442-29.035-13.57c-0.739,9.147-7.874,15.679-17.141,18.528c7.36,7.979,8.978,22.871,4.219,33.211
	c0.011,0.013,0.027,0.023,0.037,0.038c3.353,5.085,10.02,7.615,15.556,9.503c1.13,0.385-1.501,1.618-2.323,1.338
	c-5.017-1.711-11.062-4.02-14.725-8.18C177.041,229.051,173.38,232.036,168.516,233.145z M208.418,286.138
	c-6.71,3.272-14.37,3.734-21.744,4.136c1.972,3.149,3.931,6.294,5.938,9.371c6.101,9.352,12.561,18.467,18.603,27.857
	c2.613,4.062,6.032,8.356,8.105,12.984c0.345,0.771,0.652,1.551,0.913,2.341c-0.046-1.848-0.131-3.698-0.254-5.551
	c-0.755-11.296-2.905-22.636-5.816-33.399C212.65,298.285,210.86,292.083,208.418,286.138z M223.157,342.179
	c5.532-18.202,8.364-42.123-9.992-51.936c1.399,3.966,2.561,7.925,3.563,11.629C220.245,314.875,222.781,328.588,223.157,342.179z
	 M191.623,257.792c0.403,1.506,0.844,2.985,1.297,4.419c0.372-0.061,0.737-0.029,1.011,0.138
	c8.308,5.067,13.729,14.009,17.551,23.435C213.535,272.472,204.602,261.553,191.623,257.792z M191.954,255.849
	c0.081,0.02,0.159,0.043,0.239,0.063c-0.419-0.301-0.853-0.64-1.275-1.02c0.075,0.343,0.15,0.686,0.231,1.028
	C191.454,255.834,191.746,255.798,191.954,255.849z M197.823,241.061c-0.926-0.19-1.843-0.412-2.75-0.655l1.145,0.521
	C196.219,240.927,196.815,240.996,197.823,241.061z M227.914,180.012c0.217-0.181,0.428-0.375,0.635-0.578
	c-0.521,0.192-0.831-0.008-0.831-0.008L227.914,180.012z M159.48,233.436c-0.352-0.062-0.698-0.135-1.042-0.214
	c0.369,0.262,0.718,0.505,1.041,0.727C159.403,233.785,159.414,233.609,159.48,233.436z M235.957,281.206
	c-1.836,0.849-3.238,1.221-3.238,1.221s-0.901,0.098-1.896-0.015c0.074,0.132,0.147,0.265,0.22,0.398
	c0.124-0.048,0.251-0.088,0.39-0.109C233.125,282.444,234.626,281.925,235.957,281.206z M227.834,223.163
	c-1.171,0.997-2.261,1.778-3.089,2.326c-0.024,0.121-0.045,0.244-0.07,0.365C225.847,225.035,226.901,224.137,227.834,223.163z
	 M168.821,145.818c-11.1,10.833-10.523,25.887-13.004,40.149c0.787,0.112,1.311,0.538,0.294,1.152
	c-17.281,10.437-12.703,51.538,11.994,44.49c18.972-5.415,16.051-45.346-4.225-46.268c-0.848,0.462-2.235,0.545-2.254-0.05
	c-0.402-12.303,3.502-25.678,11.946-34.879c7.964-8.678,18.451-12.614,29.815-12.474
	C191.639,134.082,178.471,136.401,168.821,145.818z M97.814,302.795c-1.081-0.381-2.207-0.809-3.384-1.308
	C95.527,301.997,96.657,302.433,97.814,302.795z M124.227,419.319c0.931,0.305,1.87,0.583,2.813,0.841
	c0.825-0.329,1.907-0.343,1.97,0.211c0.012,0.101,0.023,0.207,0.034,0.309c6.271,1.518,12.758,2.214,19.128,3.134
	c9.272,1.339,18.599,2.305,27.923,3.197c9.739,0.932,19.487,1.772,29.243,2.497c3.594,0.267,7.188,0.529,10.786,0.739
	c0.772,0.045,1.545,0.083,2.317,0.12c-0.545-3.241,0.177-7.058,0.366-10.28c0.335-5.714,0.669-11.429,0.908-17.148
	c-7.054-0.971-14.23-3.75-21.03-5.726c-12.113-3.52-24.206-7.161-36.141-11.248c-4.769-1.633-9.555-3.285-14.188-5.28
	c-2.077-0.894-5.12-1.86-6.587-3.718c-1.363-1.725-0.318-7.008-0.23-9.088c0.186-4.391,0.632-8.777,1.138-13.141
	c1.366-11.79,3.082-23.534,4.089-35.363c0.072-0.843,2.968-1.441,2.882-0.423c-1.008,11.832-2.776,23.567-4.09,35.364
	c-0.582,5.228-1.157,10.492-1.226,15.756c-0.021,1.583-0.832,5.136,0.593,6.292c5.95,4.825,15.548,6.854,22.647,9.22
	c11.361,3.788,22.825,7.271,34.33,10.594c5.546,1.602,11.357,3.788,17.125,4.922c-0.076-0.271,0.417-1.963,0.499-2.576
	c0.289-2.166,0.428-4.352,0.515-6.535c0.218-5.444,0.218-10.897,0.097-16.344c-0.188-8.475-0.05-17.586-1.461-26.13
	c-5.168-5.33-10.829-9.817-17.023-13.932c-6.156-4.089-12.928-8.186-18.089-13.528c-2.662-2.755-4.583-5.708-4.189-9.683
	c0.526-5.322,1.416-10.172,0.62-15.562c-0.002-0.014,0.003-0.028,0.002-0.042c-7.89-2.096-16.868-4.287-20.973-11.846
	c-4.124-7.592-3.943-17.607-4.641-26.23c-0.753,0.414-1.669,0.921-2.709,1.505c-13.14,8.031-27.906,16.491-35.771,29.488
	c-2.703,4.467-4.417,9.226-5.586,14.144c-0.006,0.027-0.014,0.055-0.021,0.083c0.002,0,0.003,0.002,0.006,0.003
	c0.54,0.223,0.335,0.858-0.224,1.288c-0.026,0.021-0.055,0.039-0.083,0.059c-0.914,4.235-1.46,8.577-1.906,12.945
	c-0.039,0.378-0.078,0.756-0.115,1.135c-1.442,14.617-2.806,29.251-3.376,43.933c-0.551,14.196-3.203,34.352,5.676,46.619
	c2.5,3.453,5.911,6.282,10.542,8.176C121.942,418.53,123.079,418.943,124.227,419.319z M226.988,432.243
	c-1.464-0.56-2.893-1.099-4.282-1.579c-0.5-0.173-0.994-0.334-1.482-0.488c-0.134,0.124-0.343,0.24-0.592,0.34
	c1-0.001,1.796,0.547,0.274,1.085c-1.51,0.533-3.295,0.229-4.855,0.145c-4.181-0.226-8.358-0.524-12.533-0.838
	c-12.221-0.918-24.436-1.964-36.626-3.231c-9.026-0.938-18.011-2.111-26.998-3.36c-3.37-0.468-6.794-0.964-10.176-1.649
	c-0.156-0.032-0.311-0.063-0.466-0.095c0.149,1.413,0.289,2.892,0.404,4.413c0.76,10.042,0.365,21.912-6.63,28.752
	c0.099-0.015,0.199-0.028,0.297-0.042c6.24-0.923,12.459-2.036,18.661-3.272c14.286-2.849,28.476-6.353,42.584-9.722
	c13.61-3.25,27.202-6.588,40.754-10.076c0.366-0.094,0.733-0.186,1.1-0.28C226.633,432.291,226.822,432.258,226.988,432.243z
	 M311.479,456.816c0.336-1.843,0.53-3.727,0.586-5.609c-0.154,0.021-0.309,0.054-0.463,0.074c-1.992,0.253-1.157-1.642,0.335-1.831
	c0.045-0.006,0.09-0.016,0.135-0.022c0-0.002,0-0.004,0-0.007c-2.719-0.765-10.791-0.9-12.213-1.031
	c-8.636-0.793-17.282-1.482-25.93-2.148c-11.218-0.864-22.438-1.685-33.663-2.467c-0.593,0.128-1.191,0.239-1.793,0.334
	c-0.459,2.331-0.813,4.848-0.337,7.068c0.652,3.04,5.957,2.367,8.496,2.58c9.413,0.79,18.82,1.64,28.224,2.528
	c9.717,0.917,19.435,1.849,29.135,2.932c1.813,0.202,3.626,0.406,5.437,0.628C310.917,460.028,311.161,458.559,311.479,456.816z
	 M446.844,423.702c0.028-2.564,0.06-5.129,0.098-7.693c0.007-0.464,0.018-0.928,0.024-1.393c-9.755,0.67-19.616,3.746-28.994,6.207
	c-14.655,3.847-29.215,8.053-43.749,12.333c-13.928,4.101-27.825,8.305-41.747,12.423c-5.667,1.677-11.566,3.909-17.468,5.117
	c-0.014,3.319-0.393,7.305-2.456,9.302c0.084-0.022,0.17-0.041,0.258-0.052c7.396-0.941,14.943-4.034,22.051-6.15
	c13.87-4.13,27.721-8.324,41.606-12.403c14.437-4.24,28.896-8.439,43.473-12.172C428.665,426.986,437.791,424.263,446.844,423.702z
	 M436.742,332.032c-0.141-0.056-0.122-0.165-0.001-0.291c0-0.021,0-0.041,0-0.062c0-0.032,0.011-0.062,0.017-0.092
	c-0.086-0.017-0.167-0.031-0.222-0.039c-0.271-0.038-0.545-0.06-0.818-0.088c0.464,2.013-0.152,5.657-0.146,7.235
	c0.022,5.087,0.018,10.174-0.021,15.261c-0.032,4.148,0.018,8.323-0.235,12.466c-0.029,0.475-0.116,0.841-0.251,1.131
	c0.757-0.045,1.303-0.042,1.165,0.81c0.035-0.187,0.063-0.375,0.082-0.564c0.149-1.438,0.208-2.886,0.255-4.331
	c0.139-4.187,0.185-8.377,0.207-12.566C436.806,344.612,436.801,338.322,436.742,332.032z M460.617,324.481
	c4.003-1.211,8.002-2.436,12.018-3.604c0.244-0.071,0.517-0.164,0.8-0.263c-3.128-1.153-7.728,0.989-10.524,1.832
	c-4.087,1.232-8.172,2.473-12.259,3.706c-4.426,1.335-8.959,3.047-13.526,4.13c0.196,0.017,0.393,0.024,0.589,0.042
	c0.391,0.037,1.831,0.02,2.288,0.406C446.939,329.374,453.927,326.506,460.617,324.481z M439.167,367.539
	c0.688-0.182,1.581-0.442,2.139-0.6c2.045-0.58,4.085-1.18,6.124-1.783c0.17-0.05,0.317-0.061,0.463-0.07
	c0.095-4.955,0.186-9.91,0.233-14.866c0.017-1.839,0.04-3.68,0.012-5.52c-0.022-1.439-0.48-1.612,0.711-1.638
	c-1.316,0.029-0.66-0.564,0.158-0.952c-0.143-0.006-0.285-0.018-0.427-0.024c-0.573-0.024-0.524-0.225-0.212-0.459
	c-0.174-0.049-0.335-0.113-0.474-0.202c-0.448-0.289-0.372-0.726-0.047-1.082c0.021-0.022,0.042-0.045,0.063-0.068
	c0.426-0.467,1.52-0.617,2.165-0.419c-0.184-0.1-0.351-0.146-0.482-0.16c0.088-0.018,0.2-0.044,0.34-0.085
	c0.524-0.151,1.047-0.306,1.568-0.47c1.162-0.364,2.321-0.737,3.479-1.114c2.32-0.756,4.632-1.549,6.974-2.233
	c3.016-0.881,6.737,0.338,9.437,1.872c0.097,0.055,0.182,0.136,0.243,0.23c0.473-0.03,0.844,0.044,0.848,0.254
	c0.134,6.466,0.234,12.934,0.325,19.401c0.779-0.231,1.561-0.459,2.345-0.674c0.152-1.52-0.15-3.415-0.155-4.714
	c-0.016-4.268-0.054-8.535-0.097-12.802c-0.061-6.024-0.125-12.047-0.211-18.071c-0.049-0.023-0.097-0.047-0.138-0.078
	c-0.017-0.013-0.037-0.021-0.054-0.034c-0.365,0.103-0.729,0.206-1.094,0.312c-1.561,0.454-3.119,0.916-4.676,1.383
	c-4.229,1.268-8.454,2.552-12.681,3.829c-5.338,1.614-10.867,3.807-16.4,4.947c0.079,8.402,0.098,16.81-0.041,25.212
	C439.545,360.303,439.823,364.113,439.167,367.539z M470.647,438.227c-0.02-0.979-0.058-1.938-0.055-2.288
	c0.034-3.979,0.023-7.958,0.004-11.937c-0.055-11.677-0.182-23.354-0.322-35.031c-0.19-15.894-0.338-31.792-0.65-47.684
	c-0.754,0.29-1.52,0.559-2.255,0.86c-0.269,0.11-0.724,0.269-1.218,0.45c0.025,0.04,0.059,0.077,0.075,0.119
	c0.146,0.375-0.76,0.837-1.601,1.006c0.186,14.545,0.179,29.096,0.123,43.642c-0.043,11.159-0.126,22.32-0.415,33.475
	c-0.188,7.266-0.155,14.708-1.205,21.917c-0.149,1.026-0.373,2.099-0.907,2.836c0.271-0.258,0.659-0.465,1.11-0.517
	c2.191-0.25,4.358-1.096,6.018-2.583c0.463-0.416,0.94-0.858,1.308-1.37c-0.245-0.042-0.342-0.137-0.142-0.305
	c0.032-0.027,0.057-0.108,0.077-0.225c-0.181-0.221-0.195-0.51,0.058-0.806c0.008-0.329,0.008-0.709,0.003-1.104
	C470.313,438.607,470.383,438.427,470.647,438.227z M461.729,344.665c-0.6-0.052-1.027-0.348-0.735-0.967
	c0.151-0.321,0.406-0.603,0.713-0.859c-2.211-0.375-5.957-0.345-6.693-0.394c-1.338-0.09-2.677-0.153-4.016-0.224
	c0.294,0.806,0.045,2.306,0.046,3.049c0.003,2.798-0.033,5.597-0.073,8.395c-0.125,8.62-0.305,17.24-0.477,25.859
	c-0.364,18.27-0.88,36.552-0.817,54.826c0.009,2.649-0.51,6.219,0.267,8.841c0.241-0.007,0.483-0.001,0.727,0.024
	c1.051,0.106,2.095,0.277,3.134,0.462c1.099,0.195,2.196,0.394,3.292,0.607c1.316,0.257,3.125-0.176,2.709,1.167
	c1.172-2.764,0.92-6.659,1.083-9.521c0.37-6.539,0.54-13.089,0.666-19.636C462.015,392.429,462.037,368.533,461.729,344.665z
	 M463.66,337.131c-2.006,0.511-3.973,1.193-5.94,1.834c-0.949,0.309-2.942,1.264-4.938,1.965c2.166,0.109,4.331,0.237,6.49,0.421
	c0.685,0.058,2.842,0.028,4.584,0.299c0.593-0.243,1.168-0.449,1.605-0.631c1.316-0.546,2.716-0.998,4.026-1.592
	c-0.486-0.049-0.829-0.278-0.719-0.74c-0.133,0.559-2.705-0.435-3.233-0.599C465.063,337.944,462.622,337.395,463.66,337.131z
	 M447.157,403.778c-7.315,2.202-14.631,4.403-21.951,6.587c0.003,0,0.007-0.001,0.011-0.001c4.192-0.078,8.389-0.103,12.581-0.041
	c1.273,0.019,6.437-0.459,9.24,0.185C447.075,408.265,447.117,406.021,447.157,403.778z M455.562,456.443
	c-0.172,0.024-0.343,0.063-0.514,0.085c-1.992,0.262-1.154-1.635,0.335-1.831c0.042-0.005,0.084-0.013,0.126-0.019
	c-2.229-0.597-7.907-0.678-8.945-0.775c-6.226-0.583-12.461-1.072-18.697-1.536c-8.28-0.615-16.563-1.189-24.849-1.721
	c-0.246,1.331-0.436,2.682-0.508,4.021c-0.164,3.072-0.392,5.368,3.342,5.662c7.76,0.611,15.512,1.332,23.256,2.119
	c4.354,0.442,8.707,0.897,13.056,1.386c1.155,0.13,11.154,1.978,11.455,1.576C455.346,463.099,455.587,459.542,455.562,456.443z
	 M496.846,452.141c-0.009-0.363-0.008-0.727-0.029-1.09c-0.091-1.564-0.222-3.125-0.376-4.685c-0.094-0.947-0.135-1.964-0.211-2.977
	c-0.343,0.103-0.687,0.202-1.027,0.312c-1.491,0.483-2.975,0.987-4.457,1.498c-4.228,1.46-8.446,2.95-12.674,4.408
	c-6.331,2.183-12.93,4.924-19.597,6.321c0.028,3.146-0.224,7.275-2.115,9.25c8.774-1.171,17.614-5.097,25.924-7.971
	c4.097-1.417,8.181-2.876,12.298-4.234C495.047,452.82,495.937,452.421,496.846,452.141z M473.551,438.932
	c0,0.04-0.002,0.078-0.003,0.118c0.257,0.099,0.439,0.279,0.454,0.602c0.043,0.923-0.61,1.737-1.195,2.396
	c-2.498,2.816-6.109,4.439-9.81,4.86c-1.193,0.136-1.371-0.485-1.003-1.042c-0.518,0.536-1.272,0.805-2.408,0.574
	c-3.111-0.631-6.23-1.324-9.374-1.775c-0.923-0.132-2.226,0.119-0.976-0.352c-0.442,0.167-1.948,0.659-2.14-0.143
	c-0.487-2.039-0.433-4.342-0.368-6.547c-0.518,0.165-1.077,0.186-1.399-0.052c-1.723-1.274-7.796,1.18-9.608,1.68
	c-4.731,1.306-9.417,2.771-14.082,4.296c-4.205,1.375-8.395,2.794-12.583,4.217c-1.424,0.484-3.002,1.234-4.548,1.588
	c9.402,0.601,18.803,1.25,28.197,1.97c6.474,0.496,12.954,0.982,19.409,1.68c0.695,0.075,2.908,0.066,4.707,0.337
	c0.765-0.189,1.581-0.178,1.59,0.139c0.002,0.076,0.005,0.164,0.008,0.244c0.249,0.096,0.453,0.208,0.609,0.337
	c7.317-1.567,14.627-4.752,21.543-7.16c4.159-1.448,8.307-2.933,12.485-4.326c0.891-0.297,1.92-0.742,2.957-1.027
	c-0.009-0.055-0.024-0.106-0.033-0.161c-0.444,0.079-0.845,0.06-1.019-0.128c-1.211-1.312-6.84-1.051-8.479-1.209
	C482.177,439.632,477.864,439.274,473.551,438.932z M516.011,381.437c0.006-0.064,0.013-0.13,0.014-0.184
	c0.039-1.505,0.056-3.01,0.067-4.516c0.037-4.999,0.025-9.998,0.006-14.996c-0.058-15.004-0.196-30.009-0.348-45.012
	c-0.215-21.331-0.34-42.669-0.746-63.998c-0.441-0.017-0.797-0.17-0.879-0.496c-0.014,0.003-0.03,0.007-0.042,0.011
	c-1.542,0.408-3.078,0.838-4.611,1.275c-5.133,1.463-10.25,2.982-15.363,4.508c-14.86,4.433-29.697,8.944-44.54,13.434
	c-14.893,4.505-29.784,9.021-44.712,13.408c-6.725,1.977-13.767,4.685-20.772,5.947c0.032,3.189,0.047,6.378,0.065,9.568
	c0.176,29.803,0.29,59.625-0.377,89.423c-0.216,9.649,0.25,19.957-1.591,29.484c-0.767,3.97-4.967,2.455-8.089,1.972
	c-0.422-0.065-5.805-0.87-7.665-1.771c-0.068,0.008-0.136,0.016-0.189,0.02c-0.241,0.018-0.443-0.173-0.614-0.514
	c0.063,0,0.127,0,0.19,0.001c-0.055-0.164,0.047-0.327,0.364-0.485c0.159-0.079,1.282-0.423,1.899-0.378
	c-0.317-0.743-1.241-2.896-2.471,0.829c-1.389-2.881-0.602-16.367-0.594-17.869c0.022-4.302,0.061-8.604,0.106-12.905
	c-10.985,3.557-21.987,7.066-33.008,10.51c-7.743,2.419-15.49,4.841-23.29,7.075c-2.152,0.616-5.761,2.259-8.594,2.454
	c1.85,3.433,3.331,7.23,4.844,10.738c0.418,0.969,0.906,2.151,1.367,3.426c11.768-3.559,23.353-7.632,34.972-11.651
	c7.098-2.456,14.555-5.458,22.134-5.905c1.994-0.117,1.191,1.741-0.335,1.831c-7.716,0.454-15.391,3.677-22.607,6.196
	c-11.15,3.893-22.302,7.75-33.607,11.168c1.779,5.64,2.332,12.087-5.747,10.458c-1.611-0.325,0.948-1.659,1.798-1.487
	c3.265,0.659,2.548-3.703,1.08-8.122c-1.429,0.276-1.8-0.991-0.552-1.579c-1.109-3.019-2.392-5.782-2.78-6.639
	c-2.893-6.395-5.637-13.91-11.806-16.796c-0.553,0.315-1.364,0.559-1.746,0.469c-4.263-1.006-7.972-3.277-12.219-1.981
	c0.455,0.238,0.911,0.491,1.371,0.773c0.463,0.284-1.991,1.462-2.724,1.012c-4.733-2.906-8.737-3.684-13.857-0.106
	c-2.018,1.411-3.947,2.937-5.944,4.375c-2.857,2.058-5.884,3.922-9.321,4.856c-3.65,0.992-7.24,1.069-10.833,0.78
	c-0.065-0.005-0.131-0.009-0.197-0.015c-3.647-0.307-7.298-0.984-11.021-1.462c-0.075-0.01-0.132-0.023-0.187-0.038
	c-0.191,3.593-0.397,7.186-0.605,10.778c-0.177,3.073-0.839,6.678-0.43,9.817c0.588-0.24,1.283-0.415,1.59-0.324
	c5.262,1.548,10.322,3.854,15.657,5.146c4.484,1.086,9.372,1.852,13.242-1.502c1.416-1.228,2.736-2.542,4.078-3.848
	c2.774-2.699,5.646-5.007,9.152-5.947c0.325-0.399,1.99-0.991,2.486-0.824c0.308,0.104,0.591,0.239,0.871,0.379
	c0.206-0.001,0.411-0.006,0.621,0.001c0.58,0.022,0.493,0.224,0.146,0.457c4.525,3.072,5.1,11.155,9.307,14.539
	c2.632,2.117,4.092-2.413,4.042-4.477c-0.058-2.38-0.51-4.691-1.23-6.96c-1.435-4.52-3.522-8.871-4.59-13.499
	c-0.149-0.646,2.76-1.374,2.897-0.776c1.083,4.692,7.159,15.936,5.643,22.627c1.645,2.35,4.928,4.322,5.418,0.031
	c0.303-2.652-0.306-5.161-1.108-7.679c-1.511-4.747-3.455-9.328-4.541-14.203c-0.261-1.172,2.643-1.92,2.897-0.776
	c1.089,4.888,3.161,9.409,4.541,14.203c0.92,3.196,2.119,7.072,0.489,10.287c-0.027,0.054-0.058,0.095-0.085,0.147
	c13.68-2.193,1.65-18.54-0.407-25.609c-0.212-0.727,2.679-1.529,2.897-0.776c1.788,6.143,6.505,11.412,6.802,18.042
	c0.284,6.34-4.481,8.834-10.116,9.604c-2.333,2.907-5.64,2.021-8.126-0.475c-0.88,1.032-2.168,1.796-3.989,2.184
	c-3.659,0.779-5.69-1.688-7.336-4.93c-0.181,0.167-0.417,0.32-0.761,0.42c-9.102,2.667-18.175,5.433-27.283,8.081
	c11.431,0.801,22.86,1.636,34.284,2.53c8.888,0.695,17.779,1.389,26.65,2.269c1.033,0.102,5.36,0.046,8.126,0.583
	c0.713-0.149,1.42-0.118,1.43,0.177c0.002,0.075,0.004,0.153,0.007,0.229c0.252,0.105,0.476,0.22,0.631,0.353
	c6.364-1.331,12.771-3.83,18.86-5.64c13.821-4.107,27.625-8.274,41.46-12.333c14.74-4.323,29.501-8.606,44.382-12.423
	c8.652-2.219,17.704-4.942,26.69-5.61c0.001-0.092,0.003-0.185,0.005-0.278c-0.516,0.078-0.976,0.028-1.108-0.257
	c-0.654-1.408-10.371-0.683-11.746-0.69c-3.386-0.019-6.772-0.001-10.158,0.062c-1.343,0.025-0.633-0.593,0.208-0.978
	c-6.641,1.98-13.285,3.951-19.939,5.885c-7.097,2.064-14.456,4.852-21.81,5.869c-1.991,0.275-1.15-1.626,0.335-1.831
	c7.553-1.044,15.188-4.015,22.474-6.146c13.949-4.079,27.868-8.26,41.784-12.448c0.054-0.016,0.095-0.013,0.146-0.025
	c0.205-11.204,0.429-22.407,0.643-33.611c0.008-0.433,0.016-0.865,0.024-1.297c-3.203,0.952-6.496,2.198-9.812,2.694
	c-0.631,0.095-0.985-0.055-1.128-0.309c-2.083,0.271-5.012-0.462-5.938-0.802c-0.916-0.336,0.647-0.958,1.421-1.183
	c0.023-0.377,0.044-0.754,0.058-1.131c0.055-1.504,0.089-3.008,0.114-4.513c0.07-4.33,0.1-8.66,0.109-12.99
	c0.009-4.148,0.012-8.296-0.029-12.444c-0.011-1.139,0.479-3.918-0.129-4.948c-0.057-0.096-0.01-0.209,0.104-0.326
	c-0.086-0.11-0.025-0.264,0.257-0.432c0.014-0.009,0.032-0.015,0.046-0.023c-0.193-0.463,0.526-1.309,1.471-1.462
	c7.623-1.239,15.316-4.459,22.691-6.69c5.201-1.574,14.146-6.207,19.589-2.801c0.163,0.015,0.315,0.048,0.447,0.105
	c0.078,0.008,0.161,0.006,0.236,0.021c0.248,0.049,0.289,0.177,0.149,0.336c0.045,0.092,0.077,0.193,0.079,0.315
	c0.09,6.193,0.155,12.387,0.217,18.58c0.042,4.267,0.084,8.535,0.097,12.802c0.004,1.643,0.499,4.24-0.066,5.821
	c-0.153,0.429-0.719,0.74-1.315,0.89c0.038,0.002,0.026,0.007-0.05,0.012c-0.16,0.038-0.319,0.063-0.475,0.077
	c-0.202,0.054-0.404,0.109-0.606,0.166c-0.852,0.241-1.701,0.49-2.55,0.74c-0.004,0.001-0.009,0.002-0.013,0.003
	c0.138,10.208,0.245,20.416,0.364,30.623c0.015,1.303,0.027,2.606,0.042,3.909c10.875-3.279,21.748-6.574,32.649-9.768
	c3.126-0.916,6.249-1.861,9.401-2.68C515.501,381.594,515.748,381.516,516.011,381.437z M365.625,419.001
	c-0.005-0.011-0.011-0.022-0.017-0.034c-0.004,0.012-0.008,0.022-0.012,0.034C365.605,419.001,365.615,419.001,365.625,419.001z" fill="#0984E3"></path>
</svg>