<?xml version="1.0" standalone="no"?>
<svg version="1.1" id="Layer_1" xmlns="http://www.w3.org/2000/svg" xmlns:xlink="http://www.w3.org/1999/xlink" x="0px" y="0px" width="595.28px" height="595.28px" viewBox="0 0 595.28 595.28" enable-background="new 0 0 595.28 595.28" xml:space="preserve">
<path id="color_x5F_2" fill="#b5ff63" d="M412.939,386.185c0,0,8.485,0.95,18.455,1.864c-5.491-0.375-10.979-0.838-16.459-1.295
	c-0.662-0.056-1.329-0.116-1.995-0.176L412.939,386.185z M522.543,285.732c2.145-1.967,4.514-3.595,7.037-4.632
	C527.272,281.659,524.816,282.913,522.543,285.732z M484.425,389.773c0.758-9.397,4.401-18.04,6.77-27.08
	c0.057-0.217,0.269-0.405,0.552-0.557c-1.691-4.556-1.453-9.915-0.267-14.881c-2.77,4.335-5.435,8.732-7.738,13.349
	c-4.233,8.478-8.523,18.599-16.486,24.32c-1.027,0.738-2.075,1.375-3.142,1.925c-2.762,1.747-5.913,2.865-9.437,2.813
	c-1.771,0.23-3.586,0.345-5.448,0.376c-8.737,0.147-17.482-0.498-26.188-1.18c-3.434-0.269-6.866-0.557-10.299-0.846L411.891,391
	c24.728,0,49.455,0,74.184,0l0.205-0.822C485.43,390.45,484.372,390.421,484.425,389.773z M504.241,369.435
	c0,0.007,0.001,0.015,0.001,0.021c1.277,0.142,2.582,0.088,3.865-0.141c0.001-0.266,0.005-0.531,0.006-0.797
	c0.004-0.968,2.9-1.442,2.898-0.775c-0.001,0.246-0.004,0.493-0.005,0.74c1.974-0.803,3.769-2.033,5.134-3.637
	c2.653-3.114,4.15-6.884,5.098-10.83c2.009-8.371,2.102-17.867,6.679-25.379c4.362-7.159,11.381-12.37,16.726-18.736
	c6.458-7.691,9.023-15.813,0.582-23.229c-6.711-5.897-14.274-7.392-20.861-0.522c-3.347,3.488-5.565,7.565-8.2,11.558
	c-0.345,0.522-1.014,1.035-1.678,1.31c-0.204,0.268-0.395,0.51-0.572,0.727c-0.006,0.466-0.027,0.939-0.08,1.426
	c-0.028,0.262-0.284,0.472-0.629,0.631c-1.042,8.729-4.426,16.861-8.751,24.729c-2.239,4.073-4.716,7.997-7.24,11.891
	c0.057,0.055,0.074,0.125,0.032,0.213c-3.702,7.78-6.846,22.016,1.188,28.485c1.411,1.136,3.06,1.839,4.793,2.179
	C503.775,369.228,504.233,369.261,504.241,369.435z M493.273,365.19c-0.025,0.09-0.051,0.18-0.077,0.27
	c0.328,0.392,0.791,0.905,1.385,1.462c-0.263-0.289-0.521-0.585-0.763-0.907C493.619,365.749,493.453,365.466,493.273,365.19z
	 M478.482,289.408c0.151-0.144,0.385-0.251,0.651-0.326c7.7-6.431,23.615-5.755,30.941,1.47c-0.834-5.048-2.611-10.002-5.97-13.623
	c-1.563-1.028-3.008-2.16-4.294-3.35c-0.506-0.274-1.032-0.529-1.584-0.758c-0.374-0.155-0.216-0.41,0.159-0.649
	c-3.67-3.925-6.301-13.401-12.199-13.904c-8.768-0.747-15.297,6.022-19.537,12.915c0.053,0.461-0.848,0.931-1.676,1.044
	c-5.716,3.001-11.051,9.053-5.987,15.164c0.799,0.966-1.238,1.95-2.291,1.515c-8.317,9.945-22.287,13.47-30.012,23.891
	c-10.854,14.643,3.136,32.309-2.531,48.262c8.001-1.811,15.733-3.27,24.248-2.387C461.783,337.036,459.086,307.706,478.482,289.408z
	"></path>
<path id="color_x5F_1" d="M437.562,227.26c0.719,0.993-2.081,1.989-2.686,1.154c-1.17-1.617-1.937-3.44-1.986-5.454
	c-0.028-1.163,2.874-1.751,2.898-0.775C435.834,224.049,436.472,225.754,437.562,227.26z M451.046,240.979
	c-0.995,1.906-2.454,3.243-4.487,3.956c-0.344,0.121-1.229,0.683-0.778,1.143c0.466,0.477,1.394,0.2,1.915,0.018
	c2.58-0.905,4.771-2.631,6.044-5.071C454.373,239.81,451.475,240.158,451.046,240.979z M383.055,258.144
	c0.996-4.082,3.662-8.986,7.659-10.796c0.08-0.036,0.161-0.063,0.241-0.087c0.332-0.446,1.229-0.954,1.824-0.956
	c7.907-0.026,14.744,6.752,9.809,14.596c-3.939,6.261-10.221,8.551-16.175,4.533C383.024,265.118,382.213,261.592,383.055,258.144z
	 M397.706,249.603c0.697,1.566,0.548,3.739-0.188,5.807c-1.344,3.774-3.779,7.865-7.598,9.424c2.549,1.447,5.261,1.631,7.711-0.984
	c1.519-1.62,2.984-3.652,3.412-5.873C401.767,254.217,400.293,251.305,397.706,249.603z M386.437,263.044
	c0.48-0.09,0.945-0.068,1.198,0.15c0.015,0.013,0.03,0.024,0.045,0.037c4.993-0.752,10.828-14.34,4.979-13.608
	c-0.524,0.065-0.863-0.049-1.055-0.251c-2.551,1.407-4.262,4.653-5.181,7.262C385.994,257.853,384.797,262.042,386.437,263.044z
	 M344.891,245.013c3.105,2.42,6.96,6.351,7.102,10.55c0.006,0.166-0.035,0.317-0.107,0.452c0.561,0.03,0.946,0.262,0.671,0.787
	c-3.729,7.11-13.649,6.593-18.133,0.463c-1.511-2.064-3.38-4.919-2.864-7.622c0.501-2.632,2.654-4.034,4.998-4.881
	C338.225,241.811,342.555,243.192,344.891,245.013z M347.345,259.556c-4.643-0.336-11.346-7.782-11.37-12.554
	c-2.282,2.002-1.538,5.311,0.553,8.313C339.078,258.978,343.824,261.657,347.345,259.556z M338.848,246.622
	c-0.264,2.563,2.163,5.42,3.786,7.151c1.042,1.11,2.201,2.214,3.544,2.959c1.177,0.653,1.735,0.941,2.186-0.406
	c0.104-0.313,0.359-0.548,0.676-0.699c-0.178-2.811-2.88-5.816-4.826-7.594C342.979,246.908,339.19,243.291,338.848,246.622z
	 M360.266,224.778c-2.246-3.958,3.95-14.531,7.622-16.065c0.668-0.278,1.354-0.113,1.759,0.224c0.025-0.001,0.05-0.007,0.076-0.008
	c1.193-0.03,2.083,0.231,2.723,0.704c14.275,3.945-3.211,29.464-12.609,16.136C359.582,225.409,359.831,225.047,360.266,224.778z
	 M373.732,213.356c-0.39,5-5.53,12.495-9.637,12.883c-0.071,0.007-0.132,0.004-0.201,0.008c1.877,1.796,4.133,2.295,6.578,0.066
	c1.58-1.439,3.079-3.181,3.828-5.219C375.4,218.104,375.229,215.298,373.732,213.356z M363.855,224.085
	c3.942-0.373,9.292-13.05,5.631-12.957c-0.444,0.012-0.755-0.096-0.961-0.264c-2.214,1.342-3.754,4.371-4.668,6.587
	C363.512,218.291,361.281,224.328,363.855,224.085z M318.306,214.953c-0.845-5.24,2.563-9.231,7.399-10.676
	c4.849-1.532,10.193,0.481,11.879,5.562c1.816,5.476-1.788,9.627-7.066,10.782C325.685,221.679,319.267,220.921,318.306,214.953z
	 M321.203,214.177c0.943,4.263,4.787,6.367,9.016,5.333c9.204-2.25,3.952-16.703-4.215-14.121
	C322.439,206.453,320.418,210.63,321.203,214.177z M507.647,383.861c0.306-4.417,0.414-8.845,0.449-13.271
	c-1.253,0.257-2.523,0.395-3.778,0.389c0.314,5.755,0.942,12.572-0.763,18.001c-0.299,0.951-1.925,1.467-2.82,1.226
	c-0.809-0.218-0.345-2.243-0.298-2.798c0.024-0.29,0.396-0.511,0.861-0.664c0.057-1.166,0.037-2.323,0.063-2.806
	c0.236-4.419,0.178-8.839-0.002-13.259c-2.553-0.509-4.913-1.705-6.778-3.757c-0.263-0.289-0.521-0.585-0.763-0.907
	c-0.199-0.266-0.365-0.549-0.545-0.824c-0.025,0.09-0.051,0.18-0.077,0.27c-2.303,7.909-5.217,15.613-5.887,23.905
	c-0.027,0.341-0.486,0.638-1.03,0.813c-0.85,0.272-1.907,0.243-1.854-0.404c0.758-9.397,4.401-18.04,6.77-27.08
	c0.057-0.217,0.269-0.405,0.552-0.557c-1.691-4.556-1.453-9.915-0.267-14.881c-2.77,4.335-5.435,8.732-7.738,13.349
	c-4.233,8.478-8.523,18.599-16.486,24.32c-1.027,0.738-2.075,1.375-3.142,1.925c-2.989,1.54-6.135,2.384-9.437,2.813
	c-1.771,0.23-3.586,0.345-5.448,0.376c-8.737,0.147-17.482-0.498-26.188-1.18c-3.434-0.269-6.866-0.557-10.299-0.846
	c-6.849-0.576-13.697-1.158-20.555-1.609c-7.709-0.508-15.725-1.248-23.441-0.291c-0.071,0.537-0.641,1.1-1.495,1.1
	c-4.129-0.003-8.43,0.179-12.519-0.606c0,1.465,0,2.93,0,4.395c19.053,0,38.105,0,57.158,0c24.728,0,49.455,0,74.184,0
	c18.548,0,37.097,0,55.646,0c1.959,0-0.036,1.652-1.125,1.652c-28.521,0-57.043,0-85.564,0c-33.602,0-67.204,0-100.806,0
	c-0.571,0.332-1.482,0.495-2,0.406c-0.225,0.085-0.446,0.139-0.637,0.139c-29.149,0-58.299,0-87.448,0
	c-0.563,0-0.788-0.135-0.811-0.325c-0.322,0.004-0.623-0.067-0.848-0.22c-68.276,0-136.553,0-204.829,0
	c-1.959,0,0.037-1.652,1.125-1.652c28.521,0,57.043,0,85.565,0c39.257,0,78.513,0,117.77,0c0-1.865,0-3.73,0-5.596
	c-5.609-13.015-11.218-26.03-16.827-39.047c-1.483-3.443-3.07-6.67-4.735-10.008c-2.242-4.493-4.151-8.785,1.789-9.896
	c6.306-1.178,12.938-1.091,19.327-1.172c10.095-0.129,20.192-0.011,30.286,0.191c9.13,0.184,18.26,0.427,27.387,0.742
	c4.063,0.14,5.624,6.155,7.197,9.319c5.441,10.949,10.51,22.091,15.495,33.254c4.966-1.173,10.724,0.395,15.651,1.225
	c-0.174-0.475-0.202-1.04-0.03-1.714c0.777-3.042,3.925-5.457,6.759-6.473c3.369-1.207,7.666-1.329,11.108-0.305
	c1.092,0.325,2.354,0.939,2.512,2.197c0.117,0.924-0.422,1.806-1.102,2.568c5.061-1.33,10.209-1.682,15.387-1.786
	c-3.249-14.159-4.166-31.964-14.409-43.091c-0.01-0.011-0.014-0.022-0.023-0.033c-4.348-0.192-9.535-1.934-8.821-7.279
	c0.013-0.095,0.033-0.188,0.049-0.281c-1.473-0.222-3.07-0.593-4.237-1.512c-2.541-1.999-1.598-4.595,0.356-6.898
	c-0.597,0.19-1.222,0.262-1.462,0.032c-1.536-1.465-1.582-3.212-0.885-4.874c-0.139-0.046-0.255-0.117-0.331-0.221
	c-4.106-5.563-8.322-11.142-12.046-16.985c-15.901,0-31.803,0-47.704,0c0,1.548,0,3.097,0,4.646c0.002,0.018,0.009,0.032,0.01,0.051
	c0.257,3.603,0.583,9.311-3.255,11.393c-2.221,1.204-4.163,1.132-6.614,1.154c-5.649,0.051-11.338,0.215-16.992,0.064
	c-13.392,0.476-26.894-0.012-40.286-0.034c-0.453-0.001-0.905-0.001-1.358-0.002c-6.417,0.245-12.891,0.042-19.309-0.036
	c-1.96-0.023-4.492,0.221-6.094-1.2c-3.242-2.874-3.098-7.136-2.81-11.159c0.001-0.013,0.006-0.023,0.007-0.036
	c0-2.359,0-4.719,0-7.078c-0.068,0.008-0.136,0.017-0.208,0.017c-22.577,0-45.154,0-67.73,0c0,2.809,0,5.617,0,8.426
	c0.206,2.363-0.509,4.827-3.243,5.335c-1.96,0.364-2.707-0.02-4.439-0.919c-2.653-1.376-5.284-2.794-7.927-4.19
	c-0.88-0.466-2.081-1.219-3.154-1.789c0,2.094,0,4.188,0,6.28c0.002,0.017,0.008,0.03,0.009,0.047
	c0.382,5.479-1.313,8.874-6.945,8.928c-3.966,0.038-7.959,0.152-11.928,0.045c-9.355,0.276-18.765-0.006-28.12-0.022
	c-0.052,0-0.105,0-0.157,0c-4.288,0.159-8.612,0.025-12.901-0.022c-1.514-0.017-3.625,0.194-4.817-0.988
	c-2.142-2.123-2.112-4.9-1.913-7.76c0.001-0.014,0.006-0.026,0.008-0.04c0-6.626,0-13.251,0-19.877
	c-0.176-0.115-0.149-0.295,0-0.489c0-1.288,0-2.575,0-3.863c-0.176-0.115-0.149-0.295,0-0.489c0-0.919,0-1.839,0-2.758
	c-0.001-0.01-0.005-0.018-0.005-0.028c-0.312-4.805,0.909-8.842,6.215-8.884c0.139-0.001,0.278,0,0.417-0.001
	c-3.181-1.342-5.658-3.88-6.324-8.014c-1.183-7.346,3.178-13.647,10.192-15.743c7.036-2.224,14.527,1.436,16.892,8.563
	c2.272,6.85-1.069,12.736-7.25,15.15c0.276-0.001,0.552-0.003,0.829-0.003c7.142-0.012,14.312-0.174,21.466-0.12
	c-1.785-1.054-3.125-2.739-3.529-5.249c-0.867-5.381,2.391-9.93,7.507-11.459c5.124-1.619,10.639,0.978,12.367,6.188
	c1.653,4.982-0.868,9.257-5.354,11.016c2.188,0.017,4.375,0.061,6.554,0.082c1.473,0.014,2.829-0.049,4.243,0.373
	c2.941,0.877,2.702,5.126,2.538,7.489c0.001,0.019,0.007,0.034,0.007,0.054c0,3.34,0,6.679,0,10.019
	c0.337-0.167,0.65-0.321,0.811-0.405c1.195-0.624,2.387-1.254,3.577-1.887c2.368-1.259,4.726-2.539,7.117-3.754
	c3.391-1.723,7.659-1.484,7.242,3.311c0,0.004,0,0.009,0,0.014c0.005,0.04,0.016,0.076,0.016,0.12c0,1.76,0,3.519,0,5.278
	c22.646,0,45.292,0,67.938,0c0-10.434,0-20.867,0-31.301c-0.001-0.01-0.004-0.018-0.005-0.027c-0.364-5.09,0.477-9.043,3.504-11.045
	c-0.166-0.008-0.312-0.038-0.416-0.108c-19.169-12.902-38.34-25.806-57.509-38.708c-5.356,1.956-12.948,2.342-15.902,2.494
	c-12.689,0.656-25.818,0.859-38.383-1.295c-2.973-0.509-9.604-1.027-10.846-4.608c-0.655-1.888,0.183-4.618,1.57-6.371
	c-0.095-0.021-0.191-0.031-0.286-0.054c-6.556-1.578-9.584-6.262-5.534-11.424c-0.577-0.18-1.144-0.383-1.686-0.628
	c-7.827-3.545,4.546-9.454,9.068-11.599c-3.194-4.002,0.574-9.781,4.059-13.228c12.62-12.482,34.669-15.546,50.693-8.054
	c4.852,2.269,16.341,9.539,15.398,16.092c-0.546,3.795-5.113,5.588-8.306,6.531c-8.971,2.65-18.692,2.665-27.957,2.625
	c-5.671,0.038-11.363,0.614-17.032,0.404c-4.587-0.17-10.672-0.172-14.77-2.605c-0.234-0.139-0.45-0.283-0.656-0.43
	c-3.214,1.46-8.464,3.36-10.031,6.269c-0.737,1.368,1.046,2.354,3.446,3.052c0.526-0.027,1.044,0.094,1.304,0.34
	c3.058,0.718,6.527,1.047,7.175,1.145c6.91,1.042,13.137,4.495,20.09,1.381c3.047-1.365,6.509-3.268,9.983-2.949
	c4.541,0.417,7.872,3.379,12.209,4.21c6.049,1.16,10.196-3.583,15.446-5.488c3.12-1.133,6.229-0.784,9.348,0.095
	c3.796,1.069,9.892-3.535,5.167-6.501c-2.179-1.368-4.469-2.546-6.694-3.837c-1.307-0.758,1.316-2.09,2.271-1.535
	c3.958,2.296,11.914,4.783,7.817,10.348c-1.425,1.936-3.451,3.26-5.677,3.685c0.036,0.075,0.062,0.158,0.069,0.255
	c0.154,2.224-1.174,3.758-3.233,4.823c2.332,2.29,4.644,6.433,2.999,9.521c-1.253,2.353-3.37,2.342-5.385,1.493
	c0.061,2.02-1.219,3.546-3.212,4.696c19.237,12.948,38.475,25.896,57.712,38.845c0.039,0.026,0.052,0.06,0.054,0.096
	c0.961-0.261,2.043-0.413,3.289-0.421c7.205-0.049,14.41-0.056,21.616-0.066c5.774-0.009,11.569-0.104,17.365-0.17
	c0-13.807,0-27.615,0-41.422c0-0.942,2.897-1.41,2.897-0.777c0,14.056,0,28.111,0,42.167c6.887-0.063,13.773-0.056,20.63,0.218
	c5.264-0.089,10.551,0.052,15.804,0.105c1.998,0.021,4.807-0.312,6.455,1.149c3.219,2.855,3.071,7.061,2.785,11.066
	c0,0.002-0.001,0.003-0.001,0.005c0,11.278,0,22.557,0,33.835c15.493,0,30.984,0,46.478,0c-0.059-0.095-0.12-0.188-0.178-0.284
	c-1.048-1.729-2.433-3.302-0.664-5.014c2.963-2.868,7.209-4.668,10.979-6.182c3.19-1.28,7.36-3.332,10.909-3.088
	c2.335,0.161,3.563,2.635,4.811,4.362c5.142,7.123,9.575,14.819,14.938,21.774c13.26,0.423,9.197,17.922,9.529,26.264
	c5.673,13.182,16.346,23.085,22.936,35.681c0.821-13.846-8.254-28.977,0.812-41.206c8.385-11.312,23.529-14.872,31.84-26.238
	c0.041-0.057,0.103-0.108,0.171-0.159c-4.088-6.614,1.785-13.125,7.935-16.469c-1.653-4.018-3.407-9.679-6.636-12.401
	c-1.98-1.67-5.303-0.129-7.601,0.093c-3.838,0.372-8.532,0.654-11.87-1.671c-4.348-3.027-6.328-8.568-9.469-12.669
	c-0.133-0.174-0.117-0.353-0.011-0.521c-2.533,0.434-6.359,0.651-6.944-2.289c-0.653-3.286,1.469-6.856,3.113-9.529
	c0.061-0.099,0.164-0.187,0.292-0.265c-0.15-0.077-0.265-0.188-0.31-0.347c-2.291-8.091-2.957-16.443-3.009-24.824
	c-0.002-0.281,0.177-0.526,0.446-0.723c-3.753-2.123-6.916-5.05-8.282-9.265c-3.785-3.26-4.519-9.991-4.254-14.627
	c0.263-4.595,2.419-7.538,6.614-9.205c4.703-1.869,10.277-1.415,14.74,0.762c3.498,1.706,6.672,4.415,10.495,5.406
	c5.443,1.41,11.098,0.605,16.481-0.723c13.205-3.258,28.026-5.993,37.891,6.127c9.914,12.184,10.004,28.345,10.01,43.288
	c1.985,10.772,15.141,16.285,22.797,22.539c7.971,6.511,13.352,16.046,6.427,25.697c-5.805,8.091-15.847,7.937-24.458,4.272
	c2.512,4.475,3.619,9.884,3.767,14.971c0.015,0.519,0.012,1.032,0.009,1.546c0.049,0.193,0.088,0.392,0.127,0.59
	c0.113-0.035,0.229-0.065,0.346-0.091c0.717-1.204,1.426-2.413,2.183-3.593c1.755-2.732,3.909-5.408,6.353-7.649
	c2.145-1.967,4.514-3.595,7.037-4.632c4.537-1.866,9.568-1.818,14.686,1.653c6.82,4.628,12.323,11.74,7.945,19.992
	c-4.294,8.094-11.8,13.766-17.685,20.612c-6.605,7.686-7.591,16.242-9.472,25.863c-1.555,7.949-3.988,15.602-11.644,19.507
	c-0.776,0.396-1.585,0.744-2.412,1.044c-0.029,5.406-0.122,10.842-0.697,16.215c-0.193,1.806-0.132,3.774-2.533,3.733
	c-0.292-0.005-0.7,0.011-0.85-0.301c-0.286-0.598-0.046-1.689-0.011-2.313c0.017-0.298,0.295-0.543,0.672-0.724
	C507.62,385.417,507.606,384.447,507.647,383.861z M96.33,165.907c9.279,2.585,18.976,1.244,28.449,1.18
	c4.667,0.021,33.839,1.711,32.14-8.317c-0.984-5.806-8.161-10.174-12.698-13.063c-13.808-8.791-36.524-6.601-47.843,5.353
	C92.292,155.374,87.681,163.497,96.33,165.907z M156.985,182.128c-5.14,1.454-12.079,1.318-14.658,1.357
	c-10.363,0.157-21.881,0.19-31.948-2.686c-0.081,0.088-0.178,0.177-0.309,0.267c-2.81,1.931-6.167,3.97-9.721,5.423
	c6.54,0,13.08,0,19.62,0c11.23,0,22.46,0,33.69,0c0.479-0.085,0.918-0.061,1.095,0.156c0.32,0.394,0.631,0.795,0.928,1.206
	c0.104,0.044,0.2,0.097,0.276,0.171c0.939,0.919,2.447,2.512,3.916,2.637c0.036-0.038,0.102-0.109,0.181-0.287
	c0.194-0.436,0.265-0.945,0.266-1.421C160.331,186.333,158.868,183.882,156.985,182.128z M113.919,179.258
	c10.282,1.853,46.724,5.167,46.209-2.255c-0.025-0.365,0.161-0.68,0.446-0.925c-0.458-0.049-0.918-0.135-1.378-0.265
	c-4.804-1.354-8.447-0.496-12.675,2.122c-2.117,1.312-4.342,2.646-6.835,3.076c-3.051,0.527-5.578,0.276-8.465-0.846
	c-3.467-1.347-7.119-4.258-11.122-3.093C117.866,177.723,115.864,178.529,113.919,179.258z M95.326,185.82
	c3.791-1.027,7.305-2.622,10.622-4.65c-1.416,0.051-2.904-0.071-4.528-0.462c-4.841-1.164-9.601-2.227-14.517-3.047
	c-0.661-0.11-1.336-0.233-2.011-0.367C79.548,183.937,89.415,187.423,95.326,185.82z M150.513,197.128
	c-0.001-0.001-0.003-0.002-0.005-0.003c-0.404-0.272,1.308-1.141,2.277-1.12c0.144-0.1,0.296-0.19,0.43-0.301
	c2.809-2.313,0.75-5.615-1.05-7.855c-18.643,0-37.286,0-55.929,0c-1.849,0.455-3.713,0.697-5.55,0.619
	c-2.175,3.525-1.871,6.606,2.728,8.002c11.322,3.437,23.941,3.025,35.637,2.834c5.36-0.088,10.797-0.201,16.102-1.057
	C146.804,197.98,148.761,197.726,150.513,197.128z M69.793,256.811c14.422-3.523,6.762-24.597-6.137-20.52
	c-5.454,1.63-9.083,7.298-7.822,12.996C57.318,255.989,63.45,258.36,69.793,256.811z M55.566,273.169c20.301,0,40.602,0,60.903,0
	c0-0.968,0-1.936,0-2.904c-0.189,0.063-0.373,0.103-0.53,0.103c-20.124,0-40.249,0-60.373,0
	C55.566,271.301,55.566,272.235,55.566,273.169z M103.721,256.988c9.563-2.337,4.373-16.51-4.149-13.815
	c-3.639,1.087-5.972,4.942-5.137,8.713C95.426,256.368,99.441,258.034,103.721,256.988z M55.491,265.386
	c0.034,0.029,0.059,0.063,0.059,0.104c0,0.262,0,0.524,0,0.786c0.006,0.044,0.017,0.085,0.017,0.134c0,0.093,0,0.185,0,0.277
	c0.002,0.025,0.004,0.055,0.005,0.08s-0.005,0.049-0.005,0.074c0,0.658,0,1.317,0,1.976c20.301,0,40.602,0,60.903,0
	c0-0.722,0-1.443,0-2.165c0-0.037,0.011-0.07,0.016-0.105c0-0.094,0-0.187,0-0.279c0-0.076,0.029-0.147,0.071-0.217
	c0.106-2.453-0.07-6.113-2.946-6.197c-1.613-0.047-3.228-0.042-4.841-0.049c-2.1-0.01-4.208-0.052-6.314-0.051
	c-0.356,0.291-0.817,0.498-1.275,0.482c-6.99-0.233-16.184-0.01-23.886,0c-4.969,0.007-9.938,0.013-14.907,0.033
	c-1.487,0.006-2.975,0.009-4.462,0.027C55.584,260.326,55.405,263.231,55.491,265.386z M116.556,295.898
	c-0.051-0.108-0.086-0.229-0.086-0.373c0-0.3,0-0.601,0-0.9c-0.003-0.038-0.006-0.082-0.009-0.118
	c-0.003-0.048,0.005-0.092,0.009-0.138c0-6.584,0-13.168,0-19.752c-0.189,0.063-0.373,0.103-0.53,0.103c-20.124,0-40.249,0-60.373,0
	c0,6.483,0,12.968,0,19.451c0.003,0.051,0.012,0.1,0.008,0.156c-0.003,0.043-0.005,0.088-0.008,0.132c0,0.274,0,0.55,0,0.824
	c0,0.094-0.021,0.181-0.05,0.266c-0.066,2.541,0.31,5.387,3.319,5.41c1.489,0.011,2.978,0.018,4.466,0.022
	c3.12,0.011,6.239,0.015,9.359,0.02c0.004,0,0.009,0,0.013,0c0.003,0,0.006,0,0.01,0c1.944,0.004,3.888,0.011,5.832,0.013
	c6.875,0.008,13.784,0.181,20.665,0.038c0.127-0.025,0.251-0.057,0.398-0.051c0.335,0.014,0.672,0.015,1.009,0.023
	c0.397-0.011,0.795-0.01,1.193-0.023c0.209-0.007,0.386,0.017,0.541,0.058c2.388,0.017,4.781-0.04,7.163-0.053
	c1.633-0.009,3.268-0.002,4.9-0.049C116.557,300.895,116.665,297.993,116.556,295.898z M135.296,290.701
	c-0.037-0.095-0.063-0.198-0.063-0.319c0-5.438,0-10.876,0-16.313c0-0.067,0.012-0.131,0.029-0.193
	c-0.053-1.225-0.428-4.043-1.533-3.504c-0.695,0.339-1.383,0.691-2.068,1.05c-1.842,0.961-3.675,1.938-5.51,2.914
	c-2.123,1.128-4.409,2.721-6.752,3.564c0,2.452,0,4.903,0,7.355c2.553,0.836,5.056,2.605,7.369,3.835
	c1.782,0.947,3.561,1.903,5.355,2.826C133.815,292.786,135.396,293.306,135.296,290.701z M209.032,259.784
	c0.145-0.04,0.285-0.063,0.408-0.063c30.146,0,60.29,0,90.435,0c0-3.116,0-6.233,0-9.351c-0.122,0.03-0.24,0.05-0.346,0.05
	c-30.166,0-60.331,0-90.497,0C209.032,253.541,209.032,256.663,209.032,259.784z M208.926,245.71
	c0.053,0.033,0.089,0.073,0.089,0.125c0,0.364,0,0.729,0,1.093c0.006,0.044,0.017,0.085,0.017,0.134c0,0.146,0,0.291,0,0.437
	c0.001,0.024,0.003,0.053,0.005,0.077c0.002,0.028-0.005,0.054-0.005,0.081c0,0.427,0,0.853,0,1.278
	c0.145-0.04,0.285-0.063,0.408-0.063c30.146,0,60.29,0,90.435,0c0-0.354,0-0.706,0-1.06c0-0.006-0.001-0.011-0.001-0.017
	c0-0.005,0.001-0.01,0.001-0.015c0-0.158,0-0.317,0-0.477c0-0.034,0.011-0.066,0.015-0.099c0-0.198,0-0.396,0-0.593
	c0-0.076,0.029-0.146,0.07-0.215c0.184-3.819-0.112-8.911-4.863-8.996c-2.555-0.046-5.109-0.057-7.664-0.066
	c-3.234-0.013-6.484-0.092-9.727-0.066c-0.238,0.104-0.494,0.164-0.75,0.154c-0.822-0.033-1.664-0.061-2.514-0.084
	c-0.123,0.004-0.246,0.004-0.369,0.009c-0.173,0.007-0.318-0.007-0.452-0.03c-9.986-0.244-21.725,0.088-32.019,0.1
	c-7.351,0.01-14.702,0.02-22.053,0.05c-2.13,0.009-4.26,0.013-6.39,0.041C209.1,237.56,208.782,242.226,208.926,245.71z
	 M299.982,290.143c0-0.001,0-0.003-0.001-0.004c-0.056-0.042-0.093-0.091-0.093-0.155c0-0.051,0-0.102,0-0.152
	c-0.004-0.037-0.015-0.071-0.015-0.112c0-0.448,0-0.897,0-1.347c-0.003-0.044-0.007-0.094-0.01-0.137
	c-0.004-0.055,0.005-0.105,0.01-0.157c0-8.953,0-17.905,0-26.858c-0.122,0.03-0.24,0.05-0.346,0.05c-30.166,0-60.331,0-90.497,0
	c0,8.878,0,17.757,0,26.634c0.003,0.051,0.011,0.098,0.007,0.152c-0.003,0.038-0.005,0.079-0.007,0.117c0,0.435,0,0.869,0,1.304
	c0,0.117-0.032,0.226-0.078,0.328c-0.071,2.919,0.279,6.192,2.224,7.671c0.49,0.352,1.07,0.615,1.782,0.74
	c0.232,0.036,0.47,0.063,0.729,0.066c2.256,0.023,4.512,0.031,6.768,0.04c4.776,0.019,9.552,0.022,14.328,0.03
	c0.005,0,0.011,0,0.016,0c0.004,0,0.008,0,0.013,0c2.673,0.005,5.346,0.015,8.019,0.018c10.243,0.012,20.563,0.354,30.818,0.104
	c0.197-0.079,0.414-0.133,0.671-0.122c0.611,0.024,1.224,0.029,1.836,0.044c0.466-0.017,0.933-0.025,1.398-0.044
	c0.263-0.011,0.478,0.023,0.656,0.086c3.488,0.026,6.985-0.06,10.464-0.078c2.347-0.012,4.694-0.012,7.041-0.064
	C299.848,298.202,300.139,293.617,299.982,290.143z M426.685,312.796c-10.854,14.643,3.136,32.309-2.531,48.262
	c8.001-1.811,15.733-3.27,24.248-2.387c13.382-21.635,10.685-50.965,30.081-69.263c0.151-0.144,0.385-0.251,0.651-0.326
	c7.7-6.431,23.615-5.755,30.941,1.47c-0.834-5.048-2.611-10.002-5.97-13.623c-1.563-1.028-3.008-2.16-4.294-3.35
	c-0.506-0.274-1.032-0.529-1.584-0.758c-0.374-0.155-0.216-0.41,0.159-0.649c-3.67-3.925-6.301-13.401-12.199-13.904
	c-8.768-0.747-15.297,6.022-19.537,12.915c0.053,0.461-0.848,0.931-1.676,1.044c-5.716,3.001-11.051,9.053-5.987,15.164
	c0.799,0.966-1.238,1.95-2.291,1.515C448.379,298.851,434.409,302.375,426.685,312.796z M464.765,231.899
	c0.463,0.05,0.898-0.044,1.313-0.229C465.669,231.78,465.231,231.858,464.765,231.899z M444.869,180.96
	c0.27,0.048,0.533,0.098,0.82,0.139c1.535,0.219,3.663-0.171,5.569-0.678C449.137,180.773,446.988,180.991,444.869,180.96z
	 M439.758,180.306l0.277,0.164v-0.103C439.944,180.345,439.849,180.329,439.758,180.306z M465.704,268.792
	c3.431-4.648,8.066-8.854,13.44-10.832c-0.099-0.034-0.183-0.084-0.238-0.16c-2.932-4.036-5.253-7.836-5.39-12.953
	c-1.746,0.539-3.624,0.667-5.485,0.243c-1.571-0.358,1.035-1.585,1.82-1.406c2.099,0.478,3.902-0.003,5.328-1.051l1.26-1.631
	c0,0,0.606-0.726,1.292-1.61c0.777-1.698,1.11-3.676,0.889-5.573c-0.184-1.573-0.601-3.49-1.99-4.471
	c-0.278-0.196-0.556-0.333-0.834-0.444c-0.946-0.056-1.975-0.017-2.92,0.097c-1.651,0.683-3.181,2.206-4.408,3.329
	c-3.258,2.982-8.125,0.261-10.589-2.195c-4.665-4.65-6.784-10.737-8.708-16.898c-0.703-0.223-1.69-0.534-3.075-0.972
	c-3.468-0.257-6.926-0.767-10.305-1.502c-0.011,0.083-0.032,0.168-0.082,0.258c-0.368,0.66-1.212,0.838-1.898,0.845
	c-1.604,0.018-3.154,0.307-4.557,1.113c-0.594,0.342-1.421,0.604-2.066,0.217c-0.58-0.348-0.288-1.059,0.199-1.338
	c1.776-1.021,3.59-1.563,5.532-1.781c-0.733-0.192-1.469-0.383-2.191-0.598c-2.269-0.676-4.666-1.491-6.956-2.538
	c0.112,7.941,0.816,15.848,2.988,23.519c0.072,0.255-0.062,0.496-0.305,0.697c0.226,0.029,0.35,0.096,0.287,0.197
	c-1.402,2.279-3.137,5.137-3.188,7.904c-0.066,3.526,2.94,3.661,5.778,3.056c1.26-0.269,1.196,0.145,0.688,0.554
	c0.172,0.038,0.315,0.105,0.401,0.218c3.221,4.205,5.65,11.806,11.173,13.457c4.662,1.394,8.712,0.037,13.29-0.356
	C460.992,255.661,463.67,263.474,465.704,268.792z M364.451,298.122c0.916-1.05,2.024-1.95,3.072-2.583
	c-0.418,0.044-0.782-0.013-0.926-0.22c-4.044-5.83-8.087-11.66-12.13-17.49c-0.05-0.072-0.065-0.145-0.067-0.218
	c-0.49-0.427-0.529-1.093,0.49-1.478c3.826-1.444,7.214-3.767,10.919-5.469c0.631-0.537,2.177-0.877,2.51-0.389
	c5.389,7.885,10.777,15.771,16.165,23.656c0.697-0.338,1.467-0.563,2.24-0.717c-4.121-5.486-7.67-11.452-11.582-17.081
	c-1.692-2.435-3.321-5.168-5.418-7.288c-1.611-1.629-8.423,1.907-10.168,2.668c-1.215,0.529-9.908,3.953-9.107,5.952
	c0.555,1.385,1.34,2.712,2.193,3.998c0.288,0.099,0.384,0.288,0.345,0.513c0.699,1.026,1.427,2.029,2.102,3.013
	C358.13,289.423,361.267,293.791,364.451,298.122z M379.59,311.201c0.701-0.343,1.388-0.748,1.974-1.03
	c1.771-0.854,3.527-1.734,5.275-2.634c1.026-0.529,2.052-1.061,3.074-1.599c0.348-0.183,0.695-0.365,1.043-0.549
	c0.57-0.271,0.625-0.318,0.163-0.141c-0.36-0.971-0.912-1.857-1.504-2.707c-0.277,0.287-1.074,0.493-1.245,0.545
	c-2.952,0.889-5.419,2.719-8.397,3.558C380.301,308.171,380.171,309.649,379.59,311.201z M388.213,302.164
	c-2.826-0.652-8.19-2.592-5.828-6.441c0.078-0.126,0.182-0.229,0.272-0.346c-0.355,0.017-0.654-0.047-0.779-0.23
	c-5.114-7.483-10.229-14.967-15.342-22.451c-3.036,1.457-5.886,3.28-8.968,4.634c3.913,5.642,7.826,11.284,11.738,16.926
	c0.096,0.137,0.089,0.276,0.021,0.412c1.648-0.646,3.894-1.191,5.251-0.076c1.649,1.354,0.959,2.977-0.153,4.383
	c1.421-0.498,2.931-0.701,4.121,0.013c1.597,0.958,0.879,3.025-0.074,4.74c0.234,0.018,0.429,0.089,0.521,0.263
	c0.338,0.644,0.587,1.266,0.778,1.879c0.009-0.002,0.02-0.004,0.028-0.006c2.918-0.627,5.47-2.708,8.355-3.578
	c0.146-0.044,0.756-0.203,1.17-0.178c-0.021-0.035-0.041-0.069-0.055-0.104C388.848,302.14,388.442,302.217,388.213,302.164z
	 M366.317,304.246c1.173-1.144,2.506-2.162,3.644-2.93c-0.041-0.054-0.031-0.124,0.063-0.22c1.178-1.188,4.011-3.719,1.995-5.374
	c-1.131-0.929-2.141-0.273-3.175,0.51C366.57,297.953,363.919,301.651,366.317,304.246z M369.692,311.624
	c0.917-2.427,2.632-4.52,4.732-6.067c0.028-0.147,0.093-0.308,0.212-0.484c0.736-1.096,1.715-2.504,1.844-3.798
	c0.03-0.309-0.006-0.459-0.083-0.56c-0.028-0.002-0.074-0.004-0.163-0.008c0.362,0.016-0.01,0.023-0.221,0.036
	c-0.084,0.023-0.441,0.096-0.522,0.119c-0.638,0.187-0.679,0.203-1.353,0.52c-1.174,0.552-2.146,1.136-3.187,1.897
	c-1.714,1.257-4.064,3.172-4.517,5.192c-0.176,0.785-0.095,1.513,0.46,1.983C367.686,311.125,368.682,311.437,369.692,311.624z
	 M395.363,364.459c6.669-0.056,13.363,0.02,19.954-1.399c2.001-0.431,3.962-0.883,5.901-1.33c-0.009-0.05-0.007-0.104,0.016-0.167
	c0.246-0.681,0.44-1.368,0.614-2.06c-0.27-0.109-0.495-0.293-0.62-0.574c-6.301-14.145-18.288-24.556-24.465-38.804
	c-0.019-0.042-0.04-0.083-0.059-0.126c-0.1-0.232-0.089-0.447-0.008-0.64c-0.06-5.95,2.173-13.082-0.324-18.64
	c-0.815-1.814-2.017-3.836-3.826-4.852c-0.717-0.402-2.185-1.099-3.657-1.443c-0.576,0.137-1.164,0.111-1.406-0.199
	c-1.374-0.047-2.523,0.441-2.74,2.092c-0.376,2.861,2.921,3.928,5.239,4.492c0.694-0.347,1.66-0.407,2.042,0.127
	c0.742,1.037,2.206,2.805,2.085,4.172c-0.143,1.616-2.914,2.396-4.113,3.02c-2.577,1.34-5.158,2.682-7.79,3.911
	c-1.501,0.701-3.133,1.616-4.808,1.798c-0.812,0.088-1.167-0.203-1.203-0.586c-0.081-0.04-0.119-0.093-0.082-0.162
	c1.264-2.409,1.442-4.545,0.626-6.832c-0.318,0.217-0.739,0.313-1.14,0.298c-2.094,1.95-3.688,4.688-3.692,7.406
	c-0.009,4.089,3.123,5.687,6.629,6.1c0.68-0.31,1.598-0.372,2.03,0.099c10.561,11.473,11.37,29.737,14.788,44.199
	C395.362,364.393,395.359,364.426,395.363,364.459z M336.697,385.049c4.295,0,8.592,0,12.887,0c-2.901-1.191-5.603-2.8-8.273-4.537
	C339.916,382.108,338.378,383.739,336.697,385.049z M352.956,386.228c0.019-0.006,0.037-0.013,0.057-0.019
	c-0.017-0.005-0.032-0.009-0.049-0.013C352.963,386.206,352.958,386.217,352.956,386.228z M323.74,380.401
	c0.551-1.92,1.813-3.806,3.025-5.177c1.499-1.696,3.419-3.404,5.564-4.562c-5.8-12.697-11.6-25.395-17.4-38.092
	c-0.229,0.078-0.445,0.127-0.613,0.127c-22.007,0-44.013,0-66.02,0c0.014,0.022,0.032,0.04,0.044,0.064
	c7.902,15.88,15.803,31.76,23.705,47.639C289.277,380.401,306.509,380.401,323.74,380.401z M336.889,371.286
	c-3.021,0.07-5.904,2.499-7.723,4.703c-1.526,1.85-4.195,5.741-2.057,8.032C329.62,379.221,332.525,374.485,336.889,371.286z
	 M265.027,384.669c0.015,0.035,0.011,0.072-0.003,0.111c0.009,0.051,0.021,0.1,0.021,0.157c0,0.037,0,0.074,0,0.111
	c19.768,0,39.536,0,59.304,0c-0.734-0.997-0.969-2.13-0.863-3.296c-17.318,0-34.637,0-51.956,0
	c-0.762,0.358-1.898,0.395-2.237-0.287c-7.949-15.976-15.898-31.951-23.847-47.926c-0.166-0.334,0.015-0.65,0.354-0.891
	c-0.957-0.236,0.905-1.301,1.697-1.301c22.371,0,44.742,0,67.112,0c0.375-0.803,2.443-1.254,2.89-0.277
	c5.86,12.83,11.722,25.661,17.583,38.492c1.287-0.34,2.62-0.438,3.965-0.187c-2.746-6.144-5.538-12.268-8.379-18.368
	c-3.122-6.702-6.188-13.479-9.75-19.963c-2.014-3.664-2.405-3.654-6.95-3.8c-3.733-0.12-7.467-0.231-11.2-0.33
	c-18.769-0.496-37.916-1.546-56.653,0.032c-3.332,0.28-6.057,0.016-4.563,4.236c0.977,2.761,2.632,5.11,3.774,7.76
	c1.703,3.951,3.406,7.902,5.109,11.854C255.297,362.089,260.162,373.378,265.027,384.669z M351.834,391c0-1.239,0-2.479,0-3.718
	c-0.111,0.023-0.227,0.038-0.352,0.038c-6.301,0-12.602,0-18.902,0c-1.617,0.51-3.339,0.587-5.164,0c-20.791,0-41.582,0-62.372,0
	c0,1.227,0,2.453,0,3.68C293.974,391,322.904,391,351.834,391z M365.479,385.159c0.355-4.114,0.302-9.872-2.604-12.821
	c-1.361-0.056-2.996-0.318-4.097-1.035c-0.491,0.222-1.041,0.38-1.329,0.342c-3.436-0.452-6.837-1.328-10.294-1.595
	c-6.453-0.497-10.568,2.842-13.818,7.83c-1.236,1.898-2.391,3.844-3.429,5.857c-0.238,0.463-0.379,0.91-0.423,1.312
	c1.564,0,3.128,0,4.692,0c2.244-1.811,4.068-3.972,5.927-6.162c0.433-0.511,2.47-0.808,2.742-0.409
	c0.099,0.028,0.192,0.064,0.274,0.118c3.486,2.285,7.154,4.695,11.269,5.664C358.023,385.115,361.76,385.163,365.479,385.159z
	 M372.686,384.509c-0.085-5.535-0.559-11.047-1.104-16.555c-0.04-0.404,0.9-0.752,1.721-0.889c0.834-0.704,2.248-1.952,1.739-3.007
	c-0.437-0.906-1.789-1.145-2.673-1.278c-2.365-0.36-5.308-0.523-7.515,0.544c-1.769,0.854-3.927,2.549-4.304,4.615
	c-0.404,2.216,1.685,2.697,3.493,2.756c0.3-0.053,0.599-0.06,0.853,0.001c0.079-0.002,0.159-0.004,0.234-0.007
	c0.464-0.019,1.146,0.298,0.796,0.842c2.813,3.301,2.842,9.2,2.461,13.453C369.81,384.782,371.244,384.631,372.686,384.509z
	 M465.006,384.728c8.25-6.554,12.324-16.818,17.016-25.934c5.704-11.084,13.693-20.782,19.563-31.798
	c4.848-9.097,9.073-18.704,9.1-29.111c-2.646-11.132-21.221-16.125-29.527-8.439c0.014,0.151-0.077,0.339-0.316,0.564
	c-19.426,18.326-16.373,48.223-30.283,69.733c-0.281,0.436-1.143,0.699-1.847,0.709c-0.147,0.026-0.284,0.035-0.397,0.02
	c-6.866-0.956-13.39-0.596-20.114,1.067c-5.399,1.335-10.835,3.045-16.369,3.721c-12.344,1.508-25.321-0.983-37.215,3.339
	c0.505,5.226,0.93,10.457,0.983,15.711c12.354-0.638,25.169,1.171,37.343,2.269c0.666,0.06,1.333,0.12,1.995,0.176
	c5.48,0.457,10.968,0.92,16.459,1.295c3.577,0.244,7.155,0.458,10.736,0.584C449.69,388.897,458.688,389.745,465.006,384.728z
	 M498.434,367.117c1.411,1.136,3.06,1.839,4.793,2.179c0.549-0.068,1.007-0.035,1.015,0.139c0,0.007,0.001,0.015,0.001,0.021
	c1.277,0.142,2.582,0.088,3.865-0.141c0.001-0.266,0.005-0.531,0.006-0.797c0.004-0.968,2.9-1.442,2.898-0.775
	c-0.001,0.246-0.004,0.493-0.005,0.74c1.974-0.803,3.769-2.033,5.134-3.637c2.653-3.114,4.15-6.884,5.098-10.83
	c2.009-8.371,2.102-17.867,6.679-25.379c4.362-7.159,11.381-12.37,16.726-18.736c6.458-7.691,9.023-15.813,0.582-23.229
	c-6.711-5.897-14.274-7.392-20.861-0.522c-3.347,3.488-5.565,7.565-8.2,11.558c-0.345,0.522-1.014,1.035-1.678,1.31
	c-0.199,0.082-0.397,0.143-0.587,0.175c0.006,0.184,0.017,0.365,0.015,0.552c-0.006,0.466-0.027,0.939-0.08,1.426
	c-0.028,0.262-0.284,0.472-0.629,0.631c-1.042,8.729-4.426,16.861-8.751,24.729c-2.239,4.073-4.716,7.997-7.24,11.891
	c0.057,0.055,0.074,0.125,0.032,0.213C493.543,346.412,490.399,360.647,498.434,367.117z M314.916,370.353
	c-0.601,2.119-3.317,3.508-5.38,3.549c-2.016,0.041-4.691-1.036-4.871-3.39c-0.161-2.103,1.269-3.472,3.028-4.216
	c-0.466-1.022-0.932-2.045-1.398-3.068c-0.169-0.008-0.318-0.035-0.438-0.082c-4.792,0-9.583,0-14.375,0
	c0.848,1.092,1.696,2.184,2.544,3.274c0.166-0.022,0.336-0.021,0.508,0.016c0.066,0.015,0.137,0.031,0.206,0.047
	c0.017,0.004,0.035,0.008,0.052,0.012c2.206,0.505,5.447,1.718,4.645,4.543c-0.602,2.118-3.317,3.506-5.379,3.549
	c-2.016,0.041-4.692-1.036-4.872-3.39c-0.128-1.68,0.758-2.893,2.016-3.692c-5.511-7.094-11.022-14.188-16.532-21.281
	c-0.351-0.452-0.21-0.896,0.149-1.226c-0.111,0.009-0.225,0.021-0.334,0.021c-2.444,0-4.89,0-7.334,0
	c-0.563,0-0.621-0.336-0.166-0.618c0.595-0.369,1.354-0.55,2.049-0.55c2.445,0,4.89,0,7.335,0c0.562,0,0.621,0.336,0.166,0.618
	c-0.007,0.005-0.016,0.008-0.023,0.012c0.318,0.045,0.607,0.174,0.801,0.424c0.745,0.959,1.49,1.917,2.234,2.876
	c0.312-0.167,0.65-0.278,0.942-0.278c9.476,0,18.952,0,28.427,0c0.838-0.518,2.39-0.635,2.377-0.069
	c-0.115,4.956-1.586,9.611-2.716,14.394c0.22,0.034,0.388,0.119,0.459,0.274c0.582,1.278,1.164,2.557,1.747,3.835
	C312.938,366.505,315.658,367.739,314.916,370.353z M294.434,368.813c-0.46,0.303-1.112,0.452-1.641,0.318
	c-0.52,0.348-0.859,0.854-0.654,1.607c0.255,0.932,1.143,1.738,2.159,1.664c0.839-0.063,2.187-0.614,2.31-1.594
	C296.748,369.68,295.5,369.117,294.434,368.813z M305.785,361.833c1.008-4.167,2.271-8.274,2.545-12.565c-9.209,0-18.419,0-27.629,0
	c3.26,4.196,6.52,8.393,9.78,12.589c0.08-0.014,0.156-0.023,0.223-0.023C295.73,361.833,300.757,361.833,305.785,361.833z
	 M312.087,370.125c0.169-1.354-1.652-1.893-2.769-2.146c-0.983,0.289-2.027,0.875-1.7,2.075c0.255,0.932,1.143,1.738,2.159,1.664
	C310.616,371.657,311.965,371.105,312.087,370.125z M228.054,190.116c-0.588-17.727-9.83-33.721-10.112-51.529
	c-0.018-1.122,1.862-1.586,2.627-0.906c0.03-0.002,0.058-0.008,0.089-0.008c6.826,0,13.652,0,20.478,0
	c0.938-10.515,6.147-21.016,18.256-20.95c5.988,0.032,12.605,1.654,15.157,7.731c1.745,4.155,2.082,8.694,2.07,13.219
	c6.359,0,12.718,0,19.077,0c0.745,0,1.134,0.321,1.239,0.719c0.763-0.532,2.565-0.709,2.559-0.283
	c-0.261,17.984-8.766,34.473-9.027,52.453c-0.009,0.672-1.658,1.077-2.463,1.005c-0.229,0.135-0.512,0.221-0.841,0.221
	c-18.899,0-37.799,0-56.698,0c-0.672,0.413-1.736,0.415-2.17-0.159C227.678,191.318,227.652,190.618,228.054,190.116z
	 M243.976,137.673c9.927,0,19.854,0,29.78,0c-0.017-7.696-1.198-16.238-8.843-18.658
	C250.701,114.517,244.786,126.107,243.976,137.673z M220.958,139.897c0.189,4.329,0.871,8.561,1.818,12.738
	c24.078,0,48.155,0,72.233,0c0.853-4.327,1.453-8.701,1.562-13.162c-0.259,0.248-0.633,0.424-1.105,0.424
	c-6.292,0-12.583,0-18.875,0c-0.035,1.584-0.091,3.158-0.124,4.705c-0.019,0.882-2.909,1.29-2.897,0.777
	c0.035-1.633,0.122-3.505,0.164-5.482c-9.951,0-19.902,0-29.853,0c-0.023,1.604,0.044,3.187,0.204,4.705
	c0.085,0.816-2.834,1.388-2.897,0.777c-0.185-1.764-0.249-3.611-0.188-5.482C234.319,139.897,227.639,139.897,220.958,139.897z
	 M230.982,189.563c18.803,0,37.605,0,56.409,0c0.091,0,0.171,0.009,0.251,0.019c0.529-12.1,4.551-23.564,7.028-35.309
	c-23.838,0-47.676,0-71.514,0C225.989,165.985,230.494,177.367,230.982,189.563z M252.289,280.811c3.91,0,7.819,0,11.729,0
	c1.021,0,3.107-1.549,1.152-1.549c-3.91,0-7.819,0-11.729,0C252.421,279.262,250.334,280.811,252.289,280.811z M293.283,279.262
	c-7.042,0-14.083,0-21.125,0c-1.021,0-3.107,1.549-1.152,1.549c7.042,0,14.083,0,21.125,0
	C293.151,280.811,295.238,279.262,293.283,279.262z M274.156,286.107c-7.042,0-14.083,0-21.125,0c-1.021,0-3.107,1.549-1.152,1.549
	c7.042,0,14.083,0,21.125,0C274.024,287.656,276.111,286.107,274.156,286.107z M109.329,293.251c-12.063,0-24.125,0-36.187,0
	c-1.021,0-3.107,1.551-1.152,1.551c12.063,0,24.125,0,36.187,0C109.198,294.802,111.284,293.251,109.329,293.251z" fill="#0984E3"></path>
</svg>