<?xml version="1.0" standalone="no"?>
<svg version="1.1" id="Layer_1" xmlns="http://www.w3.org/2000/svg" xmlns:xlink="http://www.w3.org/1999/xlink" x="0px" y="0px" width="595.28px" height="595.28px" viewBox="0 0 595.28 595.28" enable-background="new 0 0 595.28 595.28" xml:space="preserve">
<path id="color_x5F_2" fill="#b5ff63" d="M313,453.773l-0.198,0.526c-2.777-14.021-5.436-28.065-8-42.127L313,453.773z
	 M206.373,291.145c2.497-1.464,4.953-2.987,7.153-4.857c0.229-0.195,0.774-0.344,1.305-0.401c-0.122-0.347-0.244-0.692-0.361-1.039
	l-8.138,6.26L206.373,291.145z M305.076,430.164c-2.289-12.17-4.51-24.354-6.653-36.55c-4.333-24.665-8.4-49.375-12.29-74.114
	c-0.679,0.524-2.654,0.763-2.586,0.114c-18.561-4.421-40.47-2.057-56.308-14.375c-5.687-4.422-9.403-11.2-11.991-18.181
	c-2.415,1.955-5.1,3.542-7.799,5.108l3.403,3.228c0.881,0.481,1.71,0.925,2.293,1.306c5.295,3.464,10.567,6.962,15.786,10.542
	c12.745,8.741,25.472,17.762,37.005,28.079c4.969,4.445,10.276,9.211,13.755,14.976c2.336,3.871,2.885,8.172,3.755,12.543
	c3.067,15.412,6.001,30.852,8.89,46.298c3.216,17.198,6.396,34.407,9.319,51.657c1.97-0.549,4-0.825,5.955-1.43
	c4.447-1.377,1.738-7.022,1.141-10.073C307.506,442.92,306.277,436.545,305.076,430.164z M231.371,305.085
	c0.573,0.382,1.153,0.743,1.738,1.092c-1.137-0.754-2.289-1.534-3.411-2.315C230.237,304.29,230.792,304.7,231.371,305.085z
	 M246.105,264.094l1.897,4.269c1.719,3.069,3.648,5.996,5.912,8.574c6.849,7.8,17.147,10.032,27.437,11.91
	c-1.133-7.075-2.259-14.15-3.377-21.227c-2.575-4.039-4.905-8.224-7.239-12.407l-6.72-10.519
	C260.608,252.969,255.092,259.621,246.105,264.094z M250.073,259.321c3.302-2.44,5.917-5.321,7.991-8.58
	c-1.36,1.732-3.026,3.66-5.065,5.699C251.846,257.593,250.892,258.529,250.073,259.321z M199.374,113.87l-12.197,3.229
	c1.875-0.338,3.75-0.678,5.625-1.015C195.248,115.644,197.771,115.709,199.374,113.87z M242.546,93.498
	c2.1-0.354,5.823-1.648,8.664-1.739l-0.21-1.32l-39.549,8.475c0.515-0.08,1.039-0.157,1.577-0.253
	C222.862,96.913,232.696,95.159,242.546,93.498z M259.656,467.514l0.237,2.012c-36.798,8.061-73.642,15.913-110.382,24.236
	c0.298-0.263,0.464-0.614,0.343-1.019c-3.903-13.122-6.271-26.838-8.537-40.441L96.993,172.838
	c-0.82-5.287-1.629-10.575-2.455-15.861c-1.34-8.588-2.682-17.176-4.115-25.749c-0.334-2-0.342-5.787-1.162-8.345
	c5.579-1.484,11.62-2.072,17.248-3.108c3.515-0.647,7.03-1.29,10.545-1.934l32.062-5.256c4.26,1.133,8.094,5.352,11.694,7.689
	c2.065,1.341,3.91,1.855,5.8,1.936l0.39,0.229l0.879-0.233c1.766-0.087,3.619-0.471,5.769-0.86
	c7.503-1.357,15.006-2.71,22.511-4.058c3.512-0.631,5.22-1.701,6.997-4.872c1.958-3.496,2.74-7.817,5.435-10.872
	c0.879-0.996,4.73-1.127,6.001-1.354c1.828-0.325,3.656-0.648,5.484-0.972c3.852-0.682,7.704-1.358,11.557-2.031
	c4.872-0.851,9.745-1.693,14.625-2.498c1.411-0.233,2.823-0.458,4.237-0.668c0.273-0.041,0.481-0.075,0.643-0.104
	c2.009,12.638,4.438,25.207,6.396,37.854c0.044,0.285,0.172,0.938,0.305,1.651l0.162,1.017l-0.076,1.523
	c-15.14-0.008-33.708,9.699-34.253,25.449c-0.152,4.411,0.192,9.146-1.798,13.228c-1.581,3.242-5.716,5.151-8.571,7.054
	c-8.444,5.628-13.58,12.661-15.724,22.675c-0.447,2.085-0.716,4.226-0.819,6.383c-0.097,0.466-0.196,0.942-0.298,1.432
	c-0.085,0.072-0.147,0.148-0.173,0.23c-1.554,5.016-2.543,10.208-3.209,15.454c-0.399,1.759-0.767,3.327-1.078,4.571
	c-0.618,2.472-0.663,9.145-0.4,17.627c-0.332,13.146,0.265,26.328,1.503,39.41c0.43,4.541,0.961,9.083,1.598,13.612
	c0.116,1.665,0.218,3.131,0.299,4.351c0.195,2.929,0.813,5.433,1.676,7.575c1.046,5.4,2.295,10.757,3.815,16.037
	c0.805,2.797,1.705,5.751,2.791,8.672c0,0.018,0.007,0.033,0.018,0.048c2.285,6.135,5.401,12.12,10.252,16.193
	c0.591,0.497,3.142-0.633,2.733-0.977c-3.961-3.326-6.728-7.938-8.842-12.871c1.611,0.917,3.221,1.853,4.824,2.813
	c7.645,5.251,21.672,15.625,28.732,25.509c1.777,2.488,3.618,7.861,5.443,14.999c0.311,1.72,0.587,3.455,0.88,5.195
	c1.219,7.253,2.395,14.513,3.565,21.774c2.67,16.571,5.28,33.152,7.853,49.739C259.016,463.921,259.331,465.714,259.656,467.514z
	 M168.895,278.7c0.028-35.547-1.219-72.981,15.073-105.637c0.312-0.625-2.471-0.362-2.875,0.447
	c-16.334,32.74-15.068,70.333-15.095,105.966C165.997,280.139,168.894,279.663,168.895,278.7z M212.043,381.457
	c-27.726-9.231-35.956-46.191-39.877-71.335c-0.121-0.774-3.037-0.119-2.897,0.776c3.966,25.433,12.382,62.472,40.428,71.809
	C210.447,382.957,213.069,381.798,212.043,381.457z"></path>
<path id="color_x5F_1" d="M285.502,189.353c-0.009-1.181,2.912-1.697,2.923-0.269c0.028,3.679,0.432,7.364-0.498,10.969
	c-0.236,0.917-1.49,1.283-2.315,1.048c-1.32-0.376-2.709-0.492-3.988-0.998c-1.682-0.665,0.589-2.269,1.707-1.827
	c0.64,0.253,1.308,0.409,1.982,0.548C285.825,195.699,285.526,192.523,285.502,189.353z M271.31,181.545
	c2.358-0.436,4.723-0.478,7.113-0.479c0.655,0,1.518-0.215,1.913-0.792c0.388-0.565-0.326-0.854-0.786-0.854
	c-2.629,0.001-5.252,0.038-7.845,0.518c-0.548,0.101-1.487,0.332-1.646,0.984C269.904,181.554,270.937,181.615,271.31,181.545z
	 M288.611,181.628c0.696-0.323,1.468-0.291,2.221-0.292c0.647-0.001,1.514-0.493,1.59-1.194c0.083-0.766-0.762-0.992-1.35-0.991
	c-1.313,0.001-2.557,0.146-3.762,0.705c-0.539,0.25-1.106,0.942-0.674,1.533C287.078,181.992,288.019,181.903,288.611,181.628z
	 M212.043,381.457c-27.726-9.231-35.956-46.191-39.877-71.335c-0.121-0.774-3.037-0.119-2.897,0.776
	c3.966,25.433,12.382,62.472,40.428,71.809C210.447,382.957,213.069,381.798,212.043,381.457z M183.967,173.063
	c0.312-0.625-2.471-0.362-2.875,0.447c-16.334,32.74-15.068,70.333-15.095,105.966c0,0.662,2.897,0.187,2.897-0.776
	C168.922,243.153,167.675,205.719,183.967,173.063z M412.324,474.346C411.929,474.412,411.916,474.494,412.324,474.346
	L412.324,474.346z M550.621,321.854c-9.881,28.589-14.602,58.929-25.203,87.276c-0.009,0.024-0.026,0.045-0.038,0.068
	c0.001,0.238-0.232,0.504-0.831,0.738c-4.346,1.698-8.63,3.549-12.885,5.477c-0.188,0.195-0.544,0.336-0.946,0.431
	c-6.7,3.058-13.326,6.301-19.978,9.481c-0.398,0.894-0.854,1.71-1.397,2.385c-0.539,0.669-3.039,0.738-2.857,0.513
	c0.306-0.38,0.579-0.813,0.835-1.273c-7.171,3.389-14.399,6.638-21.804,9.44c0.08,0.033,0.169,0.058,0.242,0.098
	c0.195,0.109,0.374,0.306,0.304,0.552c-0.001,0.003-0.002,0.007-0.003,0.01c-0.191,0.674-1.518,1.081-2.317,0.971
	c-0.04-0.003-0.156-0.014-0.404-0.025c-0.452-0.02-0.904-0.033-1.357-0.043c-1.535-0.033-3.07-0.048-4.606-0.059
	c-4.879-0.034-9.758-0.035-14.638-0.031c-2.23,0.002-4.46,0.011-6.69,0.015c-0.502,0.532-2.592,1.078-2.794,0.501
	c-0.055-0.157-0.097-0.325-0.136-0.495c-9.173,0.02-18.346,0.049-27.518,0.084c1.455,5.669,3.066,11.302,4.699,16.922
	c0.107,0.368,0.215,0.735,0.322,1.104c0.169-0.26,0.474-0.493,0.941-0.626c2.816-0.805,5.746-1.161,8.548-0.977l0.888-0.287
	c0,0,0.327,0.173,0.874,0.483c5.287,0.814,9.898,3.741,12.056,9.545c0.098,0.264,0.038,0.507-0.113,0.716
	c0.254,0.532,0.434,1.063,0.517,1.588c-0.316,0.058-0.655,0.106-1.01,0.148c9.72,0.083,19.439,0.179,29.159,0.308
	c2.43,0.032,29.23,0.277,39.895,1.211c-1.778-1.995-4.359-3.302-7.323-3.615c-0.401,0.129-0.833,0.173-1.223,0.098
	c-2.411-0.467-4.611,0.001-6.481,1.632c-0.528,0.46-1.359,0.7-2.049,0.549c-0.591-0.129-0.752-0.65-0.284-1.06
	c1.83-1.595,4.008-2.546,6.311-2.86c-0.32,0.044-0.632,0.077-0.936,0.096c-1.929,0.122,0.358-1.271,1.212-1.325
	c3.028-0.192,5.974-1.015,8.956-1.611l1.773-0.572c0,0,0.124,0.074,0.34,0.208c0.893-0.13,1.791-0.234,2.699-0.265
	c3.757-0.126,7.33,4.224,9.005,7.173c6.099,10.734-4.439,20.177-15.047,19.905c-0.538-0.014-0.536-0.191-0.286-0.41
	c-4.463,1.783-9.655,1.473-13.731-1.716c-1.259-0.985,1.335-2.306,2.257-1.585c4.151,3.247,10.396,2.877,14.154-0.44
	c0.622-0.703,1.275-1.491,1.897-2.323c0.576-0.995,1.003-2.115,1.189-3.384c0.25-1.706,0.114-3.313-0.333-4.767
	c-18.358,10.867-37.237,20.789-56.583,29.785c1.188,1.264,2.181,2.686,2.86,3.88c6.099,10.734-4.438,20.177-15.046,19.906
	c-0.29-0.007-0.421-0.063-0.444-0.146c-1.785,0.672-3.727,1.02-5.749,0.953c-11.158-0.366-13.931-12.372-9.647-19.525
	c-15.727,0.07-31.453,0.082-47.18-0.024c4.733,10.243-5.418,19.003-15.641,18.742c-0.289-0.007-0.421-0.063-0.444-0.145
	c-1.784,0.672-3.726,1.019-5.748,0.953c-14.665-0.481-14.859-21.074-3.562-24.321c-8.937-30.903-16.316-62.211-23.593-93.538
	c-1.9-8.182-3.797-16.364-5.724-24.54c-1.706-7.234-4.872-15.333-5.032-22.744c-0.177-8.195-3.296-15.995-5.119-23.932
	c-1.574-6.854-2.794-13.727-3.248-20.736c-0.843,0.391-1.792,0.615-2.845,0.612c-0.498-0.001-0.962-0.052-1.405-0.133
	c6.691,38.432,15.8,76.389,22.715,114.777c1.833,10.177,3.548,20.377,4.99,30.617c0.617,4.376,0.542,8.652,0.542,13.071
	c0,3.078-0.114,5.918-1.673,8.66c-4.729,8.318-14.366,10.748-23.25,12.426c7.947,6.753,21.079,8.182,29.481,13.676
	c2.914,1.905,7.247,6.25,3.753,9.711c-3.488,3.456-8.969,4.414-13.658,4.96c-8.259,0.962-16.604,0.845-24.902,0.622
	c-7.455-0.201-15.317,0.357-22.696-0.693c-5.797-0.825-10.13-3.945-11.484-9.942c-0.752-3.329-1.136-7.013-1.172-10.722
	c-0.28,0.186-0.626,0.348-0.963,0.419c-18.54,3.909-37.052,7.942-55.562,11.985c-15.245,3.33-30.488,6.664-45.747,9.928
	c-0.497,0.106-1.004,0.21-1.509,0.314c-0.132,0.531-0.664,1.057-1.461,1.096c-1.247,0.062-2.449,0.009-3.612-0.134
	c-10.752,1.833-22.581,2.34-32.054-3.455c-9.454-5.783-12.828-16.087-14.126-26.591c-1.799-14.551-3.731-29.052-6.007-43.544
	c-4.997-31.811-10.682-63.507-15.859-95.288c-2.596-15.935-5.084-31.889-7.271-47.886c-1.126-8.234-1.645-16.732-3.274-24.876
	c-1.363-6.813-3.333-13.492-4.341-20.376c-4.634-31.637-9.486-63.242-14.633-94.799c-1.343-8.235-2.701-16.469-4.08-24.699
	c-1.242-7.415-3.021-14.931-3.571-22.432c-0.862-11.751,1.363-20.88,12.128-26.923c10.883-6.109,22.959-7.97,35.139-9.779
	c15.807-2.348,31.54-5.275,47.316-7.826c31.356-5.069,62.766-9.79,94.239-14.073c0.023-0.003,0.04-0.003,0.062-0.006
	c0.07-0.158,0.22-0.331,0.492-0.518c2.728-1.869,8.538,0.258,11.048,1.428c8.716,4.063,13.484,12.808,15.536,21.882
	c2.521,11.147,4.441,22.444,6.207,33.733c0.713,4.563,1.429,9.133,1.97,13.72c0.158,1.343,0.77,3.464,0.216,4.784
	c-0.036,0.086-0.095,0.165-0.163,0.239c2.055,1.279,4.049,2.704,6.209,4.092c3.474,2.232,6.896,3.616,11.123,3.365
	c2.528-0.15,5.121-0.585,7.656-0.44c9.4,0.537,15.354,9.06,10.195,17.516c-2.618,4.292-7.356,6.382-12.374,7.435
	c0.014,11.978,0.365,26.51-6.813,36.655c-1.846,2.609-4.554,4.397-7.545,5.491c8.943,17.013,13.991,37.589,28.338,51.172
	c2.834,2.684,6.086,5.833,9.925,6.925c2.849,0.811,5.729,1.509,8.608,2.203c4.975,1.199,10.167,2.086,15.066,3.633
	c2.441-3.966,5.839-7.804,9.305-9.739c1.374-0.767,2.75-1.002,4.092-0.873c0.259-0.119,0.528-0.196,0.767-0.196
	c3.93-0.011,7.253-3.902,11.228-1.008c2.778-4.386,8.7-1.126,10.949,2.689c1.417,2.406,2.27,5.494,1.758,8.276
	c-0.494,2.681-2.781,4.163-5.122,5.104c-0.14,0.526-0.338,1.014-0.592,1.465c0.208,9.938,2.044,19.925,3.999,29.682
	c3.213-0.55,6.431-0.604,9.662-0.42c1.17-3.119,2.462-6.196,3.908-9.222c6.433-13.46,15.234-26.558,24.589-38.125
	c3.377-4.176,18.113-21.976,22.862-9.69c2.542,6.574,0.761,14.829-0.692,21.44c-1.94,8.83-4.629,17.479-7.563,26.024
	c-1.246,3.628-2.467,7.268-3.718,10.896c7.104,0.102,14.206,0.31,21.305,0.597c4.776-5.563,9.507-11.165,13.789-17.122
	c0.224-0.312,0.853-0.537,1.46-0.622c-0.246,0.026-0.491,0.06-0.737,0.084c-1.906,0.193,0.488-1.114,1.248-1.191
	c18.651-1.892,36.603-7.741,54.619-12.655c-0.008-0.18-0.028-0.358-0.035-0.539c-0.044-1.128,1.882-1.596,2.643-0.88
	c0.986-0.375,2.398-0.155,1.94,0.916c-0.459,1.073-0.933,2.14-1.416,3.204c0.925,11.507,4.104,22.596,7.324,33.685
	c6.085,0.22,12.171,0.382,18.261,0.455c0.468,0.006,0.471,0.135,0.254,0.304c0.154,0.077,0.271,0.173,0.339,0.283
	C550.411,321.262,550.76,321.452,550.621,321.854z M531.405,321.396c0.557,1.919,1.11,3.84,1.652,5.762
	c0.085,0.015,0.147,0.04,0.192,0.069c4.177-1.918,8.384-3.761,12.642-5.477C541.061,321.682,536.232,321.558,531.405,321.396z
	 M535.439,350.103c-0.204-0.125-0.35-0.319-0.391-0.6c-0.579-4.014-1.393-7.979-2.333-11.92c-0.605,5.731-1.625,11.465-2.877,17.158
	l3.415-1.508C533.83,351.925,534.537,350.769,535.439,350.103z M525.99,376.404c-0.373,0.01-0.676-0.071-0.773-0.296
	c-0.181-0.419-0.356-0.84-0.536-1.26c-0.284,1.012-0.567,2.021-0.85,3.026c0.673-0.298,1.349-0.595,1.991-0.953
	c0.046-0.026,0.067-0.036,0.106-0.058C525.819,376.74,525.854,376.577,525.99,376.404z M463.205,415.914l-12.549,0.071
	c-0.827,1.491-1.661,2.979-2.459,4.485c-1.286,2.428-2.57,4.861-3.749,7.342c-0.156,0.329-0.313,0.659-0.468,0.989
	c5.294-3.411,11.11-5.907,16.67-8.883c0.283-0.151,0.568-0.212,0.833-0.207C461.892,418.509,462.586,417.089,463.205,415.914z
	 M395.65,416.296l-8.908,0.051c2.338,2.008,4.628,3.839,6.903,4.985c1.113,0.561-1.565,1.701-2.329,1.316
	c-3.303-1.665-6.168-3.934-8.987-6.277l-14.498,0.082c1.657,6.727,3.499,13.391,5.698,19.905c7.927-0.018,15.854-0.042,23.781-0.071
	c-0.043-0.752-0.161-1.513-0.185-1.988c-0.155-3.006-0.398-6.006-0.656-9.005C396.213,422.293,395.929,419.295,395.65,416.296z
	 M403.59,464.238c-0.77,1.703-1.133,3.551-1.115,5.466c0.001,0.119-0.04,0.229-0.108,0.333c0.73-0.32,1.464-0.631,2.2-0.938
	C404.356,467.496,404.016,465.869,403.59,464.238z M402.905,461.782c-0.731-2.496-1.534-4.967-2.142-7.324
	c-0.98-3.797-1.962-7.594-2.992-11.378c-0.303-1.116-0.58-4.197-1.44-5.031c0,0,0.001,0,0.002,0
	c-0.017-0.013-0.026-0.029-0.038-0.044c-13.115,0.049-26.229,0.104-39.345,0.096c-4.387-0.003-8.774-0.001-13.161-0.058
	c-0.736-0.009-1.723,0.088-2.691,0.093c2.339,9.756,4.716,19.503,7.17,29.23c2.186,8.666,4.162,17.508,6.995,26
	c15.712-6.085,29.981-15.574,45.321-22.537c-0.548,0.05-1.003-0.049-1.006-0.35c-0.029-3.001,0.746-5.784,2.501-8.235
	C402.214,462.058,402.532,461.897,402.905,461.782z M326.446,375.313l28.173,0.137c-5.049-2.388-9.465-7.597-7.741-13.453
	c0.727-2.47,2.23-3.96,4.092-4.752c-0.098-0.377-0.19-0.756-0.289-1.134c-0.411-1.568-2.304-12.776-4.311-13.184
	c-0.136-0.028-0.171-0.083-0.144-0.153c-2.931-0.098-5.86-0.209-8.792-0.297c-4.496-0.135-8.992-0.268-13.49-0.326
	c-1.408-0.019-2.817-0.038-4.225-0.016c-0.121,0.002-0.216,0.003-0.314,0.005C321.608,353.224,323.975,364.279,326.446,375.313z
	 M312.903,309.502c1.257-0.756,2.514-1.513,3.778-2.258c-0.919-2.116-0.992-4.769-1.159-7.043c-0.266-0.013-0.499-0.079-0.651-0.221
	c-2.315-2.157-4.327-2.778-7.24-1.391c-1.375,0.655-2.734,1.295-4.147,1.84c5.407,0.872,6.781,7.108,4.937,11.679
	c0.904-0.502,1.804-1.012,2.694-1.538c0-0.045-0.005-0.091-0.005-0.136C311.105,309.957,312.083,309.614,312.903,309.502z
	 M300.681,299.828c0.247-0.071,0.461-0.089,0.655-0.08c0.177-0.154,0.401-0.301,0.721-0.41c2.767-0.942,5.338-2.918,8.3-3.236
	c2.533-0.272,4.497,0.507,6.354,2.002c0.756-0.202,1.573-0.169,1.617,0.252c0.284,2.701,0.129,6.001,1.426,8.464
	c2.782,5.283,4.969-3.689,4.626-5.952c-1.223-8.068-11.52-17.762-19.468-11.264c-8.544,6.985-11.836,18.137-17.235,27.462
	c3.217,0.034,6.761,0.458,9.867-0.571c0.146-0.165,0.353-0.307,0.591-0.418C292.605,312.789,293.829,301.809,300.681,299.828z
	 M260.015,469.5c-0.122-0.664-0.24-1.325-0.359-1.986c-0.325-1.8-0.64-3.592-0.916-5.368c-2.573-16.586-5.183-33.167-7.853-49.739
	c-1.17-7.261-2.346-14.521-3.565-21.774c-0.292-1.74-0.569-3.475-0.88-5.195c-1.825-7.138-3.666-12.51-5.443-14.999
	c-7.06-9.883-21.087-20.258-28.732-25.509c-1.603-0.96-3.213-1.896-4.824-2.813c2.114,4.934,4.88,9.545,8.842,12.871
	c0.409,0.343-2.142,1.473-2.733,0.977c-4.852-4.074-7.968-10.059-10.252-16.193c-0.006-0.016-0.012-0.032-0.018-0.048
	c-1.085-2.921-1.985-5.875-2.791-8.672c-1.52-5.279-2.769-10.636-3.815-16.037c-0.766-3.956-1.414-7.935-1.975-11.926
	c-0.637-4.529-1.168-9.072-1.598-13.612c-1.239-13.082-1.835-26.264-1.503-39.41c0.041-1.625,0.09-3.25,0.16-4.874
	c0.247-5.732,0.586-11.56,1.318-17.324c0.666-5.245,1.655-10.438,3.209-15.454c0.025-0.082,0.088-0.159,0.173-0.23
	c0.071-0.06,0.16-0.116,0.262-0.167c0.007-0.422,0.017-0.844,0.037-1.265c0.103-2.157,0.373-4.297,0.819-6.383
	c2.144-10.014,7.28-17.046,15.724-22.675c2.855-1.903,6.99-3.813,8.571-7.054c1.99-4.082,1.646-8.817,1.798-13.228
	c0.546-15.75,19.114-25.457,34.253-25.449c0.094,0,0.187-0.001,0.28,0c0.005-0.006,0.01-0.012,0.015-0.018
	c0.006-0.391-0.192-1.514-0.381-2.522c-0.133-0.714-0.261-1.366-0.305-1.651c-1.959-12.647-4.388-25.216-6.396-37.854
	c-0.162,0.03-0.37,0.064-0.643,0.104c-1.414,0.21-2.826,0.435-4.237,0.668c-4.879,0.805-9.753,1.646-14.625,2.498
	c-3.853,0.673-7.706,1.35-11.557,2.031c-1.828,0.324-3.656,0.647-5.484,0.972c-1.271,0.226-5.122,0.357-6.001,1.354
	c-2.695,3.054-3.477,7.376-5.435,10.872c-1.777,3.171-3.485,4.241-6.997,4.872c-7.505,1.348-15.008,2.701-22.511,4.058
	c-2.149,0.389-4.003,0.772-5.769,0.86c-0.427,0.021-0.849,0.021-1.269,0.003c-1.89-0.081-3.734-0.595-5.8-1.936
	c-3.6-2.337-7.434-6.557-11.694-7.689c-0.095-0.025-0.19-0.058-0.286-0.08c-3.803-0.882-9.314,1.229-13.118,1.922
	c-3.57,0.651-7.14,1.303-10.709,1.956c-2.65,0.485-5.299,0.972-7.949,1.458c-3.515,0.644-7.03,1.287-10.545,1.934
	c-5.628,1.036-11.669,1.625-17.248,3.108c0.82,2.559,0.828,6.345,1.162,8.345c1.433,8.573,2.775,17.161,4.115,25.749
	c0.825,5.286,1.635,10.575,2.455,15.861c8.919,57.511,17.583,115.06,26.685,172.542c4.946,31.236,9.949,62.466,15.396,93.619
	c0.77,4.405,1.501,8.847,2.243,13.301c2.266,13.604,4.633,27.32,8.537,40.441c0.121,0.405-0.045,0.756-0.343,1.019
	c36.74-8.323,73.584-16.175,110.382-24.236C259.933,469.517,259.974,469.508,260.015,469.5z M200.297,219.221
	c0.249,1.497,0.59,2.978,1.015,4.439C200.997,222.343,200.642,220.813,200.297,219.221z M203.246,294.664
	c0.461-0.143,0.754-0.225,0.754-0.225l8.73,4.989c-0.623-0.409-1.241-0.825-1.865-1.233c-1.696-1.108-5.033-2.483-6.593-4.163
	C203.928,294.24,203.586,294.452,203.246,294.664z M308.752,449.293c-1.246-6.373-2.475-12.748-3.676-19.129
	c-2.289-12.17-4.51-24.354-6.653-36.55c-4.333-24.665-8.4-49.375-12.29-74.114c-0.679,0.524-2.654,0.763-2.586,0.114
	c-18.561-4.421-40.47-2.057-56.308-14.375c-5.687-4.422-9.403-11.2-11.991-18.181c-2.415,1.955-5.1,3.542-7.799,5.108
	c-0.242,0.14-0.483,0.28-0.725,0.42c0.815,0.968,2.554,1.948,4.128,2.808c0.881,0.481,1.71,0.925,2.293,1.306
	c5.295,3.464,10.567,6.962,15.786,10.542c12.745,8.741,25.472,17.762,37.005,28.079c4.969,4.445,10.276,9.211,13.755,14.976
	c2.336,3.871,2.885,8.172,3.755,12.543c3.067,15.412,6.001,30.852,8.89,46.298c3.216,17.198,6.396,34.407,9.319,51.657
	c1.97-0.549,4-0.825,5.955-1.43C312.058,457.988,309.349,452.343,308.752,449.293z M298.622,292.795
	c1.169-1.413,2.404-2.675,3.709-3.735c-0.17-0.003-0.322-0.031-0.437-0.095c-3.407-1.909-6.592-3.802-9.559-5.904
	c0.292,0.917,0.69,1.79,1.289,2.647c1.121,1.604,1.443,3.55,1.765,5.444c0.035,0.208-0.042,0.401-0.19,0.571
	c1.159,0.322,2.298,0.671,3.404,1.063C298.611,292.789,298.615,292.792,298.622,292.795z M245.835,264.235
	c0.68,1.397,1.408,2.772,2.167,4.127c1.719,3.069,3.648,5.996,5.912,8.574c6.849,7.8,17.147,10.032,27.437,11.91
	c-1.133-7.075-2.259-14.15-3.377-21.227c-2.575-4.039-4.905-8.224-7.239-12.407c-2.093-3.751-4.203-7.493-6.484-11.133
	c-0.081,0.204-0.154,0.413-0.236,0.614c-3.406,8.276-8.922,14.927-17.909,19.4C246.013,264.14,245.928,264.189,245.835,264.235z
	 M284.421,289.158c0.014,0.083,0.004,0.164-0.016,0.242c2.685,0.486,5.343,0.987,7.917,1.589c-0.328-1.703-0.771-3.219-1.798-4.692
	c-1.119-1.605-1.435-3.552-1.751-5.446c-0.026-0.155,0.015-0.301,0.097-0.436c-2.508-2.077-4.833-4.408-6.975-7.146
	C282.734,278.566,283.573,283.862,284.421,289.158z M335.36,287.739c-0.035,0.021-0.077,0.04-0.119,0.06
	c1.947,2.855,2.656,7.016,1.658,10.719c8.019-3.289,15.65-7.457,23.844-10.333c-1.859-3.281-1.612-9.037-5.112-9.368
	c-0.152,0.209-0.476,0.419-1.037,0.554c-3.743,0.901-7.395,2.26-10.918,3.897c-0.032,0.087-0.075,0.172-0.106,0.259
	c-0.155,0.438-1.229,0.721-2.016,0.766C339.435,285.36,337.363,286.516,335.36,287.739z M326.118,286.597
	c2.877,1.377,5.144,4.015,6.186,7.849c0.845,3.108,0.726,6.36-0.571,8.785c0.938-0.887,1.649-1.96,2.147-3.137
	c-0.1-0.088-0.071-0.212,0.155-0.367c0.801-2.117,0.922-4.536,0.38-6.818C333.503,289.06,330.496,284.146,326.118,286.597z
	 M317.126,287.252c6.323,3.2,12.656,11.578,9.656,18.413C333.02,304.235,329.356,282.937,317.126,287.252z M314.069,311.455
	c0.245,4.211,1.159,8.462,1.894,12.575c0.94,5.258,1.945,10.506,2.975,15.75c17.622-6.759,34.006-16.568,51.506-23.624
	c-1.916-8.557-3.736-17.302-4.093-26.042c-0.318,0.099-0.654,0.183-1.022,0.238c-1.933,0.291-3.167-0.308-4.03-1.356
	c-8.49,3.036-16.403,7.424-24.787,10.727c-0.905,2.35-2.565,4.417-5.124,5.697c-0.388,0.194-1.131,0.244-1.676,0.162
	c-0.968,0.71-2.166,1.202-3.63,1.379c-0.412,0.641-0.906,1.266-1.513,1.864c-1.305,1.285-4.51,2.07-6.094,0.829
	c-0.199-0.156-0.382-0.325-0.553-0.502C316.633,309.914,315.351,310.685,314.069,311.455z M434.699,340.135
	c0.008,1.218,0.016,2.436,0.025,3.653c0.07,0.272,0.135,0.546,0.208,0.818c12.398,0.557,24.797,1.125,37.192,1.748
	c3.915,0.197,7.83,0.393,11.743,0.624c1.292,0.077,3.299-0.155,4.513,0.428c0.068,0.033,0.112,0.074,0.156,0.116
	c7.157-2.69,14.147-5.801,21.079-9.06c-2.092-5.013-4.225-10.008-6.438-14.97C480.881,331.319,456.033,329.435,434.699,340.135z
	 M526.779,356.092c1.911-8.521,3.312-17.138,3.586-25.709c-5.823,2.739-11.609,5.57-17.424,8.33
	c2.753,6.615,5.45,13.254,8.169,19.883L526.779,356.092z M521.869,360.446c0.8,1.945,1.606,3.887,2.416,5.828
	c0.676-2.571,1.329-5.155,1.94-7.751L521.869,360.446z M475.166,398.545c-0.122,0.093-0.27,0.177-0.433,0.25
	c0.217,0.277,0.209,0.562,0.062,0.817c0.029,0.025,0.055,0.052,0.072,0.081C474.966,399.311,475.067,398.928,475.166,398.545z
	 M449.026,413.994c0.659-1.258,1.406-3.055,2.563-3.858c-4.909-4.919-10.521-9.056-16.338-12.917
	c0.066,5.617,0.148,11.235,0.238,16.852L449.026,413.994z M471.242,399.305c-8.432-7.216-17.555-13.634-25.472-21.411l-9.373-0.045
	c-0.324,0.259-0.831,0.437-1.313,0.481c-0.014,0.006-0.028,0.013-0.042,0.02c0.017,1.586,0.033,3.172,0.049,4.757
	c0.039,3.723,0.083,7.445,0.126,11.168c6.643,4.298,13.122,8.851,18.711,14.374C459.368,404.963,465.437,402.381,471.242,399.305z
	 M414.657,391.614c-0.059,0.002-0.118,0.004-0.174-0.001c-6.066-0.581-12.198-0.891-18.339-1.205
	c0.333,3.361,0.666,6.721,0.985,10.073c0.124,1.301,0.25,2.601,0.375,3.901c2.886,0.636,5.346,2.208,7.722,4.285
	C408.193,402.884,411.348,397.206,414.657,391.614z M394.673,405.872c-2.044-0.205-4.246,0.182-6.755,1.292
	c-2.738,1.211-5.438,2.354-8.275,3.195c1.638,1.245,3.239,2.625,4.814,4.001l11.011-0.063
	C395.204,411.488,394.942,408.68,394.673,405.872z M353.886,356.563c1.161-0.09,2.368-0.009,3.562,0.209
	c-1.266-4.299-2.21-9.177-2.047-13.688c-1.794-0.065-3.589-0.12-5.383-0.182c1.73,2.678,2.757,9.382,3.159,10.902
	C353.419,354.722,353.648,355.644,353.886,356.563z M374.426,333.26c-1.28-2.284-3.017-3.79-5.462-3.681
	c-7.852,0.349-10.489,5.614-10.802,11.846c6.156,0.22,12.312,0.452,18.467,0.694c-0.367-1.893-0.981-3.796-1.418-5.604
	C374.948,335.43,374.688,334.345,374.426,333.26z M358.131,343.176c0.078,5.263,1.558,10.935,2.831,14.804
	c0.334,1.015-2.061,1.286-2.605,1.075c-1.223-0.473-2.692-0.894-4.072-0.942c1.406,5.503,2.741,11.023,4.042,16.552
	c0.307,0.097,0.604,0.209,0.922,0.288c0.467,0.115,0.589,0.311,0.53,0.522l11.59,0.057c0-0.001-0.001-0.001-0.002-0.002
	c-0.257-0.595-0.494-1.193-0.72-1.793c-2.338-3.901-6.44-6.022-10.547-8.289c-1.224-0.675,1.438-1.907,2.298-1.433
	c2.264,1.25,4.517,2.47,6.505,3.938c-1.213-5.246-1.554-10.635-1.584-16.136c-0.004-0.777,2.896-1.18,2.897-0.776
	c0.042,7.5,0.659,14.793,3.284,21.798c0.486,0.823,0.894,1.725,1.218,2.71l0.276,0.001c1.766-7.877,3.213-15.877,4.737-23.863
	c-0.417-0.011-0.757-0.144-0.845-0.449c-0.425-1.479-0.766-3.946-1.228-6.695c-0.415,0.021-0.727-0.038-0.735-0.203
	c-0.008-0.145-0.027-0.291-0.04-0.437C370.633,343.655,364.383,343.407,358.131,343.176z M406.847,372.267
	c-0.107,0.386-0.604,0.685-1.157,0.847c0.844,0.11,1.666,0.282,2.461,0.511c1.94-1.34,4.019-2.472,6.274-3.28
	c1.421-0.509,3.114,0.82,1.227,1.496c-1.876,0.673-3.609,1.579-5.228,2.651c0.726,0.35,1.412,0.764,2.055,1.24l19.632,0.096
	c-0.022-2.089-0.043-4.179-0.065-6.269c-0.848-1.775-1.972-3.388-3.308-4.779c-0.88,0.648-2.603,0.623-2.444-0.519
	c0.073-0.524,0.096-1.033,0.096-1.536c-4.009-2.918-9.229-4.1-14.616-2.431c-0.447,0.138-0.8,0.136-1.056,0.052
	C409.284,364.267,407.967,368.23,406.847,372.267z M487.006,347.371c-2.556,0.68-1.641,1.164-1.004,1.398
	c0.007-0.022,0.016-0.045,0.028-0.068C485.695,348.315,485.953,347.651,487.006,347.371z M484.95,348.831
	c-1.196-0.08-2.393-0.149-3.59-0.217c-4.274-0.24-8.549-0.456-12.825-0.667c-11.035-0.545-22.071-1.059-33.108-1.559
	c2.617,9.196,6.406,18.026,9.811,26.963c0.8,0.868,1.616,1.719,2.448,2.553l33.249,0.162c2.386-9.079,4.933-18.104,7.956-26.966
	c-0.302,0.112-0.6,0.23-0.902,0.34c-0.897,0.327-1.964-0.045-2.001-0.535C485.64,348.878,485.295,348.854,484.95,348.831z
	 M440.417,375.869l2.585,0.013c-0.129-0.345-0.26-0.689-0.39-1.033C441.885,375.192,441.152,375.531,440.417,375.869z
	 M434.944,368.838c0.938,2.02,1.538,4.257,1.722,6.66c1.761-0.816,3.523-1.623,5.256-2.459c-2.391-6.216-4.938-12.391-7.115-18.682
	C434.849,359.184,434.895,364.011,434.944,368.838z M395.432,375.649l10.016,0.049c0.245-0.208,0.496-0.408,0.746-0.609
	C402.874,373.996,399.017,374.188,395.432,375.649z M384.793,382.138c1.227-1.731,2.768-3.241,4.498-4.519l-11.932-0.058
	c-0.433,1.84-0.882,3.675-1.358,5.502c-0.262,1.008-3.185,1.443-2.9,0.352c0.506-1.945,0.982-3.903,1.438-5.868l-15.552-0.076
	c0.383,1.637,0.767,3.273,1.149,4.91c0.062,0.265,0.122,0.531,0.183,0.795c3.443,1.36,7.187,1.926,10.776,0.651
	c1.286-0.457,3.046,0.456,1.13,1.137c-1.38,0.49-2.879,0.836-4.424,1.02c8.295,1.445,16.741,2.044,25.197,2.498
	c-0.353-3.613-0.703-7.229-1.032-10.849l-0.132-0.001c-1.632,1.159-3.129,2.62-4.387,4.395
	C386.999,382.656,384.149,383.047,384.793,382.138z M355.983,377.788c-0.845,1.007-0.326,2.208,0.759,3.251
	C356.489,379.955,356.237,378.872,355.983,377.788z M351.378,358.844c-0.625,0.449-1.122,1.128-1.413,2.115
	c-0.467,1.587-0.586,3.256-0.155,4.875c0.822,3.088,2.6,5.523,5.045,7.176C353.736,368.278,352.585,363.554,351.378,358.844z
	 M361.115,386.658c1.462,6.472,2.846,13.006,4.311,19.526c4.617-1.369,8.866,0.387,12.886,3.2c5.057-1.53,9.84-4.807,15.071-5.258
	c0.381-0.033,0.752-0.047,1.119-0.051c-0.166-1.734-0.333-3.469-0.497-5.203c-0.272-2.869-0.553-5.742-0.834-8.618
	C382.388,389.69,371.604,388.98,361.115,386.658z M362.922,408.624c-3.436,1.668-6.645,3.713-9.758,5.912l11.113-0.063
	C363.814,412.527,363.365,410.576,362.922,408.624z M367.348,414.456l12.6-0.071c-0.516-0.429-1.034-0.855-1.557-1.276
	c-3.909-3.149-7.826-6.474-12.645-5.513C366.266,409.887,366.798,412.174,367.348,414.456z M416.623,388.342
	c-0.835,0.279-1.879,0.296-1.877-0.088c0.016-4.728-1.584-8.226-4.058-10.53l-4.3-0.021c-1.212,1.122-2.366,2.318-3.46,3.572
	c-0.767,0.879-3.563,0.652-2.384-0.699c0.87-0.997,1.781-1.961,2.726-2.888l-8.353-0.041c0.336,3.667,0.69,7.33,1.052,10.99
	c6.569,0.336,13.133,0.645,19.624,1.266c0.032,0.003,0.055,0.01,0.085,0.014C415.992,389.391,416.306,388.865,416.623,388.342z
	 M417.702,386.545c0.27-0.44,0.926-0.692,1.548-0.746c0.383-0.26,0.941-0.454,1.422-0.493c0.036-0.041,0.065-0.08,0.11-0.123
	c3.253-3.075,7.06-5.351,11.031-7.357l-17.202-0.084c1.774,2.169,2.877,5.133,3.003,8.949
	C417.644,386.643,417.672,386.594,417.702,386.545z M422.615,386.226c3.181,2.079,6.433,4.109,9.676,6.171
	c-0.032-2.838-0.067-5.676-0.097-8.514c-0.014-1.365-0.028-2.729-0.042-4.094c-3.239,1.692-6.323,3.624-8.976,6.131
	C423.035,386.054,422.837,386.153,422.615,386.226z M475.73,396.36c1.566-6.097,3.098-12.206,4.683-18.296l-30.669-0.15
	c7.455,7.06,15.866,13.046,23.677,19.721C473.973,397.258,474.762,396.827,475.73,396.36z M478.908,394.948
	c6.603-2.762,16.136-5.95,17.209-6.35c1.146-0.427,2.292-0.856,3.439-1.282c1.754-6.3,3.485-12.719,4.928-19.193l-21.093,9.313
	C481.872,383.266,480.403,389.111,478.908,394.948z M505.005,365.707c1.725-8.2,2.923-16.474,3.039-24.697
	c-5.264,2.438-10.567,4.774-15.962,6.882c-3.069,8.894-5.642,17.956-8.047,27.075L505.005,365.707z M508.05,364.362l10.336-4.564
	c-2.494-6.078-4.966-12.164-7.479-18.234C510.697,349.154,509.607,356.788,508.05,364.362z M416.638,345.555
	c-1.859,4.381-3.675,8.778-5.345,13.23c0.026-0.009,0.042-0.022,0.068-0.03c5.141-1.592,10.295-1.07,14.603,1.007
	c-0.381-1.272-0.998-2.482-1.841-3.646c-0.882-1.218,1.878-2.347,2.652-1.277c1.546,2.135,2.446,4.476,2.553,7.003
	c0.964,0.74,1.859,1.569,2.667,2.484c-0.06-6.033-0.112-12.066-0.157-18.099C426.772,345.999,421.705,345.774,416.638,345.555z
	 M413.985,345.441c-6.996-0.301-13.992-0.596-20.988-0.883c0.103,10.028,0.773,20.069,1.655,30.093
	c3.037-1.206,6.277-1.793,9.343-1.672c-0.065-0.094-0.089-0.211-0.048-0.359C406.541,363.266,410.198,354.332,413.985,345.441z
	 M384.132,344.195c-2.138,10.451-3.952,20.998-6.31,31.368l13.968,0.068c-0.921-10.389-1.634-20.797-1.705-31.193
	C388.1,344.357,386.116,344.275,384.132,344.195z M381.223,344.076c-0.254-0.01-0.508-0.021-0.762-0.031
	c0.124,0.685,0.244,1.357,0.364,2.012C380.956,345.396,381.089,344.736,381.223,344.076z M373.367,328.872
	c-0.648-2.712-1.285-5.427-1.896-8.148c-0.222-0.986-0.445-1.977-0.668-2.969c-16.633,6.799-32.285,16.018-48.991,22.637
	c0.687,0,1.212,0.02,1.366,0.021c6.028,0.044,12.056,0.239,18.081,0.43c4.753,0.15,9.506,0.324,14.259,0.491
	c0.688-6.462,4-11.854,12.464-13.151C370.155,327.85,371.918,328.139,373.367,328.872z M319.333,341.776
	c0.182-0.132,0.315-0.312,0.306-0.548c-0.006,0.002-0.013,0.005-0.02,0.008c-0.012,0.194-0.119,0.375-0.288,0.535
	C319.333,341.772,319.333,341.774,319.333,341.776z M326.896,377.314c3.167,14.071,6.471,28.109,9.764,42.129
	c1.314,5.595,2.643,11.188,3.979,16.777c0.121,0.012,0.233,0.035,0.323,0.08c-0.689-0.342,1.001-0.027,1.519-0.016
	c1.544,0.035,3.089,0.051,4.634,0.063c4.893,0.037,9.786,0.039,14.679,0.036c2.861-0.002,5.723-0.013,8.584-0.018
	c-2.167-6.514-3.98-13.174-5.616-19.894l-14.389,0.081c-3.135,2.319-6.216,4.719-9.377,6.967c-0.665,0.473-3.587,0.565-2.292-0.356
	c2.923-2.079,5.814-4.361,8.758-6.594l-10.692,0.061l-0.012-2l13.411-0.076c3.933-2.868,8.011-5.503,12.435-7.336
	c-1.603-7.133-3.111-14.282-4.737-21.342c-1.477-0.378-2.95-0.782-4.413-1.236c3.307,6.823,6.209,13.834,7.509,21.347
	c0.249,1.439-2.654,2.184-2.897,0.776c-1.36-7.856-4.456-15.18-7.971-22.293c-0.699-1.414,2.044-2.519,2.646-1.303
	c0.101,0.204,0.197,0.409,0.297,0.613c0.389-0.461,1.382-0.882,1.998-0.805c-0.115-0.089-0.235-0.17-0.347-0.263
	c-2.508-2.081-2.416-3.881-1.112-5.267L326.896,377.314z M398.453,414.28l11.516-0.065c-1.421-0.941-2.847-1.874-4.257-2.831
	c-0.475,0.052-0.936-0.024-1.202-0.238c-0.277,0.001-0.516-0.051-0.658-0.186c-2.068-1.971-4.05-3.451-6.129-4.308
	C397.969,409.194,398.213,411.737,398.453,414.28z M414.126,414.191l18.454-0.104c-0.098-6.262-0.184-12.524-0.256-18.786
	c-4.078-2.631-8.208-5.177-12.226-7.808c-4.456,7.306-8.676,14.742-12.555,22.371c0.071,0.017,0.135,0.039,0.187,0.073
	C409.847,411.379,411.987,412.786,414.126,414.191z M417.153,416.175c5.142,3.32,10.349,6.537,15.624,9.641
	c-0.034-1.646-0.066-3.292-0.095-4.939c-0.028-1.596-0.046-3.193-0.072-4.789L417.153,416.175z M435.728,427.521
	c1.619,0.935,3.244,1.862,4.875,2.775c0.75-2.328,2.685-5.597,3.006-6.221c1.397-2.713,2.836-5.406,4.318-8.074l-12.408,0.07
	c0.026,1.604,0.044,3.208,0.073,4.813C435.634,423.096,435.677,425.308,435.728,427.521z M464.299,413.908
	c0.056-0.101,0.102-0.186,0.132-0.244c1.687-3.273,3.413-6.528,5.231-9.731c0.282-0.497,0.575-1.129,0.905-1.766
	c-5.797,2.943-11.775,5.559-16.958,9.548c-0.209,0.161-0.454,0.255-0.706,0.3c-0.356,0.593-0.71,1.186-1.052,1.788
	c-0.033,0.058-0.063,0.117-0.096,0.175L464.299,413.908z M467.014,413.893l4.006-0.022c1.312-4.57,2.542-9.167,3.742-13.775
	c-0.09,0.097-0.222,0.203-0.416,0.318c0.704-0.418-0.112,0.341-0.334,0.706c-0.458,0.751-0.904,1.509-1.338,2.274
	c-1.251,2.204-2.468,4.427-3.655,6.667C468.344,411.334,467.672,412.61,467.014,413.893z M473.928,413.511l20.462-8.242
	c1.202-3.949,2.36-7.912,3.47-11.887c0.407-1.457,0.818-2.924,1.229-4.395c-3.919,1.46-7.839,2.921-11.75,4.403
	c-2.807,1.064-5.617,2.125-8.394,3.263c-0.178,0.073-0.354,0.152-0.532,0.226C476.981,402.444,475.511,407.997,473.928,413.511z
	 M497.463,404.031l18.108-7.293c1.629-5.208,3.186-10.44,4.654-15.695c0.008-0.03,0.017-0.061,0.026-0.092
	c-3.589,1.459-7.227,2.811-10.842,4.176c-2.423,0.915-4.852,1.817-7.278,2.722c-0.472,1.682-0.944,3.357-1.413,5.019
	C499.667,396.599,498.583,400.32,497.463,404.031z M520.746,379.184c0.761-2.717,1.528-5.458,2.283-8.221
	c-1.309-3.099-2.602-6.204-3.883-9.314l-11.602,5.123c-1.43,6.548-3.17,13.042-4.946,19.41c4.547-1.696,9.091-3.401,13.607-5.175
	C517.723,380.411,519.237,379.805,520.746,379.184z M527.741,368.997c1.057-3.248,2.211-6.465,3.437-9.654
	c0.32-0.833,0.668-2.123,1.108-3.496l-2.994,1.322c-1.018,4.398-2.158,8.766-3.338,13.083c0.254,0.602,0.512,1.203,0.768,1.805
	C527.023,370.98,527.441,369.918,527.741,368.997z M521.3,291.64c-2.563,5.224-5.327,10.358-8.072,15.47
	c-2.45,4.562-4.669,9.807-7.709,14.099c1,0.013,1.754,0.672,0.44,1.246c2.182,4.883,4.284,9.8,6.346,14.733
	c6.025-2.864,12.023-5.799,18.064-8.624c-0.675-2.425-1.373-4.846-2.071-7.266c-0.018,0-0.035-0.001-0.052-0.001
	c-0.579-0.021-0.457-0.22-0.077-0.444C525.385,311.206,522.618,301.563,521.3,291.64z M452.791,315.509
	c1.042,0.464-0.24,2.156-1.535,2.101c-0.087-0.004-0.174-0.006-0.261-0.01c-5.674,6.597-11.329,13.207-16.311,20.349
	c0.001,0.164,0.002,0.328,0.003,0.491c21.271-9.942,45.451-8.378,67.411-16.127c-0.057-0.2-0.003-0.449,0.233-0.754
	c3.443-4.441,6.013-10.696,8.708-15.753c3.36-6.303,6.761-12.628,9.745-19.129c-0.05-0.628-0.086-1.259-0.122-1.889
	c-18.153,4.95-36.225,10.73-54.997,12.763c0.785-0.069,1.453,0.117,1.038,0.693C462.385,304.251,457.609,309.897,452.791,315.509z
	 M428.14,316.954c-1.597,4.57-3.263,9.114-5.116,13.584c-1.842,4.445-3.761,8.86-5.651,13.287c4.81,0.212,9.619,0.424,14.428,0.639
	c-0.309-1.206-0.601-2.417-0.861-3.637c-0.009-0.043-0.005-0.086,0.009-0.129c-0.097-0.173,0.027-0.401,0.544-0.676
	c0.031-0.017,0.062-0.031,0.093-0.047c-0.525-0.043-0.856-0.259-0.545-0.717c0.243-0.358,0.496-0.709,0.742-1.064
	c-0.04-6.705-0.069-13.41-0.071-20.115c0-0.826,2.897-1.242,2.897-0.776c0.001,5.629,0.02,11.259,0.049,16.889
	c4.304-5.769,8.991-11.234,13.688-16.695C441.613,317.232,434.878,317.044,428.14,316.954z M399.185,298.138
	c2.425-0.619,4.944-0.82,7.43-1.105c2.01-0.23,4.14-0.376,6.072-1.008c0.414-0.135,3.224-1.505,2.102-2.371
	c-1.726-1.332-5.184-0.893-7.218-0.846c-1.851,0.043-3.7,0.169-5.551,0.201C401.037,294.707,400.092,296.418,399.185,298.138z
	 M392.322,313.609c0.709,0.104,0.322,0.512-0.313,0.858c-0.922,2.582-1.77,5.187-2.552,7.813c4.857-0.284,15.953-0.815,14.575,3.011
	c-0.811,2.252-5.156,2.823-7.081,3.112c-3.042,0.457-6.451,0.226-9.449,0.951c-0.777,3.024-1.49,6.068-2.161,9.125
	c0.103,0.265,0.189,0.541,0.297,0.801c0.074,0.177-0.2,0.401-0.604,0.595c-0.183,0.85-0.363,1.7-0.541,2.551
	c2.267,0.092,4.532,0.186,6.799,0.28c0.79-0.201,1.671-0.213,1.672,0.044c0,0.009,0,0.018,0,0.026
	c7.252,0.303,14.504,0.612,21.756,0.931c2.293-5.365,4.612-10.722,6.751-16.155c1.381-3.507,2.759-7.07,4.106-10.668
	c-1.516-0.284-0.993-2.224,0.592-2.208c0.076,0.001,0.152,0.002,0.229,0.003c4.663-12.636,8.865-25.715,11.334-38.679
	c1.041-5.464,3.812-16.654-1.218-21.073c-4.477-3.933-12.854,7.574-15.154,10.419c-6.545,8.092-12.98,16.922-18.434,26.116
	c2.613-0.047,14.363-1.852,14.971,1.904c0.376,2.319-3.973,3.833-5.545,4.191c-4.457,1.016-9.418,0.64-13.726,2.169
	c-0.101,0.036-0.206,0.061-0.311,0.081c-0.511,1.002-1.012,2.005-1.494,3.012C395.137,306.357,393.653,309.96,392.322,313.609z
	 M387.846,328.046c1.622-0.294,3.318-0.328,4.938-0.464c1.813-0.152,7.217,0.018,8.322-1.778c1.436-2.334-6.005-2.262-6.889-2.258
	c-1.727,0.006-3.45,0.094-5.174,0.164C388.627,325.15,388.229,326.595,387.846,328.046z M380.116,315.058
	c0.124,0.616,0.248,1.235,0.372,1.849c1.037,5.134,1.785,10.833,3.148,16.165c0.748-3.119,1.56-6.217,2.455-9.287
	c-1.047-0.057-0.459-0.666,0.314-1.063c0.79-2.642,1.647-5.261,2.584-7.854C386.018,314.648,383.072,314.629,380.116,315.058z
	 M373.029,286.708c-1.029,0.486-2.262,0.8-3.702,0.911c-0.038,0.078-0.08,0.152-0.121,0.228c0.195,9.244,2.077,18.528,4.129,27.596
	c0.68,0.183,1.032,0.694,0.261,1.151c0.348,1.522,0.697,3.039,1.042,4.546c1.15,5.019,3.026,10.378,4.19,15.672
	c0.539,1.748,0.946,3.609,1.299,5.444c0.485,0.02,0.971,0.038,1.457,0.057c0.236-1.142,0.478-2.282,0.725-3.421
	c-2.478-6.604-3.365-14.408-4.72-21.208C375.566,307.525,373.452,297.108,373.029,286.708z M370.906,268.358
	c2.26,2.246,4.045,5.094,5.053,8.07c0.444,1.312,0.687,2.535,0.747,3.659c2.72-1.82,2.356-5.282,1.072-8.327
	c-0.813-1.929-5.108-7.409-6.651-3.728C371.075,268.155,370.996,268.261,370.906,268.358z M360.116,268.807
	c2.915,1.512,5.459,4.396,7.134,6.827c1.59,2.309,3.186,6.795,2.617,10.23c1.456-0.107,2.451-0.589,3.093-1.315
	c-0.004-0.235-0.021-0.471-0.023-0.707c-0.002-0.279,0.334-0.512,0.776-0.68c0.841-2.767-0.792-6.982-2.265-9.433
	c-2.129-3.54-5.082-7.593-9.875-5.475C361.078,268.473,360.596,268.651,360.116,268.807z M344.388,281.569
	c2.429-1.038,4.909-1.946,7.426-2.675c0.099-0.114,0.342-0.25,0.802-0.404c2.767-0.932,7.387-2.315,8.634,1.501
	c0.668,2.043,0.645,4.432,1.605,6.365c1.418,2.854,2.653,2.659,3.459,1.35c0.017-0.046,0.043-0.091,0.077-0.135
	c0.759-1.347,1.104-3.691,0.803-5.243c-0.929-4.789-9.423-16.941-14.591-11.78C349.545,273.604,346.313,277.48,344.388,281.569z
	 M278.675,215.31c-1.367,0.294-2.754,0.461-4.112,0.511c-9.073,0.333-17.487-1.544-24.474,5.815c-0.203,0.213-0.54,0.356-0.907,0.43
	c-2.25,1.536-4.986,2.184-7.509,0.356c-5.005-3.624-5.285-9.633-8.15-14.661c-0.793-1.393-1.736-2.496-2.78-3.354
	c-1.071-0.597-2.247-1.242-3.35-1.829c-5.849-1.872-13.14,1.542-16.993,7.022c-4.149,5.901-6.13,12.939-6.251,20.117
	c-0.005,0.298-0.25,0.549-0.591,0.741c-0.553,0.706-2.335,0.987-2.805,0.036c-1.71-3.465-2.887-7.248-3.513-11.131
	c-1.774,8.581-2.326,17.5-2.625,26.169c-0.499,14.391-0.025,28.839,1.387,43.169c0.277,2.816,0.59,5.637,0.931,8.456
	c2.914-2.316,6.21-4.116,9.44-6.011c2.497-1.464,4.953-2.987,7.153-4.857c0.229-0.195,0.774-0.344,1.305-0.401
	c-0.122-0.347-0.244-0.692-0.361-1.039c-0.816-2.421-1.511-4.84-2.112-7.166c-3.166-12.252-4.51-24.85-7.118-37.216
	c-0.259-1.226,2.646-1.969,2.897-0.776c2.496,11.835,3.689,23.948,6.719,35.671c2.603,10.07,6.35,21.773,14.841,28.503
	c0.539,0.427,1.095,0.837,1.673,1.223c0.573,0.382,1.153,0.743,1.738,1.092c15.333,9.175,34.536,7.607,51.535,11.509
	c3.403-6.045,7.515-16.551,13.168-23.877c-0.569,0.23-1.222,0.373-1.546,0.258c-14.073-4.985-34.755-3.452-45.06-16.061
	c-5.159-6.313-8.984-13.863-11.999-21.4c-2.913-7.284-5.693-15.173-5.546-23.123c0.019-1.008,2.911-1.484,2.897-0.776
	c-0.146,7.895,2.556,15.914,5.546,23.123c0.903,2.177,1.86,4.398,2.885,6.607c1.857-0.937,3.544-1.979,5.083-3.116
	c3.302-2.44,5.917-5.321,7.991-8.58c3.289-5.168,5.246-11.267,6.495-18.016c0.226-1.221,3.182-1.631,2.927-0.255
	c-0.529,2.861-1.198,5.594-2.023,8.2c0.004,0.006,0.01,0.009,0.014,0.015c5.239,7.878,9.248,16.577,14.288,24.587
	c0.481-0.008,0.878,0.134,0.934,0.489c0.067,0.425,0.136,0.85,0.203,1.274c0.992,1.505,2.022,2.985,3.118,4.422
	c5.66,7.424,12.241,11.759,20.211,16.244c3.333-2.063,7.103-2.726,11.407-1.098c2.995-1.21,5.998-1.422,8.646-0.694
	c4.243-2.6,7.772-1.711,10.091,0.801c2.172-1.3,4.414-2.533,6.719-3.651c0.38-0.934,0.845-1.902,1.372-2.878
	c-0.053-0.007-0.104-0.016-0.149-0.031c-6.322-2.16-13.157-3.175-19.631-4.809c-6.693-1.689-11.534-4.346-16.435-9.508
	C292.767,251.632,287.591,232.281,278.675,215.31z M292.985,172.84c-2.545,0.349-5.073,0.494-7.348,0.572
	c-7.147,0.245-15.997,0-21.915-4.629c-0.97,9.744-0.226,20.262-6.986,28.157c-5.248,6.128-11.943,10.208-19.962,10.883
	c2.344,5.328,5.779,16.527,10.812,13.278c0.038-0.05,0.071-0.099,0.122-0.152c0.581-0.611,1.173-1.177,1.779-1.702
	c0.017-0.022,0.034-0.039,0.051-0.061c0.07-0.093,0.188-0.178,0.332-0.254c4.095-3.393,8.783-4.896,14.379-5.1
	c7.735-0.281,17.785,1.953,22.696-5.891C293.233,197.898,292.999,184.386,292.985,172.84z M249.952,69.129
	c-0.024,0.021-0.079,0.051-0.215,0.108c0.085-0.035,0.171-0.061,0.256-0.082C249.979,69.146,249.966,69.138,249.952,69.129z
	 M150.812,526.952c-10.243-3.098-16.688-14.093-19.104-24.393c-3.39-14.452-4.94-29.544-7.339-44.19
	c-12.345-75.387-25.057-150.714-37.106-226.15c-5.004-31.333-10.047-62.677-14.318-94.12c-0.665-4.896-1.313-9.794-1.882-14.702
	c-0.87-7.505,0.496-17.764,7.613-22.301c5.564-3.547,14.117-4.194,20.405-5.506c30.508-6.37,61.293-11.484,92.017-16.677
	c13.688-2.313,27.382-4.591,41.08-6.847c4.344-0.715,8.688-1.428,13.031-2.143c1.212-0.2,2.424-0.398,3.635-0.602
	c0.182-0.031,0.871-0.203,1.069-0.215c-2.125-1.324-4.418-2.357-6.894-2.831c-0.941-0.18-1.901-0.312-2.861-0.319
	c-0.277-0.002-0.471,0.033-0.593,0.066c0.117-0.055,0.303-0.157,0.576-0.343c-0.481,0.33-1.254,0.357-1.794,0.186
	c-0.3,0.208-0.715,0.391-1.124,0.447c-3.197,0.435-6.393,0.872-9.588,1.316c-31.426,4.366-62.791,9.155-94.099,14.297
	c-15.334,2.519-30.681,4.975-46.009,7.515c-13.533,2.243-33.801,6.66-35.662,23.13c-0.887,7.852,0.587,15.467,1.89,23.18
	c1.292,7.65,2.574,15.303,3.835,22.958c2.585,15.683,5.112,31.375,7.564,47.079c2.468,15.806,4.876,31.622,7.218,47.447
	c2.249,15.195,5.813,30.046,7.782,45.273c4.138,31.998,9.463,63.819,14.869,95.623c2.698,15.875,5.412,31.75,7.974,47.648
	c2.538,15.748,5.608,31.65,7.055,47.541c0.947,10.398,1.958,23.242,10.374,30.651C129.039,527.548,139.963,528.286,150.812,526.952z
	 M264.181,492.243c-0.763-0.243-1.524-0.5-2.28-0.79c-1.449-0.558-0.263-1.959,0.938-2.123c-0.009-0.02-0.021-0.037-0.022-0.06
	c-0.072-1.503-0.209-3.014-0.371-4.528c-0.111-1.039-0.235-2.08-0.378-3.122c-0.492-3.576-1.14-7.162-1.796-10.725
	c-37.425,8.198-74.898,16.174-112.26,24.656c-1.733,0.394-2.126-0.971-0.373-1.372c-0.322-0.102-0.579-0.314-0.683-0.662
	c-5.106-17.165-7.566-35.359-10.643-52.958c-11.469-65.599-21.415-131.47-31.517-197.29c-4.342-28.29-8.64-56.586-13.053-84.865
	c-1.354-8.681-2.707-17.364-4.154-26.03c-0.39-2.335-0.78-8.598-1.814-9.912c-0.957-1.216,1.788-2.394,2.646-1.305
	c0.021,0.027,0.039,0.061,0.06,0.088c3.451-0.897,7.163-1.274,10.637-1.916c8.736-1.615,17.474-3.218,26.213-4.815
	c6.078-1.111,12.156-2.221,18.235-3.327c2.846-0.518,5.396-1.271,8.131-0.031c3.49,1.583,6.342,4.132,9.47,6.294
	c1.58,1.091,3.386,2.495,5.301,2.921c2.38,0.529,5.165-0.469,7.506-0.893c4.401-0.796,8.803-1.588,13.205-2.381
	c1.875-0.338,3.75-0.678,5.625-1.015c2.446-0.44,4.969-0.375,6.572-2.214c0.214-0.246,0.413-0.522,0.592-0.841
	c0.818-1.459,1.506-2.969,2.155-4.51c1.033-2.45,2.001-5.835,4.094-7.643c1.558-1.346,3.317-1.666,5.236-1.962
	c0.515-0.08,1.039-0.157,1.577-0.253c9.834-1.749,19.668-3.502,29.518-5.163c2.1-0.354,5.823-1.648,8.664-1.739
	c0.8-0.025,1.534,0.039,2.137,0.253c0.216,0.077,0.555,0.218,0.587,0.495c0.912,7.8,2.684,15.58,3.998,23.32
	c0.821,4.835,1.647,9.671,2.397,14.518c0.169,1.09,1.277,4.499,0.698,5.761c1.375,0.13,2.71,0.34,3.979,0.651
	c2.07,0.508,3.91,1.276,5.648,2.194c0.004-1.569-0.656-4.034-0.806-5.151c-0.51-3.807-1.075-7.606-1.675-11.399
	c-1.509-9.548-3.119-19.092-5.087-28.558c-1.761-8.469-4.148-17.887-11.286-23.429c-0.099,0.233-0.331,0.458-0.753,0.633
	c-4.831,1.998-11.464,1.984-16.571,2.825c-13.638,2.244-27.274,4.506-40.902,6.808c-30.904,5.219-61.873,10.342-92.564,16.716
	c-4.763,0.989-9.532,1.99-14.244,3.202c-1.736,0.446-5.209,0.992-6.311,2.042c-10.959,10.441-5.511,28.428-3.629,41.764
	c10.337,73.25,22.852,146.214,34.919,219.194c5.634,34.077,11.315,68.146,16.869,102.235c1.931,11.852,2.973,24.32,5.992,35.949
	c2.858,11.008,10.145,24.437,23.357,23.782c0.307-0.015,0.547,0.031,0.738,0.112c3.487-0.674,6.905-1.445,10.167-2.148
	c31.221-6.732,62.395-13.679,93.646-20.268c0.175-0.037,0.316-0.056,0.443-0.068C262.978,499.424,263.39,495.67,264.181,492.243z
	 M300.574,497.001c-0.011,0.002-0.023,0.004-0.034,0.006c-1.196,0.218-1.326-0.354-0.937-0.899c-1.607-1.604-2.927-3.462-3.88-5.617
	c-9.211,3.668-19.262,4.877-28.913,2.495c-1.296,6.41-1.355,13.964,0.046,20.167c1.669,7.394,6.528,10.106,13.762,10.361
	c13.811,0.487,28.253,1.56,42-0.042c3.427-0.399,14.848-1.514,12.297-7.515c-2.008-4.725-7.985-6.75-12.405-8.448
	C315.487,504.811,306.535,502.283,300.574,497.001z M297.417,317.567c-2.725,0.719-5.563,0.81-8.444,0.79
	c4.924,31.331,10.142,62.616,15.83,93.816c2.563,14.062,5.223,28.105,8,42.127c0.247,1.246,0.485,2.494,0.733,3.74
	c0.076,0.379-0.195,0.763-0.516,0.945c-3.512,1.993-7.286,2.433-11.063,3.586c0.909,5.369,1.808,10.743,2.544,16.139
	c0.253,1.859,1.328,5.337,0.455,7.164c-0.179,0.375-0.738,0.638-1.312,0.739c-0.052,0.037-0.1,0.075-0.16,0.11
	c-1.642,0.952-3.33,1.822-5.05,2.611c0.918,2.243,2.196,4.126,3.748,5.73c5.536-0.986,11.587-2.013,16.296-5.139
	c6.736-4.473,7.193-10.26,7.193-17.739c0-9.488-1.941-18.983-3.525-28.32c-1.399-8.252-2.895-16.488-4.486-24.706
	C311.095,385.258,303.337,351.594,297.417,317.567z M304.194,314.35c0.036-0.028,0.071-0.056,0.106-0.085
	c3.11-2.626,2.677-11.168-1.901-11.877c-0.793-0.123-0.983-0.507-0.846-0.904c-0.119,0.061-0.232,0.125-0.383,0.169
	c-5,1.446-5.002,12.239,0.334,13.303C302.577,315.169,303.474,314.912,304.194,314.35z M410.598,474.47
	c-1.895,0.958-3.787,1.922-5.679,2.886c-5.466,2.783-10.934,5.566-16.414,8.322c-8.468,4.259-16.973,8.972-25.771,12.676
	c0.119-0.006,0.237-0.022,0.356-0.026c0.979-0.033,1.944,0.243,2.868,0.714c22.928-0.069,45.857-0.049,68.785,0.105
	c0.147,0.001,0.275,0.018,0.396,0.042c17.898-6.735,33.739-18.278,51.429-25.498c-0.125-0.016-0.276-0.032-0.5-0.045
	c-0.947-0.057-1.896-0.093-2.844-0.116c-2.979-0.074-5.96-0.092-8.941-0.094c-8.47-0.006-16.939,0.088-25.409,0.206
	c-5.35,0.074-10.7,0.175-16.049,0.269c-3.428,4.864-9.314,7.726-15.266,7.438c-0.219-0.011-0.329-0.048-0.37-0.099
	c-4.32,1.759-9.348,1.541-13.365-1.52c-1.349-1.027,1.163-2.517,2.224-1.708c5.45,4.152,12.848,1.789,16.056-3.925
	c-2.225,0.044-4.449,0.089-6.674,0.138c-0.839,0.019-1.679,0.037-2.518,0.058c-0.255,0.006-0.442,0.029-0.589,0.054
	c0.2-0.072,0.493-0.197,0.893-0.412c-0.014-0.053-0.028-0.105-0.042-0.158c-0.405,0.308-0.954,0.555-1.389,0.55
	c-0.011,0-0.021,0-0.032,0c-0.232-0.002-0.424-0.06-0.568-0.15C410.99,474.274,410.793,474.371,410.598,474.47z M419.138,480.276
	c0.133-0.029,0.245-0.044,0.319-0.041c0.081,0.004,0.159,0,0.239,0.002l-0.449-0.024
	C419.21,480.234,419.174,480.255,419.138,480.276z M486.863,473.569c0.009-0.003,0.018-0.007,0.027-0.011
	c-0.039-0.087-0.06-0.186-0.042-0.307C486.827,473.396,486.842,473.495,486.863,473.569z M364.702,501.258c-0.081,0-0.162,0-0.243,0
	c0.675,0.51,1.384,1.072,2.09,1.676C365.973,502.338,365.354,501.782,364.702,501.258z M351.255,501.368
	c-0.174,0.041-0.345,0.077-0.517,0.115c0.051,0.001,0.101,0.001,0.152,0.002L351.255,501.368z M362.801,513.195
	c-0.057-5.909-4.28-9.144-9.685-9.688c-0.345,0.216-0.771,0.34-1.188,0.266c-13.419-2.382-13.059,21.551,0.526,20.323
	C358.136,523.582,362.859,519.114,362.801,513.195z M362.943,523.394l-3.834,0.639c-0.033,0.02-0.066,0.039-0.098,0.059
	C360.329,524.109,361.663,523.859,362.943,523.394z M421.285,504.792c1.273-1.377,2.897-2.427,4.867-2.952
	c-0.229-0.094-0.125-0.293,0.139-0.51c-19.135-0.104-38.27-0.126-57.406-0.076c1.101,1.104,2.049,2.366,2.767,3.508
	C388.196,504.884,404.741,504.867,421.285,504.792z M441.46,513.195c-0.057-5.909-4.279-9.144-9.684-9.688
	c-0.346,0.216-0.771,0.34-1.188,0.266c-2.94-0.522-5.218,0.22-6.841,1.683c-0.11,0.286-0.417,0.605-0.793,0.849
	c-4.712,5.764-1.921,18.703,8.161,17.792C436.796,523.582,441.518,519.114,441.46,513.195z M441.019,523.589l-2.959,0.269
	c-0.127,0.083-0.261,0.154-0.39,0.233C438.789,524.106,439.919,523.928,441.019,523.589z M449.085,516.612
	c-1.416,2.214-3.313,4.133-4.683,5.368C446.432,520.639,448.12,518.755,449.085,516.612z M505.704,484.267l-4.596,0.766
	c-0.097,0.056-0.192,0.115-0.291,0.169c0.143-0.036,0.266-0.057,0.356-0.054C502.696,485.187,504.242,484.866,505.704,484.267z
	 M504.869,461.103c1.416,0.989,3.219,2.351,4.875,3.9c-0.925-1.103-1.974-2.108-3.132-2.995
	C506.076,461.598,505.49,461.305,504.869,461.103z M492.066,462.791L492,462.773l0.215-0.069c-0.289,0.054-0.574,0.103-0.852,0.142
	C491.595,462.814,491.832,462.809,492.066,462.791z M423.975,466.654c-0.623-0.046-1.25-0.091-1.309-0.215
	c-1.154-2.472-2.876-4.371-4.325-5.662c-1.855-1.111-4.032-1.706-6.308-1.747c-1.024-0.019,0.036-0.625,0.96-0.97l-1.917-0.511
	c0.59,2.02,1.187,4.038,1.813,6.046c0.227,0.725,0.416,2,0.804,2.884c0.115-0.024,0.227-0.041,0.33-0.042c0.009,0,0.018,0,0.026,0
	c0.18,0,0.317,0.018,0.436,0.043C417.565,466.815,420.786,466.748,423.975,466.654z M410.995,457.271
	c0.006,0.019,0.011,0.039,0.017,0.058l0.081-0.026C411.061,457.292,411.025,457.284,410.995,457.271z M402.505,437.981
	c-0.961,0.004-1.922,0.007-2.884,0.011c0.45,1.132,0.627,2.765,0.858,3.613c1.006,3.701,1.977,7.411,2.936,11.125
	c1.261,4.887,3.314,10.228,4.019,15.334c1.121-0.038,2.039,0.794,0.477,1.41c-0.098,0.039-0.195,0.082-0.293,0.121
	c0,0.004,0.001,0.008,0.001,0.012c0.047,0.578-1.577,1.017-2.414,0.982c-17.242,7.281-32.922,18.245-50.506,24.72
	c-0.502,0.185-1.059,0.15-1.458-0.002c-0.296-0.005-0.517-0.078-0.574-0.246c-1.637-4.784-2.856-9.728-4.138-14.614
	c-8.316-31.71-15.729-63.677-22.913-95.66c-0.561-2.495-1.115-4.991-1.671-7.487l-0.295-0.001l0.006-1.291
	c-2.521-11.336-4.975-22.689-7.277-34.072c-0.584-0.207-0.856-0.656-0.215-1.058c-0.259-1.288-0.529-2.573-0.784-3.862
	c-1.531-7.734-3.68-15.902-4.16-23.887c-1.238,0.714-2.495,1.396-3.769,2.046c0.463,7.808,1.85,15.498,3.729,23.091
	c1.792,7.237,4.64,14.509,4.663,22.028c0.014,4.373,1.764,8.975,2.777,13.228c0.906,3.803,1.808,7.608,2.702,11.414
	c1.771,7.544,3.524,15.093,5.278,22.642c7.229,31.118,14.561,62.217,23.417,92.919c1.987-0.187,3.944-0.606,5.901-1.04
	c0.129-0.14,0.353-0.279,0.699-0.406c11.573-4.246,22.613-10.544,33.593-16.091c5.586-2.822,11.16-5.667,16.739-8.502
	c1.477-0.75,4.697-3.21,6.538-2.484c0.208,0.082,0.3,0.188,0.319,0.303c3.122-0.473,7.218,0.146,9.731,0.096
	c9.465-0.187,18.93-0.352,28.396-0.474c2.659-0.035,38.058-0.635,37.818,1.013c-0.024,0.166-0.125,0.316-0.268,0.451
	c0.38,0.291,0.355,0.75-0.601,1.127c-16.413,6.489-31.172,16.843-47.361,23.856c0.076-0.003,0.152-0.015,0.229-0.017
	c1.766-0.06,3.488,0.875,4.995,2.184c19.547-9.09,38.603-19.143,57.129-30.165c-0.099-0.2-0.196-0.4-0.307-0.592
	c-0.163-0.029-0.422-0.073-0.873-0.107c-1.246-0.094-2.494-0.161-3.743-0.215c-3.715-0.163-7.433-0.267-11.151-0.355
	c-10.447-0.25-20.896-0.399-31.344-0.525c-10.076-0.122-20.153-0.219-30.229-0.298c-4.158-0.033-8.619,0.384-12.781-0.047
	c-0.703,0.338-1.696,0.464-2.066,0.046c-0.804-0.906-1.047-2.772-1.388-3.88c-0.891-2.893-1.749-5.795-2.589-8.703
	C405.704,449.793,404.01,443.91,402.505,437.981z M432.932,436.17c-0.026-1.064,0.052-2.167,0.024-3.072
	c-0.047-1.565-0.084-3.131-0.12-4.696c-6.735-3.894-13.367-7.958-19.885-12.203l-14.314,0.081c0.331,3.562,0.651,7.124,0.936,10.688
	c0.155,1.938,1.243,6.542,0.809,9.308c1.648-0.006,3.297-0.012,4.946-0.018C414.528,436.223,423.73,436.191,432.932,436.17z
	 M460.694,436.198c0.295,0.004,0.653-0.015,1.036-0.038c0.126-0.082,0.284-0.163,0.491-0.238c0.621-0.227,1.236-0.467,1.855-0.7
	c2.374-6.363,4.445-12.829,6.353-19.349l-4.412,0.025c-0.248,0.502-0.507,0.999-0.747,1.504c-0.384,0.808-0.778,1.616-1.11,2.447
	c-0.674,1.686-0.056,0.393-1.452,0.716c0.008,0.034,0.009,0.069,0.013,0.104c1.011-0.024,1.771,0.653,0.309,1.305
	c-0.904,0.403-1.433,0.39-1.694,0.1c-6.335,3.334-13.006,6.068-18.717,10.462c-0.727,0.56-1.866,0.351-2.297-0.167
	c-0.251,0.032-0.473,0.021-0.624-0.063c-1.31-0.725-2.6-1.482-3.901-2.221c0.024,0.901,0.042,1.802,0.072,2.703
	c0.033,0.995-0.072,2.24,0.016,3.376c3.897-0.008,7.795-0.021,11.692-0.019C451.949,436.147,456.322,436.146,460.694,436.198z
	 M488.37,424.627c0.889-2.407,1.47-5.135,2.141-7.156c1.073-3.234,2.105-6.482,3.114-9.738l-20.166,8.123l-0.191,0.001h-0.032
	c-1.792,6.103-3.735,12.154-5.932,18.12C474.44,431.147,481.425,427.937,488.37,424.627z M491.575,423.094
	c6.047-2.903,12.082-5.835,18.178-8.614c1.5-2.764,2.234-6.672,3.122-9.348c0.654-1.972,1.296-3.948,1.927-5.929l-18.09,7.287
	c-1.076,3.502-2.182,6.994-3.344,10.468C492.786,418.701,492.271,420.961,491.575,423.094z M527.724,394l-9.831,3.959
	c-0.704,2.226-1.42,4.447-2.161,6.661c-0.791,2.366-1.444,5.699-2.62,8.351c3.174-1.406,6.368-2.76,9.595-4.034
	C524.535,404.01,526.188,399.025,527.724,394z M538.685,353.021l-2.798,1.235c-0.989,2.425-1.94,4.864-2.842,7.322
	c-1.261,3.439-4.222,8.818-3.774,12.597c0.05,0.426-0.562,0.784-1.235,0.97c0.027,0.062,0.052,0.124,0.079,0.186
	c0.03,0.069,0.016,0.142-0.022,0.215c2.953,0.246-1.233,2.535-2.157,2.962c-0.861,0.399-1.735,0.769-2.606,1.146
	c-0.082,0.291-0.165,0.584-0.247,0.875c-1.41,5.006-2.882,9.996-4.423,14.964l9.754-3.929l0.023,0.057
	C532.229,378.883,535.342,365.913,538.685,353.021z M547.5,322.846c-4.705,1.884-9.348,3.925-13.956,6.054
	c1.812,6.541,3.435,13.121,4.402,19.827c0.046,0.319-0.061,0.602-0.25,0.837c0.118,0.047,0.208,0.119,0.232,0.236
	c0.006,0.027,0.012,0.055,0.017,0.083c0.051,0.249-0.161,0.483-0.487,0.674c0.319-0.093,0.016,0.067-0.421,1.006l2.29-1.011
	C541.774,341.222,544.382,331.947,547.5,322.846z M239.566,66.021C239.387,66.07,239.377,66.11,239.566,66.021L239.566,66.021z
	 M275.63,186.133c0,1.157,0,2.313,0,3.47c0,1.479,2.93,1.003,2.93-0.243c0-1.157,0-2.313,0-3.47
	C278.56,184.412,275.63,184.887,275.63,186.133z M288.37,185.821c0,0.964,0,1.928,0,2.892c0,0.432,2.897,0.027,2.897-0.776
	c0-0.964,0-1.928,0-2.892C291.268,184.613,288.37,185.018,288.37,185.821z M282.473,204.049c0.071,0.042,0.076,0.104-0.024,0.193
	c-3.142,2.811-9.331,3.81-13.328,2.759c-6.966-1.831-2.709-9.307-0.104-13.203c0.354-0.528,3.051-1.057,2.852-0.535
	c-0.554,1.443,1.659,4.622,2.395,5.684c1.834,2.645,4.385,5.147,7.828,5.015C282.356,203.951,282.467,203.986,282.473,204.049z
	 M279.108,205.034c-3.105-0.284-5.632-2.268-7.42-4.847c-0.498-0.718-1.448-2.021-2.101-3.348c-1.431,2.562-2.452,5.521-0.661,7.646
	C271.006,206.954,276.349,206.733,279.108,205.034z M162.655,102.442c5.139-1.051,10.28-2.085,15.425-3.106
	c3.57-0.708,7.142-1.407,10.718-2.079c1.274-0.24,2.55-0.471,3.828-0.689c0.416-0.071,0.833-0.136,1.251-0.198
	c0.762-0.113,0.428-0.149,0.047-0.262c0.655,0.095,1.705-0.033,2.092-0.312c0.017-0.012,0.034-0.024,0.05-0.036
	c0.195-0.141,0.471-0.557,0.193-0.769c-0.98-0.747-3.283,0.053-4.317,0.234c-3.855,0.676-7.695,1.444-11.535,2.2
	c-6.044,1.19-12.084,2.407-18.12,3.641C160.514,101.429,160.921,102.797,162.655,102.442z" fill="#0984E3"></path>
</svg>