<?xml version="1.0" standalone="no"?>
<svg version="1.1" id="Layer_1" xmlns="http://www.w3.org/2000/svg" xmlns:xlink="http://www.w3.org/1999/xlink" x="0px" y="0px" width="595.28px" height="595.28px" viewBox="0 0 595.28 595.28" enable-background="new 0 0 595.28 595.28" xml:space="preserve">
<path id="color_x5F_2" fill="#b5ff63" d="M123.032,335.033c-0.739-0.173-1.479-0.322-2.218-0.46l6.358,0.529
	c-0.396,0.22-0.783,0.45-1.16,0.691C125.008,335.521,124.014,335.263,123.032,335.033z M137.879,362.439
	c0.312-0.249,0.664-0.568,1.046-0.941c-2.472,1.341-5.146,2.289-8.06,2.706C133.82,364.034,136.545,363.506,137.879,362.439z
	 M119.879,363.106c0.759,0.379,2.286,0.701,4.143,0.911c-2.222-0.489-4.252-1.385-6.143-2.571
	C118.802,362.321,119.507,362.92,119.879,363.106z M157.646,335.341c-2.684-4.49-11.146-3.48-15.371-2.882
	c-4.477,0.633-9.987,1.49-14.033,3.953C138.292,339.257,149.102,342.724,157.646,335.341z M99.59,339.474
	c7.512-5.928,16.215-4.639,24.796-2.385c-0.082,0.392,0.794,0.52,1.597,0.429c3.499,0.96,6.963,2.015,10.303,2.74
	c7.255,1.574,14.341,1.161,20.398-2.424c-0.627,1.038-1.276,2.109-1.947,3.198l-5.524,8.074c0,0-1.269,1.69-3.003,3.891
	c-5.057,5.716-11.17,9.934-18.791,9.407C115.049,361.549,108.562,346.578,99.59,339.474z M124.743,347.973
	c1.636,0,2.24-2.066,0.271-2.066C123.379,345.906,122.774,347.973,124.743,347.973z M123.76,357.534
	c1.681,0,2.202-2.189,0.238-2.189C122.317,355.345,121.796,357.534,123.76,357.534z M117.308,350.732c1.045,0,3.1-1.586,1.143-1.586
	C117.405,349.146,115.351,350.732,117.308,350.732z M110.346,343.374c0.333,0,0.666,0,1,0c0.68,0,1.531-0.192,1.9-0.838
	c0.336-0.589-0.286-1.031-0.834-1.031c-0.333,0-0.666,0-1,0c-0.68,0-1.531,0.192-1.9,0.838
	C109.176,342.932,109.798,343.374,110.346,343.374z M147.632,330.383c-0.784-0.022-1.588-0.013-2.42,0.056
	c-1.013,0.084-2.059,0.223-3.112,0.399c0.938-0.11,1.859-0.2,2.753-0.27C145.691,330.502,146.637,330.432,147.632,330.383z
	 M109.83,451.515c-0.014-0.018-0.016-0.035-0.036-0.055C109.809,451.475,109.816,451.497,109.83,451.515z M194.385,476.467
	l-3.221,0.04c-41.379-0.079-82.755,0.702-124.131,0.618c9.818-12.218,18.578-25.232,28.815-37.129
	c4.333-5.036,9.146-10.412,14.562-14.719c6.731-4.721,15.175-9.166,22.136-8.171c5.563,0.795,10.691,2.331,15.036,4.139
	c5.941,3.197,11.295,7.792,16.075,12.739c4.86,6.417,14.206,18.469,21.7,28.1C188.437,466.834,191.413,471.653,194.385,476.467z
	 M92.994,466.309c-0.836,0-3.162,1.262-1.23,1.262C92.6,467.57,94.926,466.309,92.994,466.309z M102.352,451.348
	c0-0.743-0.689-1.081-1.362-1.038c-0.608,0.038-1.583,0.481-1.583,1.221c0,0.167,0,0.333,0,0.5c0,0.743,0.689,1.081,1.362,1.038
	c0.608-0.038,1.583-0.481,1.583-1.221C102.352,451.682,102.352,451.515,102.352,451.348z M110.832,442.824
	c1.166,0,3.055-1.77,1.094-1.77C110.76,441.055,108.871,442.824,110.832,442.824z M106.955,465.165c-0.167,0-0.334,0-0.5,0
	c-0.645,0-1.511,0.226-1.918,0.771c-0.41,0.551,0.347,0.778,0.766,0.778c0.167,0,0.334,0,0.5,0c0.645,0,1.511-0.226,1.918-0.771
	C108.131,465.392,107.374,465.165,106.955,465.165z M112.828,451.051c-0.085-0.961-1.063-1.642-1.963-1.722
	c-0.712-0.063-1.568,0.202-1.881,0.911c-0.278,0.635,0.235,1.219,0.863,1.3c0.05,0.077,0.07,0.152,0.082,0.287
	c0.066,0.742,1.229,0.805,1.732,0.67C112.364,452.31,112.894,451.797,112.828,451.051z M118.169,431.923
	c-0.019-0.027-0.041-0.063-0.071-0.111c-0.117-0.189-0.245-0.358-0.396-0.521c-0.507-0.553-1.328-0.561-1.976-0.244
	c-0.477,0.234-1.179,0.989-0.671,1.542c0.234,0.256,0.39,0.556,0.604,0.826c0.299,0.375,0.759,0.568,1.227,0.613
	c0.704,0.068,1.568-0.208,1.883-0.902C119.017,432.581,118.662,432.102,118.169,431.923z M121.926,461.057
	c-1.162,0-3.056,1.765-1.094,1.765C121.994,462.822,123.888,461.057,121.926,461.057z M127.986,444.282
	c-0.868,0-3.152,1.314-1.215,1.314C127.64,445.597,129.924,444.282,127.986,444.282z M138.32,435.354c-0.6,0-3.3,1.172-1.883,1.172
	C137.037,436.525,139.737,435.354,138.32,435.354z M141.458,453.676c-1.006,0-3.112,1.527-1.158,1.527
	C141.306,455.203,143.412,453.676,141.458,453.676z M376.798,355.663c-0.848-0.073-1.669-0.148-2.419-0.223
	c-1.94-0.194-4.784-1.745-7.539-3.569c-2.716-1.368-5.291-2.959-7.641-4.738c0,29.449,0,58.897,0,88.347
	c8.807-7.796,13.283-18.9,19.034-28.888c5.583-9.695,10.646-19.062,13.394-29.97c-3.943,0.106-7.916-0.184-11.542-0.402
	c-0.678-0.041-0.402-0.31,0.129-0.575c-0.003-0.011-0.009-0.021-0.002-0.033c2.981-5.619,4.623-12.252,6.583-18.265
	c0.021-0.066,0.042-0.133,0.064-0.199c-0.024,0-0.051,0.004-0.073,0.004C383.486,357.06,380.116,356.539,376.798,355.663z
	 M454.92,295.605c0.217-0.146,0.512-0.232,0.819-0.27l-0.36-0.396l-10.463,6.841c0.048,0.445,0.095,0.888,0.138,1.32
	C448.17,300.388,451.502,297.913,454.92,295.605z M430.879,334.439c0.717,0.837,1.812,1.295,3.053,1.519
	c-1.103-0.442-2.17-0.993-3.166-1.661C430.803,334.343,430.844,334.398,430.879,334.439z M400.314,321.945
	c-3.374,11.672-6.893,23.306-10.672,34.854c-1.967,6.013-3.601,12.644-6.583,18.266c-0.017,0.032-0.044,0.062-0.069,0.091
	c2.849,0.191,6.012,0.456,9.15,0.441c0.741-0.643,2.215-0.753,2.515-0.082c0.062-0.004,0.124-0.008,0.186-0.012l0.038-0.063
	l8.146-2.715c5.545-21.685,11.843-43.487,15.826-65.602c0-0.121-0.012-0.24-0.01-0.361c0.002-0.142,0.057-0.272,0.146-0.393
	c1.101-6.2,2.028-12.423,2.69-18.676c0.117-1.104,3.05-1.609,2.912-0.309c-0.691,6.535-1.672,13.036-2.84,19.511
	c0.141,6.225,2.618,12.618,5.304,18.122c2.108,4.32,7.224,10.439,12.576,10.787c2.117-0.354,3.749-0.865,3.749-0.865l1.631-1.223
	c0.631-1.775,1.752-3.284,3.54-4.38c1.616-0.991,3.815-2.034,5.845-1.949c0.082-0.399,0.395-0.723,0.793-0.932
	c-0.004-0.001-0.009-0.002-0.013-0.003c0.164-0.097,1.724-1.744,2.296-2.323c1.416-1.434,2.822-2.877,4.219-4.332
	c2.759-2.872,5.493-5.771,8.153-8.735c-5.442-3.842-9.088-9.65-14.458-13.596c-6.229,4.321-12.132,9.255-16.682,15.354
	c-0.587,0.786-3.52,0.987-2.709-0.1c1.933-2.59,4.093-4.979,6.412-7.208c-0.061-0.046-0.103-0.101-0.109-0.172
	c-1.438-15.601-5.939-45.266-26.426-45.893l-1.315,1.315c-0.46,7.959-2.504,15.978-4.303,23.664
	C407.305,297.024,403.906,309.518,400.314,321.945z M376.053,300.785c-0.232,0.563-0.459,1.118-0.674,1.655
	c-1.614,4.036-2.601,10.001-3.199,16.228c0.422-3.015,0.941-6.015,1.604-8.989C374.439,306.738,375.195,303.762,376.053,300.785z
	 M392.211,265.055L391,268.283c0.411-0.578,0.837-1.141,1.262-1.705C392.181,266.086,392.167,265.574,392.211,265.055z
	 M385.387,341.428c-0.732-9.149-1.083-18.431-0.043-27.573c1.676-14.747,5.414-30.525,12.837-43.546
	c-0.843,0.141-1.731,0.112-2.616-0.122c-1.054-0.279-1.828-0.806-2.374-1.479c-7.813,11.33-13.2,25.388-16.142,38.577
	c-2.336,10.476-3.21,20.983-3.467,31.689c-0.102,4.261-0.949,7.618,2.695,10.583c1.406,1.145,2.873,2.195,4.17,3.432l3.688-3.277
	c0.577-0.596,1.127-1.221,1.5-1.919C386.473,346.221,385.525,343.171,385.387,341.428z M395.656,265.312
	c-0.184,0.237-0.358,0.484-0.539,0.724c0.176,1.022,0.706,1.929,1.785,2.467c0.506,0.252,1.273,0.614,1.813,0.27
	c0.949-0.604,1.299-1.84,1.471-2.877c0.002-0.012,0.009-0.022,0.013-0.033c-0.182-1.384-0.424-2.764-0.59-4.15
	c-1.264,0.275-2.56,0.413-3.866,0.447c-0.407,0.91-0.699,2.012-0.692,3.068C395.437,265.219,395.703,265.251,395.656,265.312z
	 M383.213,243.772c-1.608-0.619-3.425-0.961-5.314-1.109c2.197,0.395,4.383,0.938,6.531,1.577
	C384.039,244.09,383.645,243.938,383.213,243.772z M378.032,272.084c1.747-2.739,3.654-5.615,5.461-8.591
	c1.931-3.605,3.678-6.988,5.074-9.74c0.738-1.789,1.356-3.598,1.803-5.421c-6.295-2.626-13.865-5.225-20.996-5.303
	c-5.261,0.73-9.494,2.075-9.494,2.075l-0.681,25.872c0,8.182,0,16.363,0,24.544c0.365-0.222,0.933-0.608,1.826-1.281
	C367.721,287.823,373.14,279.754,378.032,272.084z"></path>
<path id="color_x5F_1" d="M64.611,240.976c0.906,0.007,1.812,0.015,2.717,0.021c0,2.685,0,5.369,0,8.054
	c0,0.853-2.898,1.279-2.898,0.776c0-2.833,0-5.667,0-8.5C64.43,241.2,64.501,241.083,64.611,240.976z M67.328,487.551
	c0-2.893,0-5.786,0-8.679c-0.966-0.001-1.933-0.009-2.898-0.011c0,3.155,0,6.311,0,9.466
	C64.43,489.229,67.328,488.679,67.328,487.551z M73.93,495.328c0,2.35,0,4.701,0,7.051c0.966,0,1.933,0,2.898,0
	c0-2.609,0-5.218,0-7.827C76.828,493.959,73.93,494.413,73.93,495.328z M141.43,489.328c0,3.167,0,6.333,0,9.5
	c0,0.737,2.898,0.237,2.898-0.776c0-3.167,0-6.333,0-9.5C144.328,487.814,141.43,488.314,141.43,489.328z M187.93,492.828
	c0,1,0,2,0,3c0,0.792,2.898,0.276,2.898-0.776c0-1,0-2,0-3C190.828,491.259,187.93,491.775,187.93,492.828z M357.797,115.734
	c-78.489,0-156.979,0-235.467,0c-1.148,0-3.063,1.742-1.102,1.742c78.355,0,156.71,0,235.064,0c0-0.235,0-0.47,0-0.705
	C356.293,116.248,357.055,115.839,357.797,115.734z M359.137,116.162c0.016-0.208-0.148-0.367-0.578-0.413
	C358.829,115.811,359.04,115.945,359.137,116.162z M332.711,142.742c-63.494,0-126.987,0-190.48,0c-1.148,0-3.063,1.742-1.102,1.742
	c63.494,0,126.987,0,190.48,0C332.758,144.484,334.672,142.742,332.711,142.742z M315.652,178.279c-51.648,0-103.295,0-154.943,0
	c-1.147,0-3.062,1.742-1.1,1.742c51.646,0,103.295,0,154.941,0C315.699,180.021,317.613,178.279,315.652,178.279z M160.709,209.552
	c-1.147,0-3.062,1.742-1.1,1.742c51.646,0,103.295,0,154.941,0c1.148,0,3.063-1.742,1.102-1.742
	C264.004,209.552,212.357,209.552,160.709,209.552z M53.58,240.109c0,0.259,0,0.518,0,0.777c3.678,0.03,7.354,0.06,11.031,0.089
	c0.629-0.606,2.717-0.852,2.717-0.424c0,0.149,0,0.297,0,0.446c12.036,0.097,24.072,0.194,36.108,0.292
	c0.07-1.047,2.892-1.552,2.892-0.737c0,0.253,0,0.507,0,0.761c29.002,0.234,58.003,0.468,87.004,0.702
	c0.506-0.186,1.108-0.199,1.523,0.012c3.112,0.025,6.225,0.05,9.338,0.075c0-0.553,0-1.106,0-1.659c0-0.032,0.011-0.062,0.016-0.092
	c-28.413-0.229-56.827-0.458-85.241-0.688c0,0.149,0,0.297,0,0.446c0,1.022-2.906,1.618-2.906,0.333c0-0.268,0-0.535,0-0.803
	c-20.65-0.167-41.3-0.333-61.95-0.5c-0.318-0.002-0.694,0.131-1.031,0.323C53.377,239.566,53.58,239.771,53.58,240.109z
	 M314.551,242.991c1.151,0.009,3.063-1.727,1.102-1.742c-36.185-0.292-72.369-0.583-108.553-0.875c0,0.583,0,1.167,0,1.751
	C242.917,242.414,278.733,242.702,314.551,242.991z M67.328,240.551c0-0.427-2.088-0.182-2.717,0.424
	c0.906,0.007,1.812,0.015,2.717,0.021C67.328,240.849,67.328,240.7,67.328,240.551z M61.751,262.279
	c45.973,0.369,91.945,0.726,137.918,1.096c-0.011-1.109,2.837-1.697,2.896-0.744c0.016,0.256,0.021,0.512,0.034,0.768
	c0.909,0.007,1.819,0.014,2.729,0.021c0.963,0.008,2.449-1.202,1.765-1.608c-0.072,0.998-2.899,1.563-2.899,0.295
	c0-0.149,0-0.298,0-0.446c-50.205-0.404-100.408-0.792-150.613-1.197c0,0.104,0,0.207,0,0.31c0,0.666-1.231,1.147-2.092,1.048
	c0.02,0.219,0.255,0.378,0.84,0.383c2.684,0.021,5.366,0.042,8.049,0.064C60.873,262.132,61.408,262.118,61.751,262.279z
	 M53.58,477.498c0,0.44,0,0.881,0,1.322c3.616,0.024,7.233,0.033,10.85,0.042c0-0.011,0-0.022,0-0.034
	c0-0.273,0.172-0.511,0.429-0.704c-0.153,0.003-0.296-0.007-0.427-0.026H64.42l0.001-0.001c-0.474-0.074-0.736-0.299-0.399-0.717
	c0.07-0.088,0.141-0.177,0.211-0.265c-0.784-0.002-1.568-0.006-2.352-0.009c-0.67,0.744-2.629,1.01-2.676,0.223
	c-0.005-0.078-0.006-0.155-0.01-0.233c-1.924-0.009-3.847-0.009-5.771-0.022C53.521,477.182,53.58,477.32,53.58,477.498z
	 M50.674,478.682c0-0.233,0-0.467,0-0.701C50.452,478.259,50.404,478.529,50.674,478.682z M199.666,477.117
	c0.012-0.192,0.015-0.384,0.025-0.576c-0.632-0.003-1.264-0.005-1.895-0.007c0.291,1.01-2.244,1.82-2.76,0.988
	c-0.206-0.334-0.412-0.668-0.619-1.002c-1.084-0.003-2.169-0.011-3.254-0.013l-123.836,1.554c0,0.271,0,0.541,0,0.812
	c13.873,0.021,27.746-0.045,41.619-0.152c0.179-1.046,2.881-1.532,2.881-0.669c0,0.215,0,0.43,0,0.645
	c22.516-0.18,45.03-0.416,67.546-0.449c0.813-0.486,2.454-0.634,2.454-0.196c0,0.064,0,0.127,0,0.191
	c7.455-0.005,14.91,0.009,22.365,0.064c0-0.159,0-0.317,0-0.476c0-0.993,2.734-1.578,2.892-0.433
	c0.331-0.417,0.287-0.822-0.655-0.829c-1.285-0.01-2.57-0.008-3.856-0.016c-0.004,0.07-0.005,0.14-0.009,0.209
	C202.507,477.748,199.594,478.327,199.666,477.117z M67.033,477.125c-0.101,0.125-0.197,0.251-0.297,0.375
	c-0.029,0.037-0.069,0.071-0.108,0.104c0.403,0.02,0.7,0.159,0.7,0.447c0,0.003,0,0.006,0,0.01l123.836-1.554
	C149.785,476.428,108.409,477.208,67.033,477.125z M64.42,478.098h0.012c-0.003,0-0.007-0.001-0.011-0.001L64.42,478.098z
	 M67.328,478.061l-1.999,0.025c-0.16,0.022-0.319,0.036-0.471,0.038c-0.257,0.193-0.429,0.431-0.429,0.704c0,0.011,0,0.022,0,0.034
	c0.966,0.002,1.933,0.01,2.898,0.011C67.328,478.602,67.328,478.332,67.328,478.061z M66.628,477.604
	c-0.282,0.242-0.79,0.411-1.299,0.482l1.999-0.025c0-0.003,0-0.006,0-0.01C67.328,477.763,67.031,477.625,66.628,477.604z
	 M210.461,272.098c-1.147,0-3.062,1.742-1.1,1.742c35.063,0,70.127,0,105.189,0c1.148,0,3.063-1.742,1.102-1.742
	C280.588,272.098,245.525,272.098,210.461,272.098z M197.988,305.113c38.854,0,77.709,0,116.563,0c1.148,0,3.063-1.742,1.102-1.742
	c-38.854,0-77.709,0-116.563,0c-0.323,0-0.705,0.14-1.046,0.338c-0.133,0.46-0.258,0.922-0.396,1.38
	C197.746,305.104,197.857,305.113,197.988,305.113z M315.652,334.643c-41.697,0-83.395,0-125.092,0
	c-1.148,0-3.063,1.742-1.102,1.742c41.697,0,83.395,0,125.092,0C315.699,336.385,317.613,334.643,315.652,334.643z M315.652,365.916
	c-51.648,0-103.295,0-154.943,0c-1.147,0-3.062,1.742-1.1,1.742c51.646,0,103.295,0,154.941,0
	C315.699,367.658,317.613,365.916,315.652,365.916z M315.652,397.188c-38.381,0-76.761,0-115.141,0
	c-1.148,0-3.063,1.742-1.102,1.742c38.381,0,76.761,0,115.141,0C315.699,398.931,317.613,397.188,315.652,397.188z M315.652,428.461
	c-28.904,0-57.808,0-86.711,0c-1.148,0-3.063,1.742-1.102,1.742c28.904,0,57.808,0,86.711,0
	C315.699,430.203,317.613,428.461,315.652,428.461z M240.313,459.733c-1.147,0-3.062,1.742-1.1,1.742c25.112,0,50.226,0,75.338,0
	c1.148,0,3.063-1.742,1.102-1.742C290.539,459.733,265.426,459.733,240.313,459.733z M358.508,436.896l-1.629,0.543l1.483-90.962
	c-0.321-0.255-0.646-0.507-0.956-0.769c-0.465-0.392,0.796-1.08,1.793-1.209c0-15.375,0-30.75,0-46.125
	c-0.136,0.106-0.267,0.218-0.403,0.323c-0.511,0.393-1.999,0.481-2.503,0.185c0,67.23,0,134.46,0,201.69
	c0,1.285,2.906,0.689,2.906-0.333c0-20.94,0-41.88,0-62.82C358.886,437.316,358.631,437.133,358.508,436.896z M358.559,115.75
	c-0.228-0.051-0.492-0.053-0.762-0.016c0.167,0,0.334,0,0.5,0C358.396,115.734,358.479,115.741,358.559,115.75z M359.199,295.914
	c0-0.131,0-0.262,0-0.393c-0.68,0.413-0.652,0.251-0.652,0.251l0.652-24.795c0-8.62,0-17.239,0-25.858
	c-0.792,0.301-3.236,0.394-1.577-0.411c0.521-0.253,1.048-0.479,1.577-0.694c0-42.525,0-85.05,0-127.575
	c0-0.106-0.025-0.195-0.063-0.276c-0.038,0.516-1.164,1.314-1.941,1.314c-0.301,0-0.602,0-0.902,0c0,60.286,0,120.571,0,180.856
	c0.047-0.048,0.1-0.098,0.169-0.151C357.399,297.461,358.308,296.699,359.199,295.914z M358.909,435.745
	c0.1-0.086,0.191-0.179,0.29-0.266c0-29.449,0-58.898,0-88.347c-0.283-0.215-0.561-0.435-0.837-0.655l-1.483,90.962l1.629-0.543
	C358.344,436.582,358.412,436.176,358.909,435.745z M358.547,295.772c0,0-0.027,0.162,0.652-0.251c0-8.181,0-16.363,0-24.544
	L358.547,295.772z M359.137,116.162c-0.097-0.217-0.308-0.351-0.578-0.413c-0.08-0.008-0.163-0.016-0.262-0.016
	c-0.166,0-0.333,0-0.5,0c-0.742,0.105-1.504,0.514-1.504,1.037c0,0.235,0,0.47,0,0.705c0.301,0,0.602,0,0.902,0
	C357.973,117.476,359.099,116.678,359.137,116.162z M118.968,116.438c0-1.285-2.906-0.689-2.906,0.333c0,40.956,0,81.912,0,122.868
	c0.969,0.008,1.938,0.016,2.906,0.023C118.968,198.588,118.968,157.513,118.968,116.438z M118.968,240.109c0-0.149,0-0.297,0-0.446
	c-0.969-0.008-1.938-0.016-2.906-0.023c0,0.268,0,0.535,0,0.803C116.062,241.727,118.968,241.131,118.968,240.109z M204.193,261.66
	c0.745,0.006,1.491,0.012,2.236,0.018c0.32,0.002,0.529,0.054,0.663,0.134c0.001-0.013,0.007-0.025,0.007-0.038
	c0-6.549,0-13.099,0-19.648c-0.969-0.008-1.938-0.016-2.906-0.023C204.193,248.621,204.193,255.14,204.193,261.66z M207.1,240.109
	c0-1.245-2.721-0.723-2.891,0.241c0.964,0.008,1.928,0.016,2.891,0.023C207.1,240.286,207.1,240.197,207.1,240.109z
	 M204.193,242.101c0.969,0.008,1.938,0.016,2.906,0.023c0-0.583,0-1.167,0-1.751c-0.963-0.008-1.927-0.016-2.891-0.023
	c-0.005,0.031-0.016,0.061-0.016,0.092C204.193,240.995,204.193,241.548,204.193,242.101z M204.193,261.66c0,0.148,0,0.297,0,0.446
	c0,1.268,2.827,0.703,2.899-0.295c-0.134-0.08-0.343-0.131-0.663-0.134C205.685,261.671,204.938,261.666,204.193,261.66z
	 M53.43,260.462c0.05,0,0.101,0.001,0.15,0.001c0-6.525,0-13.051,0-19.577c-0.189-0.001-0.379-0.003-0.568-0.004
	c-1.419-0.011-0.812-0.919,0.068-1.419c-0.83-0.292-2.406,0.227-2.406,0.98c0,6.888,0,13.776,0,20.664
	c0,0.448,0.355,0.663,0.814,0.715C51.444,261.307,52.622,260.456,53.43,260.462z M53.012,240.882
	c0.189,0.001,0.379,0.003,0.568,0.004c0-0.259,0-0.518,0-0.777c0-0.338-0.203-0.543-0.5-0.647
	C52.2,239.962,51.593,240.871,53.012,240.882z M53.58,260.773c0-0.103,0-0.207,0-0.31c-0.05,0-0.101,0-0.15-0.001
	c-0.808-0.006-1.985,0.845-1.941,1.359C52.349,261.92,53.58,261.439,53.58,260.773z M205.328,478.311
	c-0.378-0.003-0.757-0.002-1.135-0.004c0,7.896,0,15.793,0,23.69c0,0.154,0.044,0.279,0.117,0.382c0.748,0,1.497,0,2.245,0
	c0.319-0.187,0.544-0.433,0.544-0.715c0-8.055,0-16.111,0-24.166c0-0.037-0.01-0.066-0.015-0.1
	C206.726,477.849,205.926,478.315,205.328,478.311z M204.193,477.831c0,0.159,0,0.317,0,0.476c0.378,0.002,0.757,0.001,1.135,0.004
	c0.598,0.004,1.397-0.462,1.757-0.913C206.928,476.252,204.193,476.838,204.193,477.831z M52.43,477.068
	c0.332,0.002,0.664,0.001,0.995,0.004c-0.597-0.684-2.751-0.123-2.751,0.758c0,0.05,0,0.1,0,0.15
	C51.033,477.529,51.832,477.064,52.43,477.068z M53.036,502.378c0.319-0.187,0.544-0.433,0.544-0.715c0-7.615,0-15.229,0-22.844
	c-0.751-0.005-1.501-0.003-2.252-0.009c-0.314-0.002-0.52-0.052-0.654-0.129c0,7.771,0,15.543,0,23.315
	c0,0.421,0.314,0.637,0.734,0.706c0.335-0.19,0.706-0.324,1.021-0.324C52.632,502.378,52.834,502.378,53.036,502.378z
	 M53.58,478.819c0-0.44,0-0.881,0-1.322c0-0.177-0.06-0.316-0.155-0.425c-0.331-0.002-0.663-0.001-0.995-0.004
	c-0.598-0.004-1.396,0.461-1.756,0.912c0,0.234,0,0.468,0,0.701c0.135,0.077,0.34,0.126,0.654,0.129
	C52.079,478.816,52.829,478.814,53.58,478.819z M358.297,502.378c-50.58,0-101.16,0-151.741,0c-0.701,0.409-1.874,0.517-2.245,0
	c-42.494,0-84.988,0-127.482,0c0,0.058,0,0.115,0,0.173c0,0.915-2.898,1.369-2.898,0.776c0-0.316,0-0.633,0-0.949
	c-6.965,0-13.929,0-20.894,0c-0.46,0.268-1.119,0.406-1.628,0.324c-0.885,0.503-1.503,1.418-0.08,1.418
	c101.956,0,203.912,0,305.867,0C358.344,504.121,360.258,502.378,358.297,502.378z M73.93,503.328c0,0.592,2.898,0.138,2.898-0.776
	c0-0.058,0-0.115,0-0.173c-0.966,0-1.933,0-2.898,0C73.93,502.695,73.93,503.011,73.93,503.328z M206.556,502.378
	c-0.748,0-1.497,0-2.245,0C204.682,502.895,205.854,502.788,206.556,502.378z M53.036,502.378c-0.202,0-0.404,0-0.606,0
	c-0.315,0-0.687,0.133-1.021,0.324C51.917,502.784,52.576,502.646,53.036,502.378z M114.572,366.763
	C78.37,345.701,59.604,304,62.104,262.841c0.018-0.276-0.127-0.456-0.353-0.562c-0.458-0.003-0.916-0.007-1.374-0.011
	c-0.606,0.166-1.146,0.509-1.172,0.928c-2.523,41.535,16.284,83.383,52.687,104.761c0.529-0.319,1.048-0.65,1.585-0.96
	C113.754,366.836,114.168,366.764,114.572,366.763z M115.823,367.5c-0.017-0.009-0.032-0.02-0.049-0.029
	c-0.081,0.124-0.232,0.261-0.493,0.411c-0.586,0.338-1.151,0.698-1.728,1.048C114.426,369.357,117.016,368.17,115.823,367.5z
	 M60.377,262.268c0.458,0.003,0.916,0.007,1.374,0.011C61.408,262.118,60.873,262.132,60.377,262.268z M62.104,476.551
	c-2.466-41.509,15.014-85.53,51.45-107.622c-0.011-0.005-0.023-0.008-0.033-0.013c-0.552-0.31-1.085-0.64-1.629-0.959
	c-37.14,22.4-55.134,66.833-52.696,109.137c0.895,0.004,1.79,0.007,2.686,0.01C62.028,476.941,62.115,476.755,62.104,476.551z
	 M114.572,366.763c0.402,0.234,0.795,0.479,1.202,0.708C116.068,367.023,115.342,366.76,114.572,366.763z M61.881,477.105
	c-0.896-0.003-1.791-0.006-2.686-0.01c0.004,0.078,0.005,0.155,0.01,0.233C59.252,478.115,61.211,477.849,61.881,477.105z
	 M113.554,368.93c0.576-0.35,1.142-0.71,1.728-1.048c0.261-0.15,0.412-0.287,0.493-0.411c-0.407-0.229-0.8-0.474-1.202-0.708
	c-0.404,0.001-0.818,0.074-1.096,0.234c-0.537,0.31-1.056,0.641-1.585,0.96c0.544,0.319,1.077,0.649,1.629,0.959
	C113.53,368.922,113.543,368.924,113.554,368.93z M199.666,263.407c2.521,41.491-16.539,83.585-53.453,104.35
	c0.501-0.153,1.023-0.195,1.317-0.025c0.34,0.196,0.667,0.407,1.003,0.606c24.489-13.966,41.244-37.08,49.115-63.248
	c-0.954-0.142-0.395-0.921,0.396-1.38c3.731-12.967,5.299-26.646,4.555-40.311c-0.977-0.008-1.953-0.016-2.93-0.023
	C199.67,263.386,199.665,263.396,199.666,263.407z M199.669,263.375c0.977,0.008,1.953,0.015,2.93,0.023
	c-0.014-0.256-0.019-0.512-0.034-0.768C202.506,261.678,199.658,262.266,199.669,263.375z M197.648,305.089
	c0.138-0.458,0.263-0.92,0.396-1.38C197.254,304.168,196.694,304.948,197.648,305.089z M146.197,367.766
	c0.006-0.003,0.011-0.006,0.016-0.009c-0.919,0.281-1.765,0.942-0.985,1.392c37.386,21.58,56.764,65.133,54.464,107.393
	c0.961,0.005,1.921,0.006,2.882,0.012c2.443-42.513-16.763-86.118-54.04-108.215c-0.179,0.102-0.352,0.212-0.531,0.313
	C147.047,369.188,144.49,368.725,146.197,367.766z M199.666,477.117c-0.072,1.209,2.841,0.631,2.898-0.355
	c0.004-0.069,0.005-0.139,0.009-0.209c-0.961-0.006-1.921-0.007-2.882-0.012C199.681,476.733,199.678,476.925,199.666,477.117z
	 M146.213,367.756c-0.005,0.003-0.01,0.006-0.016,0.009c-1.707,0.959,0.85,1.422,1.805,0.885c0.18-0.101,0.353-0.211,0.531-0.313
	c-0.336-0.2-0.663-0.411-1.003-0.606C147.236,367.561,146.714,367.603,146.213,367.756z M543.787,442.918
	c-0.986-6.628-4.146-12.958-7.277-18.797c-7.551-14.081-17.421-26.951-27.411-39.365c-3.976-4.939-8.056-9.794-12.175-14.615
	c-1.632-1.91-3.552-3.79-5.081-5.844c-1.159,0-2.318,0-3.478,0c1.853,2.886,4.555,5.43,6.771,8.026
	c4.936,5.785,9.784,11.642,14.502,17.606c10.981,13.883,22.296,28.703,28.833,45.296c2.805,7.117,3.048,13.03,1.251,20.425
	c-2.087,8.589-5.576,16.805-10.963,23.85c-14.724,19.257-41.584,21.572-63.951,20.039c-15.765-1.08-31.569-5.847-42.895-17.323
	c-10.431-10.57-16.323-25.849-12.778-40.451c3.7-15.245,13.536-28.962,22.512-41.528c8.483-11.877,18.146-23.193,25.334-35.94
	c-0.688,0-1.377,0-2.065,0c-0.273,0-0.463-0.035-0.596-0.09c-9.799,17.413-23.592,32.43-34.386,49.23
	c-9.902,15.411-19.085,33.024-12.248,51.354c6.932,18.583,22.534,29.912,41.437,34.281c20.335,4.7,45.008,3.969,64.068-5.009
	c13.796-6.499,22.901-18.531,27.692-32.759C542.855,455.449,544.713,449.127,543.787,442.918z M475.907,429.997
	c6.033,2.201,8.887,4.565,8.887,8.234c0,3.913-3.506,6.44-8.642,6.44c-4.974,0-9.539-1.712-12.719-3.587l-2.201,7.664
	c2.936,1.957,8.071,3.424,13.208,3.587v7.908h6.685v-8.397c8.969-1.468,13.778-7.583,13.778-14.512
	c0-7.256-4.076-11.658-13.207-15.083c-6.931-2.772-9.865-4.647-9.865-7.99c0-2.772,2.038-5.707,7.745-5.707
	c5.544,0,9.131,1.875,11.088,2.772l2.201-7.5c-2.609-1.305-6.114-2.527-11.251-2.69v-7.582h-6.686v7.99
	c-8.233,1.467-13.126,6.848-13.126,13.859C461.803,422.985,467.347,426.898,475.907,429.997z M456.038,362.642
	c0.3,0,0.601,0,0.901,0c-0.018-0.053-0.033-0.106-0.063-0.161c-2.74-5.049-11.95-21.078-8.772-28.928
	c-0.025,0.029-0.042,0.056-0.073,0.087c-1.076,1.089-2.283,1.889-3.564,2.452c-1.047,8.884,6.74,22.103,9.715,27.576
	C454.473,363.199,455.404,362.642,456.038,362.642z M454.383,327.75c-0.002-0.007-0.003-0.014-0.004-0.021
	c-0.014-0.102-0.01-0.2,0.004-0.294l-1.004,1.004l-6,3.5l-2.369,1.777c-0.03,0.085-0.06,0.17-0.088,0.256
	c0.271-0.224,0.54-0.463,0.807-0.732c0.505-0.511,2.465-0.708,2.576-0.139c0.729-1.497,1.956-2.662,3.847-3.331
	c3.229-1.142,7.559,2.408,10.53,3.576c1.887,0.742,4.095,1.123,6.043,0.454c1.574-0.541,2.777-1.85,3.927-2.994
	c3.784-3.768,7.802-4.089,12.308-1.062c4.271,2.869,7.363,6.983,13.006,6.28c4.602-0.574,16.047-5.6,14.934,3.362
	c-0.657,5.29-7.12,10.009-10.892,13.062c-3.911,3.165-8.175,5.868-12.077,9.038c-0.564,0.458-0.598,0.866-0.363,1.155
	c0.79,0,1.58,0,2.371,0c4.727-3.828,9.861-7.106,14.504-11.057c3.934-3.346,8.796-7.699,9.472-13.139
	c0.726-5.833-5.541-7.087-9.865-6.354c-4.229,0.717-8.245,3.115-12.419,0.977c-2.133-1.092-3.889-2.7-5.745-4.183
	c-0.149-0.063-0.271-0.156-0.353-0.28c-1.161-0.908-2.373-1.754-3.752-2.38c-6.291-2.855-10.734,1.492-15.069,5.251
	c-2.646,2.295-8.421-1.788-11.906-3.417c-0.105,0.069-0.208,0.149-0.315,0.212C455.943,328.595,454.504,328.621,454.383,327.75z
	 M453.379,328.439l1.004-1.004c0.003-0.017,0.009-0.032,0.012-0.048c-2.029-0.085-4.229,0.958-5.845,1.949
	c-1.788,1.097-2.909,2.605-3.54,4.38l2.369-1.777L453.379,328.439z M441.222,214.125c-0.007,1.384-0.024,2.792-0.058,4.211
	c0.051,0,0.102,0,0.151,0c0.573,0,0.624,0.369,0.176,0.657c-0.109,0.07-0.229,0.126-0.348,0.182
	c-0.056,1.98-0.146,3.982-0.298,5.986c0.186,0.195,0.136,0.412-0.052,0.614c-0.5,6.087-1.573,12.162-3.885,17.601
	c-2.69,6.329-9.06,5.901-14.674,7.083c-4.212,0.887-7.139,2.903-9.429,6.446c0.025-0.009,0.051-0.016,0.076-0.025
	c1.086-0.404,2.932-0.103,0.992,0.619c-0.465,0.173-0.936,0.324-1.408,0.466c0.057,0.076,0.137,0.139,0.243,0.186
	c0.778-0.235,1.774-0.303,1.927-0.144c0.268-0.121,0.49-0.279,0.608-0.473c3.68-6.042,9.33-5.162,15.303-6.626
	c4.022-0.986,7.305-3.657,9.094-7.342c4.247-8.747,4.448-20.194,4.496-29.737c0.001-0.293-0.136-0.494-0.346-0.624
	c-0.814,0.196-1.631,0.375-2.448,0.54C441.268,213.862,441.223,213.989,441.222,214.125z M427.599,238.805
	c2.152,0.412,4.504,0.056,5.672-1.992c0.963-1.688,0.577-4.053,0.568-5.899c-0.007-1.481-2.937-1.004-2.93,0.242
	c0.007,1.423,0.113,2.854-0.076,4.27c-0.206,1.542-0.792,1.615-2.213,1.343C427.24,236.505,425.667,238.436,427.599,238.805z
	 M415.699,240.952c-0.728-1.115-1.365-2.409-1.086-3.775c0.137-0.669-2.713-0.206-2.859,0.509c-0.306,1.499,0.236,2.8,1.047,4.042
	C413.271,242.45,415.936,241.315,415.699,240.952z M420.539,225.563c0.812-0.249,1.644-0.246,2.457,0.003
	c0.686,0.21,1.563-0.017,2.049-0.549c0.442-0.484,0.282-1.114-0.352-1.309c-1.497-0.459-3.152-0.455-4.65,0.003
	c-0.523,0.161-1.387,0.619-1.201,1.313C419.021,225.695,420.016,225.724,420.539,225.563z M433.342,225.46
	c-0.506,0.383-0.28,0.92,0.278,1.037c0.722,0.151,1.479-0.118,2.05-0.549c0.938-0.709,1.631-0.453,2.466,0.325
	c0.549,0.512,2.136,0.066,2.658-0.498c0.017-0.205,0.036-0.409,0.052-0.614c-0.009-0.009-0.012-0.018-0.021-0.026
	C438.582,223.043,435.592,223.761,433.342,225.46z M440.846,225.161c-0.016,0.205-0.035,0.41-0.052,0.614
	C440.981,225.573,441.031,225.356,440.846,225.161z M413.546,220.773c-2,5.333-5.667,9.667-5.667,9.667s-0.11-0.126-0.311-0.3
	c-0.016,0.021-0.03,0.042-0.047,0.063c0.082,0.075,0.165,0.142,0.244,0.223c0.561,0.574-0.244,1.216-1.146,1.438
	c0.586,0.188,2.17-0.073,2.567-0.504c4.271-4.631,5.579-11.405,5.484-17.592c-0.628-0.119-1.255-0.25-1.883-0.386
	C413.643,214.444,414.997,216.902,413.546,220.773z M447.93,211.078c-0.045-0.116-0.106-0.223-0.154-0.337
	c-0.007,0.002-0.013,0.004-0.02,0.006c-3.148,1.572-10.133,4.427-18.21,3.693c-7.005-0.637-12.108-1.138-14.897-1.418
	c0.008,0.249,0.019,0.496,0.022,0.747c8.921,1.691,17.872,1.75,26.673-0.023c0.418-0.636,1.799-0.944,2.448-0.54
	c1.706-0.412,3.406-0.885,5.099-1.439c0.027-0.009,0.045-0.021,0.07-0.031C448.501,211.697,448.094,211.497,447.93,211.078z
	 M441.344,213.745c0.817-0.165,1.634-0.344,2.448-0.54C443.143,212.801,441.762,213.109,441.344,213.745z M412.788,213.382
	c0.628,0.135,1.255,0.267,1.883,0.386c-0.004-0.25-0.015-0.498-0.022-0.747c-1.591-0.16-2.437-0.249-2.437-0.249
	S412.465,212.981,412.788,213.382z M408.212,198.439c6.334-2.333,25.667-2.333,30.667,2.333s10.667,9,10.667,9
	s-0.644,0.401-1.772,0.965c0.001,0.001,0.002,0.002,0.002,0.003c0.259-0.081,0.519-0.155,0.777-0.239
	c1.68-0.55,1.992,0.672,0.408,1.234c0.98,0.082,2.204-0.572,1.867-1.434c-3.501-8.963-14.091-12.57-22.777-14.127
	c-8.459-1.517-19.656-1.326-26.326,4.916c0.361,0.123,0.729,0.263,1.105,0.436C402.899,201.102,403.658,200.117,408.212,198.439z
	 M448.553,210.501c-0.259,0.084-0.519,0.158-0.777,0.239c0.048,0.114,0.109,0.221,0.154,0.337c0.164,0.419,0.571,0.619,1.031,0.658
	C450.545,211.174,450.232,209.952,448.553,210.501z M389.879,222.773c0.667-12.333,1.667-17.667,6-19.333
	c0.079-0.03,0.154-0.057,0.232-0.086c0.766-0.605,1.658-0.93,2.691-0.878c0.854-0.233,1.59-0.389,2.191-0.493
	c0.03-0.154,0.123-0.326,0.314-0.518c0.133-0.133,0.279-0.248,0.416-0.375c-15.69-5.341-16.835,34.642-3.553,41.48
	c0.251-0.289,0.493-0.585,0.729-0.888C396.28,239.517,389.337,232.796,389.879,222.773z M400.994,201.983
	c1.215-0.21,1.885-0.21,1.885-0.21s-0.075-0.082-0.049-0.248c-0.377-0.172-0.744-0.313-1.105-0.436
	c-0.137,0.127-0.283,0.242-0.416,0.375C401.117,201.657,401.024,201.829,400.994,201.983z M400.952,232.387
	c0.955-1.973,2.602-2.324,4.146-0.742c0.326,0.333,0.943,0.362,1.521,0.219c-0.229-0.074-0.311-0.214-0.099-0.443
	c0.358-0.388,0.687-0.798,1.001-1.218c-0.318-0.295-0.652-0.548-1-0.754c-0.876-0.422-2.132-0.681-3.643-0.009c-3,1.333-4,6-4,6
	l2.897,1.58c0.229-0.188,0.532-0.316,0.85-0.384C400.807,236.019,400.018,234.318,400.952,232.387z M407.766,230.425
	c-0.079-0.081-0.162-0.147-0.244-0.223c-0.314,0.419-0.643,0.83-1.001,1.218c-0.212,0.229-0.131,0.37,0.099,0.443
	C407.521,231.641,408.326,230.999,407.766,230.425z M393.297,247.433c0.65,0.271,1.295,0.545,1.93,0.82
	c0.015-0.01,0.032-0.017,0.047-0.027c0.688-0.491,1.349-1.011,1.994-1.546c-0.028-0.201-0.063-0.401-0.088-0.602
	c-0.132-1.057,1.435-1.726,2.32-1.44c1.949-1.985,3.582-4.246,4.726-6.862c0.437-0.997-0.646-1.344-1.6-1.14
	c0.243,0.082,0.501,0.149,0.778,0.19c1.948,0.292,0.252,2.117-1.053,1.922c-0.151-0.022-0.307-0.053-0.46-0.082l-1.385,2.597
	c0.013,0.007,0.024,0.016,0.038,0.023c0.594,0.302,0.086,0.769-0.625,1.076l-0.041,0.078c0,0-0.021-0.015-0.052-0.037
	c-0.589,0.236-1.285,0.358-1.614,0.19c-0.014-0.007-0.027-0.016-0.041-0.023c-1.4,1.612-3.031,3.031-4.826,4.311
	c-0.151,0.108-0.257,0.214-0.342,0.318C393.139,247.251,393.24,247.329,393.297,247.433z M400.545,241.286
	c-0.014-0.007-0.025-0.016-0.038-0.023l-0.587,1.099C400.631,242.055,401.139,241.588,400.545,241.286z M399.827,242.403
	c-0.118-0.084-0.447-0.324-0.927-0.72c-0.235,0.302-0.478,0.599-0.729,0.888c0.014,0.007,0.027,0.016,0.041,0.023
	C398.542,242.761,399.238,242.639,399.827,242.403z M402.546,237.439l-0.654,1.227c0.153,0.029,0.309,0.06,0.46,0.082
	c1.305,0.195,3.001-1.63,1.053-1.922c-0.277-0.042-0.535-0.108-0.778-0.19c-0.317,0.068-0.621,0.196-0.85,0.384L402.546,237.439z
	 M393.202,248.25c-0.001,0.004-0.003,0.008-0.003,0.012c0.005-0.001,0.01-0.002,0.016-0.003
	C393.21,248.256,393.206,248.253,393.202,248.25z M359.29,245.082c3.112-1.511,6.544-2.091,10.084-2.052
	c2.715-0.376,5.702-0.589,8.524-0.367c-6.336-1.138-12.771-1.056-18.699,1.35c0,0.369,0,0.737,0,1.105
	C359.23,245.106,359.264,245.095,359.29,245.082z M394.625,248.877c0.509-0.247,0.866-0.509,0.734-0.566
	c-0.044-0.019-0.089-0.038-0.133-0.058c-0.129,0.084-0.269,0.149-0.416,0.193C394.75,248.588,394.687,248.734,394.625,248.877z
	 M391.844,247.179c0.232-0.048,0.465-0.07,0.677-0.064c-2.599-1.057-5.313-2.048-8.091-2.875c7.435,2.859,7.45,2.865,7.45,2.865
	S391.861,247.144,391.844,247.179z M369.374,243.03c7.131,0.078,14.701,2.676,20.996,5.303c0.018-0.073,0.04-0.146,0.058-0.219
	c0.108-0.457,0.758-0.797,1.416-0.935c0.018-0.035,0.036-0.074,0.036-0.074s-0.016-0.006-7.45-2.865
	c-2.148-0.64-4.334-1.183-6.531-1.577C375.076,242.441,372.089,242.653,369.374,243.03z M359.199,245.118c0-0.369,0-0.737,0-1.105
	c-0.529,0.215-1.057,0.441-1.577,0.694C355.963,245.512,358.407,245.419,359.199,245.118z M394.811,248.446L394.811,248.446
	c0.147-0.043,0.287-0.108,0.416-0.193c-0.635-0.275-1.279-0.55-1.93-0.82c0.049,0.091,0.064,0.2,0.033,0.333
	c-0.038,0.162-0.088,0.323-0.128,0.485c0.004,0.002,0.008,0.005,0.013,0.008C394.049,248.078,394.952,248.115,394.811,248.446z
	 M356.293,298.883c0-0.184,0-0.367,0-0.55C356.05,298.582,356.091,298.764,356.293,298.883z M380.034,273.263
	c2.787-4.25,5.929-8.873,8.536-13.696c0.453-3.685,1.897-7.171,3.353-10.576c-0.264-0.114-0.53-0.228-0.8-0.341
	c-0.574,1.166-1.458,2.942-2.556,5.104c-1.374,3.331-3.164,6.592-5.074,9.74c-5.624,10.505-12.769,22.825-17.114,26.446
	c-2.494,2.079-4.194,3.427-5.354,4.3c-0.598,0.573-1.207,1.129-1.826,1.674c0,0.82,0,1.641,0,2.461
	C367.709,291.698,374.17,282.204,380.034,273.263z M393.004,247.199c-0.135-0.052-0.301-0.079-0.483-0.084
	c0.138,0.056,0.276,0.112,0.414,0.169C392.953,247.256,392.98,247.228,393.004,247.199z M361.025,294.24
	c1.159-0.873,2.859-2.222,5.354-4.3c4.346-3.621,11.49-15.941,17.114-26.446c-1.807,2.976-3.714,5.852-5.461,8.591
	C373.14,279.754,367.721,287.823,361.025,294.24z M391.123,248.649c-0.248-0.106-0.5-0.211-0.753-0.317
	c-0.446,1.823-1.064,3.632-1.803,5.421C389.665,251.592,390.549,249.815,391.123,248.649z M358.796,298.698
	c0.137-0.105,0.268-0.217,0.403-0.323c0-0.82,0-1.641,0-2.461c-0.892,0.785-1.8,1.547-2.737,2.267
	c-0.069,0.054-0.122,0.103-0.169,0.151c0,0.184,0,0.367,0,0.55C356.797,299.179,358.285,299.09,358.796,298.698z M393.297,247.433
	c-0.057-0.104-0.158-0.181-0.293-0.233c-0.023,0.028-0.051,0.057-0.069,0.084C393.055,247.333,393.176,247.383,393.297,247.433z
	 M391.844,247.179c-0.077,0.16-0.321,0.661-0.721,1.471c0.27,0.114,0.536,0.228,0.8,0.341c0.009-0.019,0.017-0.039,0.024-0.058
	c0.134-0.313,0.675-0.544,1.252-0.671c0-0.004,0.002-0.008,0.003-0.012c-0.36-0.229-0.528-0.576-0.268-0.967
	c-0.138-0.057-0.276-0.113-0.414-0.169C392.309,247.108,392.076,247.13,391.844,247.179z M391.844,247.179
	c-0.658,0.137-1.308,0.478-1.416,0.935c-0.018,0.073-0.04,0.146-0.058,0.219c0.253,0.105,0.505,0.211,0.753,0.317
	C391.522,247.84,391.767,247.339,391.844,247.179z M393.297,247.433c-0.121-0.05-0.242-0.099-0.362-0.149
	c-0.261,0.391-0.093,0.738,0.268,0.967c0.04-0.162,0.09-0.323,0.128-0.485C393.361,247.633,393.346,247.523,393.297,247.433z
	 M412.71,258.151c-0.521,0.158-0.943,0.389-0.946,0.677c-0.011,1.222-0.074,2.446-0.165,3.672c0.607-0.256,1.202-0.404,1.749-0.392
	l0.031-0.168l1.177-1.177c0.052-0.904,0.099-1.809,0.106-2.711c0-0.017-0.012-0.031-0.025-0.045
	C414.026,258.282,413.172,258.354,412.71,258.151z M412.452,263.949c-0.348,0.175-0.693,0.354-1.039,0.534
	c-0.722,6.911-2.466,13.83-4.009,20.493c-2.918,12.604-6.359,25.088-9.938,37.519c-3.202,11.118-6.576,22.19-10.141,33.197
	c0.093,0.004,0.187,0.012,0.279,0.016l20.773-67.267l4.66-24.699c-0.042,0.009-0.102,0.015-0.162,0.021
	C412.766,263.803,412.632,263.858,412.452,263.949z M411.965,263.622c0.014,0.023,0.027,0.047,0.041,0.071
	c0.383,0.087,0.67,0.089,0.871,0.068c0.065-0.024,0.126-0.045,0.169-0.057l0.029-0.155
	C412.688,263.636,412.281,263.666,411.965,263.622z M413.348,262.108c0.147,0.003,0.299-0.002,0.438,0.029
	c0.406,0.092,0.741,0.382,0.457,0.802c-0.005,0.008-0.011,0.017-0.016,0.025c-0.18,0.267-0.648,0.473-1.151,0.585l-0.029,0.155
	c0.18-0.048,0.167-0.001-0.007,0.036l-4.66,24.699l-20.773,67.267c0.121,0.004,0.244,0.017,0.366,0.02
	c1.901,0.053-0.133,1.383-1.112,1.422c-0.022,0.066-0.043,0.132-0.064,0.199c-1.96,6.013-3.602,12.646-6.583,18.265
	c-0.007,0.012-0.001,0.022,0.002,0.033c0.578-0.289,1.461-0.574,1.764-0.555c0.331,0.02,0.672,0.042,1.013,0.065
	c0.025-0.029,0.053-0.059,0.069-0.091c2.982-5.622,4.616-12.253,6.583-18.266c3.779-11.547,7.298-23.182,10.672-34.854
	c3.592-12.428,6.99-24.921,9.938-37.519c1.799-7.687,3.843-15.705,4.303-23.664l-1.177,1.177L413.348,262.108z M412.71,258.151
	c0.462,0.203,1.316,0.131,1.927-0.144C414.484,257.848,413.488,257.916,412.71,258.151z M403.879,372.439l-0.854,0.285
	c-0.08,0.309-0.16,0.618-0.238,0.926c0.087-0.042,0.18-0.076,0.266-0.12c0.646-0.327,3.358-0.545,1.652,0.318
	c-0.594,0.301-1.207,0.561-1.829,0.804c0.644,0.428,2.491-0.01,2.709-0.867c4.923-19.362,10.505-38.814,14.55-58.495
	c-0.336-1.168-0.617-2.349-0.835-3.539L403.879,372.439z M421.678,287.693c-0.662,6.253-1.59,12.477-2.69,18.676
	c0.585-0.793,2.763-1.087,2.753-0.384c-0.004,0.303,0.002,0.606,0.01,0.91c1.168-6.476,2.148-12.977,2.84-19.511
	C424.728,286.083,421.795,286.589,421.678,287.693z M403.025,372.724l0.854-0.285l15.421-60.688
	c-0.279-1.528-0.446-3.071-0.448-4.628C414.868,329.237,408.57,351.039,403.025,372.724z M402.673,374.094
	c0.038-0.147,0.076-0.295,0.114-0.443c-2.363,1.136-5.1,1.66-7.946,1.852l-0.134,0.219c0.006,0.086,0.002,0.179-0.023,0.284
	c-0.037,0.153-0.081,0.301-0.119,0.454c2.891-0.25,5.711-0.791,8.312-1.807C402.698,374.534,402.606,374.354,402.673,374.094z
	 M380.085,376.22c3.626,0.218,7.599,0.508,11.542,0.402c0.035-0.141,0.08-0.275,0.115-0.416c0.059-0.237,0.204-0.441,0.398-0.609
	c-3.139,0.014-6.302-0.25-9.15-0.441c-0.516,0.589-2.709,0.716-2.776,0.49C379.683,375.91,379.407,376.179,380.085,376.22z
	 M394.707,375.722l0.134-0.219c-0.062,0.004-0.124,0.008-0.186,0.012C394.684,375.577,394.7,375.646,394.707,375.722z
	 M382.99,375.155c-0.341-0.023-0.682-0.045-1.013-0.065c-0.303-0.019-1.186,0.266-1.764,0.555
	C380.281,375.872,382.475,375.744,382.99,375.155z M403.053,373.53c-0.086,0.044-0.179,0.078-0.266,0.12
	c-0.038,0.148-0.076,0.296-0.114,0.443c-0.066,0.26,0.025,0.44,0.203,0.559c0.622-0.243,1.235-0.503,1.829-0.804
	C406.411,372.985,403.699,373.203,403.053,373.53z M438.379,278.439c3.5,18,4,25,4,25l2.537-1.659
	c-1.854-17.214-7.352-43.499-28.284-43.696c-0.886-0.008-3.149,1.319-1.209,1.338c0.153,0.001,0.297,0.02,0.448,0.024l0.508-0.508
	C416.379,258.939,434.879,260.439,438.379,278.439z M442.297,305.34c0.007,0.071,0.049,0.126,0.109,0.172
	c0.86-0.827,1.746-1.627,2.647-2.412c-0.043-0.432-0.09-0.875-0.138-1.32l-2.537,1.659c0,0-0.5-7-4-25s-22-19.5-22-19.5
	l-0.508,0.508C436.357,260.074,440.858,289.739,442.297,305.34z M448.305,333.102c-0.072,0.147-0.139,0.298-0.2,0.451
	C448.264,333.369,448.327,333.218,448.305,333.102z M420.135,315.29c0.663,2.307,1.505,4.57,2.377,6.77
	c1.477,3.726,3.145,7.773,6.125,10.551c0.662,0.617,1.377,1.181,2.129,1.686c-2.414-2.991-8.001-15.247-10.334-20.476
	C420.334,314.311,420.235,314.801,420.135,315.29z M439.63,335.804c-1.779,0.297-3.894,0.479-5.698,0.154
	c3.434,1.376,7.234,1.583,10.535,0.133c0.088-0.739,0.238-1.447,0.455-2.119C443.199,335.398,441.401,335.919,439.63,335.804z
	 M418.842,306.762c-0.002,0.121,0.01,0.24,0.01,0.361c0.046-0.251,0.091-0.502,0.136-0.753
	C418.898,306.489,418.844,306.62,418.842,306.762z M439.63,335.804c-5.353-0.348-10.468-6.466-12.576-10.787
	c-2.686-5.504-5.163-11.897-5.304-18.122c-0.418,2.312-0.854,4.621-1.318,6.926c2.333,5.229,7.92,17.485,10.334,20.476
	c0.996,0.667,2.063,1.218,3.166,1.661C435.736,336.283,437.851,336.102,439.63,335.804z M448.104,333.553
	c0.062-0.153,0.128-0.304,0.2-0.451c-0.111-0.57-2.071-0.373-2.576,0.139c-0.267,0.27-0.536,0.508-0.807,0.732
	c-0.217,0.672-0.367,1.379-0.455,2.119c1.281-0.563,2.488-1.363,3.564-2.452C448.063,333.608,448.079,333.582,448.104,333.553z
	 M419.379,311.439l-0.079,0.312c0.218,1.19,0.499,2.371,0.835,3.539c0.101-0.489,0.199-0.979,0.297-1.469
	C419.778,312.355,419.379,311.439,419.379,311.439z M418.987,306.369c-0.045,0.251-0.09,0.502-0.136,0.753
	c0.002,1.557,0.169,3.1,0.448,4.628l0.079-0.312c0,0,0.399,0.916,1.053,2.382c0.465-2.305,0.9-4.614,1.318-6.926
	c-0.008-0.304-0.014-0.607-0.01-0.91C421.75,305.282,419.572,305.576,418.987,306.369z M457.179,296.124
	c0.399-0.589-0.569-0.893-1.439-0.788l0.817,0.9C456.77,296.177,456.981,296.139,457.179,296.124z M445.054,303.101
	c0.05,0.496,0.098,0.986,0.142,1.463c0.074,0.808-2.264,1.35-2.789,0.948c-2.319,2.229-4.479,4.618-6.412,7.208
	c-0.811,1.087,2.122,0.886,2.709,0.1c4.55-6.098,10.453-11.033,16.682-15.354c-0.069-0.051-0.131-0.11-0.201-0.16
	c-0.38-0.273,0.489-0.825,1.373-1.07l-0.817-0.9c-0.308,0.038-0.603,0.124-0.819,0.27
	C451.502,297.913,448.17,300.388,445.054,303.101z M445.195,304.564c-0.044-0.478-0.092-0.967-0.142-1.463
	c-0.901,0.785-1.787,1.584-2.647,2.412C442.932,305.914,445.27,305.372,445.195,304.564z M456.789,296.49l0.284,0.313
	c0.099-0.229,0.195-0.458,0.304-0.686c-0.063-0.001-0.13,0.001-0.198,0.006C457.103,296.235,456.975,296.358,456.789,296.49z
	 M467.485,307.057c0.366-0.152,0.737-0.272,1.11-0.382c-3.109-3.034-5.86-6.465-9.215-9.245c-0.344,0.249-0.837,0.416-1.303,0.479
	l11.861,13.047c0.347-0.387,0.705-0.762,1.049-1.151c0.18-0.204,0.432-0.343,0.709-0.428c-0.845-0.65-1.661-1.331-2.437-2.057
	c-0.039,0.014-0.091,0.022-0.127,0.037C468.491,307.624,465.73,307.787,467.485,307.057z M458.078,297.909
	c-0.76,0.103-1.436-0.069-1.217-0.618c0.064-0.163,0.142-0.325,0.212-0.488l-0.284-0.313c-0.02,0.014-0.032,0.026-0.053,0.04
	c-0.453,0.306-0.9,0.624-1.352,0.936c5.37,3.946,9.016,9.754,14.458,13.596c0.032-0.036,0.064-0.07,0.097-0.106L458.078,297.909z
	 M456.789,296.49c0.186-0.132,0.313-0.255,0.39-0.367c-0.197,0.015-0.409,0.053-0.622,0.112L456.789,296.49z M456.789,296.49
	l-0.232-0.254c-0.884,0.245-1.753,0.797-1.373,1.07c0.07,0.05,0.132,0.109,0.201,0.16c0.451-0.313,0.898-0.63,1.352-0.936
	C456.757,296.517,456.77,296.504,456.789,296.49z M457.28,326.974c-0.001-0.007-0.002-0.015-0.003-0.021
	c-0.107-0.768-1.011-0.899-1.783-0.628l-0.166,0.166C455.979,326.651,456.629,326.813,457.28,326.974z M470.465,311.521
	c-0.033-0.022-0.063-0.049-0.097-0.071l-14.489,14.489l-0.385,0.385c0.772-0.271,1.676-0.139,1.783,0.628
	c0.001,0.007,0.002,0.014,0.003,0.021c-0.651-0.162-1.302-0.323-1.952-0.484l-0.897,0.897c0.379,0.019,0.755,0.063,1.116,0.17
	c0.369,0.109,0.795,0.286,1.257,0.502c2.325-1.509,4.304-4.195,6.185-6.135c3.55-3.662,7.076-7.356,10.447-11.184
	c0.984-1.118-0.602-1.712-1.738-1.365c0.484,0.372,0.964,0.75,1.479,1.089C473.773,310.858,471.227,312.023,470.465,311.521z
	 M455.879,325.939l14.489-14.489c-0.183-0.122-0.348-0.262-0.525-0.388c-2.66,2.964-5.395,5.863-8.153,8.735
	c-1.396,1.454-2.803,2.897-4.219,4.332c-0.572,0.579-2.132,2.226-2.296,2.323c0.004,0.001,0.009,0.002,0.013,0.003
	c0.098-0.051,0.201-0.094,0.307-0.131L455.879,325.939z M455.494,326.324c-0.105,0.037-0.209,0.08-0.307,0.131
	c0.047,0.012,0.094,0.023,0.141,0.035L455.494,326.324z M455.328,326.49c-0.047-0.012-0.094-0.023-0.141-0.035
	c-0.398,0.209-0.711,0.533-0.793,0.932c0.013,0,0.024,0,0.036,0L455.328,326.49z M454.431,327.388l-0.048,0.047
	c-0.014,0.094-0.018,0.192-0.004,0.294c0.001,0.007,0.002,0.014,0.004,0.021c0.121,0.871,1.561,0.845,2.105,0.521
	c0.107-0.063,0.21-0.144,0.315-0.212c-0.462-0.216-0.888-0.393-1.257-0.502C455.186,327.451,454.81,327.406,454.431,327.388z
	 M454.431,327.388c-0.012,0-0.023,0-0.036,0c-0.003,0.016-0.009,0.031-0.012,0.048L454.431,327.388z M469.939,310.956l0.439,0.483
	l-0.011,0.011c0.034,0.022,0.063,0.049,0.097,0.071c0.762,0.502,3.309-0.663,2.711-1.056c-0.515-0.339-0.994-0.717-1.479-1.089
	c-0.277,0.085-0.529,0.224-0.709,0.428C470.645,310.194,470.286,310.569,469.939,310.956z M470.379,311.439l-0.439-0.483
	c-0.032,0.036-0.064,0.071-0.097,0.106c0.178,0.126,0.343,0.266,0.525,0.388L470.379,311.439z M459.381,297.43
	c0.18-0.13,0.322-0.281,0.391-0.454c2.129-5.342,7.477-10.256,11.961-13.686c6.295-4.815,14.086,3.538,17.216,8.415
	c0.231,0.36,3.278,5.878,2.326,5.697c-1.14-0.217-2.388-1.268-3.345-1.881c-1.638-1.049-3.258-2.023-5.146-2.53
	c-3.395-0.912-5.508,1.729-6.358,4.606c-0.032,0.109-0.027,0.201-0.006,0.283c0.439-0.397,2.126-1.111,2.661-0.754
	c0.075,0.05,0.16,0.109,0.248,0.171c0.002-0.005,0.006-0.01,0.007-0.015c1.398-4.725,6.039-0.335,8.61,1.144
	c1.699,0.978,3.734,1.141,5.541,0.343c4.765-2.103-5.199-13.313-7.619-15.041c-4.779-3.414-10.982-4.951-15.976-1.457
	c-4.702,3.291-9.95,8.454-12.515,13.847c0.209,0.004,0.392,0.042,0.518,0.133C458.41,296.622,458.895,297.027,459.381,297.43z
	 M458.078,297.909c0.466-0.063,0.959-0.23,1.303-0.479c-0.486-0.403-0.971-0.809-1.486-1.18c-0.126-0.091-0.309-0.129-0.518-0.133
	c-0.108,0.228-0.205,0.457-0.304,0.686L458.078,297.909z M458.078,297.909l-1.005-1.106c-0.07,0.163-0.147,0.325-0.212,0.488
	C456.643,297.84,457.318,298.012,458.078,297.909z M476.419,297.88c-0.102,0.092-0.136,0.167-0.075,0.208
	c1.842,1.231,3.891,2.654,4.585,4.87c0.654,2.089-1.37,2.262-2.928,2.569c-3.13,0.616-6.372,0.257-9.405,1.149
	c0.221,0.215,0.439,0.434,0.665,0.645c1.199-0.414,4.025-0.25,5.547-0.42c2.522-0.284,5.294-0.711,7.62-1.78
	c4.161-1.911-1.076-6.396-3.1-7.823C479.021,298.257,476.623,298.662,476.419,297.88z M467.485,307.057
	c-1.755,0.729,1.006,0.566,1.648,0.3c0.036-0.015,0.088-0.023,0.127-0.037c-0.226-0.211-0.444-0.429-0.665-0.645
	C468.223,306.785,467.852,306.905,467.485,307.057z M476.419,297.88c0.204,0.782,2.602,0.377,2.909-0.583
	c-0.088-0.063-0.173-0.121-0.248-0.171C478.545,296.769,476.858,297.482,476.419,297.88z M490.334,327.9
	c0.046-3.686,0.66-7.332,0.711-11.017c0.019-1.35-2.898-0.798-2.914,0.303c-0.05,3.685-0.665,7.33-0.711,11.017
	c-0.002,0.161,0.04,0.293,0.111,0.402c0.118,0.092,0.234,0.187,0.353,0.28C488.703,329.234,490.324,328.72,490.334,327.9z
	 M487.884,328.885c-0.118-0.093-0.234-0.188-0.353-0.28C487.613,328.729,487.734,328.822,487.884,328.885z M477.123,317.778
	c0,2.196-0.015,4.383-0.352,6.558c-0.166,1.071,2.746,0.544,2.891-0.389c0.357-2.301,0.358-4.623,0.359-6.946
	C480.021,316.171,477.123,316.7,477.123,317.778z M466.81,322.515c-0.347,2.238-0.355,4.493-0.355,6.752
	c-0.001,1.359,2.914,0.803,2.914-0.3c0.001-2.26,0.009-4.514,0.355-6.752C469.924,320.922,466.983,321.391,466.81,322.515z
	 M366.84,351.871c3.174,1.598,6.536,2.888,9.958,3.792c4.188,0.362,9.097,0.682,10.294,0.759c0.079-0.243,0.155-0.487,0.234-0.73
	c-1.704-0.081-3.432-0.283-5.164-0.606c-0.311,0.294-0.988,0.468-1.591,0.544c-0.592,0.176-1.18,0.234-1.392-0.051
	c-0.432-0.581-0.93-1.089-1.454-1.569c-6.483-1.916-12.747-5.276-17.61-9.367c-0.192-0.162-0.535-0.191-0.916-0.142
	c0,0.544,0,1.087,0,1.631C360.611,347.304,363.664,349.767,366.84,351.871z M359.199,346.131c0,0.333,0,0.667,0,1.001
	c2.35,1.779,4.925,3.371,7.641,4.738C363.664,349.767,360.611,347.304,359.199,346.131z M376.798,355.663
	c3.318,0.876,6.688,1.397,9.988,1.49c0.022,0,0.049-0.003,0.073-0.004c0.078-0.242,0.154-0.485,0.232-0.727
	C385.895,356.345,380.985,356.024,376.798,355.663z M359.199,346.131c0-0.544,0-1.087,0-1.631c-0.997,0.129-2.258,0.818-1.793,1.209
	c0.311,0.262,0.635,0.514,0.956,0.769l0.017-1.038C358.379,345.439,358.681,345.7,359.199,346.131z M359.199,346.131
	c-0.519-0.431-0.82-0.691-0.82-0.691l-0.017,1.038c0.276,0.22,0.554,0.44,0.837,0.655
	C359.199,346.798,359.199,346.464,359.199,346.131z M387.092,356.421c0.177,0.011,0.287,0.018,0.287,0.018l0.227-0.733
	c-0.093-0.004-0.187-0.011-0.279-0.016C387.247,355.934,387.171,356.178,387.092,356.421z M387.092,356.421
	c-0.078,0.242-0.154,0.485-0.232,0.727c0.979-0.039,3.014-1.369,1.112-1.422c-0.122-0.003-0.245-0.016-0.366-0.02l-0.227,0.733
	C387.379,356.439,387.269,356.433,387.092,356.421z M389.379,384.439l-12.5,30l-15.5,21.5l-2.18,0.727c0,0.251,0,0.502,0,0.753
	c0.517,0.169,1.182,0.12,1.649-0.286c8.825-7.651,13.845-18.468,19.255-28.583c5.695-10.648,11.475-20.284,14.461-32.091
	c-0.109,0.009-0.219,0.023-0.328,0.032L389.379,384.439z M378.233,406.591c-5.751,9.988-10.228,21.091-19.034,28.888
	c0,0.396,0,0.792,0,1.187l2.18-0.727l15.5-21.5l12.5-30l4.857-7.948c-0.865,0.068-1.736,0.106-2.609,0.13
	C388.879,387.53,383.816,396.896,378.233,406.591z M392.141,375.597c0.843-0.004,1.683-0.03,2.515-0.082
	C394.355,374.843,392.882,374.954,392.141,375.597z M358.508,436.896c0.123,0.237,0.378,0.42,0.691,0.523c0-0.251,0-0.502,0-0.753
	L358.508,436.896z M358.909,435.745c-0.497,0.431-0.565,0.836-0.401,1.151l0.691-0.23c0-0.396,0-0.792,0-1.187
	C359.101,435.566,359.009,435.659,358.909,435.745z M394.707,375.722l-0.471,0.77c0.109-0.009,0.219-0.022,0.328-0.032
	c0.038-0.152,0.082-0.301,0.119-0.454C394.709,375.901,394.713,375.808,394.707,375.722z M392.141,375.597
	c-0.194,0.168-0.34,0.372-0.398,0.609c-0.035,0.141-0.08,0.275-0.115,0.416c0.873-0.024,1.744-0.063,2.609-0.13l0.471-0.77
	c-0.007-0.076-0.023-0.145-0.052-0.207C393.823,375.566,392.983,375.593,392.141,375.597z M489.809,362.844
	c-0.096-0.059-0.18-0.125-0.242-0.202c-10.876,0-21.752,0-32.627,0c0.072,0.22,0.051,0.429-0.042,0.62
	c0.328,0.099,0.489,0.319,0.276,0.7c-0.063,0.113-0.13,0.224-0.193,0.336c10.461,0,20.923,0,31.385,0
	c-0.018-0.026-0.036-0.051-0.053-0.077C487.917,363.597,488.904,362.999,489.809,362.844z M454.217,363.732
	c-0.011-0.021-0.024-0.044-0.035-0.065c-0.141,0.226-0.129,0.43,0.138,0.541c0.042-0.076,0.087-0.149,0.13-0.225
	C454.355,363.916,454.273,363.837,454.217,363.732z M490.973,363.063c0.012,0.013,0.026,0.023,0.035,0.037
	c0.259,0.408,0.542,0.805,0.835,1.198c1.273,0,2.548,0,3.821,0c0.4,0,0.92-0.224,1.323-0.506c-0.936,0.246-2.153,0.276-1.724-0.226
	c0.27-0.315,0.557-0.619,0.841-0.925c-1.39,0-2.778,0-4.167,0c-0.036,0.028-0.072,0.056-0.107,0.084
	C491.589,362.922,491.284,363.026,490.973,363.063z M490.973,363.063c-0.428,0.05-0.864-0.035-1.164-0.219
	c-0.904,0.155-1.892,0.753-1.496,1.377c0.017,0.026,0.035,0.051,0.053,0.077c1.159,0,2.318,0,3.478,0
	c-0.293-0.393-0.576-0.791-0.835-1.198C490.999,363.085,490.984,363.076,490.973,363.063z M456.98,364.298
	c0.063-0.113,0.13-0.224,0.193-0.336c0.213-0.381,0.052-0.601-0.276-0.7c-0.365,0.756-1.789,1.195-2.448,0.722
	c-0.043,0.076-0.088,0.149-0.13,0.225c0.133,0.055,0.322,0.09,0.596,0.09C455.604,364.298,456.292,364.298,456.98,364.298z
	 M454.449,363.983c0.011-0.02,0.022-0.038,0.033-0.058c0.304-0.542,1.729-0.872,2.415-0.664c0.093-0.19,0.114-0.399,0.042-0.62
	c-0.301,0-0.602,0-0.901,0c-0.634,0-1.565,0.558-1.856,1.025c0.011,0.021,0.024,0.044,0.035,0.065
	C454.273,363.837,454.355,363.916,454.449,363.983z M489.809,362.844c0.496-0.085,0.962-0.034,1.164,0.219
	c0.312-0.036,0.616-0.141,0.857-0.336c0.035-0.029,0.071-0.056,0.107-0.084c-0.791,0-1.581,0-2.371,0
	C489.629,362.719,489.713,362.785,489.809,362.844z M490.973,363.063c-0.202-0.253-0.668-0.304-1.164-0.219
	C490.108,363.027,490.545,363.113,490.973,363.063z M454.482,363.925c-0.011,0.02-0.022,0.038-0.033,0.058
	c0.659,0.474,2.083,0.034,2.448-0.722C456.211,363.053,454.786,363.383,454.482,363.925z M496.987,363.792
	c0.409-0.107,0.766-0.255,0.905-0.419c3.365-3.934,10.173-9.622,15.815-6.689c1.4,0.728,1.306,2.036,0.1,2.905
	c-3.315,2.389-8.964,2.187-12.816,2.33c-0.306,0.011-2.285,0.392-2.071,0.992c2.051,5.762,6.087,9.654,11.458,12.431
	c0.763,0.395,3.116-0.799,2.727-1c-4.989-2.58-8.807-6.141-10.917-11.32c-0.829,0.041-1.648,0.075-2.44,0.105
	c0.69-0.331,1.381-0.662,2.071-0.992c0.109,0.308,0.247,0.59,0.369,0.887c4.506-0.222,9.406-0.736,13.262-2.958
	c1.658-0.956,3.294-2.796,1.189-4.258c-2.393-1.663-6.146-1.041-8.754-0.44c-4.6,1.059-8.607,3.85-11.78,7.275
	c0.228,0,0.455,0,0.683,0C498.028,362.642,497.684,363.305,496.987,363.792z M499.747,363.126c0.792-0.03,1.611-0.064,2.44-0.105
	c-0.122-0.297-0.26-0.579-0.369-0.887C501.128,362.465,500.438,362.796,499.747,363.126z M496.987,363.792
	c0.696-0.487,1.041-1.15-0.2-1.15c-0.228,0-0.455,0-0.683,0c-0.284,0.306-0.571,0.609-0.841,0.925
	C494.834,364.068,496.052,364.038,496.987,363.792z M399.484,260.441c-0.027-0.37-0.048-0.741-0.055-1.113
	c-0.016-0.846,2.244-1.332,2.781-0.966c-0.404-4.392-1.585-8.68-2.133-13.06c-0.044-0.353-0.271-0.564-0.578-0.664
	c-0.704,0.717-1.452,1.396-2.232,2.042c0.643,4.617,1.969,9.156,2.126,13.829C399.418,260.487,399.45,260.464,399.484,260.441z
	 M399.5,244.638c-0.886-0.286-2.452,0.383-2.32,1.44c0.025,0.201,0.06,0.401,0.088,0.602
	C398.048,246.033,398.796,245.355,399.5,244.638z M393.379,261.939l0.126-0.023c0.542-0.264,1.317-0.393,1.827-0.343l4.051-0.76
	c-0.071-0.042-0.103-0.095-0.091-0.158c-2.577,0.332-7.985,0.612-7.941-0.863c0.113-3.752,1.804-7.497,3.274-10.916
	c-0.535,0.26-1.235,0.5-1.714,0.475c-0.997,3.462-2.54,6.886-4.341,10.215c-0.071,0.582-0.123,1.168-0.141,1.761
	c0.053,0.11,0.141,0.175,0.265,0.195c1.458,0.273,2.967,0.486,4.486,0.589c0.054-0.042,0.114-0.083,0.179-0.12L393.379,261.939z
	 M393.379,261.939l-0.02,0.052c0.046-0.027,0.096-0.051,0.146-0.076L393.379,261.939z M399.566,261.308
	c-0.088-0.131-0.143-0.291-0.152-0.481c-0.01-0.005-0.021-0.009-0.031-0.014l-4.051,0.76c0.374,0.036,0.605,0.166,0.489,0.41
	c-0.027,0.057-0.052,0.118-0.078,0.176c1.307-0.034,2.603-0.172,3.866-0.447C399.593,261.578,399.581,261.443,399.566,261.308z
	 M394.625,248.877c0.062-0.143,0.125-0.289,0.186-0.431c-0.552,0.165-1.189,0.064-1.596-0.188c-0.006,0.001-0.011,0.002-0.016,0.003
	c-0.092,0.363-0.184,0.727-0.288,1.089C393.39,249.377,394.09,249.137,394.625,248.877z M393.215,248.259
	c0.406,0.252,1.044,0.353,1.596,0.188v0C394.952,248.115,394.049,248.078,393.215,248.259z M392.911,249.352
	c-0.105-0.006-0.203-0.021-0.282-0.056c-0.232-0.102-0.469-0.203-0.706-0.305c-1.455,3.405-2.899,6.891-3.353,10.576
	C390.371,256.237,391.914,252.814,392.911,249.352z M392.911,249.352c0.104-0.363,0.196-0.726,0.288-1.089
	c-0.577,0.127-1.118,0.357-1.252,0.671c-0.008,0.019-0.016,0.039-0.024,0.058c0.237,0.102,0.474,0.204,0.706,0.305
	C392.708,249.331,392.806,249.346,392.911,249.352z M399.414,260.827c0.01,0.19,0.064,0.35,0.152,0.481
	c-0.016-0.146-0.029-0.292-0.043-0.439C399.482,260.857,399.446,260.843,399.414,260.827z M402.371,259.433
	c-0.019-0.293-0.037-0.587-0.043-0.882c-0.002-0.08-0.045-0.142-0.117-0.19c0.034,0.364,0.054,0.729,0.076,1.094
	C402.314,259.448,402.343,259.44,402.371,259.433z M402.349,260.586c0.013,0.546-0.474,0.936-1.054,1.104l-0.231,3.477
	c0.89-0.334,2.116-0.342,2.008,0.317c-0.114,0.687-0.345,1.318-0.662,1.886c0.048-0.02,0.095-0.039,0.128-0.056
	c0.25-0.124,0.497-0.252,0.746-0.379c-0.148-2.218-0.618-4.409-0.84-6.622c-0.036,0.011-0.071,0.024-0.107,0.036
	C402.338,260.428,402.347,260.506,402.349,260.586z M399.949,261.629c-0.113,0.027-0.227,0.058-0.34,0.083
	c0.166,1.386,0.408,2.766,0.59,4.15c0.07-0.286,0.425-0.53,0.864-0.696l0.231-3.477
	C400.838,261.823,400.326,261.814,399.949,261.629z M401.327,261.211l-0.032,0.479c0.58-0.168,1.066-0.558,1.054-1.104
	c-0.002-0.08-0.011-0.158-0.013-0.238c-0.165,0.051-0.328,0.108-0.491,0.163C401.963,260.693,401.811,260.968,401.327,261.211z
	 M402.287,259.456c-0.022-0.365-0.042-0.73-0.076-1.094c-0.537-0.366-2.797,0.12-2.781,0.966c0.007,0.372,0.027,0.743,0.055,1.113
	c0.135-0.093,0.339-0.196,0.648-0.311C400.84,259.867,401.561,259.653,402.287,259.456z M400.761,261.431
	c-0.268,0.078-0.541,0.133-0.812,0.198c0.377,0.185,0.889,0.193,1.346,0.061l0.032-0.479
	C401.17,261.29,400.986,261.365,400.761,261.431z M399.566,261.308c0.015,0.135,0.026,0.27,0.043,0.404
	c0.113-0.025,0.227-0.056,0.34-0.083C399.793,261.553,399.661,261.447,399.566,261.308z M401.327,261.211
	c0.483-0.243,0.636-0.518,0.518-0.7c-0.16,0.053-0.322,0.102-0.481,0.159L401.327,261.211z M399.949,261.629
	c0.271-0.065,0.544-0.12,0.812-0.198c0.226-0.066,0.409-0.141,0.566-0.22l0.036-0.541c-0.078,0.028-0.16,0.05-0.238,0.079
	c-0.529,0.197-1.237,0.226-1.602,0.12c0.014,0.146,0.027,0.292,0.043,0.439C399.661,261.447,399.793,261.553,399.949,261.629z
	 M411.548,262.891c-0.005,0.008-0.011,0.017-0.017,0.024c-0.16,0.239-0.143,0.409-0.021,0.527c0.016-0.177,0.035-0.353,0.05-0.53
	C411.557,262.905,411.552,262.898,411.548,262.891z M404.051,266.544c-0.255,0.132-0.512,0.26-0.768,0.391
	c0.019,0.289,0.038,0.577,0.045,0.867c0.013,0.554-0.955,0.954-1.776,1.061c-0.08,0.137-0.157,0.276-0.236,0.414
	c0.108-0.007,0.228-0.021,0.362-0.046c1.97-0.366,3.881-1.697,5.631-2.608c1.242-0.647,2.482-1.298,3.726-1.944
	c0.126-0.065,0.253-0.129,0.379-0.195c0.036-0.347,0.066-0.694,0.098-1.041c-0.122-0.118-0.14-0.288,0.021-0.527
	c0.006-0.008,0.012-0.016,0.017-0.024c0.004,0.007,0.009,0.014,0.013,0.021c0.011-0.137,0.027-0.275,0.038-0.412
	c-1.264,0.532-2.552,1.44-3.419,1.893C406.803,265.11,405.43,265.832,404.051,266.544z M411.965,263.622
	c0.316,0.044,0.723,0.014,1.11-0.073l0.272-1.441c-0.547-0.012-1.142,0.136-1.749,0.392c-0.011,0.137-0.027,0.275-0.038,0.412
	C411.695,263.149,411.83,263.386,411.965,263.622z M412.877,263.761c-0.201,0.021-0.488,0.019-0.871-0.068
	c-0.014-0.023-0.027-0.047-0.041-0.071c-0.2-0.028-0.359-0.088-0.454-0.18c-0.031,0.347-0.062,0.694-0.098,1.041
	c0.346-0.179,0.691-0.359,1.039-0.534C412.632,263.858,412.766,263.803,412.877,263.761z M413.039,263.74l0.007-0.036
	c-0.043,0.012-0.104,0.033-0.169,0.057C412.938,263.755,412.997,263.75,413.039,263.74z M411.561,262.912
	c-0.015,0.177-0.034,0.353-0.05,0.53c0.095,0.092,0.254,0.152,0.454,0.18C411.83,263.386,411.695,263.149,411.561,262.912z
	 M413.046,263.704l-0.007,0.036C413.213,263.703,413.226,263.656,413.046,263.704z M414.227,262.964
	c0.005-0.008,0.011-0.017,0.016-0.025c0.284-0.42-0.051-0.71-0.457-0.802c-0.139-0.031-0.29-0.026-0.438-0.029l-0.272,1.441
	C413.578,263.437,414.047,263.231,414.227,262.964z M402.409,267.369c-0.193,0.347-0.419,0.669-0.675,0.964
	c0.063,0.022,0.092,0.052,0.07,0.088c-0.087,0.145-0.167,0.296-0.253,0.441c0.821-0.107,1.789-0.507,1.776-1.061
	c-0.007-0.29-0.026-0.578-0.045-0.867c-0.249,0.126-0.496,0.255-0.746,0.379C402.504,267.33,402.457,267.35,402.409,267.369z
	 M402.443,260.313c3.273-0.998,6.741-1.359,10.023-2.347c-0.11-0.148-0.119-0.351,0.046-0.621c0.095-0.155,0.197-0.29,0.294-0.439
	c-3.357,1.235-6.979,1.599-10.436,2.528C402.39,259.727,402.414,260.02,402.443,260.313z M399.394,260.508
	c-0.061,0.054-0.093,0.103-0.102,0.147c0.039-0.005,0.071-0.01,0.108-0.015C399.399,260.596,399.395,260.553,399.394,260.508z
	 M412.467,257.965c0.473-0.143,0.943-0.293,1.408-0.466c1.939-0.722,0.094-1.023-0.992-0.619c-0.025,0.009-0.051,0.016-0.076,0.025
	c-0.097,0.149-0.199,0.285-0.294,0.439C412.348,257.614,412.356,257.817,412.467,257.965z M399.5,260.627
	c-0.006-0.062-0.012-0.124-0.016-0.186c-0.034,0.023-0.066,0.046-0.091,0.067c0.001,0.044,0.006,0.088,0.007,0.132
	C399.436,260.636,399.467,260.631,399.5,260.627z M399.383,260.813l0.028-0.005c0-0.006-0.002-0.01-0.002-0.016
	c-0.001-0.051-0.007-0.102-0.009-0.152c-0.037,0.005-0.069,0.01-0.108,0.015C399.28,260.718,399.312,260.771,399.383,260.813z
	 M399.411,260.809l-0.028,0.005c0.01,0.005,0.021,0.009,0.031,0.014C399.414,260.82,399.412,260.815,399.411,260.809z
	 M399.5,260.627c-0.033,0.004-0.064,0.009-0.1,0.014c0.002,0.051,0.008,0.102,0.009,0.152c0,0.005,0.002,0.01,0.002,0.016
	l0.104-0.02C399.511,260.735,399.504,260.681,399.5,260.627z M399.523,260.869c-0.002-0.027-0.006-0.054-0.008-0.08l-0.104,0.02
	c0.001,0.006,0.003,0.012,0.003,0.019C399.446,260.843,399.482,260.857,399.523,260.869z M402.336,260.348
	c0.036-0.011,0.071-0.025,0.107-0.036c-0.029-0.293-0.054-0.586-0.072-0.879c-0.028,0.007-0.057,0.015-0.084,0.022
	C402.305,259.753,402.326,260.05,402.336,260.348z M400.497,260.448c0.767-0.224,1.218-0.137,1.348,0.063
	c0.163-0.055,0.326-0.112,0.491-0.163c-0.01-0.298-0.031-0.595-0.049-0.893c-0.727,0.197-1.447,0.411-2.154,0.674
	c-0.31,0.115-0.514,0.218-0.648,0.311c0.004,0.062,0.01,0.124,0.016,0.186C399.959,260.563,400.319,260.5,400.497,260.448z
	 M401.379,260.439l-0.016,0.23c0.159-0.057,0.321-0.106,0.481-0.159c-0.13-0.2-0.581-0.287-1.348-0.063
	c-0.178,0.052-0.538,0.116-0.997,0.179c0.004,0.054,0.011,0.108,0.016,0.162L401.379,260.439z M401.125,260.749
	c0.078-0.029,0.16-0.051,0.238-0.079l0.016-0.23l-1.863,0.35c0.002,0.026,0.006,0.053,0.008,0.08
	C399.888,260.975,400.596,260.946,401.125,260.749z M393.181,262.112c-0.109,0.086-0.195,0.181-0.244,0.284
	c-0.401,0.844-0.65,1.759-0.726,2.659l1.101-2.936C393.268,262.116,393.225,262.115,393.181,262.112z M392.262,266.579
	c0.184-0.242,0.357-0.491,0.543-0.73c0.337-0.435,1.512-0.604,2.246-0.621c-0.007-1.056,0.285-2.159,0.692-3.068
	c-0.81,0.021-1.621,0.01-2.432-0.041l-1.101,2.936C392.167,265.574,392.181,266.086,392.262,266.579z M395.564,270.187
	c0.885,0.234,1.773,0.263,2.616,0.122c0.257-0.451,0.507-0.906,0.772-1.35c0.191-0.319,0.836-0.515,1.465-0.608
	c-0.029-0.833-0.111-1.661-0.219-2.487c-0.004,0.011-0.011,0.021-0.013,0.033c-0.172,1.038-0.521,2.274-1.471,2.877
	c-0.54,0.344-1.308-0.018-1.813-0.27c-1.079-0.538-1.609-1.445-1.785-2.467c-0.658,0.872-1.3,1.763-1.927,2.672
	C393.736,269.381,394.511,269.908,395.564,270.187z M393.505,261.916l1.827-0.343C394.822,261.523,394.047,261.652,393.505,261.916z
	 M393.359,261.992c-0.064,0.038-0.125,0.078-0.179,0.12c0.044,0.003,0.087,0.004,0.131,0.007L393.359,261.992z M395.332,261.573
	l-1.827,0.343c-0.05,0.024-0.1,0.049-0.146,0.076l-0.048,0.127c0.811,0.051,1.622,0.062,2.432,0.041
	c0.026-0.058,0.051-0.119,0.078-0.176C395.938,261.739,395.706,261.609,395.332,261.573z M400.693,268.314
	c0.066-0.007,0.133-0.013,0.197-0.018c0.281-0.292,0.715-0.559,1.189-0.647c-1.027,0.191-0.11-0.098,0.329-0.28
	c0.317-0.568,0.548-1.199,0.662-1.886c0.108-0.659-1.118-0.651-2.008-0.317l-0.185,2.773
	C400.879,267.939,400.81,268.078,400.693,268.314z M400.199,265.862c0.107,0.826,0.189,1.654,0.219,2.487
	c0.093-0.014,0.185-0.025,0.275-0.035c0.116-0.236,0.186-0.375,0.186-0.375l0.185-2.773
	C400.624,265.332,400.27,265.576,400.199,265.862z M402.08,267.649c-0.475,0.088-0.908,0.355-1.189,0.647
	c0.381-0.027,0.703-0.014,0.844,0.036c0.256-0.294,0.481-0.617,0.675-0.964C401.97,267.552,401.053,267.84,402.08,267.649z
	 M386.935,349.163c2.188-2.471,1.847-3.22,1.514-6.656c-0.9-9.304-1.142-18.687-0.349-28.005c1.296-15.201,5.48-31.91,13.216-45.226
	c-0.241,0.016-0.413-0.012-0.533-0.067c-0.239,0.177-0.493,0.334-0.757,0.474c-2.747,5.671-11.228,23.72-11.646,31.257
	c-0.5,9-4,34-3,38.5s3,6.5,3,6.5l-4.244,3.772c-0.445,0.46-0.907,0.905-1.32,1.345c-0.612,0.652-1.425,1.381-2.107,2.179
	c0.488,0.486,0.951,1,1.371,1.565c0.033,0.045-0.041,0.129-0.183,0.229c0.089,0.017,0.178,0.038,0.267,0.054
	c0.089-0.084,0.148-0.179,0.166-0.284C382.697,352.655,385.555,350.72,386.935,349.163z M385.344,313.854
	c-1.04,9.143-0.689,18.424,0.043,27.573c0.139,1.744,1.086,4.793,0.248,6.365c-0.373,0.699-0.923,1.323-1.5,1.919l4.244-3.772
	c0,0-2-2-3-6.5s2.5-29.5,3-38.5c0.419-7.537,8.899-25.586,11.646-31.257c-0.572,0.303-1.193,0.517-1.845,0.626
	C390.758,283.329,387.02,299.108,385.344,313.854z M380.571,355.629c0.603-0.076,1.28-0.25,1.591-0.544
	c-0.089-0.017-0.178-0.037-0.267-0.054C381.623,355.222,381.097,355.472,380.571,355.629z M400.782,269.208
	c0.12,0.055,0.292,0.083,0.533,0.067c0.079-0.137,0.156-0.277,0.236-0.414c-0.132,0.018-0.259,0.027-0.379,0.028
	C401.047,269.002,400.918,269.108,400.782,269.208z M401.734,268.333c-0.173,0.2-0.363,0.384-0.562,0.558
	c0.12-0.001,0.247-0.011,0.379-0.028c0.086-0.146,0.166-0.297,0.253-0.441C401.826,268.385,401.798,268.355,401.734,268.333z
	 M400.585,268.791c-0.038-0.021-0.066-0.045-0.091-0.071c-0.129,0.262-0.284,0.582-0.469,0.963c0.264-0.14,0.518-0.297,0.757-0.474
	C400.598,269.123,400.541,268.971,400.585,268.791z M400.43,268.578c-0.002-0.076-0.01-0.152-0.012-0.228
	c-0.629,0.094-1.273,0.29-1.465,0.608c-0.266,0.444-0.516,0.899-0.772,1.35c0.651-0.109,1.272-0.323,1.845-0.626
	c0.185-0.381,0.34-0.701,0.469-0.963C400.457,268.679,400.431,268.633,400.43,268.578z M400.693,268.314
	c-0.055,0.111-0.121,0.247-0.199,0.405c0.024,0.026,0.053,0.051,0.091,0.071c0.038-0.155,0.147-0.328,0.306-0.494
	C400.826,268.301,400.76,268.308,400.693,268.314z M400.418,268.35c0.002,0.076,0.01,0.152,0.012,0.228
	c0.001,0.056,0.027,0.101,0.064,0.142c0.078-0.158,0.145-0.294,0.199-0.405C400.603,268.324,400.511,268.335,400.418,268.35z
	 M400.585,268.791c-0.044,0.181,0.013,0.333,0.197,0.418c0.136-0.1,0.265-0.207,0.391-0.318
	C400.927,268.894,400.718,268.862,400.585,268.791z M400.891,268.297c-0.158,0.166-0.268,0.338-0.306,0.494
	c0.133,0.072,0.342,0.104,0.588,0.1c0.198-0.174,0.389-0.357,0.562-0.558C401.594,268.283,401.271,268.27,400.891,268.297z
	 M391,268.283c-6.808,9.573-11.649,21.049-14.947,32.501c5.17-12.531,14.326-30.845,14.326-30.845L391,268.283z M380.707,353.236
	c-0.085-0.084-0.173-0.165-0.26-0.247l-1.068,0.95l-8-8c0,0-0.456-14.213,0.801-27.272c-0.894,6.37-1.314,12.808-1.457,19.231
	c-0.081,3.66-1.145,7.911,1.184,11.016c1.559,2.079,3.909,3.348,5.819,5.094c0.687,0.203,1.376,0.39,2.067,0.559
	C380.028,354.105,380.344,353.66,380.707,353.236z M395.656,265.312c0.047-0.06-0.22-0.093-0.605-0.084
	c0.001,0.274,0.021,0.545,0.066,0.808C395.298,265.796,395.473,265.548,395.656,265.312z M371.379,345.939l8,8l1.068-0.95
	c-1.297-1.237-2.764-2.288-4.17-3.432c-3.645-2.966-2.797-6.323-2.695-10.583c0.257-10.706,1.131-21.213,3.467-31.689
	c2.941-13.188,8.328-27.247,16.142-38.577c-0.494-0.609-0.797-1.34-0.929-2.129c-0.425,0.564-0.851,1.126-1.262,1.705l-0.621,1.656
	c0,0-9.156,18.314-14.326,30.845c-0.857,2.978-1.613,5.953-2.269,8.894c-0.663,2.974-1.183,5.974-1.604,8.989
	C370.923,331.727,371.379,345.939,371.379,345.939z M379.43,355.578c0.06-0.347,0.195-0.682,0.363-1.01
	c-0.691-0.169-1.381-0.356-2.067-0.559c0.524,0.48,1.022,0.988,1.454,1.569c0.212,0.285,0.8,0.228,1.392,0.051
	C379.952,355.707,379.412,355.682,379.43,355.578z M395.051,265.228c-0.734,0.017-1.909,0.186-2.246,0.621
	c-0.186,0.239-0.359,0.488-0.543,0.73c0.132,0.789,0.435,1.52,0.929,2.129c0.627-0.909,1.269-1.8,1.927-2.672
	C395.071,265.772,395.052,265.502,395.051,265.228z M381.896,355.031c0.142-0.1,0.216-0.184,0.183-0.229
	c-0.42-0.564-0.883-1.079-1.371-1.565c-0.363,0.424-0.679,0.869-0.914,1.332C380.493,354.74,381.194,354.895,381.896,355.031z
	 M379.793,354.568c-0.168,0.328-0.304,0.663-0.363,1.01c-0.018,0.104,0.522,0.129,1.142,0.051c0.525-0.157,1.052-0.407,1.324-0.598
	C381.194,354.895,380.493,354.74,379.793,354.568z M82.93,253.828c0,2,0,4,0,6c0,0.363,2.898-0.021,2.898-0.776c0-2,0-4,0-6
	C85.828,252.688,82.93,253.072,82.93,253.828z M86.016,243.411c-0.549,0.045-1.603,0.442-1.603,1.147c0,0.667,0,1.333,0,2
	c0,0.717,0.704,0.96,1.329,0.909c0.549-0.045,1.603-0.442,1.603-1.147c0-0.667,0-1.333,0-2
	C87.345,243.603,86.641,243.36,86.016,243.411z M103.43,248.328c0,0.825,2.898,0.298,2.898-0.776c0-2.08,0-4.16,0-6.239
	c-0.964-0.008-1.928-0.016-2.892-0.023c-0.001,0.013-0.007,0.025-0.007,0.039C103.43,243.661,103.43,245.994,103.43,248.328z
	 M106.328,240.551c0-0.815-2.821-0.31-2.892,0.737c0.964,0.008,1.928,0.016,2.892,0.023
	C106.328,241.058,106.328,240.805,106.328,240.551z M115.93,249.618c0,3.5,0,7,0,10.5c0,1.227,2.898,0.604,2.898-0.357
	c0-3.5,0-7,0-10.5C118.828,248.034,115.93,248.656,115.93,249.618z M143.93,250.328c0,1.5,0,3,0,4.5
	c0,0.428,2.898,0.024,2.898-0.776c0-1.5,0-3,0-4.5C146.828,249.124,143.93,249.527,143.93,250.328z M162.93,245.828
	c0,3.5,0,7,0,10.5c0,0.505,2.898,0.078,2.898-0.776c0-3.5,0-7,0-10.5C165.828,244.546,162.93,244.974,162.93,245.828z
	 M180.566,248.6c-0.44,0.052-1.639,0.385-1.639,1.011c0,0.833,0,1.667,0,2.5c0,0.657,0.74,0.73,1.264,0.668
	c0.44-0.052,1.639-0.385,1.639-1.011c0-0.833,0-1.667,0-2.5C181.83,248.611,181.09,248.538,180.566,248.6z M192.411,243.051
	c0,3,0,6,0,9c0,1.518,2.936,1.073,2.936-0.224c0-3,0-6,0-9c0-0.394-0.199-0.653-0.491-0.802c-0.508-0.004-1.016-0.008-1.523-0.012
	C192.82,242.203,192.411,242.567,192.411,243.051z M193.332,242.014c0.508,0.004,1.016,0.008,1.523,0.012
	C194.44,241.814,193.838,241.828,193.332,242.014z M108.93,486.828c0,0.893,2.898,0.345,2.898-0.776c0-2.452,0-4.903,0-7.355
	c-0.961,0.008-1.921,0.017-2.881,0.024c-0.006,0.036-0.018,0.07-0.018,0.107C108.93,481.494,108.93,484.161,108.93,486.828z
	 M111.828,478.051c0-0.863-2.702-0.377-2.881,0.669c0.96-0.007,1.92-0.016,2.881-0.024
	C111.828,478.481,111.828,478.266,111.828,478.051z M142.931,479.074c-1.14,0-3.064,1.73-1.104,1.73
	C142.967,480.805,144.892,479.074,142.931,479.074z M162.93,482.828c0,4.667,0,9.333,0,14c0,0.779,2.898,0.267,2.898-0.776
	c0-4.667,0-9.333,0-14C165.828,481.272,162.93,481.785,162.93,482.828z M178.93,478.828c0,4.5,0,9,0,13.5
	c0,0.582,2.898,0.13,2.898-0.776c0-4.436,0-8.873,0-13.309c-0.818,0.001-1.636,0.004-2.454,0.005
	C179.107,478.408,178.93,478.604,178.93,478.828z M181.828,478.051c0-0.438-1.642-0.29-2.454,0.196
	c0.818-0.001,1.636-0.004,2.454-0.005C181.828,478.179,181.828,478.115,181.828,478.051z M194.93,479.828c0,4.833,0,9.667,0,14.5
	c0,0.476,2.898,0.058,2.898-0.776c0-4.833,0-9.667,0-14.5C197.828,478.575,194.93,478.994,194.93,479.828z M98.546,435.106
	c0,0,5.058-5.055,11.864-9.829c7.331-5.832,15.767-9.701,25.625-8.085c4.072,0.667,7.918,2.101,11.547,4.053
	c6.589,2.742,11.357,6.117,12.964,8.527c0.404,0.607,1.519,2.108,3.111,4.211c2.971,3.074,5.72,6.282,8.252,9.372
	c4.882,5.957,9.263,12.276,13.448,18.729c6.237,8.018,11.188,14.355,11.188,14.355l-2.161,0.027
	c0.012,0.018,0.022,0.036,0.033,0.053c1.127,0.003,2.252,0.009,3.379,0.014c-0.018-0.059-0.039-0.117-0.076-0.177
	c-8.126-13.148-16.245-26.298-26.377-38.03c-9.562-11.071-21.889-21.807-37.037-23.245c-15.326-1.455-27.419,9.783-37.074,20.174
	c-12.128,13.052-21.86,28.01-33,41.858c0.322,0.001,0.644,0.003,0.965,0.004L98.546,435.106z M196.546,476.439
	c0,0-4.951-6.338-11.188-14.355c3.079,4.75,6.056,9.569,9.027,14.383L196.546,476.439z M163.657,433.984
	c-1.593-2.103-2.707-3.604-3.111-4.211c-1.606-2.411-6.375-5.785-12.964-8.527C153.523,424.442,158.877,429.038,163.657,433.984z
	 M110.41,425.277c-6.807,4.773-11.864,9.829-11.864,9.829l-33.349,42.012c0.611,0.001,1.224,0.006,1.836,0.007
	c9.818-12.218,18.578-25.232,28.815-37.129C100.182,434.96,104.995,429.584,110.41,425.277z M64.232,477.114
	c-0.07,0.088-0.141,0.177-0.211,0.265c-0.337,0.418-0.074,0.643,0.399,0.717l0.776-0.978
	C64.876,477.117,64.555,477.115,64.232,477.114z M195.037,477.522c0.516,0.832,3.051,0.021,2.76-0.988
	c-1.127-0.005-2.252-0.01-3.379-0.014C194.625,476.854,194.831,477.188,195.037,477.522z M64.432,478.098
	c0.131,0.02,0.273,0.029,0.427,0.026c0.015-0.011,0.028-0.022,0.044-0.032L64.432,478.098z M66.628,477.604
	c0.039-0.034,0.079-0.068,0.108-0.104c0.1-0.124,0.196-0.25,0.297-0.375c-0.612-0.001-1.225-0.005-1.836-0.007l-0.776,0.978
	c0.004,0,0.008,0.001,0.011,0.001l0.471-0.006C65.371,477.762,66.092,477.578,66.628,477.604z M64.902,478.092
	c-0.016,0.01-0.029,0.021-0.044,0.032c0.151-0.002,0.311-0.016,0.471-0.038L64.902,478.092z M64.902,478.092l0.427-0.005
	c0.509-0.071,1.017-0.24,1.299-0.482C66.092,477.578,65.371,477.762,64.902,478.092z M118.169,431.923
	c-0.096-0.035-0.194-0.062-0.298-0.072C118.147,431.878,118.286,432.104,118.169,431.923z M118.169,431.923
	c0.117,0.18-0.021-0.045-0.298-0.072C117.975,431.861,118.073,431.889,118.169,431.923c-0.019-0.027-0.041-0.063-0.071-0.111
	c-0.117-0.189-0.245-0.358-0.396-0.521c-0.507-0.553-1.328-0.561-1.976-0.244c-0.477,0.234-1.179,0.989-0.671,1.542
	c0.234,0.256,0.39,0.556,0.604,0.826c0.299,0.375,0.759,0.568,1.227,0.613c0.704,0.068,1.568-0.208,1.883-0.902
	C119.017,432.581,118.662,432.102,118.169,431.923z M138.32,435.354c-0.6,0-3.3,1.172-1.883,1.172
	C137.037,436.525,139.737,435.354,138.32,435.354z M109.83,451.515c0.007,0.008,0.012,0.017,0.018,0.025
	c0.015,0.002,0.029,0.007,0.045,0.009C109.858,451.546,109.842,451.532,109.83,451.515z M110.865,449.33
	c-0.712-0.063-1.568,0.202-1.881,0.911c-0.278,0.635,0.235,1.219,0.863,1.3c-0.006-0.008-0.011-0.017-0.018-0.025
	c-0.014-0.019-0.021-0.04-0.036-0.055c0.021,0.02,0.022,0.037,0.036,0.055c0.012,0.017,0.028,0.031,0.063,0.034
	c-0.016-0.001-0.03-0.007-0.045-0.009c0.05,0.077,0.07,0.152,0.082,0.287c0.066,0.742,1.229,0.805,1.732,0.67
	c0.702-0.188,1.231-0.701,1.166-1.447C112.743,450.09,111.766,449.409,110.865,449.33z M127.986,444.282
	c-0.868,0-3.152,1.314-1.215,1.314C127.64,445.597,129.924,444.282,127.986,444.282z M110.832,442.824
	c1.166,0,3.055-1.77,1.094-1.77C110.76,441.055,108.871,442.824,110.832,442.824z M100.989,450.31
	c-0.608,0.038-1.583,0.481-1.583,1.221c0,0.167,0,0.333,0,0.5c0,0.743,0.689,1.081,1.362,1.038c0.608-0.038,1.583-0.481,1.583-1.221
	c0-0.167,0-0.333,0-0.5C102.352,450.605,101.662,450.268,100.989,450.31z M121.926,461.057c-1.162,0-3.056,1.765-1.094,1.765
	C121.994,462.822,123.888,461.057,121.926,461.057z M141.458,453.676c-1.006,0-3.112,1.527-1.158,1.527
	C141.306,455.203,143.412,453.676,141.458,453.676z M92.994,466.309c-0.836,0-3.162,1.262-1.23,1.262
	C92.6,467.57,94.926,466.309,92.994,466.309z M106.955,465.165c-0.167,0-0.334,0-0.5,0c-0.645,0-1.511,0.226-1.918,0.771
	c-0.41,0.551,0.347,0.778,0.766,0.778c0.167,0,0.334,0,0.5,0c0.645,0,1.511-0.226,1.918-0.771
	C108.131,465.392,107.374,465.165,106.955,465.165z M160.701,334.826c0.039,0.078,0.09,0.145,0.127,0.225
	c0.278,0.603-0.898,1.204-1.851,1.23c-0.621,0.476-1.251,0.925-1.897,1.326l-2.344,3.425c-2.488,4.037-5.29,8.307-8.527,11.965
	c-2.219,2.815-5.201,6.466-7.284,8.501c9.98-5.416,16.64-17.244,22.323-26.453c0.201-0.325,0.162-0.56-0.016-0.714
	c-0.012,0.014-0.017,0.025-0.031,0.04C161.037,334.531,160.867,334.672,160.701,334.826z M124.021,364.017
	c1.623,0.357,3.347,0.5,5.198,0.368c0.558-0.04,1.104-0.104,1.646-0.181C128.536,364.338,126.078,364.25,124.021,364.017z
	 M98.03,339.944c-0.798,0.075-1.469-0.052-0.776-0.604c0.346-0.276,0.699-0.527,1.052-0.78c-1.05-0.372-3.249,0.821-2.06,1.656
	c7.721,5.419,13.363,16.046,21.633,21.23C112.514,356.363,99.516,341.631,98.03,339.944z M146.209,352.997
	c-5.057,5.716-11.17,9.934-18.791,9.407c-12.369-0.855-18.856-15.826-27.828-22.93c-0.028,0.022-0.058,0.042-0.086,0.064
	c-0.234,0.187-0.889,0.351-1.474,0.406c1.485,1.687,14.483,16.419,19.849,21.502c1.891,1.186,3.921,2.082,6.143,2.571
	c2.057,0.232,4.515,0.321,6.844,0.187c2.914-0.417,5.588-1.365,8.06-2.706C141.008,359.463,143.99,355.812,146.209,352.997z
	 M154.736,341.032l2.344-3.425c-0.131,0.081-0.265,0.149-0.396,0.227C156.057,338.872,155.407,339.943,154.736,341.032z
	 M161.232,334.332c0.28-0.326-0.309-0.404-1.02-0.33c0.025,0.035,0.055,0.065,0.079,0.102
	C160.687,334.094,161.041,334.165,161.232,334.332z M99.106,339.103c1.929-1.042,5.704-3.036,8.105-3.997
	c3.333-1.333,12-0.667,12-0.667l1.603,0.134c-7.937-1.479-15.809-0.814-22.509,3.987c0.075,0.027,0.145,0.06,0.206,0.103
	C98.712,338.804,98.908,338.954,99.106,339.103z M107.212,335.106c-2.401,0.961-6.177,2.955-8.105,3.997
	c0.161,0.122,0.323,0.245,0.483,0.372c7.512-5.928,16.215-4.639,24.796-2.385c0.023-0.113,0.118-0.245,0.327-0.403
	c0.416-0.314,0.854-0.608,1.3-0.893c-1.005-0.272-1.999-0.53-2.98-0.76c-0.739-0.173-1.479-0.322-2.218-0.46l-1.603-0.134
	C119.212,334.439,110.545,333.772,107.212,335.106z M125.982,337.519c3.499,0.96,6.963,2.015,10.303,2.74
	c7.255,1.574,14.341,1.161,20.398-2.424c0.42-0.693,0.83-1.373,1.232-2.031c-0.078-0.166-0.179-0.309-0.27-0.462
	c-8.545,7.382-19.354,3.916-29.404,1.071c-0.41,0.25-0.82,0.497-1.197,0.781C126.823,337.36,126.414,337.47,125.982,337.519z
	 M98.03,339.944c-0.091-0.104-0.151-0.172-0.151-0.172s0.479-0.266,1.228-0.67c-0.198-0.148-0.395-0.299-0.595-0.439
	c-0.062-0.043-0.131-0.076-0.206-0.103c-0.353,0.253-0.706,0.504-1.052,0.78C96.562,339.893,97.232,340.02,98.03,339.944z
	 M160.292,334.103c0.152,0.224,0.281,0.473,0.409,0.723c0.166-0.154,0.336-0.295,0.5-0.455c0.015-0.015,0.02-0.026,0.031-0.04
	C161.041,334.165,160.687,334.094,160.292,334.103z M158.084,336.029l-0.205,0.41l-0.799,1.167c0.646-0.4,1.276-0.85,1.897-1.326
	C158.615,336.292,158.289,336.218,158.084,336.029z M158.084,336.029c-0.063-0.058-0.117-0.122-0.154-0.202
	c-0.004-0.009-0.01-0.016-0.014-0.024c-0.402,0.658-0.813,1.337-1.232,2.031c0.132-0.078,0.266-0.146,0.396-0.227l0.799-1.167
	L158.084,336.029z M99.59,339.474c-0.16-0.127-0.322-0.25-0.483-0.372c-0.749,0.404-1.228,0.67-1.228,0.67s0.061,0.068,0.151,0.172
	c0.585-0.055,1.239-0.219,1.474-0.406C99.532,339.516,99.562,339.497,99.59,339.474z M142.1,330.838
	c-5.021,0.589-10.514,1.81-14.927,4.264l0.039,0.003C127.212,335.106,134.839,332.056,142.1,330.838z M158.957,334.283
	c0.346-0.135,0.819-0.236,1.256-0.281c-2.523-3.563-8.106-3.836-12.581-3.618c6.757,0.188,11.58,3.389,11.58,3.389L158.957,334.283z
	 M128.242,336.412c4.046-2.463,9.557-3.32,14.033-3.953c4.226-0.598,12.688-1.608,15.371,2.882c0.307-0.265,0.609-0.541,0.91-0.833
	c0.084-0.082,0.228-0.157,0.4-0.225l0.255-0.51c0,0-4.823-3.201-11.58-3.389c-0.995,0.048-1.94,0.119-2.779,0.185
	c-0.894,0.07-1.815,0.16-2.753,0.27c-7.261,1.217-14.888,4.268-14.888,4.268l-0.039-0.003c-0.396,0.22-0.783,0.45-1.16,0.691
	C126.75,335.993,127.494,336.201,128.242,336.412z M125.982,337.519c-0.531-0.146-1.064-0.289-1.597-0.429
	C124.304,337.481,125.18,337.609,125.982,337.519z M160.828,335.051c-0.037-0.081-0.088-0.147-0.127-0.225
	c-0.563,0.52-1.137,1.005-1.724,1.455C159.93,336.255,161.106,335.654,160.828,335.051z M158.845,334.507
	c0.38-0.252,0.945-0.393,1.447-0.404c-0.024-0.036-0.054-0.066-0.079-0.102c-0.437,0.045-0.91,0.146-1.256,0.281L158.845,334.507z
	 M158.51,334.833c0.076-0.124,0.193-0.232,0.335-0.327l0.112-0.224c-0.173,0.068-0.316,0.143-0.4,0.225
	c-0.301,0.293-0.604,0.569-0.91,0.833c0.091,0.153,0.191,0.296,0.27,0.462C158.115,335.475,158.314,335.151,158.51,334.833z
	 M127.045,337.193c0.377-0.284,0.787-0.531,1.197-0.781c-0.748-0.211-1.492-0.419-2.229-0.619c-0.446,0.285-0.884,0.579-1.3,0.893
	c-0.209,0.158-0.304,0.291-0.327,0.403c0.532,0.14,1.065,0.283,1.597,0.429C126.414,337.47,126.823,337.36,127.045,337.193z
	 M158.978,336.281c0.587-0.45,1.161-0.935,1.724-1.455c-0.128-0.25-0.257-0.499-0.409-0.723c-0.502,0.011-1.067,0.152-1.447,0.404
	l-0.761,1.522C158.289,336.218,158.615,336.292,158.978,336.281z M158.51,334.833c-0.195,0.317-0.395,0.642-0.594,0.97
	c0.004,0.009,0.01,0.016,0.014,0.024c0.037,0.08,0.092,0.144,0.154,0.202l0.761-1.522
	C158.703,334.602,158.586,334.71,158.51,334.833z M110.346,343.374c0.333,0,0.666,0,1,0c0.68,0,1.531-0.192,1.9-0.838
	c0.336-0.589-0.286-1.031-0.834-1.031c-0.333,0-0.666,0-1,0c-0.68,0-1.531,0.192-1.9,0.838
	C109.176,342.932,109.798,343.374,110.346,343.374z M124.743,347.973c1.636,0,2.24-2.066,0.271-2.066
	C123.379,345.906,122.774,347.973,124.743,347.973z M117.308,350.732c1.045,0,3.1-1.586,1.143-1.586
	C117.405,349.146,115.351,350.732,117.308,350.732z M123.76,357.534c1.681,0,2.202-2.189,0.238-2.189
	C122.317,355.345,121.796,357.534,123.76,357.534z M130.432,375.079c-1.135,0-3.066,1.722-1.105,1.722
	C130.461,376.8,132.393,375.079,130.432,375.079z M131.432,388.578c-1.136,0-3.066,1.724-1.105,1.724
	C131.462,390.301,133.393,388.578,131.432,388.578z M131.478,401.25c-0.91,0-3.142,1.38-1.197,1.38
	C131.19,402.629,133.422,401.25,131.478,401.25z M421.4,220.094c0.736-0.289,1.264-0.397,2.054-0.258
	c0.646,0.114,1.524-0.182,2.049-0.549c0.501-0.351,0.331-0.652-0.199-0.745c-1.692-0.298-3.373,0.126-4.946,0.742
	c-0.188,0.073-1.296,0.563-0.838,0.919C419.979,220.562,420.934,220.277,421.4,220.094z M436.767,218.886
	c-0.448,0.288-0.397,0.657,0.176,0.657c0.833,0,1.667,0,2.5,0c0.571,0,1.174-0.119,1.701-0.368c0.008-0.28,0.015-0.559,0.021-0.838
	c-0.782,0-1.566,0-2.349,0C438.116,218.336,437.361,218.503,436.767,218.886z M441.491,218.993c0.448-0.288,0.397-0.657-0.176-0.657
	c-0.05,0-0.101,0-0.151,0c-0.006,0.279-0.013,0.559-0.021,0.838C441.263,219.119,441.382,219.063,441.491,218.993z M391.643,220.023
	c0.188,6.903,1.547,16.625,7.955,20.7c0.498-0.721,0.953-1.478,1.359-2.276c-1.336-0.391-2.58-1.113-3.104-2.483
	c-0.537-1.409-0.179-3.094,0.658-4.319c1.869-2.739,5.293-3.804,8.01-2.195c0.463,0.223,0.816,0.489,1.047,0.69
	c3.484-4.681,4.425-11.168,4.166-16.84c-0.004-0.096,0.026-0.187,0.072-0.273c-0.277-0.496,1.606-1.342,2.281-1.192
	c11.33,2.516,22.589,2.374,33.668-1.087c0.006-0.003,0.013-0.006,0.018-0.009c-3.268-7.738-13.042-11.253-20.725-12.452
	c-7.247-1.131-17.387-1.666-23.135,3.879c0.295,0.609-1.897,1.452-2.559,1.094c-0.937-0.507-1.782-0.745-2.553-0.783
	c-0.797,0.217-1.701,0.506-2.691,0.878C392.279,206.379,391.541,216.29,391.643,220.023z M407.879,230.439
	c0,0,3.667-4.333,5.667-9.667c1.451-3.871,0.097-6.329-0.758-7.391c-0.169-0.037-0.339-0.067-0.509-0.105
	c-0.272-0.061-0.415-0.149-0.473-0.251c-0.046,0.087-0.076,0.177-0.072,0.273c0.259,5.672-0.682,12.159-4.166,16.84
	C407.769,230.313,407.879,230.439,407.879,230.439z M414.088,211.834c-0.675-0.15-2.559,0.696-2.281,1.192
	c0.43-0.805,2.795-1.183,2.826-0.503c0.008,0.165,0.01,0.333,0.016,0.499c2.789,0.28,7.893,0.781,14.897,1.418
	c8.077,0.734,15.062-2.121,18.21-3.693C436.677,214.208,425.418,214.35,414.088,211.834z M411.807,213.026
	c0.058,0.103,0.2,0.191,0.473,0.251c0.17,0.038,0.34,0.068,0.509,0.105c-0.323-0.401-0.576-0.609-0.576-0.609
	s0.846,0.089,2.437,0.249c-0.006-0.166-0.008-0.333-0.016-0.499C414.602,211.843,412.236,212.221,411.807,213.026z M403.914,202.165
	c5.748-5.544,15.888-5.01,23.135-3.879c7.683,1.199,17.457,4.714,20.725,12.452c1.129-0.564,1.772-0.965,1.772-0.965
	s-5.667-4.333-10.667-9s-24.333-4.667-30.667-2.333c-4.554,1.677-5.313,2.663-5.382,3.086c0.282,0.128,0.567,0.269,0.857,0.426
	C403.809,202.017,403.877,202.089,403.914,202.165z M403.914,202.165c-0.059,0.056-0.123,0.103-0.18,0.16
	c-0.777,0.779-2.912,0.54-2.74-0.341c-0.602,0.104-1.338,0.26-2.191,0.493c0.771,0.039,1.616,0.276,2.553,0.783
	C402.017,203.616,404.209,202.773,403.914,202.165z M391.643,220.023c-0.102-3.733,0.637-13.644,4.469-16.669
	c-0.078,0.029-0.153,0.056-0.232,0.086c-4.333,1.667-5.333,7-6,19.333c-0.542,10.023,6.401,16.744,9.021,18.91
	c0.242-0.311,0.472-0.634,0.697-0.959C393.189,236.648,391.83,226.926,391.643,220.023z M403.734,202.324
	c0.057-0.057,0.121-0.104,0.18-0.16c-0.037-0.075-0.105-0.148-0.227-0.213c-0.29-0.157-0.575-0.297-0.857-0.426
	c-0.026,0.166,0.049,0.248,0.049,0.248s-0.67,0-1.885,0.21C400.822,202.864,402.957,203.104,403.734,202.324z M398.512,231.644
	c-0.837,1.225-1.195,2.91-0.658,4.319c0.523,1.371,1.768,2.093,3.104,2.483c0.17-0.334,0.342-0.667,0.495-1.016
	c0.069-0.159,0.184-0.295,0.324-0.411l-2.897-1.58c0,0,1-4.667,4-6c1.511-0.671,2.767-0.413,3.643,0.009
	C403.805,227.84,400.381,228.905,398.512,231.644z M399.598,240.723c0.295,0.188,0.591,0.376,0.909,0.54l1.385-2.597
	c-0.312-0.059-0.625-0.128-0.935-0.219C400.551,239.245,400.096,240.002,399.598,240.723z M399.879,242.439l0.041-0.078
	c-0.031,0.014-0.061,0.028-0.093,0.041C399.857,242.425,399.879,242.439,399.879,242.439z M398.9,241.683
	c0.479,0.396,0.809,0.636,0.927,0.72c0.032-0.013,0.062-0.027,0.093-0.041l0.587-1.099c-0.318-0.163-0.614-0.352-0.909-0.54
	C399.372,241.049,399.143,241.372,398.9,241.683z M401.776,237.02c-0.141,0.116-0.255,0.252-0.324,0.411
	c-0.153,0.349-0.325,0.682-0.495,1.016c0.31,0.091,0.623,0.161,0.935,0.219l0.654-1.227L401.776,237.02z" fill="#0984E3"></path>
</svg>